M48
; DRILL file {KiCad 5.1.8-db9833491~88~ubuntu20.04.1} date Sun Jan 17 16:38:19 2021
; FORMAT={-:-/ absolute / metric / decimal}
; #@! TF.CreationDate,2021-01-17T16:38:19+01:00
; #@! TF.GenerationSoftware,Kicad,Pcbnew,5.1.8-db9833491~88~ubuntu20.04.1
FMAT,2
METRIC
T1C0.300
T2C0.600
T3C1.000
T4C0.500
T5C0.650
%
G90
G05
T1
X0.635Y45.72
X0.635Y44.133
X0.635Y37.719
X0.635Y36.512
X0.635Y34.798
X0.635Y5.588
X0.635Y0.635
X0.762Y9.017
X1.595Y21.93
X1.841Y24.765
X3.048Y45.72
X3.048Y5.778
X3.048Y4.572
X3.492Y32.575
X3.492Y22.479
X3.492Y19.748
X3.556Y27.622
X3.683Y26.797
X3.81Y31.75
X3.858Y29.155
X3.937Y38.227
X4.064Y15.176
X4.318Y41.656
X4.381Y11.62
X4.445Y35.433
X4.508Y6.604
X4.763Y22.352
X4.889Y16.51
X4.928Y8.585
X5.08Y39.497
X5.334Y43.053
X5.461Y22.352
X5.715Y36.195
X5.715Y35.433
X5.715Y26.67
X5.715Y6.604
X5.721Y27.577
X5.778Y34.163
X5.778Y10.414
X5.969Y15.367
X6.027Y32.096
X6.032Y39.306
X6.096Y32.893
X6.096Y30.734
X6.096Y29.845
X6.449Y18.161
X6.985Y6.604
X7.07Y24.364
X7.112Y45.72
X7.112Y22.733
X7.326Y25.885
X7.381Y33.226
X7.556Y14.478
X7.747Y17.462
X7.747Y16.319
X7.81Y9.715
X7.938Y23.431
X8.001Y41.91
X8.128Y13.462
X8.128Y11.43
X8.255Y6.604
X8.382Y22.733
X8.56Y33.782
X8.636Y31.369
X8.636Y28.321
X8.89Y41.91
X9.144Y45.72
X9.779Y42.037
X10.16Y33.782
X10.16Y29.845
X10.223Y17.462
X10.223Y16.319
X10.223Y11.367
X10.223Y9.906
X10.477Y25.59
X10.604Y42.037
X10.922Y7.683
X10.986Y21.717
X11.176Y45.72
X11.43Y41.91
X11.43Y20.955
X11.536Y33.932
X11.684Y31.369
X11.684Y28.321
X11.938Y21.717
X12.319Y41.91
X12.319Y38.925
X12.319Y37.782
X12.319Y25.336
X12.319Y16.7
X12.383Y11.493
X12.573Y20.955
X12.636Y14.478
X12.763Y22.924
X13.018Y15.303
X13.208Y45.72
X13.224Y16.7
X13.335Y38.291
X13.779Y25.908
X13.843Y32.703
X13.97Y18.669
X14.48Y38.864
X14.541Y13.589
X14.605Y22.987
X14.605Y18.034
X14.605Y9.97
X14.732Y29.972
X14.732Y28.575
X14.986Y31.326
X15.456Y42.672
X15.545Y6.985
X15.748Y30.29
X15.748Y36.195
X15.781Y31.238
X15.875Y34.798
X15.875Y33.084
X15.938Y16.67
X16.129Y37.211
X16.256Y42.672
X16.256Y12.065
X16.319Y15.303
X16.447Y35.433
X16.573Y22.606
X16.891Y27.305
X17.018Y24.765
X17.145Y29.845
X17.272Y45.72
X17.272Y9.461
X18.351Y24.765
X18.479Y27.305
X18.732Y34.861
X18.767Y30.136
X19.241Y14.605
X19.241Y12.065
X19.241Y9.461
X19.685Y45.72
X19.685Y43.688
X19.685Y41.402
X19.685Y38.862
X19.685Y36.703
X19.685Y33.909
X19.685Y32.944
X19.685Y5.588
X19.685Y0.635
T3
X2.54Y43.815
X2.54Y41.275
X2.54Y38.735
X2.54Y36.195
X2.54Y33.655
X2.54Y31.115
X2.54Y28.575
X2.54Y26.035
X2.54Y23.495
X2.54Y20.955
X2.54Y18.415
X2.54Y15.875
X2.54Y13.335
X2.54Y10.795
X17.78Y43.815
X17.78Y41.275
X17.78Y38.735
X17.78Y36.195
X17.78Y33.655
X17.78Y31.115
X17.78Y28.575
X17.78Y26.035
X17.78Y23.495
X17.78Y20.955
X17.78Y18.415
X17.78Y15.875
X17.78Y13.335
X17.78Y10.795
X5.08Y5.08
X5.08Y2.54
X7.62Y5.08
X7.62Y2.54
X10.16Y5.08
X10.16Y2.54
X12.7Y5.08
X12.7Y2.54
X15.24Y5.08
X15.24Y2.54
T4
X13.179Y8.255
X11.679Y8.255
X16.179Y8.255
X4.179Y8.255
X8.679Y8.255
X14.679Y8.255
X7.179Y8.255
X5.679Y8.255
X10.179Y8.255
T5
X7.27Y41.477
X13.05Y41.477
T2
G00X5.84Y44.727
M15
G01X5.84Y45.527
M16
G05
G00X5.84Y40.427
M15
G01X5.84Y41.527
M16
G05
G00X14.48Y44.727
M15
G01X14.48Y45.527
M16
G05
G00X14.48Y40.427
M15
G01X14.48Y41.527
M16
G05
T0
M30
