%TF.GenerationSoftware,KiCad,Pcbnew,6.0.2-378541a8eb~116~ubuntu21.10.1*%
%TF.CreationDate,2022-02-16T23:17:43+01:00*%
%TF.ProjectId,GreenFox,47726565-6e46-46f7-982e-6b696361645f,Rev1*%
%TF.SameCoordinates,PX6d01460PY68c4118*%
%TF.FileFunction,Copper,L2,Bot*%
%TF.FilePolarity,Positive*%
%FSLAX46Y46*%
G04 Gerber Fmt 4.6, Leading zero omitted, Abs format (unit mm)*
G04 Created by KiCad (PCBNEW 6.0.2-378541a8eb~116~ubuntu21.10.1) date 2022-02-16 23:17:43*
%MOMM*%
%LPD*%
G01*
G04 APERTURE LIST*
G04 Aperture macros list*
%AMRoundRect*
0 Rectangle with rounded corners*
0 $1 Rounding radius*
0 $2 $3 $4 $5 $6 $7 $8 $9 X,Y pos of 4 corners*
0 Add a 4 corners polygon primitive as box body*
4,1,4,$2,$3,$4,$5,$6,$7,$8,$9,$2,$3,0*
0 Add four circle primitives for the rounded corners*
1,1,$1+$1,$2,$3*
1,1,$1+$1,$4,$5*
1,1,$1+$1,$6,$7*
1,1,$1+$1,$8,$9*
0 Add four rect primitives between the rounded corners*
20,1,$1+$1,$2,$3,$4,$5,0*
20,1,$1+$1,$4,$5,$6,$7,0*
20,1,$1+$1,$6,$7,$8,$9,0*
20,1,$1+$1,$8,$9,$2,$3,0*%
G04 Aperture macros list end*
%TA.AperFunction,ComponentPad*%
%ADD10C,1.800000*%
%TD*%
%TA.AperFunction,ComponentPad*%
%ADD11C,2.000000*%
%TD*%
%TA.AperFunction,ComponentPad*%
%ADD12O,1.700000X1.700000*%
%TD*%
%TA.AperFunction,ComponentPad*%
%ADD13R,1.700000X1.700000*%
%TD*%
%TA.AperFunction,ComponentPad*%
%ADD14C,1.700000*%
%TD*%
%TA.AperFunction,ComponentPad*%
%ADD15RoundRect,0.250000X0.600000X-0.600000X0.600000X0.600000X-0.600000X0.600000X-0.600000X-0.600000X0*%
%TD*%
%TA.AperFunction,ViaPad*%
%ADD16C,0.600000*%
%TD*%
%TA.AperFunction,Conductor*%
%ADD17C,0.200000*%
%TD*%
%TA.AperFunction,Conductor*%
%ADD18C,0.400000*%
%TD*%
%TA.AperFunction,Conductor*%
%ADD19C,0.300000*%
%TD*%
G04 APERTURE END LIST*
D10*
%TO.P,J1,S1,SHIELD*%
%TO.N,GND*%
X5840000Y45126600D03*
X14480000Y45126600D03*
D11*
X14860000Y40976600D03*
X5460000Y40976600D03*
%TD*%
D12*
%TO.P,J5,14,Pin_14*%
%TO.N,/RB2\u005CAN4*%
X17780000Y10795000D03*
%TO.P,J5,13,Pin_13*%
%TO.N,/TDI*%
X17780000Y13335000D03*
%TO.P,J5,12,Pin_12*%
%TO.N,GND*%
X17780000Y15875000D03*
%TO.P,J5,11,Pin_11*%
%TO.N,/RC0\u005CAN12*%
X17780000Y18415000D03*
%TO.P,J5,10,Pin_10*%
%TO.N,/RC1\u005CAN13*%
X17780000Y20955000D03*
%TO.P,J5,9,Pin_9*%
%TO.N,/RC2*%
X17780000Y23495000D03*
%TO.P,J5,8,Pin_8*%
%TO.N,/LED_USER*%
X17780000Y26035000D03*
%TO.P,J5,7,Pin_7*%
%TO.N,/RB7*%
X17780000Y28575000D03*
%TO.P,J5,6,Pin_6*%
%TO.N,/TCK*%
X17780000Y31115000D03*
%TO.P,J5,5,Pin_5*%
%TO.N,/TMS*%
X17780000Y33655000D03*
%TO.P,J5,4,Pin_4*%
%TO.N,/RC8\u005CAN14*%
X17780000Y36195000D03*
%TO.P,J5,3,Pin_3*%
%TO.N,/RB10*%
X17780000Y38735000D03*
%TO.P,J5,2,Pin_2*%
%TO.N,/RB11*%
X17780000Y41275000D03*
D13*
%TO.P,J5,1,Pin_1*%
%TO.N,+5V*%
X17780000Y43815000D03*
%TD*%
D12*
%TO.P,J3,14,Pin_14*%
%TO.N,/~{RESET}*%
X2540000Y10795000D03*
%TO.P,J3,13,Pin_13*%
%TO.N,+3V3*%
X2540000Y13335000D03*
%TO.P,J3,12,Pin_12*%
%TO.N,GND*%
X2540000Y15875000D03*
%TO.P,J3,11,Pin_11*%
%TO.N,/PGED3*%
X2540000Y18415000D03*
%TO.P,J3,10,Pin_10*%
%TO.N,/TDO\u005CPGEC3*%
X2540000Y20955000D03*
%TO.P,J3,9,Pin_9*%
%TO.N,/RB1\u005CAN3*%
X2540000Y23495000D03*
%TO.P,J3,8,Pin_8*%
%TO.N,/RB0\u005CAN2*%
X2540000Y26035000D03*
%TO.P,J3,7,Pin_7*%
%TO.N,/RA1\u005CAN1*%
X2540000Y28575000D03*
%TO.P,J3,6,Pin_6*%
%TO.N,/RA0\u005CAN0*%
X2540000Y31115000D03*
%TO.P,J3,5,Pin_5*%
%TO.N,/UART1_RX*%
X2540000Y33655000D03*
%TO.P,J3,4,Pin_4*%
%TO.N,/UART1_TX*%
X2540000Y36195000D03*
%TO.P,J3,3,Pin_3*%
%TO.N,/RB13\u005CAN8*%
X2540000Y38735000D03*
%TO.P,J3,2,Pin_2*%
%TO.N,GND*%
X2540000Y41275000D03*
D13*
%TO.P,J3,1,Pin_1*%
%TO.N,+3V3*%
X2540000Y43815000D03*
%TD*%
D14*
%TO.P,J2,10,Pin_10*%
%TO.N,/TDI*%
X15240000Y5080000D03*
%TO.P,J2,8,Pin_8*%
%TO.N,/TDO\u005CPGEC3*%
X12700000Y5080000D03*
%TO.P,J2,6,Pin_6*%
%TO.N,GND*%
X10160000Y5080000D03*
%TO.P,J2,4,Pin_4*%
%TO.N,/UART1_RX*%
X7620000Y5080000D03*
%TO.P,J2,2,Pin_2*%
%TO.N,/UART1_TX*%
X5080000Y5080000D03*
%TO.P,J2,9,Pin_9*%
%TO.N,/TCK*%
X15240000Y2540000D03*
%TO.P,J2,7,Pin_7*%
%TO.N,/TMS*%
X12700000Y2540000D03*
%TO.P,J2,5,Pin_5*%
%TO.N,GND*%
X10160000Y2540000D03*
%TO.P,J2,3,Pin_3*%
%TO.N,+3V3*%
X7620000Y2540000D03*
D15*
%TO.P,J2,1,Pin_1*%
%TO.N,/~{RESET}*%
X5080000Y2540000D03*
%TD*%
D16*
%TO.N,Net-(J1-PadA5)*%
X15900000Y39305000D03*
X11410000Y41909499D03*
%TO.N,Net-(J1-PadB5)*%
X16850000Y42455000D03*
%TO.N,+5V*%
X4200000Y43305000D03*
%TO.N,GND*%
X3937000Y38227000D03*
X5080000Y39497000D03*
X11684000Y31369000D03*
X10477500Y25590500D03*
X14732000Y28575000D03*
X10160000Y29845000D03*
X10985500Y21717000D03*
X11938000Y21717000D03*
X11430000Y20955000D03*
X10604500Y42037000D03*
X19685000Y45720000D03*
X762000Y9017000D03*
X635000Y45720000D03*
X13970000Y18669000D03*
X14605000Y18034000D03*
X12573000Y20955000D03*
X16573500Y22606000D03*
X6032500Y39306500D03*
X15875000Y34798000D03*
X5715000Y35433000D03*
X4762500Y22352000D03*
X1841500Y24765000D03*
X13843000Y32702500D03*
X4381500Y11620500D03*
X4889500Y16510000D03*
X16319500Y15303500D03*
X13017500Y15303500D03*
X3810000Y31750000D03*
X3492500Y32575500D03*
X4445000Y35433000D03*
X5715000Y36195000D03*
X3683000Y26797000D03*
X12900000Y38055000D03*
X12450000Y38955000D03*
X15875000Y33083500D03*
X15748000Y36195000D03*
X18732500Y34861500D03*
X19685000Y32943800D03*
X635000Y37719000D03*
X635000Y36512500D03*
X4927600Y8585200D03*
X4508500Y6604000D03*
X3048000Y5778500D03*
X3048000Y4572000D03*
X5715000Y6604000D03*
X5778500Y10414000D03*
X10223500Y17462500D03*
X7747000Y17462500D03*
X7747000Y16319500D03*
X10223500Y16319500D03*
X13779500Y25908000D03*
X14605000Y22987000D03*
X16891000Y27305000D03*
X17018000Y24765000D03*
X17272000Y45720000D03*
X13208000Y45720000D03*
X11176000Y45720000D03*
X9144000Y45720000D03*
X7112000Y45720000D03*
X3048000Y45720000D03*
X19685000Y635000D03*
X19685000Y5588000D03*
X635000Y635000D03*
X635000Y5588000D03*
X17272000Y9461500D03*
X15544800Y6985000D03*
X16256000Y12065000D03*
X14541500Y13589000D03*
X12382500Y11493500D03*
X10223500Y11366500D03*
X10223500Y9906000D03*
X10922000Y7683500D03*
X8128000Y11430000D03*
X4064000Y15176500D03*
X8128000Y13462000D03*
X12319000Y16700500D03*
X18478500Y27305000D03*
X18351500Y24765000D03*
X19240500Y9461500D03*
X19240500Y12065000D03*
X19240500Y14605000D03*
X5461000Y22352000D03*
X8636000Y31369000D03*
X8636000Y28321000D03*
X11684000Y28321000D03*
X5778500Y34163000D03*
X9779000Y42037000D03*
X12319000Y25336500D03*
X12763500Y22923500D03*
X1595120Y21930360D03*
X3492500Y19748500D03*
X19685000Y33909000D03*
X19685000Y36703000D03*
X19685000Y38862000D03*
X19685000Y41402000D03*
X19685000Y43688000D03*
X635000Y34798000D03*
X635000Y44132500D03*
X6985000Y6604000D03*
X8255000Y6604000D03*
X7810500Y9715500D03*
X14605000Y9969500D03*
%TO.N,+5V*%
X14986000Y31326010D03*
X16446500Y35433000D03*
%TO.N,+3V3*%
X8559989Y33782000D03*
X6096000Y30734000D03*
X10160000Y33782000D03*
X3858180Y29155269D03*
X5969000Y15367000D03*
X15747996Y30289500D03*
X3492500Y22479000D03*
%TO.N,Net-(D1-Pad2)*%
X8001000Y41910000D03*
X12319000Y41910000D03*
X5334000Y43053000D03*
%TO.N,Net-(J1-PadB5)*%
X8890000Y41910000D03*
%TO.N,/TDI*%
X7070057Y24364105D03*
%TO.N,/UART1_RX*%
X6027294Y32095944D03*
%TO.N,/UART1_TX*%
X6096000Y32893000D03*
%TO.N,/~{RESET}*%
X6096000Y29845000D03*
X3556000Y27622500D03*
%TO.N,/RB2\u005CAN4*%
X7325636Y25884864D03*
%TO.N,/PGED3*%
X15781183Y31238342D03*
X12636500Y14478000D03*
X7556500Y14478000D03*
X18767490Y30136037D03*
%TO.N,/LED_USER*%
X13223990Y16700500D03*
X15938500Y16669966D03*
X6448500Y18161000D03*
%TO.N,/RC2*%
X8382000Y22733000D03*
%TO.N,/RC1\u005CAN13*%
X7937500Y23431496D03*
%TO.N,/RC0\u005CAN12*%
X7112000Y22733002D03*
%TO.N,/TDO\u005CPGEC3*%
X11535539Y33931750D03*
%TO.N,/RB1\u005CAN3*%
X5715000Y26670000D03*
%TO.N,/RB0\u005CAN2*%
X5721305Y27576620D03*
%TO.N,/RB13\u005CAN8*%
X7381120Y33225620D03*
%TO.N,/BTN_USER*%
X14732000Y29972000D03*
X17145000Y29845002D03*
%TD*%
D17*
%TO.N,/UART1_TX*%
X5080000Y5080000D02*
X3844999Y6315001D01*
X3579479Y8612521D02*
X2984500Y9207500D01*
X1459502Y9207500D02*
X400010Y10266992D01*
X3844999Y6315001D02*
X3844999Y7648501D01*
X3844999Y7648501D02*
X3579479Y7914021D01*
X3579479Y7914021D02*
X3579479Y8612521D01*
X2540000Y35560000D02*
X2540000Y36195000D01*
X2984500Y9207500D02*
X1459502Y9207500D01*
X400010Y10266992D02*
X400010Y33420010D01*
X400010Y33420010D02*
X2540000Y35560000D01*
%TO.N,Net-(J1-PadA5)*%
X15900000Y39305000D02*
X16350000Y39755000D01*
X16350000Y39755000D02*
X16350000Y42107162D01*
X16350000Y42107162D02*
X15946671Y42510491D01*
X15946671Y42510491D02*
X12010992Y42510491D01*
X12010992Y42510491D02*
X11410000Y41909499D01*
%TO.N,Net-(J1-PadB5)*%
X16394989Y42910011D02*
X16850000Y42455000D01*
X15217986Y42910011D02*
X16394989Y42910011D01*
D18*
%TO.N,+5V*%
X4710000Y43815000D02*
X4200000Y43305000D01*
X4826000Y43815000D02*
X4710000Y43815000D01*
D17*
X16573500Y35306000D02*
X16446500Y35433000D01*
X16573500Y32913510D02*
X16573500Y35306000D01*
X14986000Y31326010D02*
X16573500Y32913510D01*
D18*
X7175500Y43815000D02*
X4826000Y43815000D01*
X16295521Y43410021D02*
X7580479Y43410021D01*
X7580479Y43410021D02*
X7175500Y43815000D01*
X16700500Y43815000D02*
X16295521Y43410021D01*
X17780000Y43815000D02*
X16700500Y43815000D01*
D17*
%TO.N,+3V3*%
X8559989Y33782000D02*
X10160000Y33782000D01*
X5436911Y30734000D02*
X6096000Y30734000D01*
X3858180Y29155269D02*
X5436911Y30734000D01*
X3937000Y13335000D02*
X2540000Y13335000D01*
X5969000Y15367000D02*
X3937000Y13335000D01*
D19*
X15415495Y30622001D02*
X15747996Y30289500D01*
X14224000Y31126008D02*
X14728007Y30622001D01*
X14224000Y31750000D02*
X14224000Y31126008D01*
X14922500Y32448500D02*
X14224000Y31750000D01*
X14728007Y30622001D02*
X15415495Y30622001D01*
X12954000Y35179000D02*
X14922500Y33210500D01*
X10795000Y35179000D02*
X12954000Y35179000D01*
X10160000Y34544000D02*
X10795000Y35179000D01*
X14922500Y33210500D02*
X14922500Y32448500D01*
X10160000Y33782000D02*
X10160000Y34544000D01*
D17*
X3302000Y22288500D02*
X3492500Y22479000D01*
X2095500Y22288500D02*
X3302000Y22288500D01*
X1200030Y28937032D02*
X1200030Y23183970D01*
X1987999Y29725001D02*
X1200030Y28937032D01*
X3288448Y29725001D02*
X1987999Y29725001D01*
X1200030Y23183970D02*
X2095500Y22288500D01*
X3858180Y29155269D02*
X3288448Y29725001D01*
D18*
%TO.N,Net-(D1-Pad2)*%
X12319000Y41529000D02*
X12319000Y41910000D01*
X11999999Y41209999D02*
X12319000Y41529000D01*
X8276737Y41209999D02*
X11999999Y41209999D01*
X8001000Y41485736D02*
X8276737Y41209999D01*
X8001000Y41910000D02*
X8001000Y41485736D01*
X6858000Y43053000D02*
X8001000Y41910000D01*
X5334000Y43053000D02*
X6858000Y43053000D01*
D17*
%TO.N,Net-(J1-PadB5)*%
X9318511Y42910011D02*
X15217986Y42910011D01*
X8890000Y42481500D02*
X9318511Y42910011D01*
X8890000Y41910000D02*
X8890000Y42481500D01*
%TO.N,/TDI*%
X14224000Y14859000D02*
X14224000Y17272000D01*
X7884933Y18992970D02*
X6511999Y20365904D01*
X15748000Y13335000D02*
X14224000Y14859000D01*
X6511999Y23806047D02*
X7070057Y24364105D01*
X12503030Y18992970D02*
X7884933Y18992970D01*
X17780000Y13335000D02*
X15748000Y13335000D01*
X6511999Y20365904D02*
X6511999Y23806047D01*
X14224000Y17272000D02*
X12503030Y18992970D01*
%TO.N,/UART1_RX*%
X2540000Y33655000D02*
X4468238Y33655000D01*
X4468238Y33655000D02*
X6027294Y32095944D01*
X7620000Y6794500D02*
X7620000Y5080000D01*
X7620000Y6854498D02*
X7620000Y6794500D01*
X6605199Y9644999D02*
X7296698Y8953500D01*
X1587701Y9644999D02*
X6605199Y9644999D01*
X7874000Y7108498D02*
X7620000Y6854498D01*
X7874000Y8572500D02*
X7874000Y7108498D01*
X7493000Y8953500D02*
X7874000Y8572500D01*
X7296698Y8953500D02*
X7493000Y8953500D01*
X800020Y10432680D02*
X1587701Y9644999D01*
X800020Y32867520D02*
X800020Y10432680D01*
X1587500Y33655000D02*
X800020Y32867520D01*
X2540000Y33655000D02*
X1587500Y33655000D01*
%TO.N,/UART1_TX*%
X5842000Y32893000D02*
X6096000Y32893000D01*
X4635500Y34099500D02*
X5842000Y32893000D01*
X4274736Y34099500D02*
X4635500Y34099500D01*
X2540000Y35834236D02*
X4274736Y34099500D01*
X2540000Y36195000D02*
X2540000Y35834236D01*
%TO.N,/TMS*%
X19367500Y32067500D02*
X17780000Y33655000D01*
X19367500Y17734799D02*
X19367500Y32067500D01*
X18930001Y17297300D02*
X19367500Y17734799D01*
X18930001Y15322999D02*
X18930001Y17297300D01*
X18542000Y14934998D02*
X18930001Y15322999D01*
X18542000Y14287500D02*
X18542000Y14934998D01*
X18542000Y12382500D02*
X18930001Y12770501D01*
X18859500Y10172498D02*
X18930001Y10242999D01*
X18859500Y10160000D02*
X18859500Y10172498D01*
X17621250Y8921750D02*
X18859500Y10160000D01*
X12700000Y2540000D02*
X12700000Y1968500D01*
X15875000Y952500D02*
X16993986Y2071486D01*
X16729001Y8455501D02*
X17134999Y8861499D01*
X17620252Y8921750D02*
X17621250Y8921750D01*
X13716000Y952500D02*
X15875000Y952500D01*
X12700000Y1968500D02*
X13716000Y952500D01*
X18930001Y13899499D02*
X18542000Y14287500D01*
X16993986Y2071486D02*
X16993986Y5586614D01*
X18930001Y11359499D02*
X18542000Y11747500D01*
X17134999Y8861499D02*
X17560001Y8861499D01*
X18930001Y10242999D02*
X18930001Y11359499D01*
X16993986Y5586614D02*
X16357600Y6223000D01*
X18542000Y11747500D02*
X18542000Y12382500D01*
X17560001Y8861499D02*
X17620252Y8921750D01*
X16357600Y6223000D02*
X16357600Y7556098D01*
X16357600Y7556098D02*
X16729001Y7927499D01*
X18930001Y12770501D02*
X18930001Y13899499D01*
X16729001Y7927499D02*
X16729001Y8455501D01*
%TO.N,/~{RESET}*%
X6096000Y29845000D02*
X3873500Y27622500D01*
X3873500Y27622500D02*
X3556000Y27622500D01*
%TO.N,/RB2\u005CAN4*%
X6111989Y24671217D02*
X7325636Y25884864D01*
X12388302Y18542000D02*
X7770204Y18542000D01*
X13823990Y17106312D02*
X12388302Y18542000D01*
X6111989Y20200215D02*
X6111989Y24671217D01*
X13823990Y13163510D02*
X13823990Y17106312D01*
X7770204Y18542000D02*
X6111989Y20200215D01*
X16192500Y10795000D02*
X13823990Y13163510D01*
X17780000Y10795000D02*
X16192500Y10795000D01*
%TO.N,/PGED3*%
X12636500Y14478000D02*
X8064500Y14478000D01*
X8064500Y14478000D02*
X7556500Y14478000D01*
X16927841Y32385000D02*
X18212002Y32385000D01*
X15781183Y31238342D02*
X16927841Y32385000D01*
X18967489Y30336036D02*
X18767490Y30136037D01*
X18212002Y32385000D02*
X18967489Y31629513D01*
X18967489Y31629513D02*
X18967489Y30336036D01*
%TO.N,/LED_USER*%
X13223990Y16700500D02*
X13223990Y17140614D01*
X13223990Y17140614D02*
X12222614Y18141990D01*
X12222614Y18141990D02*
X7604515Y18141990D01*
X6467510Y18141990D02*
X6448500Y18161000D01*
X7604515Y18141990D02*
X6467510Y18141990D01*
X16293535Y17025001D02*
X15938500Y16669966D01*
X18092003Y17025001D02*
X16293535Y17025001D01*
X18967489Y17900487D02*
X18092003Y17025001D01*
X18967489Y25100513D02*
X18967489Y17900487D01*
X18033002Y26035000D02*
X18967489Y25100513D01*
X17780000Y26035000D02*
X18033002Y26035000D01*
%TO.N,/RC2*%
X17780000Y22733000D02*
X17780000Y23495000D01*
X16002000Y20193000D02*
X16402010Y20593010D01*
X16402010Y20593010D02*
X16402010Y21355010D01*
X8763000Y20193000D02*
X16002000Y20193000D01*
X16402010Y21355010D02*
X17780000Y22733000D01*
X8382000Y20574000D02*
X8763000Y20193000D01*
X8382000Y22606000D02*
X8382000Y20574000D01*
%TO.N,/RC1\u005CAN13*%
X8216311Y19792990D02*
X7716991Y20292310D01*
X16617990Y19792990D02*
X8216311Y19792990D01*
X7716991Y23210987D02*
X7937500Y23431496D01*
X7716991Y20292310D02*
X7716991Y23210987D01*
X17780000Y20955000D02*
X16617990Y19792990D01*
%TO.N,/RC0\u005CAN12*%
X17780000Y18415000D02*
X16802020Y19392980D01*
X16802020Y19392980D02*
X8050622Y19392980D01*
X8050622Y19392980D02*
X7112000Y20331602D01*
X7112000Y20331602D02*
X7112000Y22733002D01*
%TO.N,/TDO\u005CPGEC3*%
X10858500Y32067500D02*
X11535539Y32744539D01*
X2540000Y20955000D02*
X2540000Y21082000D01*
X5553697Y25942999D02*
X5876999Y25942999D01*
X5876999Y25942999D02*
X6159500Y26225500D01*
X10858500Y29591000D02*
X10858500Y32067500D01*
X10414000Y29146500D02*
X10858500Y29591000D01*
X2540000Y21082000D02*
X3336999Y21878999D01*
X11535539Y32744539D02*
X11535539Y33931750D01*
X3336999Y21878999D02*
X3787997Y21878999D01*
X6159500Y26225500D02*
X6159500Y26226498D01*
X4098999Y22190001D02*
X4098999Y24488301D01*
X6159500Y26226498D02*
X6350000Y26416998D01*
X4098999Y24488301D02*
X5553697Y25942999D01*
X6350000Y26416998D02*
X6350000Y27559000D01*
X3787997Y21878999D02*
X4098999Y22190001D01*
X6350000Y27559000D02*
X7937500Y29146500D01*
X7937500Y29146500D02*
X10414000Y29146500D01*
%TO.N,/RB1\u005CAN3*%
X2540000Y23495000D02*
X5715000Y26670000D01*
%TO.N,/RB0\u005CAN2*%
X3937000Y26035000D02*
X2540000Y26035000D01*
X5478620Y27576620D02*
X3937000Y26035000D01*
X5721305Y27576620D02*
X5478620Y27576620D01*
%TO.N,/RB13\u005CAN8*%
X5080000Y36195000D02*
X2540000Y38735000D01*
X5080000Y34988500D02*
X5080000Y36195000D01*
X5270500Y34798000D02*
X5080000Y34988500D01*
X6233004Y34798000D02*
X5270500Y34798000D01*
X7381120Y33649884D02*
X6233004Y34798000D01*
X7381120Y33225620D02*
X7381120Y33649884D01*
%TO.N,/BTN_USER*%
X16954498Y29654500D02*
X17145000Y29845002D01*
X15049500Y29654500D02*
X16954498Y29654500D01*
X14732000Y29972000D02*
X15049500Y29654500D01*
%TD*%
%TA.AperFunction,Conductor*%
%TO.N,GND*%
G36*
X5068098Y46136093D02*
G01*
X5104062Y46086593D01*
X5106852Y46073030D01*
X5109271Y46069461D01*
X5828914Y45349818D01*
X5840797Y45343764D01*
X5845828Y45344560D01*
X6567924Y46066656D01*
X6585394Y46100944D01*
X6628658Y46144209D01*
X6673604Y46155000D01*
X13649907Y46155000D01*
X13708098Y46136093D01*
X13744062Y46086593D01*
X13746852Y46073030D01*
X13749271Y46069461D01*
X14468914Y45349818D01*
X14480797Y45343764D01*
X14485828Y45344560D01*
X15207924Y46066656D01*
X15225394Y46100944D01*
X15268658Y46144209D01*
X15313604Y46155000D01*
X20021000Y46155000D01*
X20079191Y46136093D01*
X20115155Y46086593D01*
X20120000Y46056000D01*
X20120000Y299000D01*
X20101093Y240809D01*
X20051593Y204845D01*
X20021000Y200000D01*
X299000Y200000D01*
X240809Y218907D01*
X204845Y268407D01*
X200000Y299000D01*
X200000Y1886166D01*
X4029500Y1886166D01*
X4029718Y1883865D01*
X4029718Y1883855D01*
X4030504Y1875544D01*
X4032481Y1854631D01*
X4077366Y1726816D01*
X4157850Y1617850D01*
X4163807Y1613450D01*
X4220997Y1571209D01*
X4266816Y1537366D01*
X4394631Y1492481D01*
X4400638Y1491913D01*
X4400639Y1491913D01*
X4423855Y1489718D01*
X4423865Y1489718D01*
X4426166Y1489500D01*
X5733834Y1489500D01*
X5736135Y1489718D01*
X5736145Y1489718D01*
X5759361Y1491913D01*
X5759362Y1491913D01*
X5765369Y1492481D01*
X5893184Y1537366D01*
X5939004Y1571209D01*
X5996193Y1613450D01*
X6002150Y1617850D01*
X6082634Y1726816D01*
X6127519Y1854631D01*
X6129496Y1875544D01*
X6130282Y1883855D01*
X6130282Y1883865D01*
X6130500Y1886166D01*
X6130500Y2554738D01*
X6564520Y2554738D01*
X6581759Y2349447D01*
X6583092Y2344799D01*
X6583092Y2344798D01*
X6630699Y2178774D01*
X6638544Y2151414D01*
X6732712Y1968182D01*
X6860677Y1806730D01*
X6864357Y1803598D01*
X6864359Y1803596D01*
X6908059Y1766405D01*
X7017564Y1673209D01*
X7021787Y1670849D01*
X7021791Y1670846D01*
X7103695Y1625072D01*
X7197398Y1572703D01*
X7201996Y1571209D01*
X7388724Y1510537D01*
X7388726Y1510536D01*
X7393329Y1509041D01*
X7597894Y1484649D01*
X7602716Y1485020D01*
X7602719Y1485020D01*
X7673090Y1490435D01*
X7803300Y1500454D01*
X8001725Y1555855D01*
X8006038Y1558034D01*
X8006044Y1558036D01*
X8138752Y1625072D01*
X9463033Y1625072D01*
X9463040Y1625027D01*
X9468563Y1618812D01*
X9605138Y1527554D01*
X9613093Y1523236D01*
X9798929Y1443394D01*
X9807540Y1440596D01*
X10004826Y1395956D01*
X10013785Y1394776D01*
X10215911Y1386834D01*
X10224938Y1387308D01*
X10425115Y1416332D01*
X10433914Y1418444D01*
X10625450Y1483462D01*
X10633714Y1487142D01*
X10810194Y1585974D01*
X10817652Y1591100D01*
X10848787Y1616995D01*
X10855907Y1628279D01*
X10855721Y1631109D01*
X10853719Y1634149D01*
X10171086Y2316782D01*
X10159203Y2322836D01*
X10154172Y2322040D01*
X9469087Y1636955D01*
X9463033Y1625072D01*
X8138752Y1625072D01*
X8181289Y1646559D01*
X8181291Y1646560D01*
X8185610Y1648742D01*
X8258863Y1705973D01*
X8344135Y1772594D01*
X8344139Y1772598D01*
X8347951Y1775576D01*
X8357077Y1786148D01*
X8443409Y1886166D01*
X8482564Y1931528D01*
X8487430Y1940093D01*
X8581934Y2106450D01*
X8581935Y2106453D01*
X8584323Y2110656D01*
X8597882Y2151414D01*
X8647824Y2301546D01*
X8647824Y2301548D01*
X8649351Y2306137D01*
X8675171Y2510526D01*
X8675583Y2540000D01*
X8673063Y2565704D01*
X9005766Y2565704D01*
X9018995Y2363856D01*
X9020408Y2354935D01*
X9070200Y2158879D01*
X9073220Y2150351D01*
X9157903Y1966661D01*
X9162424Y1958830D01*
X9237961Y1851948D01*
X9248648Y1843968D01*
X9249397Y1843958D01*
X9255528Y1847660D01*
X9936782Y2528914D01*
X9942024Y2539203D01*
X10377164Y2539203D01*
X10377960Y2534172D01*
X11061891Y1850241D01*
X11073774Y1844187D01*
X11076577Y1844631D01*
X11079421Y1846903D01*
X11108900Y1882348D01*
X11114026Y1889806D01*
X11212858Y2066286D01*
X11216538Y2074550D01*
X11281556Y2266086D01*
X11283668Y2274885D01*
X11312924Y2476656D01*
X11313421Y2482482D01*
X11314851Y2537086D01*
X11314661Y2542900D01*
X11296003Y2745952D01*
X11294356Y2754836D01*
X11239449Y2949519D01*
X11236208Y2957963D01*
X11146745Y3139376D01*
X11142020Y3147086D01*
X11081804Y3227726D01*
X11070912Y3235424D01*
X11069463Y3235405D01*
X11064370Y3232238D01*
X10383218Y2551086D01*
X10377164Y2539203D01*
X9942024Y2539203D01*
X9942836Y2540797D01*
X9942040Y2545828D01*
X9258667Y3229201D01*
X9246784Y3235255D01*
X9244667Y3234920D01*
X9240936Y3231858D01*
X9194209Y3172585D01*
X9189284Y3165002D01*
X9095097Y2985982D01*
X9091643Y2977642D01*
X9031658Y2784462D01*
X9029777Y2775612D01*
X9006002Y2574737D01*
X9005766Y2565704D01*
X8673063Y2565704D01*
X8655480Y2745030D01*
X8652520Y2754836D01*
X8597333Y2937620D01*
X8595935Y2942251D01*
X8499218Y3124151D01*
X8369011Y3283800D01*
X8210275Y3415118D01*
X8140276Y3452966D01*
X9463012Y3452966D01*
X9463335Y3449449D01*
X9464706Y3447426D01*
X10148914Y2763218D01*
X10160797Y2757164D01*
X10165828Y2757960D01*
X10852539Y3444671D01*
X10858593Y3456554D01*
X10858147Y3459375D01*
X10688163Y3566626D01*
X10680110Y3570729D01*
X10492229Y3645686D01*
X10483571Y3648251D01*
X10285177Y3687714D01*
X10276184Y3688659D01*
X10073924Y3691308D01*
X10064909Y3690598D01*
X9865559Y3656343D01*
X9856823Y3654002D01*
X9667050Y3583991D01*
X9658887Y3580098D01*
X9485057Y3476680D01*
X9477733Y3471359D01*
X9469831Y3464428D01*
X9463012Y3452966D01*
X8140276Y3452966D01*
X8029055Y3513103D01*
X7925738Y3545085D01*
X7836875Y3572593D01*
X7836871Y3572594D01*
X7832254Y3574023D01*
X7827446Y3574528D01*
X7827443Y3574529D01*
X7632185Y3595051D01*
X7632183Y3595051D01*
X7627369Y3595557D01*
X7571800Y3590500D01*
X7427022Y3577325D01*
X7427017Y3577324D01*
X7422203Y3576886D01*
X7224572Y3518720D01*
X7220288Y3516481D01*
X7220287Y3516480D01*
X7209428Y3510803D01*
X7042002Y3423274D01*
X7038231Y3420242D01*
X6885220Y3297219D01*
X6885217Y3297217D01*
X6881447Y3294185D01*
X6878333Y3290474D01*
X6878332Y3290473D01*
X6826919Y3229201D01*
X6749024Y3136370D01*
X6746689Y3132122D01*
X6746688Y3132121D01*
X6739955Y3119874D01*
X6649776Y2955838D01*
X6648313Y2951225D01*
X6648311Y2951221D01*
X6646821Y2946524D01*
X6587484Y2759468D01*
X6586944Y2754656D01*
X6586944Y2754655D01*
X6585865Y2745030D01*
X6564520Y2554738D01*
X6130500Y2554738D01*
X6130500Y3193834D01*
X6127519Y3225369D01*
X6082634Y3353184D01*
X6030865Y3423274D01*
X6006550Y3456193D01*
X6002150Y3462150D01*
X5982478Y3476680D01*
X5899136Y3538238D01*
X5899135Y3538239D01*
X5893184Y3542634D01*
X5765369Y3587519D01*
X5759362Y3588087D01*
X5759361Y3588087D01*
X5736145Y3590282D01*
X5736135Y3590282D01*
X5733834Y3590500D01*
X4426166Y3590500D01*
X4423865Y3590282D01*
X4423855Y3590282D01*
X4400639Y3588087D01*
X4400638Y3588087D01*
X4394631Y3587519D01*
X4266816Y3542634D01*
X4260865Y3538239D01*
X4260864Y3538238D01*
X4177522Y3476680D01*
X4157850Y3462150D01*
X4153450Y3456193D01*
X4129136Y3423274D01*
X4077366Y3353184D01*
X4032481Y3225369D01*
X4029500Y3193834D01*
X4029500Y1886166D01*
X200000Y1886166D01*
X200000Y9803023D01*
X218907Y9861214D01*
X268407Y9897178D01*
X329593Y9897178D01*
X369004Y9873027D01*
X1209182Y9032849D01*
X1211882Y9029720D01*
X1214077Y9025231D01*
X1220780Y9019013D01*
X1250324Y8991607D01*
X1253000Y8989031D01*
X1266779Y8975252D01*
X1270489Y8972707D01*
X1274402Y8969271D01*
X1296148Y8949099D01*
X1304636Y8945712D01*
X1304637Y8945712D01*
X1306838Y8944834D01*
X1326154Y8934520D01*
X1328109Y8933179D01*
X1328112Y8933178D01*
X1335648Y8928008D01*
X1361560Y8921859D01*
X1375386Y8917486D01*
X1393634Y8910206D01*
X1393636Y8910206D01*
X1400124Y8907617D01*
X1406417Y8907000D01*
X1412586Y8907000D01*
X1435445Y8904325D01*
X1435675Y8904270D01*
X1435677Y8904270D01*
X1444568Y8902160D01*
X1473490Y8906096D01*
X1486839Y8907000D01*
X2819022Y8907000D01*
X2877213Y8888093D01*
X2889026Y8878003D01*
X3249983Y8517045D01*
X3277760Y8462529D01*
X3278979Y8447042D01*
X3278979Y7967529D01*
X3278676Y7963404D01*
X3277054Y7958679D01*
X3277397Y7949545D01*
X3278909Y7909260D01*
X3278979Y7905547D01*
X3278979Y7886073D01*
X3279804Y7881643D01*
X3280140Y7876450D01*
X3281253Y7846813D01*
X3284859Y7838419D01*
X3284860Y7838416D01*
X3285796Y7836238D01*
X3292162Y7815287D01*
X3294270Y7803968D01*
X3299067Y7796186D01*
X3308247Y7781293D01*
X3314931Y7768425D01*
X3321611Y7752878D01*
X3325443Y7743958D01*
X3329457Y7739072D01*
X3333821Y7734708D01*
X3348092Y7716653D01*
X3353011Y7708673D01*
X3376248Y7691003D01*
X3386318Y7682211D01*
X3515503Y7553026D01*
X3543280Y7498509D01*
X3544499Y7483022D01*
X3544499Y6368509D01*
X3544196Y6364384D01*
X3542574Y6359659D01*
X3544120Y6318475D01*
X3544429Y6310240D01*
X3544499Y6306527D01*
X3544499Y6287053D01*
X3545324Y6282623D01*
X3545660Y6277430D01*
X3546773Y6247793D01*
X3550379Y6239399D01*
X3550380Y6239396D01*
X3551316Y6237218D01*
X3557682Y6216267D01*
X3559790Y6204948D01*
X3570082Y6188251D01*
X3573767Y6182273D01*
X3580451Y6169405D01*
X3586300Y6155792D01*
X3590963Y6144938D01*
X3594977Y6140052D01*
X3599341Y6135688D01*
X3613612Y6117633D01*
X3618531Y6109653D01*
X3641768Y6091983D01*
X3651838Y6083191D01*
X4103124Y5631905D01*
X4130901Y5577388D01*
X4119874Y5514207D01*
X4109776Y5495838D01*
X4108313Y5491225D01*
X4108311Y5491221D01*
X4086079Y5421135D01*
X4047484Y5299468D01*
X4046944Y5294656D01*
X4046944Y5294655D01*
X4045865Y5285030D01*
X4024520Y5094738D01*
X4041759Y4889447D01*
X4043092Y4884799D01*
X4043092Y4884798D01*
X4051126Y4856782D01*
X4098544Y4691414D01*
X4192712Y4508182D01*
X4320677Y4346730D01*
X4324357Y4343598D01*
X4324359Y4343596D01*
X4437017Y4247717D01*
X4477564Y4213209D01*
X4481787Y4210849D01*
X4481791Y4210846D01*
X4563695Y4165072D01*
X4657398Y4112703D01*
X4661996Y4111209D01*
X4848724Y4050537D01*
X4848726Y4050536D01*
X4853329Y4049041D01*
X5057894Y4024649D01*
X5062716Y4025020D01*
X5062719Y4025020D01*
X5130541Y4030239D01*
X5263300Y4040454D01*
X5461725Y4095855D01*
X5466038Y4098034D01*
X5466044Y4098036D01*
X5641289Y4186559D01*
X5641291Y4186560D01*
X5645610Y4188742D01*
X5680943Y4216347D01*
X5804135Y4312594D01*
X5804139Y4312598D01*
X5807951Y4315576D01*
X5942564Y4471528D01*
X5961231Y4504387D01*
X6041934Y4646450D01*
X6041935Y4646453D01*
X6044323Y4650656D01*
X6057882Y4691414D01*
X6107824Y4841546D01*
X6107824Y4841548D01*
X6109351Y4846137D01*
X6135171Y5050526D01*
X6135583Y5080000D01*
X6115480Y5285030D01*
X6112520Y5294836D01*
X6057333Y5477620D01*
X6055935Y5482251D01*
X5959218Y5664151D01*
X5829011Y5823800D01*
X5670275Y5955118D01*
X5521617Y6035497D01*
X5493309Y6050803D01*
X5493308Y6050803D01*
X5489055Y6053103D01*
X5410551Y6077404D01*
X5296875Y6112593D01*
X5296871Y6112594D01*
X5292254Y6114023D01*
X5287446Y6114528D01*
X5287443Y6114529D01*
X5092185Y6135051D01*
X5092183Y6135051D01*
X5087369Y6135557D01*
X5027354Y6130095D01*
X4887022Y6117325D01*
X4887017Y6117324D01*
X4882203Y6116886D01*
X4838838Y6104123D01*
X4689219Y6060088D01*
X4689216Y6060087D01*
X4684572Y6058720D01*
X4645050Y6038059D01*
X4584725Y6027855D01*
X4529182Y6055789D01*
X4174495Y6410476D01*
X4146718Y6464993D01*
X4145499Y6480480D01*
X4145499Y7594993D01*
X4145802Y7599118D01*
X4147424Y7603843D01*
X4145569Y7653262D01*
X4145499Y7656975D01*
X4145499Y7658723D01*
X4164406Y7716914D01*
X4213906Y7752878D01*
X4230464Y7756723D01*
X4282289Y7764145D01*
X4320918Y7769677D01*
X4451428Y7829016D01*
X4560037Y7922600D01*
X4638015Y8042905D01*
X4679093Y8180261D01*
X4679130Y8186376D01*
X5178031Y8186376D01*
X5217428Y8048529D01*
X5293930Y7927280D01*
X5299214Y7922613D01*
X5299216Y7922611D01*
X5396103Y7837044D01*
X5396105Y7837042D01*
X5401388Y7832377D01*
X5407770Y7829381D01*
X5407771Y7829380D01*
X5411245Y7827749D01*
X5531163Y7771447D01*
X5538134Y7770362D01*
X5538136Y7770361D01*
X5578062Y7764145D01*
X5640009Y7754500D01*
X5714940Y7754500D01*
X5718430Y7755000D01*
X5718433Y7755000D01*
X5782289Y7764145D01*
X5820918Y7769677D01*
X5951428Y7829016D01*
X6060037Y7922600D01*
X6138015Y8042905D01*
X6179093Y8180261D01*
X6179969Y8323624D01*
X6178032Y8330402D01*
X6142510Y8454691D01*
X6142509Y8454693D01*
X6140572Y8461471D01*
X6077042Y8562161D01*
X6067833Y8576756D01*
X6064070Y8582720D01*
X6058786Y8587387D01*
X6058784Y8587389D01*
X5961897Y8672956D01*
X5961895Y8672958D01*
X5956612Y8677623D01*
X5949454Y8680984D01*
X5903509Y8702555D01*
X5826837Y8738553D01*
X5819866Y8739638D01*
X5819864Y8739639D01*
X5769700Y8747449D01*
X5717991Y8755500D01*
X5643060Y8755500D01*
X5639570Y8755000D01*
X5639567Y8755000D01*
X5598740Y8749153D01*
X5537082Y8740323D01*
X5511274Y8728589D01*
X5412999Y8683906D01*
X5406572Y8680984D01*
X5340475Y8624031D01*
X5325906Y8611477D01*
X5297963Y8587400D01*
X5219985Y8467095D01*
X5178907Y8329739D01*
X5178031Y8186376D01*
X4679130Y8186376D01*
X4679969Y8323624D01*
X4678032Y8330402D01*
X4642510Y8454691D01*
X4642509Y8454693D01*
X4640572Y8461471D01*
X4577042Y8562161D01*
X4567833Y8576756D01*
X4564070Y8582720D01*
X4558786Y8587387D01*
X4558784Y8587389D01*
X4461897Y8672956D01*
X4461895Y8672958D01*
X4456612Y8677623D01*
X4449454Y8680984D01*
X4403509Y8702555D01*
X4326837Y8738553D01*
X4319866Y8739638D01*
X4319864Y8739639D01*
X4269700Y8747449D01*
X4217991Y8755500D01*
X4143060Y8755500D01*
X4139570Y8755000D01*
X4139567Y8755000D01*
X4098740Y8749153D01*
X4037082Y8740323D01*
X4011274Y8728589D01*
X3974001Y8711642D01*
X3913203Y8704769D01*
X3859976Y8734944D01*
X3842065Y8762683D01*
X3838978Y8769868D01*
X3833515Y8782584D01*
X3829501Y8787470D01*
X3825137Y8791834D01*
X3810866Y8809889D01*
X3810743Y8810088D01*
X3805947Y8817869D01*
X3782710Y8835539D01*
X3772640Y8844331D01*
X3441476Y9175495D01*
X3413699Y9230012D01*
X3423270Y9290444D01*
X3466535Y9333709D01*
X3511480Y9344499D01*
X6439720Y9344499D01*
X6497911Y9325592D01*
X6509724Y9315502D01*
X6968952Y8856273D01*
X6996729Y8801757D01*
X6987158Y8741325D01*
X6939923Y8696148D01*
X6912998Y8683906D01*
X6912996Y8683905D01*
X6906572Y8680984D01*
X6840475Y8624031D01*
X6825906Y8611477D01*
X6797963Y8587400D01*
X6719985Y8467095D01*
X6678907Y8329739D01*
X6678031Y8186376D01*
X6717428Y8048529D01*
X6793930Y7927280D01*
X6799214Y7922613D01*
X6799216Y7922611D01*
X6896103Y7837044D01*
X6896105Y7837042D01*
X6901388Y7832377D01*
X6907770Y7829381D01*
X6907771Y7829380D01*
X6911245Y7827749D01*
X7031163Y7771447D01*
X7038134Y7770362D01*
X7038136Y7770361D01*
X7078062Y7764145D01*
X7140009Y7754500D01*
X7214940Y7754500D01*
X7218430Y7755000D01*
X7218433Y7755000D01*
X7282289Y7764145D01*
X7320918Y7769677D01*
X7433525Y7820876D01*
X7494322Y7827749D01*
X7547549Y7797574D01*
X7572873Y7741875D01*
X7573500Y7730754D01*
X7573500Y7273977D01*
X7554593Y7215786D01*
X7544504Y7203973D01*
X7445349Y7104818D01*
X7442220Y7102118D01*
X7437731Y7099923D01*
X7431513Y7093220D01*
X7404107Y7063676D01*
X7401531Y7061000D01*
X7387752Y7047221D01*
X7385207Y7043511D01*
X7381771Y7039598D01*
X7361599Y7017852D01*
X7358212Y7009364D01*
X7358212Y7009363D01*
X7357334Y7007162D01*
X7347020Y6987846D01*
X7345679Y6985891D01*
X7345678Y6985888D01*
X7340508Y6978352D01*
X7338398Y6969460D01*
X7334359Y6952440D01*
X7329986Y6938614D01*
X7329917Y6938440D01*
X7320117Y6913876D01*
X7319500Y6907583D01*
X7319500Y6901414D01*
X7316825Y6878555D01*
X7314660Y6869432D01*
X7318596Y6840511D01*
X7319500Y6827161D01*
X7319500Y6160720D01*
X7300593Y6102529D01*
X7248451Y6065748D01*
X7224572Y6058720D01*
X7220288Y6056481D01*
X7220287Y6056480D01*
X7204164Y6048051D01*
X7042002Y5963274D01*
X7038231Y5960242D01*
X6885220Y5837219D01*
X6885217Y5837217D01*
X6881447Y5834185D01*
X6878333Y5830474D01*
X6878332Y5830473D01*
X6790273Y5725528D01*
X6749024Y5676370D01*
X6746689Y5672122D01*
X6746688Y5672121D01*
X6741244Y5662219D01*
X6649776Y5495838D01*
X6648313Y5491225D01*
X6648311Y5491221D01*
X6626079Y5421135D01*
X6587484Y5299468D01*
X6586944Y5294656D01*
X6586944Y5294655D01*
X6585865Y5285030D01*
X6564520Y5094738D01*
X6581759Y4889447D01*
X6583092Y4884799D01*
X6583092Y4884798D01*
X6591126Y4856782D01*
X6638544Y4691414D01*
X6732712Y4508182D01*
X6860677Y4346730D01*
X6864357Y4343598D01*
X6864359Y4343596D01*
X6977017Y4247717D01*
X7017564Y4213209D01*
X7021787Y4210849D01*
X7021791Y4210846D01*
X7103695Y4165072D01*
X7197398Y4112703D01*
X7201996Y4111209D01*
X7388724Y4050537D01*
X7388726Y4050536D01*
X7393329Y4049041D01*
X7597894Y4024649D01*
X7602716Y4025020D01*
X7602719Y4025020D01*
X7670541Y4030239D01*
X7803300Y4040454D01*
X8001725Y4095855D01*
X8006038Y4098034D01*
X8006044Y4098036D01*
X8138752Y4165072D01*
X9463033Y4165072D01*
X9463040Y4165027D01*
X9468563Y4158812D01*
X9605138Y4067554D01*
X9613093Y4063236D01*
X9798929Y3983394D01*
X9807540Y3980596D01*
X10004826Y3935956D01*
X10013785Y3934776D01*
X10215911Y3926834D01*
X10224938Y3927308D01*
X10425115Y3956332D01*
X10433914Y3958444D01*
X10625450Y4023462D01*
X10633714Y4027142D01*
X10810194Y4125974D01*
X10817652Y4131100D01*
X10848787Y4156995D01*
X10855907Y4168279D01*
X10855721Y4171109D01*
X10853719Y4174149D01*
X10171086Y4856782D01*
X10159203Y4862836D01*
X10154172Y4862040D01*
X9469087Y4176955D01*
X9463033Y4165072D01*
X8138752Y4165072D01*
X8181289Y4186559D01*
X8181291Y4186560D01*
X8185610Y4188742D01*
X8220943Y4216347D01*
X8344135Y4312594D01*
X8344139Y4312598D01*
X8347951Y4315576D01*
X8482564Y4471528D01*
X8501231Y4504387D01*
X8581934Y4646450D01*
X8581935Y4646453D01*
X8584323Y4650656D01*
X8597882Y4691414D01*
X8647824Y4841546D01*
X8647824Y4841548D01*
X8649351Y4846137D01*
X8675171Y5050526D01*
X8675583Y5080000D01*
X8673063Y5105704D01*
X9005766Y5105704D01*
X9018995Y4903856D01*
X9020408Y4894935D01*
X9070200Y4698879D01*
X9073220Y4690351D01*
X9157903Y4506661D01*
X9162424Y4498830D01*
X9237961Y4391948D01*
X9248648Y4383968D01*
X9249397Y4383958D01*
X9255528Y4387660D01*
X9936782Y5068914D01*
X9942024Y5079203D01*
X10377164Y5079203D01*
X10377960Y5074172D01*
X11061891Y4390241D01*
X11073774Y4384187D01*
X11076577Y4384631D01*
X11079421Y4386903D01*
X11108900Y4422348D01*
X11114026Y4429806D01*
X11212858Y4606286D01*
X11216538Y4614550D01*
X11281556Y4806086D01*
X11283668Y4814885D01*
X11312924Y5016656D01*
X11313421Y5022482D01*
X11314851Y5077086D01*
X11314661Y5082900D01*
X11313573Y5094738D01*
X11644520Y5094738D01*
X11661759Y4889447D01*
X11663092Y4884799D01*
X11663092Y4884798D01*
X11671126Y4856782D01*
X11718544Y4691414D01*
X11812712Y4508182D01*
X11940677Y4346730D01*
X11944357Y4343598D01*
X11944359Y4343596D01*
X12057017Y4247717D01*
X12097564Y4213209D01*
X12101787Y4210849D01*
X12101791Y4210846D01*
X12183695Y4165072D01*
X12277398Y4112703D01*
X12281996Y4111209D01*
X12468724Y4050537D01*
X12468726Y4050536D01*
X12473329Y4049041D01*
X12677894Y4024649D01*
X12682716Y4025020D01*
X12682719Y4025020D01*
X12750541Y4030239D01*
X12883300Y4040454D01*
X13081725Y4095855D01*
X13086038Y4098034D01*
X13086044Y4098036D01*
X13261289Y4186559D01*
X13261291Y4186560D01*
X13265610Y4188742D01*
X13300943Y4216347D01*
X13424135Y4312594D01*
X13424139Y4312598D01*
X13427951Y4315576D01*
X13562564Y4471528D01*
X13581231Y4504387D01*
X13661934Y4646450D01*
X13661935Y4646453D01*
X13664323Y4650656D01*
X13677882Y4691414D01*
X13727824Y4841546D01*
X13727824Y4841548D01*
X13729351Y4846137D01*
X13755171Y5050526D01*
X13755583Y5080000D01*
X13754138Y5094738D01*
X14184520Y5094738D01*
X14201759Y4889447D01*
X14203092Y4884799D01*
X14203092Y4884798D01*
X14211126Y4856782D01*
X14258544Y4691414D01*
X14352712Y4508182D01*
X14480677Y4346730D01*
X14484357Y4343598D01*
X14484359Y4343596D01*
X14597017Y4247717D01*
X14637564Y4213209D01*
X14641787Y4210849D01*
X14641791Y4210846D01*
X14723695Y4165072D01*
X14817398Y4112703D01*
X14821996Y4111209D01*
X15008724Y4050537D01*
X15008726Y4050536D01*
X15013329Y4049041D01*
X15217894Y4024649D01*
X15222716Y4025020D01*
X15222719Y4025020D01*
X15290541Y4030239D01*
X15423300Y4040454D01*
X15621725Y4095855D01*
X15626038Y4098034D01*
X15626044Y4098036D01*
X15801289Y4186559D01*
X15801291Y4186560D01*
X15805610Y4188742D01*
X15840943Y4216347D01*
X15964135Y4312594D01*
X15964139Y4312598D01*
X15967951Y4315576D01*
X16102564Y4471528D01*
X16121231Y4504387D01*
X16201934Y4646450D01*
X16201935Y4646453D01*
X16204323Y4650656D01*
X16217882Y4691414D01*
X16267824Y4841546D01*
X16267824Y4841548D01*
X16269351Y4846137D01*
X16295171Y5050526D01*
X16295583Y5080000D01*
X16275480Y5285030D01*
X16272520Y5294836D01*
X16217333Y5477620D01*
X16215935Y5482251D01*
X16119218Y5664151D01*
X15989011Y5823800D01*
X15830275Y5955118D01*
X15681617Y6035497D01*
X15653309Y6050803D01*
X15653308Y6050803D01*
X15649055Y6053103D01*
X15570551Y6077404D01*
X15456875Y6112593D01*
X15456871Y6112594D01*
X15452254Y6114023D01*
X15447446Y6114528D01*
X15447443Y6114529D01*
X15252185Y6135051D01*
X15252183Y6135051D01*
X15247369Y6135557D01*
X15187354Y6130095D01*
X15047022Y6117325D01*
X15047017Y6117324D01*
X15042203Y6116886D01*
X14844572Y6058720D01*
X14840288Y6056481D01*
X14840287Y6056480D01*
X14824164Y6048051D01*
X14662002Y5963274D01*
X14658231Y5960242D01*
X14505220Y5837219D01*
X14505217Y5837217D01*
X14501447Y5834185D01*
X14498333Y5830474D01*
X14498332Y5830473D01*
X14410273Y5725528D01*
X14369024Y5676370D01*
X14366689Y5672122D01*
X14366688Y5672121D01*
X14361244Y5662219D01*
X14269776Y5495838D01*
X14268313Y5491225D01*
X14268311Y5491221D01*
X14246079Y5421135D01*
X14207484Y5299468D01*
X14206944Y5294656D01*
X14206944Y5294655D01*
X14205865Y5285030D01*
X14184520Y5094738D01*
X13754138Y5094738D01*
X13735480Y5285030D01*
X13732520Y5294836D01*
X13677333Y5477620D01*
X13675935Y5482251D01*
X13579218Y5664151D01*
X13449011Y5823800D01*
X13290275Y5955118D01*
X13141617Y6035497D01*
X13113309Y6050803D01*
X13113308Y6050803D01*
X13109055Y6053103D01*
X13030551Y6077404D01*
X12916875Y6112593D01*
X12916871Y6112594D01*
X12912254Y6114023D01*
X12907446Y6114528D01*
X12907443Y6114529D01*
X12712185Y6135051D01*
X12712183Y6135051D01*
X12707369Y6135557D01*
X12647354Y6130095D01*
X12507022Y6117325D01*
X12507017Y6117324D01*
X12502203Y6116886D01*
X12304572Y6058720D01*
X12300288Y6056481D01*
X12300287Y6056480D01*
X12284164Y6048051D01*
X12122002Y5963274D01*
X12118231Y5960242D01*
X11965220Y5837219D01*
X11965217Y5837217D01*
X11961447Y5834185D01*
X11958333Y5830474D01*
X11958332Y5830473D01*
X11870273Y5725528D01*
X11829024Y5676370D01*
X11826689Y5672122D01*
X11826688Y5672121D01*
X11821244Y5662219D01*
X11729776Y5495838D01*
X11728313Y5491225D01*
X11728311Y5491221D01*
X11706079Y5421135D01*
X11667484Y5299468D01*
X11666944Y5294656D01*
X11666944Y5294655D01*
X11665865Y5285030D01*
X11644520Y5094738D01*
X11313573Y5094738D01*
X11296003Y5285952D01*
X11294356Y5294836D01*
X11239449Y5489519D01*
X11236208Y5497963D01*
X11146745Y5679376D01*
X11142020Y5687086D01*
X11081804Y5767726D01*
X11070912Y5775424D01*
X11069463Y5775405D01*
X11064370Y5772238D01*
X10383218Y5091086D01*
X10377164Y5079203D01*
X9942024Y5079203D01*
X9942836Y5080797D01*
X9942040Y5085828D01*
X9258667Y5769201D01*
X9246784Y5775255D01*
X9244667Y5774920D01*
X9240936Y5771858D01*
X9194209Y5712585D01*
X9189284Y5705002D01*
X9095097Y5525982D01*
X9091643Y5517642D01*
X9031658Y5324462D01*
X9029777Y5315612D01*
X9006002Y5114737D01*
X9005766Y5105704D01*
X8673063Y5105704D01*
X8655480Y5285030D01*
X8652520Y5294836D01*
X8597333Y5477620D01*
X8595935Y5482251D01*
X8499218Y5664151D01*
X8369011Y5823800D01*
X8210275Y5955118D01*
X8140277Y5992966D01*
X9463012Y5992966D01*
X9463335Y5989449D01*
X9464706Y5987426D01*
X10148914Y5303218D01*
X10160797Y5297164D01*
X10165828Y5297960D01*
X10852539Y5984671D01*
X10858593Y5996554D01*
X10858147Y5999375D01*
X10688163Y6106626D01*
X10680110Y6110729D01*
X10492229Y6185686D01*
X10483571Y6188251D01*
X10285177Y6227714D01*
X10276184Y6228659D01*
X10073924Y6231308D01*
X10064909Y6230598D01*
X9865559Y6196343D01*
X9856823Y6194002D01*
X9667050Y6123991D01*
X9658887Y6120098D01*
X9485057Y6016680D01*
X9477733Y6011359D01*
X9469831Y6004428D01*
X9463012Y5992966D01*
X8140277Y5992966D01*
X8061617Y6035497D01*
X8033309Y6050803D01*
X8033308Y6050803D01*
X8029055Y6053103D01*
X8024438Y6054532D01*
X8024429Y6054536D01*
X7990225Y6065124D01*
X7940227Y6100393D01*
X7920500Y6159696D01*
X7920500Y6689020D01*
X7939407Y6747211D01*
X7949497Y6759024D01*
X8048653Y6858179D01*
X8051781Y6860879D01*
X8056269Y6863073D01*
X8089881Y6899307D01*
X8092457Y6901983D01*
X8106248Y6915774D01*
X8108797Y6919490D01*
X8112241Y6923411D01*
X8126183Y6938440D01*
X8126185Y6938443D01*
X8132401Y6945144D01*
X8135787Y6953632D01*
X8135789Y6953635D01*
X8136667Y6955836D01*
X8146981Y6975152D01*
X8148322Y6977107D01*
X8148323Y6977109D01*
X8153492Y6984644D01*
X8159641Y7010557D01*
X8164014Y7024382D01*
X8171294Y7042630D01*
X8171294Y7042632D01*
X8173883Y7049120D01*
X8174500Y7055413D01*
X8174500Y7061582D01*
X8177175Y7084441D01*
X8177230Y7084671D01*
X8177230Y7084673D01*
X8179340Y7093564D01*
X8175404Y7122486D01*
X8174500Y7135835D01*
X8174500Y7813242D01*
X8193407Y7871433D01*
X8242907Y7907397D01*
X8304093Y7907397D01*
X8339031Y7887448D01*
X8401388Y7832377D01*
X8407770Y7829381D01*
X8407771Y7829380D01*
X8411245Y7827749D01*
X8531163Y7771447D01*
X8538134Y7770362D01*
X8538136Y7770361D01*
X8578062Y7764145D01*
X8640009Y7754500D01*
X8714940Y7754500D01*
X8718430Y7755000D01*
X8718433Y7755000D01*
X8782289Y7764145D01*
X8820918Y7769677D01*
X8951428Y7829016D01*
X9060037Y7922600D01*
X9138015Y8042905D01*
X9179093Y8180261D01*
X9179130Y8186376D01*
X9678031Y8186376D01*
X9717428Y8048529D01*
X9793930Y7927280D01*
X9799214Y7922613D01*
X9799216Y7922611D01*
X9896103Y7837044D01*
X9896105Y7837042D01*
X9901388Y7832377D01*
X9907770Y7829381D01*
X9907771Y7829380D01*
X9911245Y7827749D01*
X10031163Y7771447D01*
X10038134Y7770362D01*
X10038136Y7770361D01*
X10078062Y7764145D01*
X10140009Y7754500D01*
X10214940Y7754500D01*
X10218430Y7755000D01*
X10218433Y7755000D01*
X10282289Y7764145D01*
X10320918Y7769677D01*
X10451428Y7829016D01*
X10560037Y7922600D01*
X10638015Y8042905D01*
X10679093Y8180261D01*
X10679130Y8186376D01*
X11178031Y8186376D01*
X11217428Y8048529D01*
X11293930Y7927280D01*
X11299214Y7922613D01*
X11299216Y7922611D01*
X11396103Y7837044D01*
X11396105Y7837042D01*
X11401388Y7832377D01*
X11407770Y7829381D01*
X11407771Y7829380D01*
X11411245Y7827749D01*
X11531163Y7771447D01*
X11538134Y7770362D01*
X11538136Y7770361D01*
X11578062Y7764145D01*
X11640009Y7754500D01*
X11714940Y7754500D01*
X11718430Y7755000D01*
X11718433Y7755000D01*
X11782289Y7764145D01*
X11820918Y7769677D01*
X11951428Y7829016D01*
X12060037Y7922600D01*
X12138015Y8042905D01*
X12179093Y8180261D01*
X12179130Y8186376D01*
X12678031Y8186376D01*
X12717428Y8048529D01*
X12793930Y7927280D01*
X12799214Y7922613D01*
X12799216Y7922611D01*
X12896103Y7837044D01*
X12896105Y7837042D01*
X12901388Y7832377D01*
X12907770Y7829381D01*
X12907771Y7829380D01*
X12911245Y7827749D01*
X13031163Y7771447D01*
X13038134Y7770362D01*
X13038136Y7770361D01*
X13078062Y7764145D01*
X13140009Y7754500D01*
X13214940Y7754500D01*
X13218430Y7755000D01*
X13218433Y7755000D01*
X13282289Y7764145D01*
X13320918Y7769677D01*
X13451428Y7829016D01*
X13560037Y7922600D01*
X13638015Y8042905D01*
X13679093Y8180261D01*
X13679130Y8186376D01*
X14178031Y8186376D01*
X14217428Y8048529D01*
X14293930Y7927280D01*
X14299214Y7922613D01*
X14299216Y7922611D01*
X14396103Y7837044D01*
X14396105Y7837042D01*
X14401388Y7832377D01*
X14407770Y7829381D01*
X14407771Y7829380D01*
X14411245Y7827749D01*
X14531163Y7771447D01*
X14538134Y7770362D01*
X14538136Y7770361D01*
X14578062Y7764145D01*
X14640009Y7754500D01*
X14714940Y7754500D01*
X14718430Y7755000D01*
X14718433Y7755000D01*
X14782289Y7764145D01*
X14820918Y7769677D01*
X14951428Y7829016D01*
X15060037Y7922600D01*
X15138015Y8042905D01*
X15179093Y8180261D01*
X15179969Y8323624D01*
X15178032Y8330402D01*
X15142510Y8454691D01*
X15142509Y8454693D01*
X15140572Y8461471D01*
X15077042Y8562161D01*
X15067833Y8576756D01*
X15064070Y8582720D01*
X15058786Y8587387D01*
X15058784Y8587389D01*
X14961897Y8672956D01*
X14961895Y8672958D01*
X14956612Y8677623D01*
X14949454Y8680984D01*
X14903509Y8702555D01*
X14826837Y8738553D01*
X14819866Y8739638D01*
X14819864Y8739639D01*
X14769700Y8747449D01*
X14717991Y8755500D01*
X14643060Y8755500D01*
X14639570Y8755000D01*
X14639567Y8755000D01*
X14598740Y8749153D01*
X14537082Y8740323D01*
X14511274Y8728589D01*
X14412999Y8683906D01*
X14406572Y8680984D01*
X14340475Y8624031D01*
X14325906Y8611477D01*
X14297963Y8587400D01*
X14219985Y8467095D01*
X14178907Y8329739D01*
X14178031Y8186376D01*
X13679130Y8186376D01*
X13679969Y8323624D01*
X13678032Y8330402D01*
X13642510Y8454691D01*
X13642509Y8454693D01*
X13640572Y8461471D01*
X13577042Y8562161D01*
X13567833Y8576756D01*
X13564070Y8582720D01*
X13558786Y8587387D01*
X13558784Y8587389D01*
X13461897Y8672956D01*
X13461895Y8672958D01*
X13456612Y8677623D01*
X13449454Y8680984D01*
X13403509Y8702555D01*
X13326837Y8738553D01*
X13319866Y8739638D01*
X13319864Y8739639D01*
X13269700Y8747449D01*
X13217991Y8755500D01*
X13143060Y8755500D01*
X13139570Y8755000D01*
X13139567Y8755000D01*
X13098740Y8749153D01*
X13037082Y8740323D01*
X13011274Y8728589D01*
X12912999Y8683906D01*
X12906572Y8680984D01*
X12840475Y8624031D01*
X12825906Y8611477D01*
X12797963Y8587400D01*
X12719985Y8467095D01*
X12678907Y8329739D01*
X12678031Y8186376D01*
X12179130Y8186376D01*
X12179969Y8323624D01*
X12178032Y8330402D01*
X12142510Y8454691D01*
X12142509Y8454693D01*
X12140572Y8461471D01*
X12077042Y8562161D01*
X12067833Y8576756D01*
X12064070Y8582720D01*
X12058786Y8587387D01*
X12058784Y8587389D01*
X11961897Y8672956D01*
X11961895Y8672958D01*
X11956612Y8677623D01*
X11949454Y8680984D01*
X11903509Y8702555D01*
X11826837Y8738553D01*
X11819866Y8739638D01*
X11819864Y8739639D01*
X11769700Y8747449D01*
X11717991Y8755500D01*
X11643060Y8755500D01*
X11639570Y8755000D01*
X11639567Y8755000D01*
X11598740Y8749153D01*
X11537082Y8740323D01*
X11511274Y8728589D01*
X11412999Y8683906D01*
X11406572Y8680984D01*
X11340475Y8624031D01*
X11325906Y8611477D01*
X11297963Y8587400D01*
X11219985Y8467095D01*
X11178907Y8329739D01*
X11178031Y8186376D01*
X10679130Y8186376D01*
X10679969Y8323624D01*
X10678032Y8330402D01*
X10642510Y8454691D01*
X10642509Y8454693D01*
X10640572Y8461471D01*
X10577042Y8562161D01*
X10567833Y8576756D01*
X10564070Y8582720D01*
X10558786Y8587387D01*
X10558784Y8587389D01*
X10461897Y8672956D01*
X10461895Y8672958D01*
X10456612Y8677623D01*
X10449454Y8680984D01*
X10403509Y8702555D01*
X10326837Y8738553D01*
X10319866Y8739638D01*
X10319864Y8739639D01*
X10269700Y8747449D01*
X10217991Y8755500D01*
X10143060Y8755500D01*
X10139570Y8755000D01*
X10139567Y8755000D01*
X10098740Y8749153D01*
X10037082Y8740323D01*
X10011274Y8728589D01*
X9912999Y8683906D01*
X9906572Y8680984D01*
X9840475Y8624031D01*
X9825906Y8611477D01*
X9797963Y8587400D01*
X9719985Y8467095D01*
X9678907Y8329739D01*
X9678031Y8186376D01*
X9179130Y8186376D01*
X9179969Y8323624D01*
X9178032Y8330402D01*
X9142510Y8454691D01*
X9142509Y8454693D01*
X9140572Y8461471D01*
X9077042Y8562161D01*
X9067833Y8576756D01*
X9064070Y8582720D01*
X9058786Y8587387D01*
X9058784Y8587389D01*
X8961897Y8672956D01*
X8961895Y8672958D01*
X8956612Y8677623D01*
X8949454Y8680984D01*
X8903509Y8702555D01*
X8826837Y8738553D01*
X8819866Y8739638D01*
X8819864Y8739639D01*
X8769700Y8747449D01*
X8717991Y8755500D01*
X8643060Y8755500D01*
X8639570Y8755000D01*
X8639567Y8755000D01*
X8598740Y8749153D01*
X8537082Y8740323D01*
X8511274Y8728589D01*
X8412999Y8683906D01*
X8406572Y8680984D01*
X8401226Y8676378D01*
X8401225Y8676377D01*
X8397798Y8673424D01*
X8324885Y8610598D01*
X8268461Y8586936D01*
X8208904Y8600959D01*
X8169299Y8646522D01*
X8167680Y8650291D01*
X8161317Y8671237D01*
X8160884Y8673564D01*
X8160882Y8673569D01*
X8159209Y8682553D01*
X8145232Y8705229D01*
X8138548Y8718096D01*
X8130795Y8736142D01*
X8130794Y8736143D01*
X8128036Y8742563D01*
X8124022Y8747449D01*
X8119658Y8751813D01*
X8105387Y8769868D01*
X8105264Y8770067D01*
X8100468Y8777848D01*
X8077231Y8795518D01*
X8067161Y8804310D01*
X7743320Y9128151D01*
X7740620Y9131280D01*
X7738425Y9135769D01*
X7702178Y9169393D01*
X7699502Y9171969D01*
X7685723Y9185748D01*
X7682013Y9188293D01*
X7678100Y9191729D01*
X7663055Y9205685D01*
X7656354Y9211901D01*
X7645664Y9216166D01*
X7626348Y9226480D01*
X7624393Y9227821D01*
X7624390Y9227822D01*
X7616854Y9232992D01*
X7590941Y9239141D01*
X7577116Y9243514D01*
X7558868Y9250794D01*
X7558866Y9250794D01*
X7552378Y9253383D01*
X7546085Y9254000D01*
X7539916Y9254000D01*
X7517057Y9256675D01*
X7516827Y9256730D01*
X7516825Y9256730D01*
X7507934Y9258840D01*
X7479013Y9254904D01*
X7465663Y9254000D01*
X7462177Y9254000D01*
X7403986Y9272907D01*
X7392173Y9282996D01*
X6855519Y9819650D01*
X6852819Y9822779D01*
X6850624Y9827268D01*
X6814377Y9860892D01*
X6811701Y9863468D01*
X6797922Y9877247D01*
X6794212Y9879792D01*
X6790299Y9883228D01*
X6775254Y9897184D01*
X6768553Y9903400D01*
X6757863Y9907665D01*
X6738547Y9917979D01*
X6736592Y9919320D01*
X6736589Y9919321D01*
X6729053Y9924491D01*
X6703140Y9930640D01*
X6689315Y9935013D01*
X6671067Y9942293D01*
X6671065Y9942293D01*
X6664577Y9944882D01*
X6658284Y9945499D01*
X6652115Y9945499D01*
X6629256Y9948174D01*
X6629026Y9948229D01*
X6629024Y9948229D01*
X6620133Y9950339D01*
X6591212Y9946403D01*
X6577862Y9945499D01*
X3410749Y9945499D01*
X3352558Y9964406D01*
X3316594Y10013906D01*
X3316594Y10075092D01*
X3335806Y10109187D01*
X3360241Y10137496D01*
X3402564Y10186528D01*
X3411865Y10202900D01*
X3501934Y10361450D01*
X3501935Y10361453D01*
X3504323Y10365656D01*
X3517882Y10406414D01*
X3567824Y10556546D01*
X3567824Y10556548D01*
X3569351Y10561137D01*
X3572072Y10582672D01*
X3594823Y10762772D01*
X3595171Y10765526D01*
X3595583Y10795000D01*
X3575480Y11000030D01*
X3515935Y11197251D01*
X3419218Y11379151D01*
X3289011Y11538800D01*
X3280945Y11545473D01*
X3134002Y11667035D01*
X3134000Y11667036D01*
X3130275Y11670118D01*
X2949055Y11768103D01*
X2871346Y11792158D01*
X2756875Y11827593D01*
X2756871Y11827594D01*
X2752254Y11829023D01*
X2747446Y11829528D01*
X2747443Y11829529D01*
X2552185Y11850051D01*
X2552183Y11850051D01*
X2547369Y11850557D01*
X2487354Y11845095D01*
X2347022Y11832325D01*
X2347017Y11832324D01*
X2342203Y11831886D01*
X2144572Y11773720D01*
X2140288Y11771481D01*
X2140287Y11771480D01*
X2129428Y11765803D01*
X1962002Y11678274D01*
X1958231Y11675242D01*
X1805220Y11552219D01*
X1805217Y11552217D01*
X1801447Y11549185D01*
X1798333Y11545474D01*
X1798332Y11545473D01*
X1734627Y11469552D01*
X1669024Y11391370D01*
X1666689Y11387122D01*
X1666688Y11387121D01*
X1659955Y11374874D01*
X1569776Y11210838D01*
X1568313Y11206226D01*
X1568311Y11206221D01*
X1542387Y11124496D01*
X1507484Y11014468D01*
X1506944Y11009656D01*
X1506944Y11009655D01*
X1505865Y11000030D01*
X1484520Y10809738D01*
X1484925Y10804918D01*
X1500424Y10620349D01*
X1501759Y10604447D01*
X1503092Y10599799D01*
X1503092Y10599798D01*
X1557208Y10411074D01*
X1558544Y10406414D01*
X1560759Y10402104D01*
X1594465Y10336519D01*
X1604248Y10276120D01*
X1576660Y10221507D01*
X1522241Y10193539D01*
X1461776Y10202900D01*
X1436409Y10221262D01*
X1129516Y10528155D01*
X1101739Y10582672D01*
X1100520Y10598159D01*
X1100520Y13349738D01*
X1484520Y13349738D01*
X1487563Y13313502D01*
X1500870Y13155036D01*
X1501759Y13144447D01*
X1503092Y13139799D01*
X1503092Y13139798D01*
X1557208Y12951074D01*
X1558544Y12946414D01*
X1652712Y12763182D01*
X1780677Y12601730D01*
X1784357Y12598598D01*
X1784359Y12598596D01*
X1865363Y12529657D01*
X1937564Y12468209D01*
X1941787Y12465849D01*
X1941791Y12465846D01*
X1981342Y12443742D01*
X2117398Y12367703D01*
X2121996Y12366209D01*
X2308724Y12305537D01*
X2308726Y12305536D01*
X2313329Y12304041D01*
X2517894Y12279649D01*
X2522716Y12280020D01*
X2522719Y12280020D01*
X2590541Y12285239D01*
X2723300Y12295454D01*
X2921725Y12350855D01*
X2926038Y12353034D01*
X2926044Y12353036D01*
X3101289Y12441559D01*
X3101291Y12441560D01*
X3105610Y12443742D01*
X3140943Y12471347D01*
X3264135Y12567594D01*
X3264139Y12567598D01*
X3267951Y12570576D01*
X3271389Y12574558D01*
X3341287Y12655537D01*
X3402564Y12726528D01*
X3404957Y12730740D01*
X3501934Y12901450D01*
X3501935Y12901453D01*
X3504323Y12905656D01*
X3515915Y12940501D01*
X3524646Y12966749D01*
X3560955Y13015997D01*
X3618585Y13034500D01*
X3883492Y13034500D01*
X3887617Y13034197D01*
X3892342Y13032575D01*
X3941761Y13034430D01*
X3945474Y13034500D01*
X3964948Y13034500D01*
X3969378Y13035325D01*
X3974571Y13035661D01*
X3990602Y13036263D01*
X3995075Y13036431D01*
X4004208Y13036774D01*
X4012602Y13040380D01*
X4012605Y13040381D01*
X4014783Y13041317D01*
X4035734Y13047683D01*
X4047053Y13049791D01*
X4069729Y13063768D01*
X4082596Y13070452D01*
X4100642Y13078205D01*
X4100643Y13078206D01*
X4107063Y13080964D01*
X4111949Y13084978D01*
X4116313Y13089342D01*
X4134368Y13103613D01*
X4142348Y13108532D01*
X4160018Y13131769D01*
X4168810Y13141839D01*
X5511148Y14484177D01*
X7050891Y14484177D01*
X7051806Y14477180D01*
X7051806Y14477179D01*
X7053314Y14465646D01*
X7069480Y14342021D01*
X7072321Y14335565D01*
X7072321Y14335564D01*
X7122944Y14220516D01*
X7127220Y14210797D01*
X7140292Y14195246D01*
X7214931Y14106451D01*
X7214934Y14106449D01*
X7219470Y14101052D01*
X7225341Y14097144D01*
X7225342Y14097143D01*
X7237297Y14089185D01*
X7338813Y14021610D01*
X7439420Y13990179D01*
X7468925Y13980961D01*
X7468926Y13980961D01*
X7475657Y13978858D01*
X7547328Y13977544D01*
X7611945Y13976359D01*
X7611947Y13976359D01*
X7618999Y13976230D01*
X7625802Y13978085D01*
X7625804Y13978085D01*
X7741222Y14009552D01*
X7757317Y14013940D01*
X7879491Y14088955D01*
X7886903Y14097143D01*
X7930162Y14144936D01*
X7983230Y14175390D01*
X8003560Y14177500D01*
X12189097Y14177500D01*
X12247288Y14158593D01*
X12264880Y14142202D01*
X12294931Y14106451D01*
X12294934Y14106449D01*
X12299470Y14101052D01*
X12305341Y14097144D01*
X12305342Y14097143D01*
X12317297Y14089185D01*
X12418813Y14021610D01*
X12519420Y13990179D01*
X12548925Y13980961D01*
X12548926Y13980961D01*
X12555657Y13978858D01*
X12627328Y13977544D01*
X12691945Y13976359D01*
X12691947Y13976359D01*
X12698999Y13976230D01*
X12705802Y13978085D01*
X12705804Y13978085D01*
X12821222Y14009552D01*
X12837317Y14013940D01*
X12959491Y14088955D01*
X12966903Y14097143D01*
X13050968Y14190018D01*
X13055700Y14195246D01*
X13118210Y14324267D01*
X13122375Y14349018D01*
X13141362Y14461876D01*
X13141362Y14461880D01*
X13141996Y14465646D01*
X13142147Y14478000D01*
X13121823Y14619918D01*
X13068687Y14736785D01*
X13065405Y14744004D01*
X13065404Y14744005D01*
X13062484Y14750428D01*
X12968900Y14859037D01*
X12848595Y14937015D01*
X12711239Y14978093D01*
X12627997Y14978602D01*
X12574927Y14978926D01*
X12574926Y14978926D01*
X12567876Y14978969D01*
X12561099Y14977032D01*
X12561098Y14977032D01*
X12436809Y14941510D01*
X12436807Y14941509D01*
X12430029Y14939572D01*
X12308780Y14863070D01*
X12304113Y14857786D01*
X12304111Y14857784D01*
X12277552Y14827711D01*
X12264452Y14812877D01*
X12263647Y14811966D01*
X12210955Y14780866D01*
X12189443Y14778500D01*
X8003673Y14778500D01*
X7945482Y14797407D01*
X7928674Y14812877D01*
X7893505Y14853693D01*
X7893504Y14853694D01*
X7888900Y14859037D01*
X7768595Y14937015D01*
X7631239Y14978093D01*
X7547997Y14978602D01*
X7494927Y14978926D01*
X7494926Y14978926D01*
X7487876Y14978969D01*
X7481099Y14977032D01*
X7481098Y14977032D01*
X7356809Y14941510D01*
X7356807Y14941509D01*
X7350029Y14939572D01*
X7228780Y14863070D01*
X7224113Y14857786D01*
X7224111Y14857784D01*
X7138544Y14760897D01*
X7138542Y14760895D01*
X7133877Y14755612D01*
X7072947Y14625837D01*
X7071862Y14618868D01*
X7071861Y14618865D01*
X7057180Y14524570D01*
X7050891Y14484177D01*
X5511148Y14484177D01*
X5864959Y14837988D01*
X5919476Y14865765D01*
X5936774Y14866967D01*
X5981090Y14866154D01*
X6024446Y14865359D01*
X6024448Y14865359D01*
X6031499Y14865230D01*
X6038302Y14867085D01*
X6038304Y14867085D01*
X6113503Y14887587D01*
X6169817Y14902940D01*
X6291991Y14977955D01*
X6301159Y14988083D01*
X6383468Y15079018D01*
X6388200Y15084246D01*
X6450710Y15213267D01*
X6452652Y15224806D01*
X6473862Y15350876D01*
X6473862Y15350880D01*
X6474496Y15354646D01*
X6474647Y15367000D01*
X6454323Y15508918D01*
X6394984Y15639428D01*
X6323294Y15722628D01*
X6306005Y15742693D01*
X6306004Y15742694D01*
X6301400Y15748037D01*
X6181095Y15826015D01*
X6043739Y15867093D01*
X5960497Y15867602D01*
X5907427Y15867926D01*
X5907426Y15867926D01*
X5900376Y15867969D01*
X5893599Y15866032D01*
X5893598Y15866032D01*
X5769309Y15830510D01*
X5769307Y15830509D01*
X5762529Y15828572D01*
X5641280Y15752070D01*
X5636613Y15746786D01*
X5636611Y15746784D01*
X5551044Y15649897D01*
X5551042Y15649895D01*
X5546377Y15644612D01*
X5543381Y15638230D01*
X5543380Y15638229D01*
X5525941Y15601086D01*
X5485447Y15514837D01*
X5484362Y15507868D01*
X5484361Y15507865D01*
X5480856Y15485351D01*
X5463391Y15373177D01*
X5464306Y15366180D01*
X5464306Y15366178D01*
X5467107Y15344758D01*
X5455905Y15284607D01*
X5438947Y15261918D01*
X3841525Y13664496D01*
X3787008Y13636719D01*
X3771521Y13635500D01*
X3620179Y13635500D01*
X3561988Y13654407D01*
X3525405Y13705884D01*
X3515935Y13737251D01*
X3419218Y13919151D01*
X3289011Y14078800D01*
X3280945Y14085473D01*
X3134002Y14207035D01*
X3134000Y14207036D01*
X3130275Y14210118D01*
X2949055Y14308103D01*
X2860343Y14335564D01*
X2756875Y14367593D01*
X2756871Y14367594D01*
X2752254Y14369023D01*
X2747446Y14369528D01*
X2747443Y14369529D01*
X2552185Y14390051D01*
X2552183Y14390051D01*
X2547369Y14390557D01*
X2487354Y14385095D01*
X2347022Y14372325D01*
X2347017Y14372324D01*
X2342203Y14371886D01*
X2144572Y14313720D01*
X2140288Y14311481D01*
X2140287Y14311480D01*
X2129428Y14305803D01*
X1962002Y14218274D01*
X1958231Y14215242D01*
X1805220Y14092219D01*
X1805217Y14092217D01*
X1801447Y14089185D01*
X1798333Y14085474D01*
X1798332Y14085473D01*
X1708223Y13978085D01*
X1669024Y13931370D01*
X1666689Y13927122D01*
X1666688Y13927121D01*
X1659955Y13914874D01*
X1569776Y13750838D01*
X1568313Y13746226D01*
X1568311Y13746221D01*
X1542387Y13664496D01*
X1507484Y13554468D01*
X1484520Y13349738D01*
X1100520Y13349738D01*
X1100520Y15715595D01*
X1397898Y15715595D01*
X1398995Y15698855D01*
X1400408Y15689936D01*
X1450200Y15493879D01*
X1453220Y15485351D01*
X1537904Y15301659D01*
X1542422Y15293833D01*
X1659171Y15128637D01*
X1665035Y15121771D01*
X1809931Y14980619D01*
X1816954Y14974932D01*
X1985138Y14862554D01*
X1993093Y14858236D01*
X2178929Y14778394D01*
X2187540Y14775596D01*
X2379830Y14732086D01*
X2387167Y14734160D01*
X2389787Y14737486D01*
X2390000Y14738683D01*
X2390000Y14750321D01*
X2690000Y14750321D01*
X2694122Y14737636D01*
X2695292Y14736785D01*
X2701272Y14736275D01*
X2805115Y14751332D01*
X2813914Y14753444D01*
X3005450Y14818462D01*
X3013714Y14822142D01*
X3190194Y14920974D01*
X3197652Y14926100D01*
X3353157Y15055432D01*
X3359568Y15061843D01*
X3488900Y15217348D01*
X3494026Y15224806D01*
X3592858Y15401286D01*
X3596538Y15409550D01*
X3661556Y15601086D01*
X3663668Y15609885D01*
X3678109Y15709482D01*
X3675850Y15722628D01*
X3674815Y15723637D01*
X3668968Y15725000D01*
X2705680Y15725000D01*
X2692995Y15720878D01*
X2690000Y15716757D01*
X2690000Y14750321D01*
X2390000Y14750321D01*
X2390000Y15709320D01*
X2385878Y15722005D01*
X2381757Y15725000D01*
X1412962Y15725000D01*
X1400277Y15720878D01*
X1398202Y15718022D01*
X1397898Y15715595D01*
X1100520Y15715595D01*
X1100520Y16040572D01*
X1401487Y16040572D01*
X1404090Y16027489D01*
X1405663Y16026035D01*
X1410378Y16025000D01*
X2374320Y16025000D01*
X2387005Y16029122D01*
X2390000Y16033243D01*
X2390000Y16040680D01*
X2690000Y16040680D01*
X2694122Y16027995D01*
X2698243Y16025000D01*
X3665464Y16025000D01*
X3678149Y16029122D01*
X3679818Y16031418D01*
X3680222Y16035034D01*
X3676003Y16080952D01*
X3674356Y16089836D01*
X3619449Y16284519D01*
X3616208Y16292963D01*
X3526745Y16474376D01*
X3522020Y16482086D01*
X3400994Y16644160D01*
X3394945Y16650878D01*
X3246405Y16788186D01*
X3239240Y16793685D01*
X3068163Y16901626D01*
X3060110Y16905729D01*
X2872229Y16980686D01*
X2863571Y16983251D01*
X2705379Y17014717D01*
X2692132Y17013149D01*
X2692100Y17013119D01*
X2690000Y17005072D01*
X2690000Y16040680D01*
X2390000Y16040680D01*
X2390000Y17000483D01*
X2385878Y17013168D01*
X2385274Y17013607D01*
X2378127Y17014123D01*
X2245559Y16991343D01*
X2236823Y16989002D01*
X2047050Y16918991D01*
X2038887Y16915098D01*
X1865047Y16811674D01*
X1857745Y16806369D01*
X1705657Y16672990D01*
X1699434Y16666432D01*
X1574209Y16507585D01*
X1569284Y16500002D01*
X1475097Y16320982D01*
X1471643Y16312642D01*
X1411658Y16119462D01*
X1409777Y16110611D01*
X1401487Y16040572D01*
X1100520Y16040572D01*
X1100520Y18429738D01*
X1484520Y18429738D01*
X1501759Y18224447D01*
X1503092Y18219799D01*
X1503092Y18219798D01*
X1520188Y18160179D01*
X1558544Y18026414D01*
X1652712Y17843182D01*
X1780677Y17681730D01*
X1784357Y17678598D01*
X1784359Y17678596D01*
X1853401Y17619837D01*
X1937564Y17548209D01*
X1941787Y17545849D01*
X1941791Y17545846D01*
X2042837Y17489374D01*
X2117398Y17447703D01*
X2121996Y17446209D01*
X2308724Y17385537D01*
X2308726Y17385536D01*
X2313329Y17384041D01*
X2517894Y17359649D01*
X2522716Y17360020D01*
X2522719Y17360020D01*
X2590541Y17365239D01*
X2723300Y17375454D01*
X2921725Y17430855D01*
X2926038Y17433034D01*
X2926044Y17433036D01*
X3101289Y17521559D01*
X3101291Y17521560D01*
X3105610Y17523742D01*
X3111440Y17528297D01*
X3264135Y17647594D01*
X3264139Y17647598D01*
X3267951Y17650576D01*
X3275533Y17659359D01*
X3364246Y17762136D01*
X3402564Y17806528D01*
X3422425Y17841490D01*
X3501934Y17981450D01*
X3501935Y17981453D01*
X3504323Y17985656D01*
X3517882Y18026414D01*
X3567824Y18176546D01*
X3567824Y18176548D01*
X3569351Y18181137D01*
X3595171Y18385526D01*
X3595583Y18415000D01*
X3587588Y18496545D01*
X3575952Y18615220D01*
X3575951Y18615224D01*
X3575480Y18620030D01*
X3515935Y18817251D01*
X3419218Y18999151D01*
X3289011Y19158800D01*
X3130275Y19290118D01*
X2995750Y19362855D01*
X2953309Y19385803D01*
X2953308Y19385803D01*
X2949055Y19388103D01*
X2885855Y19407667D01*
X2756875Y19447593D01*
X2756871Y19447594D01*
X2752254Y19449023D01*
X2747446Y19449528D01*
X2747443Y19449529D01*
X2552185Y19470051D01*
X2552183Y19470051D01*
X2547369Y19470557D01*
X2487354Y19465095D01*
X2347022Y19452325D01*
X2347017Y19452324D01*
X2342203Y19451886D01*
X2144572Y19393720D01*
X2140288Y19391481D01*
X2140287Y19391480D01*
X2129428Y19385803D01*
X1962002Y19298274D01*
X1958231Y19295242D01*
X1805220Y19172219D01*
X1805217Y19172217D01*
X1801447Y19169185D01*
X1798333Y19165474D01*
X1798332Y19165473D01*
X1721219Y19073573D01*
X1669024Y19011370D01*
X1666689Y19007122D01*
X1666688Y19007121D01*
X1659955Y18994874D01*
X1569776Y18830838D01*
X1568313Y18826225D01*
X1568311Y18826221D01*
X1514413Y18656311D01*
X1507484Y18634468D01*
X1506944Y18629656D01*
X1506944Y18629655D01*
X1487161Y18453280D01*
X1484520Y18429738D01*
X1100520Y18429738D01*
X1100520Y22619501D01*
X1119427Y22677692D01*
X1168927Y22713656D01*
X1230113Y22713656D01*
X1269524Y22689505D01*
X1845180Y22113849D01*
X1847880Y22110720D01*
X1850075Y22106231D01*
X1856778Y22100013D01*
X1886322Y22072607D01*
X1888998Y22070031D01*
X1902777Y22056252D01*
X1906487Y22053707D01*
X1910400Y22050271D01*
X1932146Y22030099D01*
X1940632Y22026713D01*
X1940634Y22026712D01*
X1942837Y22025833D01*
X1962148Y22015522D01*
X1971643Y22009009D01*
X1969678Y22006144D01*
X2002962Y21976288D01*
X2015795Y21916463D01*
X1991013Y21860521D01*
X1969786Y21844017D01*
X1970342Y21843167D01*
X1966292Y21840517D01*
X1962002Y21838274D01*
X1958231Y21835242D01*
X1805220Y21712219D01*
X1805217Y21712217D01*
X1801447Y21709185D01*
X1798333Y21705474D01*
X1798332Y21705473D01*
X1679780Y21564188D01*
X1669024Y21551370D01*
X1666689Y21547122D01*
X1666688Y21547121D01*
X1661264Y21537255D01*
X1569776Y21370838D01*
X1568313Y21366225D01*
X1568311Y21366221D01*
X1565466Y21357251D01*
X1507484Y21174468D01*
X1506944Y21169656D01*
X1506944Y21169655D01*
X1505865Y21160030D01*
X1484520Y20969738D01*
X1501759Y20764447D01*
X1503092Y20759799D01*
X1503092Y20759798D01*
X1541956Y20624265D01*
X1558544Y20566414D01*
X1652712Y20383182D01*
X1780677Y20221730D01*
X1784357Y20218598D01*
X1784359Y20218596D01*
X1845120Y20166885D01*
X1937564Y20088209D01*
X1941787Y20085849D01*
X1941791Y20085846D01*
X2049888Y20025433D01*
X2117398Y19987703D01*
X2121996Y19986209D01*
X2308724Y19925537D01*
X2308726Y19925536D01*
X2313329Y19924041D01*
X2517894Y19899649D01*
X2522716Y19900020D01*
X2522719Y19900020D01*
X2590541Y19905239D01*
X2723300Y19915454D01*
X2921725Y19970855D01*
X2926038Y19973034D01*
X2926044Y19973036D01*
X3101289Y20061559D01*
X3101291Y20061560D01*
X3105610Y20063742D01*
X3109427Y20066724D01*
X3264135Y20187594D01*
X3264139Y20187598D01*
X3267951Y20190576D01*
X3402564Y20346528D01*
X3421231Y20379387D01*
X3501934Y20521450D01*
X3501935Y20521453D01*
X3504323Y20525656D01*
X3506977Y20533632D01*
X3567824Y20716546D01*
X3567824Y20716548D01*
X3569351Y20721137D01*
X3595171Y20925526D01*
X3595583Y20955000D01*
X3575480Y21160030D01*
X3515935Y21357251D01*
X3475647Y21433023D01*
X3465022Y21493277D01*
X3491844Y21548270D01*
X3545868Y21576995D01*
X3563059Y21578499D01*
X3734489Y21578499D01*
X3738614Y21578196D01*
X3743339Y21576574D01*
X3792758Y21578429D01*
X3796471Y21578499D01*
X3815945Y21578499D01*
X3820375Y21579324D01*
X3825568Y21579660D01*
X3841599Y21580262D01*
X3846072Y21580430D01*
X3855205Y21580773D01*
X3863599Y21584379D01*
X3863602Y21584380D01*
X3865780Y21585316D01*
X3886731Y21591682D01*
X3898050Y21593790D01*
X3920726Y21607767D01*
X3933593Y21614451D01*
X3951639Y21622204D01*
X3951640Y21622205D01*
X3958060Y21624963D01*
X3962946Y21628977D01*
X3967310Y21633341D01*
X3985365Y21647612D01*
X3993345Y21652531D01*
X4011011Y21675763D01*
X4019812Y21685843D01*
X4273652Y21939682D01*
X4276780Y21942382D01*
X4281268Y21944576D01*
X4314880Y21980810D01*
X4317456Y21983486D01*
X4331247Y21997277D01*
X4333792Y22000988D01*
X4337233Y22004907D01*
X4351184Y22019946D01*
X4351184Y22019947D01*
X4357400Y22026647D01*
X4360786Y22035135D01*
X4360788Y22035138D01*
X4361666Y22037339D01*
X4371980Y22056655D01*
X4373321Y22058610D01*
X4373322Y22058612D01*
X4378491Y22066147D01*
X4384640Y22092060D01*
X4389013Y22105885D01*
X4396293Y22124133D01*
X4396293Y22124135D01*
X4398882Y22130623D01*
X4399499Y22136916D01*
X4399499Y22143085D01*
X4402174Y22165944D01*
X4402229Y22166174D01*
X4402229Y22166176D01*
X4404339Y22175067D01*
X4400403Y22203989D01*
X4399499Y22217338D01*
X4399499Y24322822D01*
X4418406Y24381013D01*
X4428495Y24392826D01*
X4721820Y24686151D01*
X5806649Y24686151D01*
X5810585Y24657230D01*
X5811489Y24643880D01*
X5811489Y20253723D01*
X5811186Y20249598D01*
X5809564Y20244873D01*
X5809907Y20235739D01*
X5811419Y20195454D01*
X5811489Y20191741D01*
X5811489Y20172267D01*
X5812314Y20167837D01*
X5812650Y20162644D01*
X5813763Y20133007D01*
X5817369Y20124613D01*
X5817370Y20124610D01*
X5818306Y20122432D01*
X5824672Y20101481D01*
X5826780Y20090162D01*
X5831577Y20082380D01*
X5840757Y20067487D01*
X5847440Y20054620D01*
X5857953Y20030152D01*
X5861967Y20025266D01*
X5866331Y20020902D01*
X5880602Y20002847D01*
X5885521Y19994867D01*
X5908758Y19977197D01*
X5918828Y19968405D01*
X7275739Y18611494D01*
X7303516Y18556977D01*
X7293945Y18496545D01*
X7250680Y18453280D01*
X7205735Y18442490D01*
X6912054Y18442490D01*
X6853863Y18461397D01*
X6837055Y18476867D01*
X6785507Y18536692D01*
X6785501Y18536697D01*
X6780900Y18542037D01*
X6660595Y18620015D01*
X6523239Y18661093D01*
X6439997Y18661602D01*
X6386927Y18661926D01*
X6386926Y18661926D01*
X6379876Y18661969D01*
X6373099Y18660032D01*
X6373098Y18660032D01*
X6248809Y18624510D01*
X6248807Y18624509D01*
X6242029Y18622572D01*
X6120780Y18546070D01*
X6116113Y18540786D01*
X6116111Y18540784D01*
X6030544Y18443897D01*
X6030542Y18443895D01*
X6025877Y18438612D01*
X6022881Y18432230D01*
X6022880Y18432229D01*
X6016085Y18417756D01*
X5964947Y18308837D01*
X5942891Y18167177D01*
X5961480Y18025021D01*
X6019220Y17893797D01*
X6064956Y17839387D01*
X6106931Y17789451D01*
X6106934Y17789449D01*
X6111470Y17784052D01*
X6117341Y17780144D01*
X6117342Y17780143D01*
X6129643Y17771955D01*
X6230813Y17704610D01*
X6331420Y17673179D01*
X6360925Y17663961D01*
X6360926Y17663961D01*
X6367657Y17661858D01*
X6439328Y17660544D01*
X6503945Y17659359D01*
X6503947Y17659359D01*
X6510999Y17659230D01*
X6517802Y17661085D01*
X6517804Y17661085D01*
X6616096Y17687883D01*
X6649317Y17696940D01*
X6771491Y17771955D01*
X6782441Y17784052D01*
X6804955Y17808926D01*
X6858023Y17839380D01*
X6878353Y17841490D01*
X12057135Y17841490D01*
X12115326Y17822583D01*
X12127139Y17812494D01*
X12810681Y17128952D01*
X12838458Y17074435D01*
X12828887Y17014003D01*
X12814879Y16993412D01*
X12806040Y16983404D01*
X12806038Y16983401D01*
X12801367Y16978112D01*
X12740437Y16848337D01*
X12739352Y16841368D01*
X12739351Y16841365D01*
X12730970Y16787533D01*
X12718381Y16706677D01*
X12719296Y16699680D01*
X12719296Y16699679D01*
X12726556Y16644160D01*
X12736970Y16564521D01*
X12739811Y16558065D01*
X12739811Y16558064D01*
X12762026Y16507578D01*
X12794710Y16433297D01*
X12824915Y16397364D01*
X12882421Y16328951D01*
X12882424Y16328949D01*
X12886960Y16323552D01*
X12892831Y16319644D01*
X12892832Y16319643D01*
X12924534Y16298540D01*
X13006303Y16244110D01*
X13091530Y16217484D01*
X13136415Y16203461D01*
X13136416Y16203461D01*
X13143147Y16201358D01*
X13214818Y16200044D01*
X13279435Y16198859D01*
X13279437Y16198859D01*
X13286489Y16198730D01*
X13293292Y16200585D01*
X13293294Y16200585D01*
X13398450Y16229254D01*
X13459565Y16226318D01*
X13507282Y16188021D01*
X13523490Y16133740D01*
X13523490Y13217018D01*
X13523187Y13212893D01*
X13521565Y13208168D01*
X13521908Y13199034D01*
X13523420Y13158749D01*
X13523490Y13155036D01*
X13523490Y13135562D01*
X13524315Y13131132D01*
X13524651Y13125939D01*
X13525764Y13096302D01*
X13529370Y13087908D01*
X13529371Y13087905D01*
X13530307Y13085727D01*
X13536673Y13064776D01*
X13538781Y13053457D01*
X13549276Y13036431D01*
X13552758Y13030782D01*
X13559441Y13017915D01*
X13569954Y12993447D01*
X13573968Y12988561D01*
X13578332Y12984197D01*
X13592603Y12966142D01*
X13597522Y12958162D01*
X13620759Y12940492D01*
X13630829Y12931700D01*
X15942180Y10620349D01*
X15944880Y10617220D01*
X15947075Y10612731D01*
X15953778Y10606513D01*
X15983322Y10579107D01*
X15985998Y10576531D01*
X15999777Y10562752D01*
X16003487Y10560207D01*
X16007400Y10556771D01*
X16029146Y10536599D01*
X16037634Y10533212D01*
X16037635Y10533212D01*
X16039836Y10532334D01*
X16059152Y10522020D01*
X16061107Y10520679D01*
X16061110Y10520678D01*
X16068646Y10515508D01*
X16094558Y10509359D01*
X16108384Y10504986D01*
X16126632Y10497706D01*
X16126634Y10497706D01*
X16133122Y10495117D01*
X16139415Y10494500D01*
X16145584Y10494500D01*
X16168443Y10491825D01*
X16168673Y10491770D01*
X16168675Y10491770D01*
X16177566Y10489660D01*
X16206488Y10493596D01*
X16219837Y10494500D01*
X16698684Y10494500D01*
X16756875Y10475593D01*
X16793849Y10422787D01*
X16798544Y10406414D01*
X16892712Y10223182D01*
X17020677Y10061730D01*
X17024357Y10058598D01*
X17024359Y10058596D01*
X17105025Y9989944D01*
X17177564Y9928209D01*
X17181787Y9925849D01*
X17181791Y9925846D01*
X17297437Y9861214D01*
X17357398Y9827703D01*
X17361996Y9826209D01*
X17548724Y9765537D01*
X17548726Y9765536D01*
X17553329Y9764041D01*
X17757894Y9739649D01*
X17762717Y9740020D01*
X17762722Y9740020D01*
X17768701Y9740480D01*
X17828170Y9726091D01*
X17867824Y9679495D01*
X17872516Y9618490D01*
X17846297Y9571768D01*
X17465524Y9190995D01*
X17411007Y9163218D01*
X17395520Y9161999D01*
X17188507Y9161999D01*
X17184382Y9162302D01*
X17179657Y9163924D01*
X17130238Y9162069D01*
X17126525Y9161999D01*
X17107051Y9161999D01*
X17102621Y9161174D01*
X17097428Y9160838D01*
X17081397Y9160236D01*
X17076924Y9160068D01*
X17067791Y9159725D01*
X17059397Y9156119D01*
X17059394Y9156118D01*
X17057216Y9155182D01*
X17036265Y9148816D01*
X17024946Y9146708D01*
X17002271Y9132731D01*
X16989403Y9126047D01*
X16971357Y9118294D01*
X16971356Y9118293D01*
X16964936Y9115535D01*
X16960050Y9111521D01*
X16955686Y9107157D01*
X16937631Y9092886D01*
X16929651Y9087967D01*
X16911981Y9064730D01*
X16903189Y9054660D01*
X16554350Y8705821D01*
X16551221Y8703120D01*
X16546732Y8700926D01*
X16541242Y8695007D01*
X16483851Y8675693D01*
X16440744Y8685073D01*
X16326837Y8738553D01*
X16319866Y8739638D01*
X16319864Y8739639D01*
X16269700Y8747449D01*
X16217991Y8755500D01*
X16143060Y8755500D01*
X16139570Y8755000D01*
X16139567Y8755000D01*
X16098740Y8749153D01*
X16037082Y8740323D01*
X16011274Y8728589D01*
X15912999Y8683906D01*
X15906572Y8680984D01*
X15840475Y8624031D01*
X15825906Y8611477D01*
X15797963Y8587400D01*
X15719985Y8467095D01*
X15678907Y8329739D01*
X15678031Y8186376D01*
X15717428Y8048529D01*
X15793930Y7927280D01*
X15799214Y7922613D01*
X15799216Y7922611D01*
X15896103Y7837044D01*
X15896105Y7837042D01*
X15901388Y7832377D01*
X16002152Y7785068D01*
X16020111Y7776636D01*
X16064749Y7734791D01*
X16076266Y7674699D01*
X16074361Y7664166D01*
X16071959Y7654043D01*
X16067586Y7640214D01*
X16060306Y7621966D01*
X16057717Y7615476D01*
X16057100Y7609183D01*
X16057100Y7603014D01*
X16054425Y7580155D01*
X16052260Y7571032D01*
X16056196Y7542111D01*
X16057100Y7528761D01*
X16057100Y6276508D01*
X16056797Y6272383D01*
X16055175Y6267658D01*
X16055518Y6258524D01*
X16057030Y6218239D01*
X16057100Y6214526D01*
X16057100Y6195052D01*
X16057925Y6190622D01*
X16058261Y6185429D01*
X16059374Y6155792D01*
X16062980Y6147398D01*
X16062981Y6147395D01*
X16063917Y6145217D01*
X16070283Y6124266D01*
X16072391Y6112947D01*
X16077188Y6105165D01*
X16086368Y6090272D01*
X16093052Y6077404D01*
X16100492Y6060088D01*
X16103564Y6052937D01*
X16107578Y6048051D01*
X16111942Y6043687D01*
X16126213Y6025632D01*
X16131132Y6017652D01*
X16154369Y5999982D01*
X16164439Y5991190D01*
X16664490Y5491139D01*
X16692267Y5436622D01*
X16693486Y5421135D01*
X16693486Y2236965D01*
X16674579Y2178774D01*
X16664490Y2166961D01*
X15779525Y1281996D01*
X15725008Y1254219D01*
X15709521Y1253000D01*
X13881479Y1253000D01*
X13823288Y1271907D01*
X13811475Y1281996D01*
X13442015Y1651456D01*
X13414238Y1705973D01*
X13423809Y1766405D01*
X13437076Y1786148D01*
X13475481Y1830640D01*
X13536585Y1901431D01*
X13559400Y1927862D01*
X13559402Y1927864D01*
X13562564Y1931528D01*
X13567430Y1940093D01*
X13661934Y2106450D01*
X13661935Y2106453D01*
X13664323Y2110656D01*
X13677882Y2151414D01*
X13727824Y2301546D01*
X13727824Y2301548D01*
X13729351Y2306137D01*
X13755171Y2510526D01*
X13755583Y2540000D01*
X13754138Y2554738D01*
X14184520Y2554738D01*
X14201759Y2349447D01*
X14203092Y2344799D01*
X14203092Y2344798D01*
X14250699Y2178774D01*
X14258544Y2151414D01*
X14352712Y1968182D01*
X14480677Y1806730D01*
X14484357Y1803598D01*
X14484359Y1803596D01*
X14528059Y1766405D01*
X14637564Y1673209D01*
X14641787Y1670849D01*
X14641791Y1670846D01*
X14723695Y1625072D01*
X14817398Y1572703D01*
X14821996Y1571209D01*
X15008724Y1510537D01*
X15008726Y1510536D01*
X15013329Y1509041D01*
X15217894Y1484649D01*
X15222716Y1485020D01*
X15222719Y1485020D01*
X15293090Y1490435D01*
X15423300Y1500454D01*
X15621725Y1555855D01*
X15626038Y1558034D01*
X15626044Y1558036D01*
X15801289Y1646559D01*
X15801291Y1646560D01*
X15805610Y1648742D01*
X15878863Y1705973D01*
X15964135Y1772594D01*
X15964139Y1772598D01*
X15967951Y1775576D01*
X15977077Y1786148D01*
X16063409Y1886166D01*
X16102564Y1931528D01*
X16107430Y1940093D01*
X16201934Y2106450D01*
X16201935Y2106453D01*
X16204323Y2110656D01*
X16217882Y2151414D01*
X16267824Y2301546D01*
X16267824Y2301548D01*
X16269351Y2306137D01*
X16295171Y2510526D01*
X16295583Y2540000D01*
X16275480Y2745030D01*
X16272520Y2754836D01*
X16217333Y2937620D01*
X16215935Y2942251D01*
X16119218Y3124151D01*
X15989011Y3283800D01*
X15830275Y3415118D01*
X15649055Y3513103D01*
X15545738Y3545085D01*
X15456875Y3572593D01*
X15456871Y3572594D01*
X15452254Y3574023D01*
X15447446Y3574528D01*
X15447443Y3574529D01*
X15252185Y3595051D01*
X15252183Y3595051D01*
X15247369Y3595557D01*
X15191800Y3590500D01*
X15047022Y3577325D01*
X15047017Y3577324D01*
X15042203Y3576886D01*
X14844572Y3518720D01*
X14840288Y3516481D01*
X14840287Y3516480D01*
X14829428Y3510803D01*
X14662002Y3423274D01*
X14658231Y3420242D01*
X14505220Y3297219D01*
X14505217Y3297217D01*
X14501447Y3294185D01*
X14498333Y3290474D01*
X14498332Y3290473D01*
X14446919Y3229201D01*
X14369024Y3136370D01*
X14366689Y3132122D01*
X14366688Y3132121D01*
X14359955Y3119874D01*
X14269776Y2955838D01*
X14268313Y2951225D01*
X14268311Y2951221D01*
X14266821Y2946524D01*
X14207484Y2759468D01*
X14206944Y2754656D01*
X14206944Y2754655D01*
X14205865Y2745030D01*
X14184520Y2554738D01*
X13754138Y2554738D01*
X13735480Y2745030D01*
X13732520Y2754836D01*
X13677333Y2937620D01*
X13675935Y2942251D01*
X13579218Y3124151D01*
X13449011Y3283800D01*
X13290275Y3415118D01*
X13109055Y3513103D01*
X13005738Y3545085D01*
X12916875Y3572593D01*
X12916871Y3572594D01*
X12912254Y3574023D01*
X12907446Y3574528D01*
X12907443Y3574529D01*
X12712185Y3595051D01*
X12712183Y3595051D01*
X12707369Y3595557D01*
X12651800Y3590500D01*
X12507022Y3577325D01*
X12507017Y3577324D01*
X12502203Y3576886D01*
X12304572Y3518720D01*
X12300288Y3516481D01*
X12300287Y3516480D01*
X12289428Y3510803D01*
X12122002Y3423274D01*
X12118231Y3420242D01*
X11965220Y3297219D01*
X11965217Y3297217D01*
X11961447Y3294185D01*
X11958333Y3290474D01*
X11958332Y3290473D01*
X11906919Y3229201D01*
X11829024Y3136370D01*
X11826689Y3132122D01*
X11826688Y3132121D01*
X11819955Y3119874D01*
X11729776Y2955838D01*
X11728313Y2951225D01*
X11728311Y2951221D01*
X11726821Y2946524D01*
X11667484Y2759468D01*
X11666944Y2754656D01*
X11666944Y2754655D01*
X11665865Y2745030D01*
X11644520Y2554738D01*
X11661759Y2349447D01*
X11663092Y2344799D01*
X11663092Y2344798D01*
X11710699Y2178774D01*
X11718544Y2151414D01*
X11812712Y1968182D01*
X11940677Y1806730D01*
X11944357Y1803598D01*
X11944359Y1803596D01*
X11988059Y1766405D01*
X12097564Y1673209D01*
X12101787Y1670849D01*
X12101791Y1670846D01*
X12183695Y1625072D01*
X12277398Y1572703D01*
X12281996Y1571209D01*
X12468724Y1510537D01*
X12468726Y1510536D01*
X12473329Y1509041D01*
X12677894Y1484649D01*
X12682716Y1485020D01*
X12682718Y1485020D01*
X12690380Y1485610D01*
X12707692Y1486942D01*
X12767161Y1472555D01*
X12785291Y1458238D01*
X13465680Y777849D01*
X13468380Y774720D01*
X13470575Y770231D01*
X13477278Y764013D01*
X13506822Y736607D01*
X13509498Y734031D01*
X13523277Y720252D01*
X13526987Y717707D01*
X13530900Y714271D01*
X13552646Y694099D01*
X13561134Y690712D01*
X13561135Y690712D01*
X13563336Y689834D01*
X13582652Y679520D01*
X13584607Y678179D01*
X13584610Y678178D01*
X13592146Y673008D01*
X13618058Y666859D01*
X13631884Y662486D01*
X13650132Y655206D01*
X13650134Y655206D01*
X13656622Y652617D01*
X13662915Y652000D01*
X13669084Y652000D01*
X13691943Y649325D01*
X13692173Y649270D01*
X13692175Y649270D01*
X13701066Y647160D01*
X13729988Y651096D01*
X13743337Y652000D01*
X15821492Y652000D01*
X15825617Y651697D01*
X15830342Y650075D01*
X15879761Y651930D01*
X15883474Y652000D01*
X15902948Y652000D01*
X15907378Y652825D01*
X15912571Y653161D01*
X15928602Y653763D01*
X15933075Y653931D01*
X15942208Y654274D01*
X15950602Y657880D01*
X15950605Y657881D01*
X15952783Y658817D01*
X15973734Y665183D01*
X15985053Y667291D01*
X16007729Y681268D01*
X16020596Y687952D01*
X16038642Y695705D01*
X16038643Y695706D01*
X16045063Y698464D01*
X16049949Y702478D01*
X16054313Y706842D01*
X16072368Y721113D01*
X16080348Y726032D01*
X16098018Y749269D01*
X16106810Y759339D01*
X17168637Y1821166D01*
X17171766Y1823866D01*
X17176255Y1826061D01*
X17209879Y1862308D01*
X17212455Y1864984D01*
X17226234Y1878763D01*
X17228779Y1882473D01*
X17232215Y1886386D01*
X17246171Y1901431D01*
X17252387Y1908132D01*
X17256652Y1918822D01*
X17266966Y1938138D01*
X17268307Y1940093D01*
X17268308Y1940096D01*
X17273478Y1947632D01*
X17279627Y1973545D01*
X17284000Y1987370D01*
X17291280Y2005618D01*
X17291280Y2005620D01*
X17293869Y2012108D01*
X17294486Y2018401D01*
X17294486Y2024570D01*
X17297161Y2047429D01*
X17297216Y2047659D01*
X17297216Y2047661D01*
X17299326Y2056552D01*
X17295390Y2085474D01*
X17294486Y2098823D01*
X17294486Y5533101D01*
X17294789Y5537230D01*
X17296412Y5541956D01*
X17294556Y5591391D01*
X17294486Y5595105D01*
X17294486Y5614562D01*
X17293661Y5618992D01*
X17293325Y5624178D01*
X17292555Y5644689D01*
X17292555Y5644690D01*
X17292212Y5653822D01*
X17288606Y5662216D01*
X17288605Y5662219D01*
X17287669Y5664397D01*
X17281303Y5685348D01*
X17279195Y5696667D01*
X17265218Y5719343D01*
X17258534Y5732210D01*
X17250779Y5750261D01*
X17250778Y5750263D01*
X17248022Y5756677D01*
X17244009Y5761563D01*
X17239643Y5765929D01*
X17225371Y5783985D01*
X17225250Y5784182D01*
X17225249Y5784183D01*
X17220454Y5791962D01*
X17197229Y5809622D01*
X17187150Y5818422D01*
X16939824Y6065748D01*
X16687096Y6318475D01*
X16659319Y6372992D01*
X16658100Y6388479D01*
X16658100Y7390620D01*
X16677007Y7448811D01*
X16687097Y7460624D01*
X16788450Y7561976D01*
X16903654Y7677180D01*
X16906782Y7679880D01*
X16911270Y7682074D01*
X16944882Y7718308D01*
X16947458Y7720984D01*
X16961249Y7734775D01*
X16963794Y7738486D01*
X16967235Y7742405D01*
X16981186Y7757444D01*
X16981186Y7757445D01*
X16987402Y7764145D01*
X16990788Y7772633D01*
X16990790Y7772636D01*
X16991668Y7774837D01*
X17001982Y7794153D01*
X17003323Y7796108D01*
X17003324Y7796110D01*
X17008493Y7803645D01*
X17010771Y7813242D01*
X17014600Y7829380D01*
X17014642Y7829558D01*
X17019015Y7843383D01*
X17026295Y7861631D01*
X17026295Y7861633D01*
X17028884Y7868121D01*
X17029501Y7874414D01*
X17029501Y7880583D01*
X17032176Y7903442D01*
X17032231Y7903672D01*
X17032231Y7903674D01*
X17034341Y7912565D01*
X17030405Y7941487D01*
X17029501Y7954836D01*
X17029501Y8290022D01*
X17048408Y8348213D01*
X17058497Y8360026D01*
X17230474Y8532003D01*
X17284991Y8559780D01*
X17300478Y8560999D01*
X17506493Y8560999D01*
X17510618Y8560696D01*
X17515343Y8559074D01*
X17564762Y8560929D01*
X17568475Y8560999D01*
X17587949Y8560999D01*
X17592379Y8561824D01*
X17597572Y8562160D01*
X17613603Y8562762D01*
X17618076Y8562930D01*
X17627209Y8563273D01*
X17635603Y8566879D01*
X17635606Y8566880D01*
X17637784Y8567816D01*
X17658735Y8574182D01*
X17670054Y8576290D01*
X17692730Y8590267D01*
X17705597Y8596951D01*
X17723643Y8604704D01*
X17723644Y8604705D01*
X17730064Y8607463D01*
X17734950Y8611477D01*
X17739314Y8615841D01*
X17757369Y8630112D01*
X17765349Y8635031D01*
X17781576Y8656370D01*
X17793877Y8669781D01*
X17794340Y8670201D01*
X17796199Y8671728D01*
X17800563Y8676092D01*
X17818618Y8690363D01*
X17826598Y8695282D01*
X17844268Y8718519D01*
X17853060Y8728589D01*
X19034151Y9909680D01*
X19037280Y9912380D01*
X19041769Y9914575D01*
X19056672Y9930640D01*
X19075393Y9950822D01*
X19077969Y9953498D01*
X19091748Y9967277D01*
X19094293Y9970987D01*
X19097729Y9974900D01*
X19111684Y9989944D01*
X19117901Y9996646D01*
X19121149Y10004787D01*
X19131791Y10018618D01*
X19145908Y10033836D01*
X19148484Y10036511D01*
X19162248Y10050275D01*
X19164793Y10053986D01*
X19168221Y10057891D01*
X19188402Y10079645D01*
X19192667Y10090335D01*
X19202981Y10109651D01*
X19204322Y10111606D01*
X19204323Y10111609D01*
X19209493Y10119145D01*
X19215642Y10145058D01*
X19220015Y10158883D01*
X19227295Y10177131D01*
X19227295Y10177133D01*
X19229884Y10183621D01*
X19230501Y10189914D01*
X19230501Y10196083D01*
X19233176Y10218942D01*
X19233231Y10219172D01*
X19233231Y10219174D01*
X19235341Y10228065D01*
X19231405Y10256987D01*
X19230501Y10270336D01*
X19230501Y11305991D01*
X19230804Y11310116D01*
X19232426Y11314841D01*
X19230571Y11364261D01*
X19230501Y11367974D01*
X19230501Y11387447D01*
X19229676Y11391877D01*
X19229339Y11397082D01*
X19228570Y11417573D01*
X19228227Y11426708D01*
X19223682Y11437287D01*
X19217318Y11458236D01*
X19216885Y11460563D01*
X19216883Y11460568D01*
X19215210Y11469552D01*
X19201233Y11492228D01*
X19194549Y11505095D01*
X19186796Y11523141D01*
X19186795Y11523142D01*
X19184037Y11529562D01*
X19180023Y11534448D01*
X19175659Y11538812D01*
X19161388Y11556867D01*
X19161265Y11557066D01*
X19156469Y11564847D01*
X19133232Y11582517D01*
X19123162Y11591309D01*
X18871496Y11842975D01*
X18843719Y11897492D01*
X18842500Y11912979D01*
X18842500Y12217022D01*
X18861407Y12275213D01*
X18871497Y12287026D01*
X19104654Y12520182D01*
X19107782Y12522882D01*
X19112270Y12525076D01*
X19145882Y12561310D01*
X19148458Y12563986D01*
X19162249Y12577777D01*
X19164794Y12581488D01*
X19168235Y12585407D01*
X19182186Y12600446D01*
X19182186Y12600447D01*
X19188402Y12607147D01*
X19191788Y12615635D01*
X19191790Y12615638D01*
X19192668Y12617839D01*
X19202982Y12637155D01*
X19204323Y12639110D01*
X19204324Y12639112D01*
X19209493Y12646647D01*
X19215642Y12672560D01*
X19220015Y12686385D01*
X19227295Y12704633D01*
X19227295Y12704635D01*
X19229884Y12711123D01*
X19230501Y12717416D01*
X19230501Y12723585D01*
X19233176Y12746444D01*
X19233231Y12746674D01*
X19233231Y12746676D01*
X19235341Y12755567D01*
X19231405Y12784489D01*
X19230501Y12797838D01*
X19230501Y13845991D01*
X19230804Y13850116D01*
X19232426Y13854841D01*
X19230571Y13904261D01*
X19230501Y13907974D01*
X19230501Y13927447D01*
X19229676Y13931877D01*
X19229339Y13937082D01*
X19228570Y13957573D01*
X19228227Y13966708D01*
X19224136Y13976230D01*
X19223682Y13977287D01*
X19217318Y13998236D01*
X19216885Y14000563D01*
X19216883Y14000568D01*
X19215210Y14009552D01*
X19201233Y14032228D01*
X19194549Y14045095D01*
X19186796Y14063141D01*
X19186795Y14063142D01*
X19184037Y14069562D01*
X19180023Y14074448D01*
X19175659Y14078812D01*
X19161388Y14096867D01*
X19161265Y14097066D01*
X19156469Y14104847D01*
X19133232Y14122517D01*
X19123162Y14131309D01*
X18871496Y14382975D01*
X18843719Y14437492D01*
X18842500Y14452979D01*
X18842500Y14769520D01*
X18861407Y14827711D01*
X18871497Y14839524D01*
X18981906Y14949932D01*
X19104654Y15072680D01*
X19107782Y15075380D01*
X19112270Y15077574D01*
X19145882Y15113808D01*
X19148458Y15116484D01*
X19162249Y15130275D01*
X19164794Y15133986D01*
X19168235Y15137905D01*
X19182186Y15152944D01*
X19182186Y15152945D01*
X19188402Y15159645D01*
X19191788Y15168133D01*
X19191790Y15168136D01*
X19192668Y15170337D01*
X19202982Y15189653D01*
X19204323Y15191608D01*
X19204324Y15191610D01*
X19209493Y15199145D01*
X19215642Y15225058D01*
X19220015Y15238883D01*
X19227295Y15257131D01*
X19227295Y15257133D01*
X19229884Y15263621D01*
X19230501Y15269914D01*
X19230501Y15276083D01*
X19233176Y15298942D01*
X19233231Y15299172D01*
X19233231Y15299174D01*
X19235341Y15308065D01*
X19231405Y15336987D01*
X19230501Y15350336D01*
X19230501Y17131821D01*
X19249408Y17190012D01*
X19259497Y17201825D01*
X19542151Y17484479D01*
X19545280Y17487179D01*
X19549769Y17489374D01*
X19583393Y17525621D01*
X19585969Y17528297D01*
X19599748Y17542076D01*
X19602293Y17545786D01*
X19605729Y17549699D01*
X19619685Y17564744D01*
X19625901Y17571445D01*
X19630166Y17582135D01*
X19640480Y17601451D01*
X19641821Y17603406D01*
X19641822Y17603409D01*
X19646992Y17610945D01*
X19653141Y17636858D01*
X19657514Y17650683D01*
X19664794Y17668931D01*
X19664794Y17668933D01*
X19667383Y17675421D01*
X19668000Y17681714D01*
X19668000Y17687883D01*
X19670675Y17710742D01*
X19670730Y17710972D01*
X19670730Y17710974D01*
X19672840Y17719865D01*
X19668904Y17748787D01*
X19668000Y17762136D01*
X19668000Y32013992D01*
X19668303Y32018117D01*
X19669925Y32022842D01*
X19668070Y32072261D01*
X19668000Y32075974D01*
X19668000Y32095448D01*
X19667175Y32099878D01*
X19666838Y32105083D01*
X19666069Y32125575D01*
X19665726Y32134708D01*
X19662120Y32143102D01*
X19662119Y32143105D01*
X19661183Y32145283D01*
X19654817Y32166234D01*
X19652709Y32177553D01*
X19638732Y32200229D01*
X19632048Y32213096D01*
X19624295Y32231142D01*
X19624294Y32231143D01*
X19621536Y32237563D01*
X19617522Y32242449D01*
X19613158Y32246813D01*
X19598887Y32264868D01*
X19598764Y32265067D01*
X19593968Y32272848D01*
X19570731Y32290518D01*
X19560661Y32299310D01*
X18757798Y33102173D01*
X18730021Y33156690D01*
X18740908Y33216603D01*
X18739963Y33217024D01*
X18741688Y33220899D01*
X18741720Y33221074D01*
X18744323Y33225656D01*
X18750310Y33243652D01*
X18807824Y33416546D01*
X18807824Y33416548D01*
X18809351Y33421137D01*
X18812518Y33446202D01*
X18832112Y33601311D01*
X18835171Y33625526D01*
X18835583Y33655000D01*
X18835313Y33657756D01*
X18815952Y33855220D01*
X18815950Y33855232D01*
X18815480Y33860030D01*
X18811597Y33872893D01*
X18757333Y34052620D01*
X18755935Y34057251D01*
X18659218Y34239151D01*
X18529011Y34398800D01*
X18524327Y34402675D01*
X18374002Y34527035D01*
X18374000Y34527036D01*
X18370275Y34530118D01*
X18223437Y34609513D01*
X18193309Y34625803D01*
X18193308Y34625803D01*
X18189055Y34628103D01*
X18110745Y34652344D01*
X17996875Y34687593D01*
X17996871Y34687594D01*
X17992254Y34689023D01*
X17987446Y34689528D01*
X17987443Y34689529D01*
X17792185Y34710051D01*
X17792183Y34710051D01*
X17787369Y34710557D01*
X17728251Y34705177D01*
X17587022Y34692325D01*
X17587017Y34692324D01*
X17582203Y34691886D01*
X17384572Y34633720D01*
X17380288Y34631481D01*
X17380287Y34631480D01*
X17369428Y34625803D01*
X17202002Y34538274D01*
X17194720Y34532419D01*
X17045221Y34412220D01*
X17045217Y34412216D01*
X17041447Y34409185D01*
X17041068Y34408733D01*
X16987469Y34382122D01*
X16927140Y34392321D01*
X16884328Y34436034D01*
X16874000Y34480059D01*
X16874000Y35144658D01*
X16883906Y35187823D01*
X16902504Y35226209D01*
X16928210Y35279267D01*
X16931197Y35297021D01*
X16937702Y35335685D01*
X16966002Y35389933D01*
X17020783Y35417185D01*
X17081120Y35407034D01*
X17099492Y35394653D01*
X17177564Y35328209D01*
X17181787Y35325849D01*
X17181791Y35325846D01*
X17265135Y35279267D01*
X17357398Y35227703D01*
X17361996Y35226209D01*
X17548724Y35165537D01*
X17548726Y35165536D01*
X17553329Y35164041D01*
X17757894Y35139649D01*
X17762716Y35140020D01*
X17762719Y35140020D01*
X17830541Y35145239D01*
X17963300Y35155454D01*
X18161725Y35210855D01*
X18166038Y35213034D01*
X18166044Y35213036D01*
X18341289Y35301559D01*
X18341291Y35301560D01*
X18345610Y35303742D01*
X18380943Y35331347D01*
X18504135Y35427594D01*
X18504139Y35427598D01*
X18507951Y35430576D01*
X18514341Y35437978D01*
X18581662Y35515972D01*
X18642564Y35586528D01*
X18661231Y35619387D01*
X18741934Y35761450D01*
X18741935Y35761453D01*
X18744323Y35765656D01*
X18757882Y35806414D01*
X18807824Y35956546D01*
X18807824Y35956548D01*
X18809351Y35961137D01*
X18835171Y36165526D01*
X18835583Y36195000D01*
X18825674Y36296064D01*
X18815952Y36395220D01*
X18815951Y36395224D01*
X18815480Y36400030D01*
X18813715Y36405878D01*
X18757333Y36592620D01*
X18755935Y36597251D01*
X18659218Y36779151D01*
X18529011Y36938800D01*
X18370275Y37070118D01*
X18189055Y37168103D01*
X18125855Y37187667D01*
X17996875Y37227593D01*
X17996871Y37227594D01*
X17992254Y37229023D01*
X17987446Y37229528D01*
X17987443Y37229529D01*
X17792185Y37250051D01*
X17792183Y37250051D01*
X17787369Y37250557D01*
X17727354Y37245095D01*
X17587022Y37232325D01*
X17587017Y37232324D01*
X17582203Y37231886D01*
X17384572Y37173720D01*
X17380288Y37171481D01*
X17380287Y37171480D01*
X17369428Y37165803D01*
X17202002Y37078274D01*
X17198231Y37075242D01*
X17045220Y36952219D01*
X17045217Y36952217D01*
X17041447Y36949185D01*
X17038333Y36945474D01*
X17038332Y36945473D01*
X17029585Y36935048D01*
X16909024Y36791370D01*
X16906689Y36787122D01*
X16906688Y36787121D01*
X16899955Y36774874D01*
X16809776Y36610838D01*
X16747484Y36414468D01*
X16746944Y36409656D01*
X16746944Y36409655D01*
X16726002Y36222948D01*
X16724520Y36209738D01*
X16724925Y36204918D01*
X16741430Y36008362D01*
X16727458Y35948793D01*
X16681141Y35908814D01*
X16614411Y35905229D01*
X16528000Y35931071D01*
X16521239Y35933093D01*
X16437997Y35933602D01*
X16384927Y35933926D01*
X16384926Y35933926D01*
X16377876Y35933969D01*
X16371099Y35932032D01*
X16371098Y35932032D01*
X16246809Y35896510D01*
X16246807Y35896509D01*
X16240029Y35894572D01*
X16118780Y35818070D01*
X16114113Y35812786D01*
X16114111Y35812784D01*
X16028544Y35715897D01*
X16028542Y35715895D01*
X16023877Y35710612D01*
X15962947Y35580837D01*
X15961862Y35573868D01*
X15961861Y35573865D01*
X15948866Y35490400D01*
X15940891Y35439177D01*
X15941806Y35432180D01*
X15941806Y35432179D01*
X15947330Y35389933D01*
X15959480Y35297021D01*
X15962321Y35290565D01*
X15962321Y35290564D01*
X15989981Y35227703D01*
X16017220Y35165797D01*
X16035744Y35143760D01*
X16104931Y35061451D01*
X16104934Y35061449D01*
X16109470Y35056052D01*
X16115341Y35052144D01*
X16115342Y35052143D01*
X16228813Y34976610D01*
X16226842Y34973649D01*
X16260601Y34942149D01*
X16273000Y34894178D01*
X16273000Y33078989D01*
X16254093Y33020798D01*
X16244004Y33008985D01*
X15382383Y32147364D01*
X15327866Y32119587D01*
X15267434Y32129158D01*
X15224169Y32172423D01*
X15214598Y32232855D01*
X15225624Y32265061D01*
X15228825Y32270883D01*
X15233892Y32277311D01*
X15236458Y32284618D01*
X15237105Y32285863D01*
X15241611Y32292169D01*
X15255293Y32337917D01*
X15256734Y32342351D01*
X15270492Y32381530D01*
X15270493Y32381533D01*
X15272555Y32387406D01*
X15273000Y32392544D01*
X15273000Y32394682D01*
X15273074Y32396400D01*
X15273189Y32397761D01*
X15275044Y32403963D01*
X15273076Y32454054D01*
X15273000Y32457941D01*
X15273000Y33162552D01*
X15275218Y33183388D01*
X15275728Y33185759D01*
X15277451Y33193761D01*
X15273686Y33225571D01*
X15273339Y33231463D01*
X15273336Y33231463D01*
X15273000Y33235530D01*
X15273000Y33239615D01*
X15272330Y33243641D01*
X15272329Y33243652D01*
X15270004Y33257619D01*
X15269346Y33262238D01*
X15268582Y33268693D01*
X15263736Y33309639D01*
X15260385Y33316619D01*
X15259960Y33317960D01*
X15258688Y33325603D01*
X15236000Y33367650D01*
X15233895Y33371783D01*
X15231863Y33376016D01*
X15223729Y33392955D01*
X15215925Y33409207D01*
X15215924Y33409209D01*
X15213226Y33414827D01*
X15209908Y33418774D01*
X15208402Y33420280D01*
X15207220Y33421569D01*
X15206351Y33422598D01*
X15203278Y33428294D01*
X15197273Y33433845D01*
X15197269Y33433850D01*
X15166482Y33462309D01*
X15163679Y33465003D01*
X13235745Y35392937D01*
X13222580Y35409240D01*
X13221267Y35411274D01*
X13221264Y35411278D01*
X13216825Y35418152D01*
X13191668Y35437985D01*
X13187263Y35441899D01*
X13187262Y35441898D01*
X13184131Y35444551D01*
X13181254Y35447428D01*
X13166399Y35458044D01*
X13162681Y35460835D01*
X13159726Y35463165D01*
X13125189Y35490392D01*
X13117882Y35492958D01*
X13116637Y35493605D01*
X13110331Y35498111D01*
X13066223Y35511302D01*
X13064585Y35511792D01*
X13060149Y35513233D01*
X13020967Y35526993D01*
X13020964Y35526994D01*
X13015094Y35529055D01*
X13009956Y35529500D01*
X13007818Y35529500D01*
X13006099Y35529574D01*
X13004738Y35529689D01*
X12998536Y35531544D01*
X12990365Y35531223D01*
X12948446Y35529576D01*
X12944559Y35529500D01*
X10842953Y35529500D01*
X10822117Y35531718D01*
X10820782Y35532005D01*
X10819739Y35532230D01*
X10819738Y35532230D01*
X10811740Y35533952D01*
X10780572Y35530263D01*
X10779921Y35530186D01*
X10774043Y35529839D01*
X10774043Y35529837D01*
X10769965Y35529500D01*
X10765885Y35529500D01*
X10761862Y35528830D01*
X10761858Y35528830D01*
X10755239Y35527728D01*
X10747904Y35526507D01*
X10743300Y35525851D01*
X10695862Y35520237D01*
X10688877Y35516882D01*
X10687543Y35516460D01*
X10679897Y35515188D01*
X10637859Y35492505D01*
X10633733Y35490403D01*
X10590674Y35469727D01*
X10586726Y35466408D01*
X10585221Y35464903D01*
X10583930Y35463719D01*
X10582902Y35462852D01*
X10577206Y35459778D01*
X10571655Y35453773D01*
X10571650Y35453769D01*
X10543191Y35422982D01*
X10540497Y35420179D01*
X9946063Y34825745D01*
X9929760Y34812580D01*
X9927726Y34811267D01*
X9927722Y34811264D01*
X9920848Y34806825D01*
X9901015Y34781668D01*
X9897101Y34777263D01*
X9897102Y34777262D01*
X9894449Y34774131D01*
X9891572Y34771254D01*
X9880956Y34756399D01*
X9878170Y34752688D01*
X9848608Y34715189D01*
X9846042Y34707882D01*
X9845395Y34706637D01*
X9840889Y34700331D01*
X9837080Y34687593D01*
X9827208Y34654585D01*
X9825767Y34650149D01*
X9816356Y34623349D01*
X9809945Y34605094D01*
X9809500Y34599956D01*
X9809500Y34597818D01*
X9809426Y34596099D01*
X9809311Y34594738D01*
X9807456Y34588536D01*
X9807777Y34580365D01*
X9809424Y34538446D01*
X9809500Y34534559D01*
X9809500Y34181500D01*
X9790593Y34123309D01*
X9741093Y34087345D01*
X9710500Y34082500D01*
X9007162Y34082500D01*
X8948971Y34101407D01*
X8932163Y34116877D01*
X8896994Y34157693D01*
X8896993Y34157694D01*
X8892389Y34163037D01*
X8772084Y34241015D01*
X8634728Y34282093D01*
X8551486Y34282602D01*
X8498416Y34282926D01*
X8498415Y34282926D01*
X8491365Y34282969D01*
X8484588Y34281032D01*
X8484587Y34281032D01*
X8360298Y34245510D01*
X8360296Y34245509D01*
X8353518Y34243572D01*
X8232269Y34167070D01*
X8227602Y34161786D01*
X8227600Y34161784D01*
X8142033Y34064897D01*
X8142031Y34064895D01*
X8137366Y34059612D01*
X8076436Y33929837D01*
X8075351Y33922868D01*
X8075350Y33922865D01*
X8069296Y33883979D01*
X8054380Y33788177D01*
X8055295Y33781180D01*
X8055295Y33781179D01*
X8060969Y33737791D01*
X8072969Y33646021D01*
X8075810Y33639565D01*
X8075810Y33639564D01*
X8124506Y33528895D01*
X8130709Y33514797D01*
X8143781Y33499246D01*
X8218420Y33410451D01*
X8218423Y33410449D01*
X8222959Y33405052D01*
X8228830Y33401144D01*
X8228831Y33401143D01*
X8243962Y33391071D01*
X8342302Y33325610D01*
X8419424Y33301516D01*
X8472414Y33284961D01*
X8472415Y33284961D01*
X8479146Y33282858D01*
X8550817Y33281544D01*
X8615434Y33280359D01*
X8615436Y33280359D01*
X8622488Y33280230D01*
X8629291Y33282085D01*
X8629293Y33282085D01*
X8739143Y33312034D01*
X8760806Y33317940D01*
X8882980Y33392955D01*
X8890392Y33401143D01*
X8933651Y33448936D01*
X8986719Y33479390D01*
X9007049Y33481500D01*
X9712597Y33481500D01*
X9770788Y33462593D01*
X9788380Y33446202D01*
X9818431Y33410451D01*
X9818434Y33410449D01*
X9822970Y33405052D01*
X9828841Y33401144D01*
X9828842Y33401143D01*
X9843973Y33391071D01*
X9942313Y33325610D01*
X10019435Y33301516D01*
X10072425Y33284961D01*
X10072426Y33284961D01*
X10079157Y33282858D01*
X10150828Y33281544D01*
X10215445Y33280359D01*
X10215447Y33280359D01*
X10222499Y33280230D01*
X10229302Y33282085D01*
X10229304Y33282085D01*
X10339154Y33312034D01*
X10360817Y33317940D01*
X10482991Y33392955D01*
X10490403Y33401143D01*
X10574468Y33494018D01*
X10579200Y33499246D01*
X10641710Y33628267D01*
X10644636Y33645655D01*
X10664862Y33765876D01*
X10664862Y33765880D01*
X10665496Y33769646D01*
X10665647Y33782000D01*
X10645323Y33923918D01*
X10622367Y33974407D01*
X10588905Y34048004D01*
X10588904Y34048005D01*
X10585984Y34054428D01*
X10534501Y34114177D01*
X10510840Y34170602D01*
X10510500Y34178800D01*
X10510500Y34357810D01*
X10529407Y34416001D01*
X10539496Y34427814D01*
X10911186Y34799504D01*
X10965703Y34827281D01*
X10981190Y34828500D01*
X12767810Y34828500D01*
X12826001Y34809593D01*
X12837814Y34799504D01*
X14543004Y33094314D01*
X14570781Y33039797D01*
X14572000Y33024310D01*
X14572000Y32634690D01*
X14553093Y32576499D01*
X14543004Y32564686D01*
X14010063Y32031745D01*
X13993760Y32018580D01*
X13991726Y32017267D01*
X13991722Y32017264D01*
X13984848Y32012825D01*
X13965015Y31987668D01*
X13961101Y31983263D01*
X13961102Y31983262D01*
X13958449Y31980131D01*
X13955572Y31977254D01*
X13944956Y31962399D01*
X13942170Y31958688D01*
X13912608Y31921189D01*
X13910042Y31913882D01*
X13909395Y31912637D01*
X13904889Y31906331D01*
X13902545Y31898492D01*
X13891208Y31860585D01*
X13889767Y31856149D01*
X13879185Y31826015D01*
X13873945Y31811094D01*
X13873500Y31805956D01*
X13873500Y31803818D01*
X13873426Y31802099D01*
X13873311Y31800738D01*
X13871456Y31794536D01*
X13871777Y31786365D01*
X13873424Y31744446D01*
X13873500Y31740559D01*
X13873500Y31173956D01*
X13871282Y31153120D01*
X13869049Y31142747D01*
X13871875Y31118874D01*
X13872814Y31110937D01*
X13873161Y31105045D01*
X13873164Y31105045D01*
X13873500Y31100978D01*
X13873500Y31096893D01*
X13874170Y31092867D01*
X13874171Y31092856D01*
X13876496Y31078889D01*
X13877154Y31074270D01*
X13881674Y31036082D01*
X13882764Y31026870D01*
X13886118Y31019886D01*
X13886539Y31018554D01*
X13887812Y31010905D01*
X13910505Y30968848D01*
X13912605Y30964725D01*
X13930580Y30927291D01*
X13930582Y30927287D01*
X13933274Y30921682D01*
X13936592Y30917734D01*
X13938100Y30916226D01*
X13939282Y30914937D01*
X13940148Y30913911D01*
X13943222Y30908214D01*
X13949227Y30902663D01*
X13949231Y30902658D01*
X13980018Y30874199D01*
X13982821Y30871505D01*
X14382089Y30472237D01*
X14409866Y30417720D01*
X14400295Y30357288D01*
X14386289Y30336699D01*
X14314044Y30254897D01*
X14314042Y30254895D01*
X14309377Y30249612D01*
X14248447Y30119837D01*
X14247362Y30112868D01*
X14247361Y30112865D01*
X14237813Y30051540D01*
X14226391Y29978177D01*
X14227306Y29971180D01*
X14227306Y29971179D01*
X14230929Y29943470D01*
X14244980Y29836021D01*
X14247821Y29829565D01*
X14247821Y29829564D01*
X14277283Y29762608D01*
X14302720Y29704797D01*
X14330308Y29671977D01*
X14390431Y29600451D01*
X14390434Y29600449D01*
X14394970Y29595052D01*
X14514313Y29515610D01*
X14614920Y29484179D01*
X14644425Y29474961D01*
X14644426Y29474961D01*
X14651157Y29472858D01*
X14768671Y29470704D01*
X14826505Y29450734D01*
X14834185Y29444300D01*
X14840323Y29438606D01*
X14842998Y29436031D01*
X14856777Y29422252D01*
X14860487Y29419707D01*
X14864400Y29416271D01*
X14878389Y29403295D01*
X14886146Y29396099D01*
X14894632Y29392713D01*
X14894634Y29392712D01*
X14896837Y29391833D01*
X14916148Y29381522D01*
X14918107Y29380178D01*
X14918110Y29380177D01*
X14925646Y29375007D01*
X14934538Y29372897D01*
X14934540Y29372896D01*
X14951566Y29368856D01*
X14965385Y29364486D01*
X14990122Y29354617D01*
X14996415Y29354000D01*
X15002585Y29354000D01*
X15025441Y29351325D01*
X15034566Y29349160D01*
X15063488Y29353096D01*
X15076837Y29354000D01*
X16849963Y29354000D01*
X16908154Y29335093D01*
X16944118Y29285593D01*
X16944118Y29224407D01*
X16925801Y29191364D01*
X16909024Y29171370D01*
X16906689Y29167122D01*
X16906688Y29167121D01*
X16902255Y29159058D01*
X16809776Y28990838D01*
X16808313Y28986225D01*
X16808311Y28986221D01*
X16773115Y28875268D01*
X16747484Y28794468D01*
X16746944Y28789656D01*
X16746944Y28789655D01*
X16731967Y28656127D01*
X16724520Y28589738D01*
X16741759Y28384447D01*
X16743092Y28379799D01*
X16743092Y28379798D01*
X16779602Y28252474D01*
X16798544Y28186414D01*
X16892712Y28003182D01*
X17020677Y27841730D01*
X17024357Y27838598D01*
X17024359Y27838596D01*
X17064657Y27804300D01*
X17177564Y27708209D01*
X17181787Y27705849D01*
X17181791Y27705846D01*
X17298702Y27640507D01*
X17357398Y27607703D01*
X17361996Y27606209D01*
X17548724Y27545537D01*
X17548726Y27545536D01*
X17553329Y27544041D01*
X17757894Y27519649D01*
X17762716Y27520020D01*
X17762719Y27520020D01*
X17830541Y27525239D01*
X17963300Y27535454D01*
X18161725Y27590855D01*
X18166038Y27593034D01*
X18166044Y27593036D01*
X18341289Y27681559D01*
X18341291Y27681560D01*
X18345610Y27683742D01*
X18380943Y27711347D01*
X18504135Y27807594D01*
X18504139Y27807598D01*
X18507951Y27810576D01*
X18538115Y27845521D01*
X18594546Y27910898D01*
X18642564Y27966528D01*
X18661231Y27999387D01*
X18741934Y28141450D01*
X18741935Y28141453D01*
X18744323Y28145656D01*
X18757882Y28186414D01*
X18807824Y28336546D01*
X18807824Y28336548D01*
X18809351Y28341137D01*
X18835171Y28545526D01*
X18835583Y28575000D01*
X18833667Y28594546D01*
X18815952Y28775220D01*
X18815951Y28775224D01*
X18815480Y28780030D01*
X18795584Y28845930D01*
X18764585Y28948602D01*
X18755935Y28977251D01*
X18659218Y29159151D01*
X18529011Y29318800D01*
X18509316Y29335093D01*
X18374002Y29447035D01*
X18374000Y29447036D01*
X18370275Y29450118D01*
X18208112Y29537799D01*
X18193309Y29545803D01*
X18193308Y29545803D01*
X18189055Y29548103D01*
X18069466Y29585122D01*
X17996875Y29607593D01*
X17996871Y29607594D01*
X17992254Y29609023D01*
X17987446Y29609528D01*
X17987443Y29609529D01*
X17792185Y29630051D01*
X17792183Y29630051D01*
X17787369Y29630557D01*
X17741748Y29626405D01*
X17682084Y29639961D01*
X17641782Y29685997D01*
X17635148Y29741423D01*
X17649862Y29828878D01*
X17649862Y29828882D01*
X17650496Y29832648D01*
X17650647Y29845002D01*
X17635784Y29948787D01*
X17646251Y30009071D01*
X17690153Y30051689D01*
X17745504Y30061126D01*
X17750416Y30060541D01*
X17757894Y30059649D01*
X17762716Y30060020D01*
X17762719Y30060020D01*
X17830541Y30065239D01*
X17963300Y30075454D01*
X18149805Y30127527D01*
X18210937Y30124965D01*
X18258887Y30086960D01*
X18274592Y30045011D01*
X18280470Y30000058D01*
X18283311Y29993602D01*
X18283311Y29993601D01*
X18324650Y29899652D01*
X18338210Y29868834D01*
X18371798Y29828876D01*
X18425921Y29764488D01*
X18425924Y29764486D01*
X18430460Y29759089D01*
X18549803Y29679647D01*
X18627818Y29655274D01*
X18679915Y29638998D01*
X18679916Y29638998D01*
X18686647Y29636895D01*
X18758318Y29635581D01*
X18822935Y29634396D01*
X18822937Y29634396D01*
X18829989Y29634267D01*
X18836792Y29636122D01*
X18836794Y29636122D01*
X18941960Y29664794D01*
X19003075Y29661858D01*
X19050792Y29623561D01*
X19067000Y29569280D01*
X19067000Y25664981D01*
X19048093Y25606790D01*
X18998593Y25570826D01*
X18937407Y25570826D01*
X18897996Y25594977D01*
X18823252Y25669721D01*
X18795475Y25724238D01*
X18799317Y25770975D01*
X18801723Y25778205D01*
X18809351Y25801137D01*
X18813220Y25831759D01*
X18834823Y26002772D01*
X18835171Y26005526D01*
X18835583Y26035000D01*
X18835313Y26037756D01*
X18815952Y26235220D01*
X18815951Y26235224D01*
X18815480Y26240030D01*
X18813393Y26246945D01*
X18757333Y26432620D01*
X18755935Y26437251D01*
X18659218Y26619151D01*
X18529011Y26778800D01*
X18512790Y26792219D01*
X18374002Y26907035D01*
X18374000Y26907036D01*
X18370275Y26910118D01*
X18189055Y27008103D01*
X18125855Y27027667D01*
X17996875Y27067593D01*
X17996871Y27067594D01*
X17992254Y27069023D01*
X17987446Y27069528D01*
X17987443Y27069529D01*
X17792185Y27090051D01*
X17792183Y27090051D01*
X17787369Y27090557D01*
X17727354Y27085095D01*
X17587022Y27072325D01*
X17587017Y27072324D01*
X17582203Y27071886D01*
X17384572Y27013720D01*
X17380288Y27011481D01*
X17380287Y27011480D01*
X17369428Y27005803D01*
X17202002Y26918274D01*
X17198231Y26915242D01*
X17045220Y26792219D01*
X17045217Y26792217D01*
X17041447Y26789185D01*
X17038333Y26785474D01*
X17038332Y26785473D01*
X16915368Y26638930D01*
X16909024Y26631370D01*
X16906689Y26627122D01*
X16906688Y26627121D01*
X16899955Y26614874D01*
X16809776Y26450838D01*
X16808313Y26446225D01*
X16808311Y26446221D01*
X16776658Y26346436D01*
X16747484Y26254468D01*
X16746944Y26249656D01*
X16746944Y26249655D01*
X16736450Y26156093D01*
X16724520Y26049738D01*
X16727210Y26017704D01*
X16740233Y25862622D01*
X16741759Y25844447D01*
X16743092Y25839799D01*
X16743092Y25839798D01*
X16796465Y25653665D01*
X16798544Y25646414D01*
X16800759Y25642104D01*
X16801369Y25640917D01*
X16892712Y25463182D01*
X17020677Y25301730D01*
X17024357Y25298598D01*
X17024359Y25298596D01*
X17127113Y25211146D01*
X17177564Y25168209D01*
X17181787Y25165849D01*
X17181791Y25165846D01*
X17221342Y25143742D01*
X17357398Y25067703D01*
X17361996Y25066209D01*
X17548724Y25005537D01*
X17548726Y25005536D01*
X17553329Y25004041D01*
X17757894Y24979649D01*
X17762716Y24980020D01*
X17762719Y24980020D01*
X17830541Y24985239D01*
X17963300Y24995454D01*
X18161725Y25050855D01*
X18166038Y25053034D01*
X18166044Y25053036D01*
X18341289Y25141559D01*
X18341291Y25141560D01*
X18345610Y25143742D01*
X18362864Y25157222D01*
X18420356Y25178149D01*
X18479172Y25161285D01*
X18493817Y25149213D01*
X18637993Y25005037D01*
X18665770Y24950520D01*
X18666989Y24935033D01*
X18666989Y24335041D01*
X18648082Y24276850D01*
X18598582Y24240886D01*
X18537396Y24240886D01*
X18504884Y24258760D01*
X18374002Y24367035D01*
X18374000Y24367036D01*
X18370275Y24370118D01*
X18189055Y24468103D01*
X18089117Y24499039D01*
X17996875Y24527593D01*
X17996871Y24527594D01*
X17992254Y24529023D01*
X17987446Y24529528D01*
X17987443Y24529529D01*
X17792185Y24550051D01*
X17792183Y24550051D01*
X17787369Y24550557D01*
X17727354Y24545095D01*
X17587022Y24532325D01*
X17587017Y24532324D01*
X17582203Y24531886D01*
X17384572Y24473720D01*
X17380288Y24471481D01*
X17380287Y24471480D01*
X17369430Y24465804D01*
X17202002Y24378274D01*
X17198231Y24375242D01*
X17045220Y24252219D01*
X17045217Y24252217D01*
X17041447Y24249185D01*
X17038333Y24245474D01*
X17038332Y24245473D01*
X16915368Y24098930D01*
X16909024Y24091370D01*
X16906689Y24087122D01*
X16906688Y24087121D01*
X16900642Y24076123D01*
X16809776Y23910838D01*
X16808313Y23906225D01*
X16808311Y23906221D01*
X16794431Y23862464D01*
X16747484Y23714468D01*
X16746944Y23709656D01*
X16746944Y23709655D01*
X16732383Y23579836D01*
X16724520Y23509738D01*
X16724925Y23504918D01*
X16741009Y23313384D01*
X16741759Y23304447D01*
X16743092Y23299799D01*
X16743092Y23299798D01*
X16790096Y23135877D01*
X16798544Y23106414D01*
X16800759Y23102104D01*
X16845628Y23014798D01*
X16892712Y22923182D01*
X17020677Y22761730D01*
X17024357Y22758598D01*
X17024359Y22758596D01*
X17135122Y22664329D01*
X17167182Y22612216D01*
X17162488Y22551211D01*
X17140962Y22518933D01*
X16227359Y21605330D01*
X16224230Y21602630D01*
X16219741Y21600435D01*
X16213523Y21593732D01*
X16186117Y21564188D01*
X16183541Y21561512D01*
X16169762Y21547733D01*
X16167217Y21544023D01*
X16163781Y21540110D01*
X16143609Y21518364D01*
X16140222Y21509876D01*
X16140222Y21509875D01*
X16139344Y21507674D01*
X16129030Y21488358D01*
X16127689Y21486403D01*
X16127688Y21486400D01*
X16122518Y21478864D01*
X16120408Y21469972D01*
X16116369Y21452952D01*
X16111996Y21439126D01*
X16104716Y21420878D01*
X16102127Y21414388D01*
X16101510Y21408095D01*
X16101510Y21401926D01*
X16098835Y21379067D01*
X16096670Y21369944D01*
X16099028Y21352620D01*
X16100606Y21341023D01*
X16101510Y21327673D01*
X16101510Y20758489D01*
X16082603Y20700298D01*
X16072514Y20688486D01*
X15906526Y20522497D01*
X15852009Y20494719D01*
X15836522Y20493500D01*
X8928479Y20493500D01*
X8870288Y20512407D01*
X8858475Y20522496D01*
X8711496Y20669475D01*
X8683719Y20723992D01*
X8682500Y20739479D01*
X8682500Y22280956D01*
X8701407Y22339147D01*
X8708102Y22347392D01*
X8796468Y22445018D01*
X8801200Y22450246D01*
X8863710Y22579267D01*
X8867461Y22601559D01*
X8886862Y22716876D01*
X8886862Y22716880D01*
X8887496Y22720646D01*
X8887647Y22733000D01*
X8867323Y22874918D01*
X8819647Y22979776D01*
X8810905Y22999004D01*
X8810904Y22999005D01*
X8807984Y23005428D01*
X8747582Y23075528D01*
X8719005Y23108693D01*
X8719004Y23108694D01*
X8714400Y23114037D01*
X8594095Y23192015D01*
X8587337Y23194036D01*
X8587335Y23194037D01*
X8497621Y23220867D01*
X8447287Y23255655D01*
X8427014Y23313384D01*
X8428359Y23332141D01*
X8442362Y23415372D01*
X8442362Y23415376D01*
X8442996Y23419142D01*
X8443147Y23431496D01*
X8422823Y23573414D01*
X8373645Y23681576D01*
X8366405Y23697500D01*
X8366404Y23697501D01*
X8363484Y23703924D01*
X8269900Y23812533D01*
X8149595Y23890511D01*
X8012239Y23931589D01*
X7928997Y23932098D01*
X7875927Y23932422D01*
X7875926Y23932422D01*
X7868876Y23932465D01*
X7862099Y23930528D01*
X7862098Y23930528D01*
X7737809Y23895006D01*
X7737807Y23895005D01*
X7731029Y23893068D01*
X7609780Y23816566D01*
X7605113Y23811282D01*
X7605111Y23811280D01*
X7519544Y23714393D01*
X7519542Y23714391D01*
X7514877Y23709108D01*
X7511881Y23702726D01*
X7511880Y23702725D01*
X7501951Y23681576D01*
X7453947Y23579333D01*
X7431891Y23437673D01*
X7432806Y23430676D01*
X7432806Y23430675D01*
X7440367Y23372857D01*
X7434956Y23335444D01*
X7437499Y23334840D01*
X7431350Y23308929D01*
X7426977Y23295103D01*
X7419699Y23276861D01*
X7419698Y23276857D01*
X7417108Y23270365D01*
X7417064Y23269913D01*
X7386496Y23220371D01*
X7329896Y23197129D01*
X7294064Y23200998D01*
X7283843Y23204055D01*
X7186739Y23233095D01*
X7103497Y23233604D01*
X7050427Y23233928D01*
X7050426Y23233928D01*
X7043376Y23233971D01*
X6938703Y23204055D01*
X6877558Y23206244D01*
X6829376Y23243955D01*
X6812499Y23299244D01*
X6812499Y23640568D01*
X6831406Y23698759D01*
X6841495Y23710572D01*
X6966016Y23835093D01*
X7020533Y23862870D01*
X7037831Y23864072D01*
X7082147Y23863259D01*
X7125503Y23862464D01*
X7125505Y23862464D01*
X7132556Y23862335D01*
X7139359Y23864190D01*
X7139361Y23864190D01*
X7235904Y23890511D01*
X7270874Y23900045D01*
X7393048Y23975060D01*
X7489257Y24081351D01*
X7551767Y24210372D01*
X7557673Y24245473D01*
X7574919Y24347981D01*
X7574919Y24347985D01*
X7575553Y24351751D01*
X7575704Y24364105D01*
X7555380Y24506023D01*
X7496041Y24636533D01*
X7414992Y24730595D01*
X7407062Y24739798D01*
X7407061Y24739799D01*
X7402457Y24745142D01*
X7282152Y24823120D01*
X7144796Y24864198D01*
X7061554Y24864707D01*
X7008484Y24865031D01*
X7008483Y24865031D01*
X7001433Y24865074D01*
X6994656Y24863137D01*
X6994655Y24863137D01*
X6989932Y24861787D01*
X6928786Y24863976D01*
X6880604Y24901688D01*
X6863790Y24960517D01*
X6884767Y25017995D01*
X6892723Y25026980D01*
X7221595Y25355852D01*
X7276112Y25383629D01*
X7293410Y25384831D01*
X7337726Y25384018D01*
X7381082Y25383223D01*
X7381084Y25383223D01*
X7388135Y25383094D01*
X7394938Y25384949D01*
X7394940Y25384949D01*
X7470139Y25405451D01*
X7526453Y25420804D01*
X7648627Y25495819D01*
X7716520Y25570826D01*
X7740104Y25596882D01*
X7744836Y25602110D01*
X7807346Y25731131D01*
X7808798Y25739758D01*
X7830498Y25868740D01*
X7830498Y25868744D01*
X7831132Y25872510D01*
X7831283Y25884864D01*
X7810959Y26026782D01*
X7751620Y26157292D01*
X7672035Y26249655D01*
X7662641Y26260557D01*
X7662640Y26260558D01*
X7658036Y26265901D01*
X7537731Y26343879D01*
X7400375Y26384957D01*
X7317133Y26385466D01*
X7264063Y26385790D01*
X7264062Y26385790D01*
X7257012Y26385833D01*
X7250235Y26383896D01*
X7250234Y26383896D01*
X7125945Y26348374D01*
X7125943Y26348373D01*
X7119165Y26346436D01*
X6997916Y26269934D01*
X6993249Y26264650D01*
X6993247Y26264648D01*
X6907680Y26167761D01*
X6907678Y26167759D01*
X6903013Y26162476D01*
X6842083Y26032701D01*
X6840998Y26025732D01*
X6840997Y26025729D01*
X6838284Y26008301D01*
X6820027Y25891041D01*
X6820942Y25884044D01*
X6820942Y25884042D01*
X6823743Y25862622D01*
X6812541Y25802471D01*
X6795583Y25779782D01*
X5937338Y24921537D01*
X5934209Y24918837D01*
X5929720Y24916642D01*
X5923502Y24909939D01*
X5896096Y24880395D01*
X5893520Y24877719D01*
X5879741Y24863940D01*
X5877196Y24860230D01*
X5873760Y24856317D01*
X5853588Y24834571D01*
X5850201Y24826083D01*
X5850201Y24826082D01*
X5849323Y24823881D01*
X5839009Y24804565D01*
X5837668Y24802610D01*
X5837667Y24802607D01*
X5832497Y24795071D01*
X5830387Y24786179D01*
X5826348Y24769159D01*
X5821975Y24755333D01*
X5814695Y24737085D01*
X5812106Y24730595D01*
X5811489Y24724302D01*
X5811489Y24718133D01*
X5808814Y24695274D01*
X5806649Y24686151D01*
X4721820Y24686151D01*
X5649172Y25613503D01*
X5703689Y25641280D01*
X5719176Y25642499D01*
X5823491Y25642499D01*
X5827616Y25642196D01*
X5832341Y25640574D01*
X5881760Y25642429D01*
X5885473Y25642499D01*
X5904947Y25642499D01*
X5909377Y25643324D01*
X5914570Y25643660D01*
X5930601Y25644262D01*
X5935074Y25644430D01*
X5944207Y25644773D01*
X5952601Y25648379D01*
X5952604Y25648380D01*
X5954782Y25649316D01*
X5975733Y25655682D01*
X5987052Y25657790D01*
X6009728Y25671767D01*
X6022595Y25678451D01*
X6040641Y25686204D01*
X6040642Y25686205D01*
X6047062Y25688963D01*
X6051948Y25692977D01*
X6056312Y25697341D01*
X6074367Y25711612D01*
X6082347Y25716531D01*
X6100017Y25739768D01*
X6108809Y25749838D01*
X6334151Y25975180D01*
X6337280Y25977880D01*
X6341769Y25980075D01*
X6375393Y26016322D01*
X6377969Y26018998D01*
X6391748Y26032777D01*
X6393198Y26034891D01*
X6396652Y26038679D01*
X6524651Y26166678D01*
X6527780Y26169378D01*
X6532269Y26171573D01*
X6565893Y26207820D01*
X6568469Y26210496D01*
X6582248Y26224275D01*
X6584793Y26227985D01*
X6588229Y26231898D01*
X6602187Y26246945D01*
X6608401Y26253644D01*
X6611788Y26262132D01*
X6612667Y26264335D01*
X6622978Y26283646D01*
X6624322Y26285605D01*
X6624323Y26285608D01*
X6629493Y26293144D01*
X6635644Y26319064D01*
X6640014Y26332883D01*
X6649883Y26357620D01*
X6650500Y26363913D01*
X6650500Y26370083D01*
X6653175Y26392942D01*
X6653230Y26393172D01*
X6655340Y26402064D01*
X6651404Y26430986D01*
X6650500Y26444335D01*
X6650500Y27393521D01*
X6669407Y27451712D01*
X6679496Y27463525D01*
X8032975Y28817004D01*
X8087492Y28844781D01*
X8102979Y28846000D01*
X10360492Y28846000D01*
X10364617Y28845697D01*
X10369342Y28844075D01*
X10418761Y28845930D01*
X10422474Y28846000D01*
X10441948Y28846000D01*
X10446378Y28846825D01*
X10451571Y28847161D01*
X10467602Y28847763D01*
X10472075Y28847931D01*
X10481208Y28848274D01*
X10489602Y28851880D01*
X10489605Y28851881D01*
X10491783Y28852817D01*
X10512734Y28859183D01*
X10524053Y28861291D01*
X10546729Y28875268D01*
X10559596Y28881952D01*
X10577642Y28889705D01*
X10577643Y28889706D01*
X10584063Y28892464D01*
X10588949Y28896478D01*
X10593313Y28900842D01*
X10611368Y28915113D01*
X10619348Y28920032D01*
X10637018Y28943269D01*
X10645810Y28953339D01*
X11033151Y29340680D01*
X11036280Y29343380D01*
X11040769Y29345575D01*
X11074393Y29381822D01*
X11076969Y29384498D01*
X11090748Y29398277D01*
X11093293Y29401987D01*
X11096729Y29405900D01*
X11109025Y29419155D01*
X11116901Y29427646D01*
X11121166Y29438336D01*
X11131480Y29457652D01*
X11132821Y29459607D01*
X11132822Y29459610D01*
X11137992Y29467146D01*
X11144141Y29493059D01*
X11148514Y29506884D01*
X11155794Y29525132D01*
X11155794Y29525134D01*
X11158383Y29531622D01*
X11159000Y29537915D01*
X11159000Y29544084D01*
X11161675Y29566943D01*
X11161730Y29567173D01*
X11161730Y29567175D01*
X11163840Y29576066D01*
X11159904Y29604988D01*
X11159000Y29618337D01*
X11159000Y31902021D01*
X11177907Y31960212D01*
X11187996Y31972025D01*
X11710190Y32494219D01*
X11713319Y32496919D01*
X11717808Y32499114D01*
X11725109Y32506984D01*
X11751432Y32535361D01*
X11754008Y32538037D01*
X11767787Y32551816D01*
X11770332Y32555526D01*
X11773768Y32559439D01*
X11787726Y32574486D01*
X11793940Y32581185D01*
X11797327Y32589673D01*
X11798206Y32591876D01*
X11808517Y32611187D01*
X11809861Y32613146D01*
X11809862Y32613149D01*
X11815032Y32620685D01*
X11818356Y32634690D01*
X11821183Y32646605D01*
X11825553Y32660424D01*
X11835422Y32685161D01*
X11836039Y32691454D01*
X11836039Y32697624D01*
X11838714Y32720483D01*
X11838769Y32720713D01*
X11840879Y32729605D01*
X11836943Y32758527D01*
X11836039Y32771876D01*
X11836039Y33479706D01*
X11854946Y33537897D01*
X11861641Y33546142D01*
X11950007Y33643768D01*
X11954739Y33648996D01*
X12017249Y33778017D01*
X12018626Y33786198D01*
X12040401Y33915626D01*
X12040401Y33915630D01*
X12041035Y33919396D01*
X12041186Y33931750D01*
X12020862Y34073668D01*
X11961523Y34204178D01*
X11889308Y34287987D01*
X11872544Y34307443D01*
X11872543Y34307444D01*
X11867939Y34312787D01*
X11747634Y34390765D01*
X11610278Y34431843D01*
X11527036Y34432352D01*
X11473966Y34432676D01*
X11473965Y34432676D01*
X11466915Y34432719D01*
X11460138Y34430782D01*
X11460137Y34430782D01*
X11335848Y34395260D01*
X11335846Y34395259D01*
X11329068Y34393322D01*
X11207819Y34316820D01*
X11203152Y34311536D01*
X11203150Y34311534D01*
X11117583Y34214647D01*
X11117581Y34214645D01*
X11112916Y34209362D01*
X11051986Y34079587D01*
X11050901Y34072618D01*
X11050900Y34072615D01*
X11043625Y34025886D01*
X11029930Y33937927D01*
X11030845Y33930930D01*
X11030845Y33930929D01*
X11031958Y33922419D01*
X11048519Y33795771D01*
X11051360Y33789315D01*
X11051360Y33789314D01*
X11087158Y33707958D01*
X11106259Y33664547D01*
X11157494Y33603595D01*
X11177446Y33579860D01*
X11198509Y33554802D01*
X11202538Y33552120D01*
X11232804Y33500114D01*
X11235039Y33479196D01*
X11235039Y32910019D01*
X11216132Y32851828D01*
X11206043Y32840015D01*
X10683849Y32317820D01*
X10680720Y32315120D01*
X10676231Y32312925D01*
X10670013Y32306222D01*
X10642607Y32276678D01*
X10640031Y32274002D01*
X10626252Y32260223D01*
X10623707Y32256513D01*
X10620271Y32252600D01*
X10600099Y32230854D01*
X10596712Y32222366D01*
X10596712Y32222365D01*
X10595834Y32220164D01*
X10585520Y32200848D01*
X10584179Y32198893D01*
X10584178Y32198890D01*
X10579008Y32191354D01*
X10576898Y32182462D01*
X10572859Y32165442D01*
X10568486Y32151616D01*
X10565091Y32143105D01*
X10558617Y32126878D01*
X10558000Y32120585D01*
X10558000Y32114416D01*
X10555325Y32091557D01*
X10553160Y32082434D01*
X10557096Y32053513D01*
X10558000Y32040163D01*
X10558000Y29756479D01*
X10539093Y29698288D01*
X10529004Y29686475D01*
X10318525Y29475996D01*
X10264008Y29448219D01*
X10248521Y29447000D01*
X7991008Y29447000D01*
X7986883Y29447303D01*
X7982158Y29448925D01*
X7932739Y29447070D01*
X7929026Y29447000D01*
X7909552Y29447000D01*
X7905122Y29446175D01*
X7899929Y29445839D01*
X7883898Y29445237D01*
X7879425Y29445069D01*
X7870292Y29444726D01*
X7861898Y29441120D01*
X7861895Y29441119D01*
X7859717Y29440183D01*
X7838766Y29433817D01*
X7827447Y29431709D01*
X7804772Y29417732D01*
X7791904Y29411048D01*
X7773858Y29403295D01*
X7773857Y29403294D01*
X7767437Y29400536D01*
X7762551Y29396522D01*
X7758187Y29392158D01*
X7740132Y29377887D01*
X7732152Y29372968D01*
X7714482Y29349731D01*
X7705690Y29339661D01*
X6254063Y27888034D01*
X6199546Y27860257D01*
X6139114Y27869828D01*
X6109062Y27893413D01*
X6053705Y27957657D01*
X5933400Y28035635D01*
X5796044Y28076713D01*
X5712802Y28077222D01*
X5659732Y28077546D01*
X5659731Y28077546D01*
X5652681Y28077589D01*
X5645904Y28075652D01*
X5645903Y28075652D01*
X5521614Y28040130D01*
X5521612Y28040129D01*
X5514834Y28038192D01*
X5393585Y27961690D01*
X5388918Y27956406D01*
X5388916Y27956404D01*
X5312456Y27869828D01*
X5298682Y27854232D01*
X5295684Y27847847D01*
X5295681Y27847842D01*
X5281383Y27817389D01*
X5270574Y27799540D01*
X5255611Y27779862D01*
X5246810Y27769781D01*
X3841525Y26364496D01*
X3787008Y26336719D01*
X3771521Y26335500D01*
X3620179Y26335500D01*
X3561988Y26354407D01*
X3525405Y26405884D01*
X3515935Y26437251D01*
X3419218Y26619151D01*
X3289011Y26778800D01*
X3272790Y26792219D01*
X3134002Y26907035D01*
X3134000Y26907036D01*
X3130275Y26910118D01*
X2949055Y27008103D01*
X2885855Y27027667D01*
X2756875Y27067593D01*
X2756871Y27067594D01*
X2752254Y27069023D01*
X2747446Y27069528D01*
X2747443Y27069529D01*
X2552185Y27090051D01*
X2552183Y27090051D01*
X2547369Y27090557D01*
X2487354Y27085095D01*
X2347022Y27072325D01*
X2347017Y27072324D01*
X2342203Y27071886D01*
X2144572Y27013720D01*
X2140288Y27011481D01*
X2140287Y27011480D01*
X2129428Y27005803D01*
X1962002Y26918274D01*
X1958231Y26915242D01*
X1805220Y26792219D01*
X1805217Y26792217D01*
X1801447Y26789185D01*
X1798333Y26785474D01*
X1798332Y26785473D01*
X1675368Y26638930D01*
X1623480Y26606507D01*
X1562444Y26610775D01*
X1515573Y26650104D01*
X1500530Y26702566D01*
X1500530Y27910898D01*
X1519437Y27969089D01*
X1568937Y28005053D01*
X1630123Y28005053D01*
X1677116Y27972391D01*
X1777671Y27845521D01*
X1777675Y27845517D01*
X1780677Y27841730D01*
X1784357Y27838598D01*
X1784359Y27838596D01*
X1824657Y27804300D01*
X1937564Y27708209D01*
X1941787Y27705849D01*
X1941791Y27705846D01*
X2058702Y27640507D01*
X2117398Y27607703D01*
X2121996Y27606209D01*
X2308724Y27545537D01*
X2308726Y27545536D01*
X2313329Y27544041D01*
X2517894Y27519649D01*
X2522716Y27520020D01*
X2522719Y27520020D01*
X2590541Y27525239D01*
X2723300Y27535454D01*
X2921725Y27590855D01*
X2926045Y27593037D01*
X2930562Y27594789D01*
X2931420Y27592577D01*
X2982813Y27600545D01*
X3037238Y27572590D01*
X3065171Y27515651D01*
X3068980Y27486521D01*
X3071821Y27480065D01*
X3071821Y27480064D01*
X3119157Y27372486D01*
X3126720Y27355297D01*
X3143847Y27334922D01*
X3214431Y27250951D01*
X3214434Y27250949D01*
X3218970Y27245552D01*
X3224841Y27241644D01*
X3224842Y27241643D01*
X3237143Y27233455D01*
X3338313Y27166110D01*
X3438920Y27134679D01*
X3468425Y27125461D01*
X3468426Y27125461D01*
X3475157Y27123358D01*
X3546828Y27122044D01*
X3611445Y27120859D01*
X3611447Y27120859D01*
X3618499Y27120730D01*
X3625302Y27122585D01*
X3625304Y27122585D01*
X3700503Y27143087D01*
X3756817Y27158440D01*
X3878991Y27233455D01*
X3886403Y27241643D01*
X3954000Y27316324D01*
X3983845Y27336817D01*
X3983553Y27337291D01*
X4006229Y27351268D01*
X4019096Y27357952D01*
X4037142Y27365705D01*
X4037143Y27365706D01*
X4043563Y27368464D01*
X4048449Y27372478D01*
X4052813Y27376842D01*
X4070868Y27391113D01*
X4078848Y27396032D01*
X4096518Y27419269D01*
X4105310Y27429339D01*
X5991959Y29315988D01*
X6046476Y29343765D01*
X6063774Y29344967D01*
X6108090Y29344154D01*
X6151446Y29343359D01*
X6151448Y29343359D01*
X6158499Y29343230D01*
X6165302Y29345085D01*
X6165304Y29345085D01*
X6246339Y29367178D01*
X6296817Y29380940D01*
X6418991Y29455955D01*
X6515200Y29562246D01*
X6561025Y29656829D01*
X6574634Y29684918D01*
X6577710Y29691267D01*
X6578892Y29698288D01*
X6600862Y29828876D01*
X6600862Y29828880D01*
X6601496Y29832646D01*
X6601647Y29845000D01*
X6581323Y29986918D01*
X6540476Y30076756D01*
X6524905Y30111004D01*
X6524904Y30111005D01*
X6521984Y30117428D01*
X6428400Y30226037D01*
X6431264Y30228505D01*
X6407410Y30266394D01*
X6411470Y30327444D01*
X6429989Y30357106D01*
X6452278Y30381730D01*
X6515200Y30451246D01*
X6577710Y30580267D01*
X6591999Y30665193D01*
X6600862Y30717876D01*
X6600862Y30717880D01*
X6601496Y30721646D01*
X6601647Y30734000D01*
X6581323Y30875918D01*
X6553441Y30937241D01*
X6524905Y31000004D01*
X6524904Y31000005D01*
X6521984Y31006428D01*
X6459547Y31078889D01*
X6433005Y31109693D01*
X6433004Y31109694D01*
X6428400Y31115037D01*
X6308095Y31193015D01*
X6170739Y31234093D01*
X6087497Y31234602D01*
X6034427Y31234926D01*
X6034426Y31234926D01*
X6027376Y31234969D01*
X6020599Y31233032D01*
X6020598Y31233032D01*
X5896309Y31197510D01*
X5896307Y31197509D01*
X5889529Y31195572D01*
X5768280Y31119070D01*
X5763613Y31113786D01*
X5763611Y31113784D01*
X5723147Y31067966D01*
X5670455Y31036866D01*
X5648943Y31034500D01*
X5490419Y31034500D01*
X5486294Y31034803D01*
X5481569Y31036425D01*
X5432150Y31034570D01*
X5428437Y31034500D01*
X5408963Y31034500D01*
X5404533Y31033675D01*
X5399340Y31033339D01*
X5383309Y31032737D01*
X5378836Y31032569D01*
X5369703Y31032226D01*
X5361309Y31028620D01*
X5361306Y31028619D01*
X5359128Y31027683D01*
X5338177Y31021317D01*
X5326858Y31019209D01*
X5314796Y31011774D01*
X5304183Y31005232D01*
X5291315Y30998548D01*
X5273269Y30990795D01*
X5273268Y30990794D01*
X5266848Y30988036D01*
X5261962Y30984022D01*
X5257598Y30979658D01*
X5239543Y30965387D01*
X5231563Y30960468D01*
X5213893Y30937231D01*
X5205101Y30927161D01*
X3962546Y29684606D01*
X3908029Y29656829D01*
X3891941Y29655612D01*
X3832123Y29655978D01*
X3822789Y29656035D01*
X3764715Y29675298D01*
X3753391Y29685029D01*
X3538768Y29899652D01*
X3536068Y29902781D01*
X3533873Y29907270D01*
X3497626Y29940894D01*
X3494950Y29943470D01*
X3481171Y29957249D01*
X3477461Y29959794D01*
X3473548Y29963230D01*
X3458503Y29977186D01*
X3451802Y29983402D01*
X3442990Y29986918D01*
X3441112Y29987667D01*
X3421796Y29997981D01*
X3419841Y29999322D01*
X3419838Y29999323D01*
X3412302Y30004493D01*
X3386389Y30010642D01*
X3372564Y30015015D01*
X3354316Y30022295D01*
X3354314Y30022295D01*
X3347826Y30024884D01*
X3341533Y30025501D01*
X3335364Y30025501D01*
X3312505Y30028176D01*
X3312275Y30028231D01*
X3312273Y30028231D01*
X3303382Y30030341D01*
X3274461Y30026405D01*
X3261111Y30025501D01*
X3128718Y30025501D01*
X3070527Y30044408D01*
X3034563Y30093908D01*
X3034563Y30155094D01*
X3070527Y30204594D01*
X3084081Y30212867D01*
X3101289Y30221559D01*
X3101291Y30221560D01*
X3105610Y30223742D01*
X3109427Y30226724D01*
X3264135Y30347594D01*
X3264139Y30347598D01*
X3267951Y30350576D01*
X3272795Y30356187D01*
X3339528Y30433500D01*
X3402564Y30506528D01*
X3421231Y30539387D01*
X3501934Y30681450D01*
X3501935Y30681453D01*
X3504323Y30685656D01*
X3515042Y30717876D01*
X3567824Y30876546D01*
X3567824Y30876548D01*
X3569351Y30881137D01*
X3576439Y30937241D01*
X3594253Y31078260D01*
X3595171Y31085526D01*
X3595256Y31091567D01*
X3595544Y31112224D01*
X3595583Y31115000D01*
X3593659Y31134622D01*
X3575952Y31315220D01*
X3575951Y31315224D01*
X3575480Y31320030D01*
X3515935Y31517251D01*
X3419218Y31699151D01*
X3289011Y31858800D01*
X3223237Y31913213D01*
X3134002Y31987035D01*
X3134000Y31987036D01*
X3130275Y31990118D01*
X2978354Y32072261D01*
X2953309Y32085803D01*
X2953308Y32085803D01*
X2949055Y32088103D01*
X2881247Y32109093D01*
X2756875Y32147593D01*
X2756871Y32147594D01*
X2752254Y32149023D01*
X2747446Y32149528D01*
X2747443Y32149529D01*
X2552185Y32170051D01*
X2552183Y32170051D01*
X2547369Y32170557D01*
X2499943Y32166241D01*
X2347022Y32152325D01*
X2347017Y32152324D01*
X2342203Y32151886D01*
X2144572Y32093720D01*
X2140288Y32091481D01*
X2140287Y32091480D01*
X2103525Y32072261D01*
X1962002Y31998274D01*
X1958231Y31995242D01*
X1805220Y31872219D01*
X1805217Y31872217D01*
X1801447Y31869185D01*
X1798333Y31865474D01*
X1798332Y31865473D01*
X1693517Y31740559D01*
X1669024Y31711370D01*
X1666689Y31707122D01*
X1666688Y31707121D01*
X1659955Y31694874D01*
X1569776Y31530838D01*
X1507484Y31334468D01*
X1506944Y31329656D01*
X1506944Y31329655D01*
X1486877Y31150749D01*
X1484520Y31129738D01*
X1488000Y31088301D01*
X1500685Y30937241D01*
X1501759Y30924447D01*
X1503092Y30919799D01*
X1503092Y30919798D01*
X1556369Y30734000D01*
X1558544Y30726414D01*
X1652712Y30543182D01*
X1780677Y30381730D01*
X1784357Y30378598D01*
X1784359Y30378596D01*
X1826133Y30343044D01*
X1937564Y30248209D01*
X1941787Y30245849D01*
X1941791Y30245846D01*
X2004861Y30210598D01*
X2046433Y30165705D01*
X2053678Y30104950D01*
X2023828Y30051540D01*
X1965661Y30025598D01*
X1964610Y30025501D01*
X1960051Y30025501D01*
X1955622Y30024676D01*
X1950428Y30024340D01*
X1931297Y30023622D01*
X1929925Y30023570D01*
X1920790Y30023227D01*
X1912393Y30019619D01*
X1912392Y30019619D01*
X1910211Y30018682D01*
X1889262Y30012318D01*
X1886935Y30011885D01*
X1886930Y30011883D01*
X1877946Y30010210D01*
X1858107Y29997981D01*
X1855271Y29996233D01*
X1842403Y29989549D01*
X1824357Y29981796D01*
X1824356Y29981795D01*
X1817936Y29979037D01*
X1813050Y29975023D01*
X1808686Y29970659D01*
X1790631Y29956388D01*
X1782651Y29951469D01*
X1764981Y29928232D01*
X1756189Y29918162D01*
X1269524Y29431497D01*
X1215007Y29403720D01*
X1154575Y29413291D01*
X1111310Y29456556D01*
X1100520Y29501501D01*
X1100520Y32702041D01*
X1119427Y32760232D01*
X1129516Y32772045D01*
X1484726Y33127255D01*
X1539243Y33155032D01*
X1599675Y33145461D01*
X1642782Y33102504D01*
X1652712Y33083182D01*
X1780677Y32921730D01*
X1784357Y32918598D01*
X1784359Y32918596D01*
X1860176Y32854071D01*
X1937564Y32788209D01*
X1941787Y32785849D01*
X1941791Y32785846D01*
X2050124Y32725301D01*
X2117398Y32687703D01*
X2121996Y32686209D01*
X2308724Y32625537D01*
X2308726Y32625536D01*
X2313329Y32624041D01*
X2517894Y32599649D01*
X2522716Y32600020D01*
X2522719Y32600020D01*
X2590541Y32605239D01*
X2723300Y32615454D01*
X2921725Y32670855D01*
X2926038Y32673034D01*
X2926044Y32673036D01*
X3101290Y32761560D01*
X3105610Y32763742D01*
X3109944Y32767128D01*
X3264135Y32887594D01*
X3264139Y32887598D01*
X3267951Y32890576D01*
X3274857Y32898576D01*
X3370158Y33008985D01*
X3402564Y33046528D01*
X3420923Y33078845D01*
X3501934Y33221450D01*
X3501935Y33221453D01*
X3504323Y33225656D01*
X3524646Y33286749D01*
X3560955Y33335997D01*
X3618585Y33354500D01*
X4302759Y33354500D01*
X4360950Y33335593D01*
X4372763Y33325504D01*
X5496163Y32202104D01*
X5523940Y32147587D01*
X5523981Y32116872D01*
X5523599Y32114416D01*
X5521685Y32102121D01*
X5540274Y31959965D01*
X5543115Y31953509D01*
X5543115Y31953508D01*
X5586439Y31855048D01*
X5598014Y31828741D01*
X5611086Y31813190D01*
X5685725Y31724395D01*
X5685728Y31724393D01*
X5690264Y31718996D01*
X5696135Y31715088D01*
X5696136Y31715087D01*
X5701720Y31711370D01*
X5809607Y31639554D01*
X5896905Y31612281D01*
X5939719Y31598905D01*
X5939720Y31598905D01*
X5946451Y31596802D01*
X6018122Y31595488D01*
X6082739Y31594303D01*
X6082741Y31594303D01*
X6089793Y31594174D01*
X6096596Y31596029D01*
X6096598Y31596029D01*
X6171797Y31616531D01*
X6228111Y31631884D01*
X6350285Y31706899D01*
X6357697Y31715087D01*
X6441762Y31807962D01*
X6446494Y31813190D01*
X6509004Y31942211D01*
X6512084Y31960513D01*
X6532156Y32079820D01*
X6532156Y32079824D01*
X6532790Y32083590D01*
X6532941Y32095944D01*
X6512617Y32237862D01*
X6477304Y32315529D01*
X6456199Y32361948D01*
X6456198Y32361949D01*
X6453278Y32368372D01*
X6441941Y32381530D01*
X6433779Y32391002D01*
X6410118Y32447428D01*
X6424142Y32506984D01*
X6435380Y32522061D01*
X6510468Y32605018D01*
X6515200Y32610246D01*
X6577710Y32739267D01*
X6580951Y32758526D01*
X6600862Y32876876D01*
X6600862Y32876880D01*
X6601496Y32880646D01*
X6601647Y32893000D01*
X6581323Y33034918D01*
X6539340Y33127255D01*
X6524905Y33159004D01*
X6524904Y33159005D01*
X6521984Y33165428D01*
X6442547Y33257619D01*
X6433005Y33268693D01*
X6433004Y33268694D01*
X6428400Y33274037D01*
X6308095Y33352015D01*
X6170739Y33393093D01*
X6087497Y33393602D01*
X6034427Y33393926D01*
X6034426Y33393926D01*
X6027376Y33393969D01*
X6020599Y33392032D01*
X6020598Y33392032D01*
X5896305Y33356509D01*
X5896303Y33356508D01*
X5892647Y33355463D01*
X5892645Y33355463D01*
X5889529Y33354572D01*
X5889374Y33355113D01*
X5833542Y33349148D01*
X5783956Y33376016D01*
X4885820Y34274151D01*
X4883120Y34277280D01*
X4880925Y34281769D01*
X4844678Y34315393D01*
X4842002Y34317969D01*
X4828223Y34331748D01*
X4824513Y34334293D01*
X4820600Y34337729D01*
X4805555Y34351685D01*
X4798854Y34357901D01*
X4788164Y34362166D01*
X4768848Y34372480D01*
X4766893Y34373821D01*
X4766890Y34373822D01*
X4759354Y34378992D01*
X4733441Y34385141D01*
X4719616Y34389514D01*
X4701368Y34396794D01*
X4701366Y34396794D01*
X4694878Y34399383D01*
X4688585Y34400000D01*
X4682416Y34400000D01*
X4659557Y34402675D01*
X4659327Y34402730D01*
X4659325Y34402730D01*
X4650434Y34404840D01*
X4621513Y34400904D01*
X4608163Y34400000D01*
X4440215Y34400000D01*
X4382024Y34418907D01*
X4370211Y34428996D01*
X3379645Y35419562D01*
X3351868Y35474079D01*
X3361439Y35534511D01*
X3374706Y35554254D01*
X3399400Y35582862D01*
X3399402Y35582864D01*
X3402564Y35586528D01*
X3421231Y35619387D01*
X3501934Y35761450D01*
X3501935Y35761453D01*
X3504323Y35765656D01*
X3517882Y35806414D01*
X3567824Y35956546D01*
X3567824Y35956548D01*
X3569351Y35961137D01*
X3595171Y36165526D01*
X3595583Y36195000D01*
X3585674Y36296064D01*
X3575952Y36395220D01*
X3575951Y36395224D01*
X3575480Y36400030D01*
X3573715Y36405878D01*
X3517333Y36592620D01*
X3515935Y36597251D01*
X3419218Y36779151D01*
X3289011Y36938800D01*
X3130275Y37070118D01*
X2949055Y37168103D01*
X2885855Y37187667D01*
X2756875Y37227593D01*
X2756871Y37227594D01*
X2752254Y37229023D01*
X2747446Y37229528D01*
X2747443Y37229529D01*
X2552185Y37250051D01*
X2552183Y37250051D01*
X2547369Y37250557D01*
X2487354Y37245095D01*
X2347022Y37232325D01*
X2347017Y37232324D01*
X2342203Y37231886D01*
X2144572Y37173720D01*
X2140288Y37171481D01*
X2140287Y37171480D01*
X2129428Y37165803D01*
X1962002Y37078274D01*
X1958231Y37075242D01*
X1805220Y36952219D01*
X1805217Y36952217D01*
X1801447Y36949185D01*
X1798333Y36945474D01*
X1798332Y36945473D01*
X1789585Y36935048D01*
X1669024Y36791370D01*
X1666689Y36787122D01*
X1666688Y36787121D01*
X1659955Y36774874D01*
X1569776Y36610838D01*
X1507484Y36414468D01*
X1506944Y36409656D01*
X1506944Y36409655D01*
X1486002Y36222948D01*
X1484520Y36209738D01*
X1501759Y36004447D01*
X1503092Y35999799D01*
X1503092Y35999798D01*
X1555202Y35818070D01*
X1558544Y35806414D01*
X1652712Y35623182D01*
X1780677Y35461730D01*
X1784357Y35458598D01*
X1784359Y35458596D01*
X1826513Y35422720D01*
X1858573Y35370606D01*
X1853879Y35309601D01*
X1832353Y35277324D01*
X369004Y33813975D01*
X314487Y33786198D01*
X254055Y33795769D01*
X210790Y33839034D01*
X200000Y33883979D01*
X200000Y38749738D01*
X1484520Y38749738D01*
X1501759Y38544447D01*
X1558544Y38346414D01*
X1652712Y38163182D01*
X1780677Y38001730D01*
X1784357Y37998598D01*
X1784359Y37998596D01*
X1897017Y37902717D01*
X1937564Y37868209D01*
X1941787Y37865849D01*
X1941791Y37865846D01*
X2058702Y37800507D01*
X2117398Y37767703D01*
X2121996Y37766209D01*
X2308724Y37705537D01*
X2308726Y37705536D01*
X2313329Y37704041D01*
X2517894Y37679649D01*
X2522716Y37680020D01*
X2522719Y37680020D01*
X2590541Y37685239D01*
X2723300Y37695454D01*
X2921725Y37750855D01*
X2926042Y37753036D01*
X2926048Y37753038D01*
X2975655Y37778096D01*
X3036120Y37787456D01*
X3090295Y37759734D01*
X4750504Y36099525D01*
X4778281Y36045008D01*
X4779500Y36029521D01*
X4779500Y35042008D01*
X4779197Y35037883D01*
X4777575Y35033158D01*
X4778250Y35015175D01*
X4779430Y34983739D01*
X4779500Y34980026D01*
X4779500Y34960552D01*
X4780325Y34956122D01*
X4780661Y34950929D01*
X4781774Y34921292D01*
X4785380Y34912898D01*
X4785381Y34912895D01*
X4786317Y34910717D01*
X4792683Y34889766D01*
X4794791Y34878447D01*
X4799588Y34870665D01*
X4808768Y34855772D01*
X4815451Y34842905D01*
X4825964Y34818437D01*
X4829978Y34813551D01*
X4834342Y34809187D01*
X4848613Y34791132D01*
X4853532Y34783152D01*
X4876769Y34765482D01*
X4886839Y34756690D01*
X5020180Y34623349D01*
X5022880Y34620220D01*
X5025075Y34615731D01*
X5031778Y34609513D01*
X5061322Y34582107D01*
X5063998Y34579531D01*
X5077777Y34565752D01*
X5081487Y34563207D01*
X5085400Y34559771D01*
X5107146Y34539599D01*
X5115632Y34536213D01*
X5115634Y34536212D01*
X5117837Y34535333D01*
X5137148Y34525022D01*
X5139107Y34523678D01*
X5139110Y34523677D01*
X5146646Y34518507D01*
X5155538Y34516397D01*
X5155540Y34516396D01*
X5172566Y34512356D01*
X5186385Y34507986D01*
X5211122Y34498117D01*
X5217415Y34497500D01*
X5223585Y34497500D01*
X5246441Y34494825D01*
X5255566Y34492660D01*
X5284488Y34496596D01*
X5297837Y34497500D01*
X6067525Y34497500D01*
X6125716Y34478593D01*
X6137529Y34468504D01*
X6960377Y33645655D01*
X6988154Y33591138D01*
X6978583Y33530706D01*
X6964580Y33510120D01*
X6958497Y33503232D01*
X6897567Y33373457D01*
X6896482Y33366488D01*
X6896481Y33366485D01*
X6887631Y33309639D01*
X6875511Y33231797D01*
X6876426Y33224800D01*
X6876426Y33224799D01*
X6877443Y33217024D01*
X6894100Y33089641D01*
X6896941Y33083185D01*
X6896941Y33083184D01*
X6929590Y33008985D01*
X6951840Y32958417D01*
X6982679Y32921730D01*
X7039551Y32854071D01*
X7039554Y32854069D01*
X7044090Y32848672D01*
X7049961Y32844764D01*
X7049962Y32844763D01*
X7057095Y32840015D01*
X7163433Y32769230D01*
X7259341Y32739267D01*
X7293545Y32728581D01*
X7293546Y32728581D01*
X7300277Y32726478D01*
X7371948Y32725164D01*
X7436565Y32723979D01*
X7436567Y32723979D01*
X7443619Y32723850D01*
X7450422Y32725705D01*
X7450424Y32725705D01*
X7570808Y32758526D01*
X7581937Y32761560D01*
X7704111Y32836575D01*
X7711523Y32844763D01*
X7795588Y32937638D01*
X7800320Y32942866D01*
X7862830Y33071887D01*
X7864731Y33083182D01*
X7885982Y33209496D01*
X7885982Y33209500D01*
X7886616Y33213266D01*
X7886767Y33225620D01*
X7866443Y33367538D01*
X7829434Y33448936D01*
X7810025Y33491624D01*
X7810024Y33491625D01*
X7807104Y33498048D01*
X7736610Y33579860D01*
X7718127Y33601311D01*
X7718125Y33601313D01*
X7714030Y33606065D01*
X7714029Y33606067D01*
X7713520Y33606657D01*
X7713622Y33606745D01*
X7684085Y33656095D01*
X7682005Y33669101D01*
X7681620Y33673272D01*
X7681620Y33677832D01*
X7680795Y33682262D01*
X7680458Y33687467D01*
X7679689Y33707958D01*
X7679346Y33717093D01*
X7674801Y33727672D01*
X7668437Y33748621D01*
X7668004Y33750948D01*
X7668002Y33750953D01*
X7666329Y33759937D01*
X7652352Y33782613D01*
X7645668Y33795480D01*
X7637915Y33813526D01*
X7637914Y33813527D01*
X7635156Y33819947D01*
X7631142Y33824833D01*
X7626778Y33829197D01*
X7612507Y33847252D01*
X7612384Y33847451D01*
X7607588Y33855232D01*
X7584351Y33872902D01*
X7574281Y33881694D01*
X6483324Y34972651D01*
X6480624Y34975780D01*
X6478429Y34980269D01*
X6442182Y35013893D01*
X6439506Y35016469D01*
X6425727Y35030248D01*
X6422017Y35032793D01*
X6418104Y35036229D01*
X6403059Y35050185D01*
X6396358Y35056401D01*
X6385668Y35060666D01*
X6366352Y35070980D01*
X6364397Y35072321D01*
X6364394Y35072322D01*
X6356858Y35077492D01*
X6330945Y35083641D01*
X6317120Y35088014D01*
X6298872Y35095294D01*
X6298870Y35095294D01*
X6292382Y35097883D01*
X6286089Y35098500D01*
X6279920Y35098500D01*
X6257061Y35101175D01*
X6256831Y35101230D01*
X6256829Y35101230D01*
X6247938Y35103340D01*
X6219017Y35099404D01*
X6205667Y35098500D01*
X5479500Y35098500D01*
X5421309Y35117407D01*
X5385345Y35166907D01*
X5380500Y35197500D01*
X5380500Y36141492D01*
X5380803Y36145617D01*
X5382425Y36150342D01*
X5380570Y36199762D01*
X5380500Y36203475D01*
X5380500Y36222948D01*
X5379675Y36227378D01*
X5379338Y36232583D01*
X5378569Y36253074D01*
X5378226Y36262209D01*
X5373681Y36272788D01*
X5367317Y36293737D01*
X5366884Y36296064D01*
X5366882Y36296069D01*
X5365209Y36305053D01*
X5351232Y36327729D01*
X5344548Y36340596D01*
X5336795Y36358642D01*
X5336794Y36358643D01*
X5334036Y36365063D01*
X5330022Y36369949D01*
X5325658Y36374313D01*
X5311387Y36392368D01*
X5311264Y36392567D01*
X5306468Y36400348D01*
X5283231Y36418018D01*
X5273161Y36426810D01*
X3517798Y38182173D01*
X3490021Y38236690D01*
X3500908Y38296603D01*
X3499963Y38297024D01*
X3501688Y38300899D01*
X3501720Y38301074D01*
X3504323Y38305656D01*
X3517882Y38346414D01*
X3567824Y38496546D01*
X3567824Y38496548D01*
X3569351Y38501137D01*
X3595171Y38705526D01*
X3595583Y38735000D01*
X3594138Y38749738D01*
X16724520Y38749738D01*
X16741759Y38544447D01*
X16798544Y38346414D01*
X16892712Y38163182D01*
X17020677Y38001730D01*
X17024357Y37998598D01*
X17024359Y37998596D01*
X17137017Y37902717D01*
X17177564Y37868209D01*
X17181787Y37865849D01*
X17181791Y37865846D01*
X17298702Y37800507D01*
X17357398Y37767703D01*
X17361996Y37766209D01*
X17548724Y37705537D01*
X17548726Y37705536D01*
X17553329Y37704041D01*
X17757894Y37679649D01*
X17762716Y37680020D01*
X17762719Y37680020D01*
X17830541Y37685239D01*
X17963300Y37695454D01*
X18161725Y37750855D01*
X18166038Y37753034D01*
X18166044Y37753036D01*
X18341289Y37841559D01*
X18341291Y37841560D01*
X18345610Y37843742D01*
X18380943Y37871347D01*
X18504135Y37967594D01*
X18504139Y37967598D01*
X18507951Y37970576D01*
X18642564Y38126528D01*
X18661231Y38159387D01*
X18741934Y38301450D01*
X18741935Y38301453D01*
X18744323Y38305656D01*
X18757882Y38346414D01*
X18807824Y38496546D01*
X18807824Y38496548D01*
X18809351Y38501137D01*
X18835171Y38705526D01*
X18835583Y38735000D01*
X18828893Y38803230D01*
X18815952Y38935220D01*
X18815951Y38935224D01*
X18815480Y38940030D01*
X18755935Y39137251D01*
X18659218Y39319151D01*
X18529011Y39478800D01*
X18512790Y39492219D01*
X18374002Y39607035D01*
X18374000Y39607036D01*
X18370275Y39610118D01*
X18224141Y39689132D01*
X18193309Y39705803D01*
X18193308Y39705803D01*
X18189055Y39708103D01*
X18114528Y39731173D01*
X17996875Y39767593D01*
X17996871Y39767594D01*
X17992254Y39769023D01*
X17987446Y39769528D01*
X17987443Y39769529D01*
X17792185Y39790051D01*
X17792183Y39790051D01*
X17787369Y39790557D01*
X17727354Y39785095D01*
X17587022Y39772325D01*
X17587017Y39772324D01*
X17582203Y39771886D01*
X17384572Y39713720D01*
X17380288Y39711481D01*
X17380287Y39711480D01*
X17361991Y39701915D01*
X17202002Y39618274D01*
X17198231Y39615242D01*
X17045220Y39492219D01*
X17045217Y39492217D01*
X17041447Y39489185D01*
X17038333Y39485474D01*
X17038332Y39485473D01*
X16955561Y39386830D01*
X16909024Y39331370D01*
X16906689Y39327122D01*
X16906688Y39327121D01*
X16901757Y39318151D01*
X16809776Y39150838D01*
X16747484Y38954468D01*
X16746944Y38949656D01*
X16746944Y38949655D01*
X16730535Y38803359D01*
X16724520Y38749738D01*
X3594138Y38749738D01*
X3588893Y38803230D01*
X3575952Y38935220D01*
X3575951Y38935224D01*
X3575480Y38940030D01*
X3515935Y39137251D01*
X3419218Y39319151D01*
X3289011Y39478800D01*
X3272790Y39492219D01*
X3134002Y39607035D01*
X3134000Y39607036D01*
X3130275Y39610118D01*
X2984141Y39689132D01*
X2953309Y39705803D01*
X2953308Y39705803D01*
X2949055Y39708103D01*
X2874528Y39731173D01*
X2756875Y39767593D01*
X2756871Y39767594D01*
X2752254Y39769023D01*
X2747446Y39769528D01*
X2747443Y39769529D01*
X2552185Y39790051D01*
X2552183Y39790051D01*
X2547369Y39790557D01*
X2487354Y39785095D01*
X2347022Y39772325D01*
X2347017Y39772324D01*
X2342203Y39771886D01*
X2144572Y39713720D01*
X2140288Y39711481D01*
X2140287Y39711480D01*
X2121991Y39701915D01*
X1962002Y39618274D01*
X1958231Y39615242D01*
X1805220Y39492219D01*
X1805217Y39492217D01*
X1801447Y39489185D01*
X1798333Y39485474D01*
X1798332Y39485473D01*
X1715561Y39386830D01*
X1669024Y39331370D01*
X1666689Y39327122D01*
X1666688Y39327121D01*
X1661757Y39318151D01*
X1569776Y39150838D01*
X1507484Y38954468D01*
X1506944Y38949656D01*
X1506944Y38949655D01*
X1490535Y38803359D01*
X1484520Y38749738D01*
X200000Y38749738D01*
X200000Y39955020D01*
X4656381Y39955020D01*
X4656479Y39954398D01*
X4661306Y39948845D01*
X4803972Y39848948D01*
X4811442Y39844636D01*
X5009755Y39752161D01*
X5017848Y39749215D01*
X5229218Y39692578D01*
X5237706Y39691082D01*
X5455691Y39672011D01*
X5464309Y39672011D01*
X5682294Y39691082D01*
X5690782Y39692578D01*
X5902152Y39749215D01*
X5910245Y39752161D01*
X6108558Y39844636D01*
X6116028Y39848948D01*
X6255807Y39946823D01*
X6263833Y39957475D01*
X6263845Y39958107D01*
X6260057Y39964411D01*
X5471086Y40753382D01*
X5459203Y40759436D01*
X5454172Y40758640D01*
X4662435Y39966903D01*
X4656381Y39955020D01*
X200000Y39955020D01*
X200000Y41115595D01*
X1397898Y41115595D01*
X1398995Y41098855D01*
X1400408Y41089936D01*
X1450200Y40893879D01*
X1453220Y40885351D01*
X1537904Y40701659D01*
X1542422Y40693833D01*
X1659171Y40528637D01*
X1665035Y40521771D01*
X1809931Y40380619D01*
X1816954Y40374932D01*
X1985138Y40262554D01*
X1993093Y40258236D01*
X2178929Y40178394D01*
X2187540Y40175596D01*
X2379830Y40132086D01*
X2387167Y40134160D01*
X2389787Y40137486D01*
X2390000Y40138683D01*
X2390000Y40150321D01*
X2690000Y40150321D01*
X2694122Y40137636D01*
X2695292Y40136785D01*
X2701272Y40136275D01*
X2805115Y40151332D01*
X2813914Y40153444D01*
X3005450Y40218462D01*
X3013714Y40222142D01*
X3190194Y40320974D01*
X3197652Y40326100D01*
X3353157Y40455432D01*
X3359568Y40461843D01*
X3488900Y40617348D01*
X3494026Y40624806D01*
X3592858Y40801286D01*
X3596538Y40809550D01*
X3651781Y40972291D01*
X4155411Y40972291D01*
X4174482Y40754306D01*
X4175978Y40745818D01*
X4232615Y40534448D01*
X4235561Y40526355D01*
X4328036Y40328042D01*
X4332348Y40320572D01*
X4430223Y40180793D01*
X4440875Y40172767D01*
X4441507Y40172755D01*
X4447811Y40176543D01*
X5236782Y40965514D01*
X5242836Y40977397D01*
X5242040Y40982428D01*
X4450303Y41774165D01*
X4438420Y41780219D01*
X4437798Y41780121D01*
X4432245Y41775294D01*
X4332348Y41632628D01*
X4328036Y41625158D01*
X4235561Y41426845D01*
X4232615Y41418752D01*
X4175978Y41207382D01*
X4174482Y41198894D01*
X4155411Y40980909D01*
X4155411Y40972291D01*
X3651781Y40972291D01*
X3661556Y41001086D01*
X3663668Y41009885D01*
X3678109Y41109482D01*
X3675850Y41122628D01*
X3674815Y41123637D01*
X3668968Y41125000D01*
X2705680Y41125000D01*
X2692995Y41120878D01*
X2690000Y41116757D01*
X2690000Y40150321D01*
X2390000Y40150321D01*
X2390000Y41109320D01*
X2385878Y41122005D01*
X2381757Y41125000D01*
X1412962Y41125000D01*
X1400277Y41120878D01*
X1398202Y41118022D01*
X1397898Y41115595D01*
X200000Y41115595D01*
X200000Y41440572D01*
X1401487Y41440572D01*
X1404090Y41427489D01*
X1405663Y41426035D01*
X1410378Y41425000D01*
X2374320Y41425000D01*
X2387005Y41429122D01*
X2390000Y41433243D01*
X2390000Y41440680D01*
X2690000Y41440680D01*
X2694122Y41427995D01*
X2698243Y41425000D01*
X3665464Y41425000D01*
X3678149Y41429122D01*
X3679818Y41431418D01*
X3680222Y41435034D01*
X3676003Y41480952D01*
X3674356Y41489836D01*
X3619449Y41684519D01*
X3616208Y41692963D01*
X3526745Y41874376D01*
X3522020Y41882086D01*
X3437634Y41995093D01*
X4656155Y41995093D01*
X4659943Y41988789D01*
X5448914Y41199818D01*
X5460797Y41193764D01*
X5465828Y41194560D01*
X6257565Y41986297D01*
X6263619Y41998180D01*
X6263521Y41998802D01*
X6258694Y42004355D01*
X6116028Y42104252D01*
X6108558Y42108564D01*
X5910245Y42201039D01*
X5902152Y42203985D01*
X5690782Y42260622D01*
X5682294Y42262118D01*
X5464309Y42281189D01*
X5455691Y42281189D01*
X5237706Y42262118D01*
X5229218Y42260622D01*
X5017848Y42203985D01*
X5009755Y42201039D01*
X4811442Y42108564D01*
X4803972Y42104252D01*
X4664193Y42006377D01*
X4656167Y41995725D01*
X4656155Y41995093D01*
X3437634Y41995093D01*
X3400994Y42044160D01*
X3394945Y42050878D01*
X3246405Y42188186D01*
X3239240Y42193685D01*
X3068163Y42301626D01*
X3060110Y42305729D01*
X2872229Y42380686D01*
X2863571Y42383251D01*
X2705379Y42414717D01*
X2692132Y42413149D01*
X2692100Y42413119D01*
X2690000Y42405072D01*
X2690000Y41440680D01*
X2390000Y41440680D01*
X2390000Y42400483D01*
X2385878Y42413168D01*
X2385274Y42413607D01*
X2378127Y42414123D01*
X2245559Y42391343D01*
X2236823Y42389002D01*
X2047050Y42318991D01*
X2038887Y42315098D01*
X1865047Y42211674D01*
X1857745Y42206369D01*
X1705657Y42072990D01*
X1699434Y42066432D01*
X1574209Y41907585D01*
X1569284Y41900002D01*
X1475097Y41720982D01*
X1471643Y41712642D01*
X1411658Y41519462D01*
X1409777Y41510611D01*
X1401487Y41440572D01*
X200000Y41440572D01*
X200000Y42945252D01*
X1489500Y42945252D01*
X1492921Y42928052D01*
X1495328Y42915955D01*
X1501133Y42886769D01*
X1545448Y42820448D01*
X1611769Y42776133D01*
X1621332Y42774231D01*
X1621334Y42774230D01*
X1644005Y42769721D01*
X1670252Y42764500D01*
X3409748Y42764500D01*
X3435995Y42769721D01*
X3458666Y42774230D01*
X3458668Y42774231D01*
X3468231Y42776133D01*
X3534552Y42820448D01*
X3578867Y42886769D01*
X3584673Y42915955D01*
X3587079Y42928052D01*
X3590500Y42945252D01*
X3590500Y42982830D01*
X3609407Y43041021D01*
X3658907Y43076985D01*
X3720093Y43076985D01*
X3769164Y43041332D01*
X3770720Y43037797D01*
X3775254Y43032403D01*
X3775256Y43032400D01*
X3858431Y42933451D01*
X3858434Y42933449D01*
X3862970Y42928052D01*
X3868841Y42924144D01*
X3868842Y42924143D01*
X3900544Y42903040D01*
X3982313Y42848610D01*
X4072456Y42820448D01*
X4112425Y42807961D01*
X4112426Y42807961D01*
X4119157Y42805858D01*
X4190828Y42804544D01*
X4255445Y42803359D01*
X4255447Y42803359D01*
X4262499Y42803230D01*
X4269302Y42805085D01*
X4269304Y42805085D01*
X4344503Y42825587D01*
X4400817Y42840940D01*
X4522991Y42915955D01*
X4530403Y42924143D01*
X4614468Y43017018D01*
X4619200Y43022246D01*
X4622273Y43028588D01*
X4622276Y43028593D01*
X4643397Y43072189D01*
X4685784Y43116313D01*
X4746011Y43127096D01*
X4801075Y43100419D01*
X4830655Y43041861D01*
X4846049Y42924143D01*
X4846980Y42917021D01*
X4849821Y42910565D01*
X4849821Y42910564D01*
X4896993Y42803359D01*
X4904720Y42785797D01*
X4922622Y42764500D01*
X4992431Y42681451D01*
X4992434Y42681449D01*
X4996970Y42676052D01*
X5002841Y42672144D01*
X5002842Y42672143D01*
X5006499Y42669709D01*
X5116313Y42596610D01*
X5193912Y42572367D01*
X5246425Y42555961D01*
X5246426Y42555961D01*
X5253157Y42553858D01*
X5324828Y42552544D01*
X5389445Y42551359D01*
X5389447Y42551359D01*
X5396499Y42551230D01*
X5403302Y42553085D01*
X5403304Y42553085D01*
X5499979Y42579442D01*
X5534817Y42588940D01*
X5614501Y42637866D01*
X5666302Y42652500D01*
X6651099Y42652500D01*
X6709290Y42633593D01*
X6721102Y42623504D01*
X7147618Y42196989D01*
X7175396Y42142472D01*
X7165825Y42082040D01*
X7122560Y42038775D01*
X7115505Y42035523D01*
X6979767Y41979298D01*
X6974625Y41975352D01*
X6974621Y41975350D01*
X6887734Y41908678D01*
X6859549Y41887051D01*
X6855598Y41881902D01*
X6771250Y41771979D01*
X6771248Y41771975D01*
X6767302Y41766833D01*
X6764821Y41760844D01*
X6764819Y41760840D01*
X6734657Y41688022D01*
X6694920Y41641496D01*
X6635425Y41627213D01*
X6578897Y41650628D01*
X6562097Y41669123D01*
X6489775Y41772408D01*
X6479125Y41780433D01*
X6478493Y41780445D01*
X6472189Y41776657D01*
X5683218Y40987686D01*
X5677164Y40975803D01*
X5677960Y40970772D01*
X6469697Y40179035D01*
X6481580Y40172981D01*
X6482202Y40173079D01*
X6487755Y40177906D01*
X6587652Y40320572D01*
X6591964Y40328042D01*
X6684439Y40526355D01*
X6687385Y40534448D01*
X6744022Y40745818D01*
X6745518Y40754306D01*
X6762530Y40948759D01*
X6786437Y41005081D01*
X6838883Y41036594D01*
X6899835Y41031261D01*
X6921421Y41018673D01*
X6974621Y40977850D01*
X6974625Y40977848D01*
X6979767Y40973902D01*
X6985756Y40971421D01*
X6985760Y40971419D01*
X7113767Y40918397D01*
X7119764Y40915913D01*
X7232280Y40901100D01*
X7307720Y40901100D01*
X7420236Y40915913D01*
X7426233Y40918397D01*
X7554240Y40971419D01*
X7554244Y40971421D01*
X7560233Y40973902D01*
X7565375Y40977848D01*
X7565379Y40977850D01*
X7675302Y41062198D01*
X7680451Y41066149D01*
X7684402Y41071298D01*
X7684405Y41071301D01*
X7687166Y41074899D01*
X7737591Y41109553D01*
X7798756Y41107950D01*
X7835710Y41084633D01*
X8015828Y40904515D01*
X8015832Y40904512D01*
X8038395Y40881949D01*
X8059891Y40870997D01*
X8073130Y40862883D01*
X8092647Y40848703D01*
X8100058Y40846295D01*
X8115594Y40841247D01*
X8129940Y40835304D01*
X8151433Y40824353D01*
X8159126Y40823135D01*
X8159128Y40823134D01*
X8175256Y40820580D01*
X8190357Y40816955D01*
X8213304Y40809499D01*
X12063432Y40809499D01*
X12086379Y40816955D01*
X12101480Y40820580D01*
X12117608Y40823134D01*
X12117610Y40823135D01*
X12125303Y40824353D01*
X12146796Y40835304D01*
X12161142Y40841247D01*
X12176678Y40846295D01*
X12184089Y40848703D01*
X12203606Y40862883D01*
X12216845Y40870997D01*
X12238341Y40881949D01*
X12260904Y40904512D01*
X12260908Y40904515D01*
X12465506Y41109113D01*
X12520023Y41136890D01*
X12580455Y41127319D01*
X12614052Y41099377D01*
X12639549Y41066149D01*
X12644698Y41062198D01*
X12754621Y40977850D01*
X12754625Y40977848D01*
X12759767Y40973902D01*
X12765756Y40971421D01*
X12765760Y40971419D01*
X12893767Y40918397D01*
X12899764Y40915913D01*
X13012280Y40901100D01*
X13087720Y40901100D01*
X13200236Y40915913D01*
X13206233Y40918397D01*
X13334240Y40971419D01*
X13334244Y40971421D01*
X13340233Y40973902D01*
X13345375Y40977848D01*
X13345379Y40977850D01*
X13398579Y41018673D01*
X13456255Y41039097D01*
X13514921Y41021720D01*
X13552168Y40973178D01*
X13557470Y40948759D01*
X13574482Y40754306D01*
X13575978Y40745818D01*
X13632615Y40534448D01*
X13635561Y40526355D01*
X13728036Y40328042D01*
X13732348Y40320572D01*
X13830223Y40180793D01*
X13840875Y40172767D01*
X13841507Y40172755D01*
X13847811Y40176543D01*
X14636782Y40965514D01*
X14642836Y40977397D01*
X14642040Y40982428D01*
X13850303Y41774165D01*
X13838420Y41780219D01*
X13837798Y41780121D01*
X13832247Y41775295D01*
X13757903Y41669123D01*
X13709038Y41632301D01*
X13647862Y41631234D01*
X13597742Y41666329D01*
X13585343Y41688022D01*
X13555181Y41760840D01*
X13555179Y41760844D01*
X13552698Y41766833D01*
X13548752Y41771975D01*
X13548750Y41771979D01*
X13464402Y41881902D01*
X13460451Y41887051D01*
X13432266Y41908678D01*
X13345379Y41975350D01*
X13345375Y41975352D01*
X13340233Y41979298D01*
X13243112Y42019527D01*
X13196587Y42059264D01*
X13182303Y42118759D01*
X13205718Y42175286D01*
X13257887Y42207256D01*
X13280998Y42209991D01*
X14040997Y42209991D01*
X14099188Y42191084D01*
X14135152Y42141584D01*
X14135152Y42080398D01*
X14097781Y42029895D01*
X14064193Y42006376D01*
X14056167Y41995725D01*
X14056155Y41995093D01*
X14059943Y41988789D01*
X14848914Y41199818D01*
X14860797Y41193764D01*
X14865828Y41194560D01*
X15657565Y41986297D01*
X15663619Y41998180D01*
X15663521Y41998802D01*
X15658694Y42004355D01*
X15622219Y42029895D01*
X15585397Y42078760D01*
X15584329Y42139936D01*
X15619423Y42190056D01*
X15679003Y42209991D01*
X15781193Y42209991D01*
X15839384Y42191084D01*
X15851197Y42180994D01*
X16020504Y42011686D01*
X16048281Y41957170D01*
X16049500Y41941683D01*
X16049500Y41850610D01*
X16030593Y41792419D01*
X15981093Y41756455D01*
X15919907Y41756455D01*
X15890921Y41771544D01*
X15879124Y41780433D01*
X15878493Y41780445D01*
X15872189Y41776657D01*
X15083218Y40987686D01*
X15077164Y40975803D01*
X15077960Y40970772D01*
X15869697Y40179035D01*
X15881580Y40172981D01*
X15882203Y40173079D01*
X15885550Y40175989D01*
X15941872Y40199896D01*
X16001489Y40186133D01*
X16041630Y40139955D01*
X16049500Y40101273D01*
X16049500Y39920479D01*
X16030593Y39862288D01*
X16020504Y39850475D01*
X16004366Y39834337D01*
X15949849Y39806560D01*
X15933762Y39805343D01*
X15854505Y39805828D01*
X15838427Y39805926D01*
X15838426Y39805926D01*
X15831376Y39805969D01*
X15824599Y39804032D01*
X15824598Y39804032D01*
X15756418Y39784546D01*
X15695272Y39786735D01*
X15647090Y39824447D01*
X15630276Y39883276D01*
X15650148Y39939315D01*
X15663833Y39957476D01*
X15663845Y39958107D01*
X15660057Y39964411D01*
X14871086Y40753382D01*
X14859203Y40759436D01*
X14854172Y40758640D01*
X14062435Y39966903D01*
X14056381Y39955020D01*
X14056479Y39954398D01*
X14061306Y39948845D01*
X14203972Y39848948D01*
X14211442Y39844636D01*
X14409755Y39752161D01*
X14417848Y39749215D01*
X14629218Y39692578D01*
X14637706Y39691082D01*
X14855691Y39672011D01*
X14864309Y39672011D01*
X15082294Y39691082D01*
X15090782Y39692578D01*
X15302152Y39749215D01*
X15310245Y39752161D01*
X15418564Y39802671D01*
X15479293Y39810128D01*
X15532807Y39780465D01*
X15558665Y39725012D01*
X15546990Y39664951D01*
X15534607Y39647413D01*
X15482044Y39587897D01*
X15482042Y39587895D01*
X15477377Y39582612D01*
X15416447Y39452837D01*
X15415362Y39445868D01*
X15415361Y39445865D01*
X15406170Y39386830D01*
X15394391Y39311177D01*
X15395306Y39304180D01*
X15395306Y39304179D01*
X15396814Y39292646D01*
X15412980Y39169021D01*
X15415821Y39162565D01*
X15415821Y39162564D01*
X15423586Y39144918D01*
X15470720Y39037797D01*
X15483792Y39022246D01*
X15558431Y38933451D01*
X15558434Y38933449D01*
X15562970Y38928052D01*
X15568841Y38924144D01*
X15568842Y38924143D01*
X15581143Y38915955D01*
X15682313Y38848610D01*
X15782920Y38817179D01*
X15812425Y38807961D01*
X15812426Y38807961D01*
X15819157Y38805858D01*
X15890828Y38804544D01*
X15955445Y38803359D01*
X15955447Y38803359D01*
X15962499Y38803230D01*
X15969302Y38805085D01*
X15969304Y38805085D01*
X16044503Y38825587D01*
X16100817Y38840940D01*
X16222991Y38915955D01*
X16230403Y38924143D01*
X16314468Y39017018D01*
X16319200Y39022246D01*
X16381710Y39151267D01*
X16385875Y39176018D01*
X16404862Y39288876D01*
X16404862Y39288880D01*
X16405496Y39292646D01*
X16405647Y39305000D01*
X16402561Y39326548D01*
X16413028Y39386830D01*
X16430557Y39410586D01*
X16524651Y39504680D01*
X16527780Y39507380D01*
X16532269Y39509575D01*
X16565893Y39545822D01*
X16568469Y39548498D01*
X16582248Y39562277D01*
X16584793Y39565987D01*
X16588229Y39569900D01*
X16602185Y39584945D01*
X16608401Y39591646D01*
X16612666Y39602336D01*
X16622980Y39621652D01*
X16624321Y39623607D01*
X16624322Y39623610D01*
X16629492Y39631146D01*
X16635641Y39657059D01*
X16640014Y39670884D01*
X16647294Y39689132D01*
X16647294Y39689134D01*
X16649883Y39695622D01*
X16650500Y39701915D01*
X16650500Y39708084D01*
X16653175Y39730943D01*
X16653230Y39731173D01*
X16653230Y39731175D01*
X16655340Y39740066D01*
X16651404Y39768988D01*
X16650500Y39782337D01*
X16650500Y40765259D01*
X16669407Y40823450D01*
X16718907Y40859414D01*
X16780093Y40859414D01*
X16829593Y40823450D01*
X16837552Y40810512D01*
X16864211Y40758640D01*
X16892712Y40703182D01*
X17020677Y40541730D01*
X17024357Y40538598D01*
X17024359Y40538596D01*
X17114544Y40461843D01*
X17177564Y40408209D01*
X17181787Y40405849D01*
X17181791Y40405846D01*
X17221342Y40383742D01*
X17357398Y40307703D01*
X17361996Y40306209D01*
X17548724Y40245537D01*
X17548726Y40245536D01*
X17553329Y40244041D01*
X17757894Y40219649D01*
X17762716Y40220020D01*
X17762719Y40220020D01*
X17830541Y40225239D01*
X17963300Y40235454D01*
X18161725Y40290855D01*
X18166038Y40293034D01*
X18166044Y40293036D01*
X18341289Y40381559D01*
X18341291Y40381560D01*
X18345610Y40383742D01*
X18437370Y40455432D01*
X18504135Y40507594D01*
X18504139Y40507598D01*
X18507951Y40510576D01*
X18517615Y40521771D01*
X18606551Y40624806D01*
X18642564Y40666528D01*
X18644957Y40670740D01*
X18741934Y40841450D01*
X18741935Y40841453D01*
X18744323Y40845656D01*
X18750054Y40862882D01*
X18807824Y41036546D01*
X18807824Y41036548D01*
X18809351Y41041137D01*
X18816643Y41098855D01*
X18834823Y41242772D01*
X18835171Y41245526D01*
X18835583Y41275000D01*
X18830547Y41326364D01*
X18815952Y41475220D01*
X18815951Y41475224D01*
X18815480Y41480030D01*
X18812520Y41489836D01*
X18771042Y41627213D01*
X18755935Y41677251D01*
X18659218Y41859151D01*
X18529011Y42018800D01*
X18525282Y42021885D01*
X18374002Y42147035D01*
X18374000Y42147036D01*
X18370275Y42150118D01*
X18189055Y42248103D01*
X18087424Y42279563D01*
X17996875Y42307593D01*
X17996871Y42307594D01*
X17992254Y42309023D01*
X17987446Y42309528D01*
X17987443Y42309529D01*
X17792185Y42330051D01*
X17792183Y42330051D01*
X17787369Y42330557D01*
X17727354Y42325095D01*
X17587022Y42312325D01*
X17587017Y42312324D01*
X17582203Y42311886D01*
X17472379Y42279563D01*
X17411219Y42281271D01*
X17362742Y42318603D01*
X17345467Y42377299D01*
X17346800Y42390961D01*
X17346865Y42391343D01*
X17355496Y42442646D01*
X17355647Y42455000D01*
X17335323Y42596918D01*
X17322771Y42624525D01*
X17315898Y42685321D01*
X17346073Y42738548D01*
X17401771Y42763873D01*
X17412893Y42764500D01*
X18649748Y42764500D01*
X18675995Y42769721D01*
X18698666Y42774230D01*
X18698668Y42774231D01*
X18708231Y42776133D01*
X18774552Y42820448D01*
X18818867Y42886769D01*
X18824673Y42915955D01*
X18827079Y42928052D01*
X18830500Y42945252D01*
X18830500Y44684748D01*
X18818867Y44743231D01*
X18774552Y44809552D01*
X18708231Y44853867D01*
X18698668Y44855769D01*
X18698666Y44855770D01*
X18675995Y44860279D01*
X18649748Y44865500D01*
X16910252Y44865500D01*
X16884005Y44860279D01*
X16861334Y44855770D01*
X16861332Y44855769D01*
X16851769Y44853867D01*
X16785448Y44809552D01*
X16741133Y44743231D01*
X16729500Y44684748D01*
X16729500Y44313460D01*
X16710593Y44255269D01*
X16661093Y44219305D01*
X16645989Y44215679D01*
X16644859Y44215500D01*
X16637067Y44215500D01*
X16614120Y44208044D01*
X16599019Y44204419D01*
X16582891Y44201865D01*
X16582889Y44201864D01*
X16575196Y44200646D01*
X16553701Y44189694D01*
X16539355Y44183751D01*
X16523820Y44178704D01*
X16523816Y44178702D01*
X16516411Y44176296D01*
X16496890Y44162113D01*
X16483651Y44154001D01*
X16469097Y44146586D01*
X16469095Y44146584D01*
X16462158Y44143050D01*
X16439595Y44120487D01*
X16439591Y44120484D01*
X16158624Y43839517D01*
X16104107Y43811740D01*
X16088620Y43810521D01*
X14936063Y43810521D01*
X14877872Y43829428D01*
X14841908Y43878928D01*
X14841908Y43940114D01*
X14877872Y43989614D01*
X14904240Y44003267D01*
X14965878Y44024190D01*
X14974134Y44027866D01*
X15158638Y44131194D01*
X15166092Y44136317D01*
X15204293Y44168089D01*
X15211413Y44179373D01*
X15211227Y44182203D01*
X15209225Y44185243D01*
X14491086Y44903382D01*
X14479203Y44909436D01*
X14474172Y44908640D01*
X13753037Y44187505D01*
X13746983Y44175622D01*
X13746990Y44175577D01*
X13752513Y44169361D01*
X13901178Y44070025D01*
X13909133Y44065707D01*
X14060951Y44000481D01*
X14106953Y43960139D01*
X14120457Y43900463D01*
X14096304Y43844246D01*
X14043721Y43812962D01*
X14021872Y43810521D01*
X7787380Y43810521D01*
X7729189Y43829428D01*
X7717376Y43839517D01*
X7436409Y44120484D01*
X7436405Y44120487D01*
X7413842Y44143050D01*
X7392346Y44154002D01*
X7379105Y44162117D01*
X7365895Y44171715D01*
X7359590Y44176296D01*
X7336643Y44183752D01*
X7322297Y44189695D01*
X7300804Y44200646D01*
X7293111Y44201864D01*
X7293109Y44201865D01*
X7276981Y44204419D01*
X7261880Y44208044D01*
X7238933Y44215500D01*
X6854247Y44215500D01*
X6796056Y44234407D01*
X6760092Y44283907D01*
X6760092Y44345093D01*
X6778132Y44377805D01*
X6830287Y44440514D01*
X6835406Y44447962D01*
X6938734Y44632466D01*
X6942410Y44640722D01*
X7010385Y44840970D01*
X7012494Y44849752D01*
X7043072Y45060651D01*
X7043565Y45066439D01*
X7045065Y45123687D01*
X7044875Y45129499D01*
X7042659Y45153619D01*
X13275569Y45153619D01*
X13289399Y44942600D01*
X13290812Y44933679D01*
X13342866Y44728718D01*
X13345886Y44720190D01*
X13434416Y44528154D01*
X13438937Y44520323D01*
X13522085Y44402672D01*
X13532772Y44394692D01*
X13533521Y44394682D01*
X13539652Y44398384D01*
X14256782Y45115514D01*
X14262024Y45125803D01*
X14697164Y45125803D01*
X14697960Y45120772D01*
X15417397Y44401335D01*
X15429280Y44395281D01*
X15432083Y44395725D01*
X15434927Y44397997D01*
X15470283Y44440508D01*
X15475406Y44447962D01*
X15578734Y44632466D01*
X15582410Y44640722D01*
X15650385Y44840970D01*
X15652494Y44849752D01*
X15683072Y45060651D01*
X15683565Y45066439D01*
X15685065Y45123687D01*
X15684875Y45129499D01*
X15665376Y45341702D01*
X15663729Y45350588D01*
X15606328Y45554114D01*
X15603087Y45562558D01*
X15509560Y45752212D01*
X15504835Y45759922D01*
X15437532Y45850052D01*
X15426638Y45857751D01*
X15425189Y45857732D01*
X15420098Y45854566D01*
X14703218Y45137686D01*
X14697164Y45125803D01*
X14262024Y45125803D01*
X14262836Y45127397D01*
X14262040Y45132428D01*
X13543062Y45851406D01*
X13531179Y45857460D01*
X13529062Y45857125D01*
X13525332Y45854064D01*
X13472094Y45786532D01*
X13467170Y45778949D01*
X13368705Y45591798D01*
X13365251Y45583458D01*
X13302541Y45381502D01*
X13300660Y45372652D01*
X13275805Y45162652D01*
X13275569Y45153619D01*
X7042659Y45153619D01*
X7025376Y45341702D01*
X7023729Y45350588D01*
X6966328Y45554114D01*
X6963087Y45562558D01*
X6869560Y45752212D01*
X6864835Y45759922D01*
X6797532Y45850052D01*
X6786638Y45857751D01*
X6785189Y45857732D01*
X6780098Y45854566D01*
X5910004Y44984472D01*
X5855487Y44956695D01*
X5795055Y44966266D01*
X5769996Y44984472D01*
X4903062Y45851406D01*
X4891179Y45857460D01*
X4889062Y45857125D01*
X4885332Y45854064D01*
X4832094Y45786532D01*
X4827170Y45778949D01*
X4728705Y45591798D01*
X4725251Y45583458D01*
X4662541Y45381502D01*
X4660660Y45372652D01*
X4635805Y45162652D01*
X4635569Y45153619D01*
X4649399Y44942600D01*
X4650812Y44933679D01*
X4702866Y44728718D01*
X4705886Y44720190D01*
X4794416Y44528154D01*
X4798937Y44520323D01*
X4904018Y44371638D01*
X4922163Y44313205D01*
X4902495Y44255266D01*
X4852529Y44219953D01*
X4823171Y44215500D01*
X4646567Y44215500D01*
X4623620Y44208044D01*
X4608519Y44204419D01*
X4592391Y44201865D01*
X4592389Y44201864D01*
X4584696Y44200646D01*
X4563203Y44189695D01*
X4548857Y44183752D01*
X4525910Y44176296D01*
X4519605Y44171715D01*
X4506395Y44162117D01*
X4493154Y44154002D01*
X4471658Y44143050D01*
X4449095Y44120487D01*
X4449091Y44120484D01*
X4153993Y43825386D01*
X4111194Y43800201D01*
X4000309Y43768510D01*
X4000307Y43768509D01*
X3993529Y43766572D01*
X3872280Y43690070D01*
X3867613Y43684786D01*
X3867611Y43684784D01*
X3816870Y43627330D01*
X3777377Y43582612D01*
X3774377Y43576222D01*
X3772246Y43572978D01*
X3724496Y43534722D01*
X3663378Y43531838D01*
X3612239Y43565430D01*
X3590500Y43627330D01*
X3590500Y44684748D01*
X3578867Y44743231D01*
X3534552Y44809552D01*
X3468231Y44853867D01*
X3458668Y44855769D01*
X3458666Y44855770D01*
X3435995Y44860279D01*
X3409748Y44865500D01*
X1670252Y44865500D01*
X1644005Y44860279D01*
X1621334Y44855770D01*
X1621332Y44855769D01*
X1611769Y44853867D01*
X1545448Y44809552D01*
X1501133Y44743231D01*
X1489500Y44684748D01*
X1489500Y42945252D01*
X200000Y42945252D01*
X200000Y46056000D01*
X218907Y46114191D01*
X268407Y46150155D01*
X299000Y46155000D01*
X5009907Y46155000D01*
X5068098Y46136093D01*
G37*
%TD.AperFunction*%
%TA.AperFunction,Conductor*%
G36*
X14293494Y14364535D02*
G01*
X15497680Y13160349D01*
X15500380Y13157220D01*
X15502575Y13152731D01*
X15509278Y13146513D01*
X15538822Y13119107D01*
X15541498Y13116531D01*
X15555276Y13102753D01*
X15558987Y13100208D01*
X15562892Y13096780D01*
X15584646Y13076599D01*
X15593133Y13073213D01*
X15595336Y13072334D01*
X15614652Y13062020D01*
X15616607Y13060679D01*
X15616610Y13060678D01*
X15624146Y13055508D01*
X15650058Y13049359D01*
X15663884Y13044986D01*
X15682132Y13037706D01*
X15682134Y13037706D01*
X15688622Y13035117D01*
X15694915Y13034500D01*
X15701084Y13034500D01*
X15723943Y13031825D01*
X15724173Y13031770D01*
X15724175Y13031770D01*
X15733066Y13029660D01*
X15761988Y13033596D01*
X15775337Y13034500D01*
X16698684Y13034500D01*
X16756875Y13015593D01*
X16793849Y12962787D01*
X16798544Y12946414D01*
X16892712Y12763182D01*
X17020677Y12601730D01*
X17024357Y12598598D01*
X17024359Y12598596D01*
X17105363Y12529657D01*
X17177564Y12468209D01*
X17181787Y12465849D01*
X17181791Y12465846D01*
X17221342Y12443742D01*
X17357398Y12367703D01*
X17361996Y12366209D01*
X17548724Y12305537D01*
X17548726Y12305536D01*
X17553329Y12304041D01*
X17757894Y12279649D01*
X17762716Y12280020D01*
X17762719Y12280020D01*
X17830541Y12285239D01*
X17963300Y12295454D01*
X18115877Y12338054D01*
X18177009Y12335492D01*
X18224959Y12297487D01*
X18241500Y12242701D01*
X18241500Y11886149D01*
X18222593Y11827958D01*
X18173093Y11791994D01*
X18113226Y11791576D01*
X18068452Y11805436D01*
X17996875Y11827593D01*
X17996871Y11827594D01*
X17992254Y11829023D01*
X17987446Y11829528D01*
X17987443Y11829529D01*
X17792185Y11850051D01*
X17792183Y11850051D01*
X17787369Y11850557D01*
X17727354Y11845095D01*
X17587022Y11832325D01*
X17587017Y11832324D01*
X17582203Y11831886D01*
X17384572Y11773720D01*
X17380288Y11771481D01*
X17380287Y11771480D01*
X17369428Y11765803D01*
X17202002Y11678274D01*
X17198231Y11675242D01*
X17045220Y11552219D01*
X17045217Y11552217D01*
X17041447Y11549185D01*
X17038333Y11545474D01*
X17038332Y11545473D01*
X16974627Y11469552D01*
X16909024Y11391370D01*
X16906689Y11387122D01*
X16906688Y11387121D01*
X16899955Y11374874D01*
X16809776Y11210838D01*
X16808313Y11206226D01*
X16795098Y11164566D01*
X16759481Y11114816D01*
X16700732Y11095500D01*
X16357979Y11095500D01*
X16299788Y11114407D01*
X16287975Y11124496D01*
X14153486Y13258985D01*
X14125709Y13313502D01*
X14124490Y13328989D01*
X14124490Y14294531D01*
X14143397Y14352722D01*
X14192897Y14388686D01*
X14254083Y14388686D01*
X14293494Y14364535D01*
G37*
%TD.AperFunction*%
%TA.AperFunction,Conductor*%
G36*
X16694732Y19073573D02*
G01*
X16706545Y19063484D01*
X16803124Y18966905D01*
X16830901Y18912388D01*
X16819874Y18849207D01*
X16809776Y18830838D01*
X16808313Y18826225D01*
X16808311Y18826221D01*
X16754413Y18656311D01*
X16747484Y18634468D01*
X16746944Y18629656D01*
X16746944Y18629655D01*
X16727161Y18453280D01*
X16724520Y18429738D01*
X16741759Y18224447D01*
X16743092Y18219799D01*
X16743092Y18219798D01*
X16760188Y18160179D01*
X16798544Y18026414D01*
X16892712Y17843182D01*
X17020677Y17681730D01*
X17024357Y17678598D01*
X17024359Y17678596D01*
X17093401Y17619837D01*
X17177564Y17548209D01*
X17181787Y17545849D01*
X17181791Y17545846D01*
X17244285Y17510920D01*
X17285857Y17466027D01*
X17293102Y17405272D01*
X17263252Y17351862D01*
X17207709Y17326197D01*
X17195987Y17325501D01*
X16347043Y17325501D01*
X16342918Y17325804D01*
X16338193Y17327426D01*
X16288773Y17325571D01*
X16285060Y17325501D01*
X16265587Y17325501D01*
X16261157Y17324676D01*
X16255964Y17324340D01*
X16236833Y17323622D01*
X16235461Y17323570D01*
X16226326Y17323227D01*
X16217929Y17319619D01*
X16217928Y17319619D01*
X16215747Y17318682D01*
X16194798Y17312318D01*
X16192471Y17311885D01*
X16192466Y17311883D01*
X16183482Y17310210D01*
X16166834Y17299948D01*
X16160807Y17296233D01*
X16147939Y17289549D01*
X16129893Y17281796D01*
X16129892Y17281795D01*
X16123472Y17279037D01*
X16118586Y17275023D01*
X16114222Y17270659D01*
X16096167Y17256388D01*
X16088187Y17251469D01*
X16070517Y17228232D01*
X16061725Y17218162D01*
X16042866Y17199303D01*
X15988349Y17171526D01*
X15972262Y17170309D01*
X15893005Y17170794D01*
X15876927Y17170892D01*
X15876926Y17170892D01*
X15869876Y17170935D01*
X15863099Y17168998D01*
X15863098Y17168998D01*
X15738809Y17133476D01*
X15738807Y17133475D01*
X15732029Y17131538D01*
X15610780Y17055036D01*
X15606113Y17049752D01*
X15606111Y17049750D01*
X15520544Y16952863D01*
X15520542Y16952861D01*
X15515877Y16947578D01*
X15454947Y16817803D01*
X15453862Y16810834D01*
X15453861Y16810831D01*
X15450234Y16787533D01*
X15432891Y16676143D01*
X15451480Y16533987D01*
X15454321Y16527531D01*
X15454321Y16527530D01*
X15495785Y16433297D01*
X15509220Y16402763D01*
X15522292Y16387212D01*
X15596931Y16298417D01*
X15596934Y16298415D01*
X15601470Y16293018D01*
X15607341Y16289110D01*
X15607342Y16289109D01*
X15619643Y16280921D01*
X15720813Y16213576D01*
X15821420Y16182145D01*
X15850925Y16172927D01*
X15850926Y16172927D01*
X15857657Y16170824D01*
X15929328Y16169510D01*
X15993945Y16168325D01*
X15993947Y16168325D01*
X16000999Y16168196D01*
X16007802Y16170051D01*
X16007804Y16170051D01*
X16083003Y16190553D01*
X16139317Y16205906D01*
X16261491Y16280921D01*
X16268903Y16289109D01*
X16352968Y16381984D01*
X16357700Y16387212D01*
X16420210Y16516233D01*
X16429512Y16571518D01*
X16441357Y16641926D01*
X16469657Y16696174D01*
X16524438Y16723426D01*
X16538985Y16724501D01*
X16781103Y16724501D01*
X16839294Y16705594D01*
X16875258Y16656094D01*
X16875258Y16594908D01*
X16858850Y16564211D01*
X16814205Y16507578D01*
X16809284Y16500002D01*
X16715097Y16320982D01*
X16711643Y16312642D01*
X16651658Y16119462D01*
X16649777Y16110611D01*
X16641487Y16040572D01*
X16644090Y16027489D01*
X16645663Y16026035D01*
X16650378Y16025000D01*
X17831000Y16025000D01*
X17889191Y16006093D01*
X17925155Y15956593D01*
X17930000Y15926000D01*
X17930000Y14750321D01*
X17934122Y14737636D01*
X17935292Y14736785D01*
X17941272Y14736275D01*
X18045115Y14751332D01*
X18053914Y14753444D01*
X18110678Y14772713D01*
X18171858Y14773514D01*
X18221824Y14738201D01*
X18241500Y14678967D01*
X18241500Y14426149D01*
X18222593Y14367958D01*
X18173093Y14331994D01*
X18113226Y14331576D01*
X18056880Y14349018D01*
X17996875Y14367593D01*
X17996871Y14367594D01*
X17992254Y14369023D01*
X17987446Y14369528D01*
X17987443Y14369529D01*
X17792185Y14390051D01*
X17792183Y14390051D01*
X17787369Y14390557D01*
X17727354Y14385095D01*
X17587022Y14372325D01*
X17587017Y14372324D01*
X17582203Y14371886D01*
X17384572Y14313720D01*
X17380288Y14311481D01*
X17380287Y14311480D01*
X17369428Y14305803D01*
X17202002Y14218274D01*
X17198231Y14215242D01*
X17045220Y14092219D01*
X17045217Y14092217D01*
X17041447Y14089185D01*
X17038333Y14085474D01*
X17038332Y14085473D01*
X16948223Y13978085D01*
X16909024Y13931370D01*
X16906689Y13927122D01*
X16906688Y13927121D01*
X16899955Y13914874D01*
X16809776Y13750838D01*
X16808313Y13746226D01*
X16795098Y13704566D01*
X16759481Y13654816D01*
X16700732Y13635500D01*
X15913479Y13635500D01*
X15855288Y13654407D01*
X15843475Y13664496D01*
X14553496Y14954475D01*
X14525719Y15008992D01*
X14524500Y15024479D01*
X14524500Y15715595D01*
X16637898Y15715595D01*
X16638995Y15698855D01*
X16640408Y15689936D01*
X16690200Y15493879D01*
X16693220Y15485351D01*
X16777904Y15301659D01*
X16782422Y15293833D01*
X16899171Y15128637D01*
X16905035Y15121771D01*
X17049931Y14980619D01*
X17056954Y14974932D01*
X17225138Y14862554D01*
X17233093Y14858236D01*
X17418929Y14778394D01*
X17427540Y14775596D01*
X17619830Y14732086D01*
X17627167Y14734160D01*
X17629787Y14737486D01*
X17630000Y14738683D01*
X17630000Y15709320D01*
X17625878Y15722005D01*
X17621757Y15725000D01*
X16652962Y15725000D01*
X16640277Y15720878D01*
X16638202Y15718022D01*
X16637898Y15715595D01*
X14524500Y15715595D01*
X14524500Y17218492D01*
X14524803Y17222617D01*
X14526425Y17227342D01*
X14524570Y17276761D01*
X14524500Y17280474D01*
X14524500Y17299948D01*
X14523675Y17304378D01*
X14523338Y17309583D01*
X14523315Y17310210D01*
X14522226Y17339208D01*
X14518620Y17347602D01*
X14518619Y17347605D01*
X14517683Y17349783D01*
X14511317Y17370734D01*
X14509209Y17382053D01*
X14495232Y17404729D01*
X14488548Y17417596D01*
X14480795Y17435642D01*
X14480794Y17435643D01*
X14478036Y17442063D01*
X14474022Y17446949D01*
X14469658Y17451313D01*
X14455387Y17469368D01*
X14455264Y17469567D01*
X14450468Y17477348D01*
X14427231Y17495018D01*
X14417161Y17503810D01*
X12997495Y18923476D01*
X12969718Y18977993D01*
X12979289Y19038425D01*
X13022554Y19081690D01*
X13067499Y19092480D01*
X16636541Y19092480D01*
X16694732Y19073573D01*
G37*
%TD.AperFunction*%
%TA.AperFunction,Conductor*%
G36*
X11504224Y42590604D02*
G01*
X11540188Y42541104D01*
X11540188Y42479918D01*
X11516037Y42440507D01*
X11514366Y42438836D01*
X11459849Y42411059D01*
X11443762Y42409842D01*
X11364505Y42410327D01*
X11348427Y42410425D01*
X11348426Y42410425D01*
X11341376Y42410468D01*
X11334599Y42408531D01*
X11334598Y42408531D01*
X11210309Y42373009D01*
X11210307Y42373008D01*
X11203529Y42371071D01*
X11082280Y42294569D01*
X11077613Y42289285D01*
X11077611Y42289283D01*
X10992044Y42192396D01*
X10992042Y42192394D01*
X10987377Y42187111D01*
X10926447Y42057336D01*
X10925362Y42050367D01*
X10925361Y42050364D01*
X10916854Y41995725D01*
X10904391Y41915676D01*
X10905306Y41908679D01*
X10905306Y41908678D01*
X10918366Y41808806D01*
X10922980Y41773520D01*
X10933606Y41749370D01*
X10939736Y41688494D01*
X10908913Y41635640D01*
X10852909Y41610997D01*
X10842990Y41610499D01*
X9459059Y41610499D01*
X9400868Y41629406D01*
X9364904Y41678906D01*
X9364904Y41740092D01*
X9367771Y41747215D01*
X9368633Y41749917D01*
X9371710Y41756267D01*
X9374281Y41771544D01*
X9394862Y41893876D01*
X9394862Y41893880D01*
X9395496Y41897646D01*
X9395647Y41910000D01*
X9375323Y42051918D01*
X9332076Y42147035D01*
X9318905Y42176004D01*
X9318904Y42176005D01*
X9315984Y42182428D01*
X9274114Y42231020D01*
X9237091Y42273988D01*
X9213430Y42330413D01*
X9227454Y42389970D01*
X9242086Y42408615D01*
X9413986Y42580515D01*
X9468503Y42608292D01*
X9483990Y42609511D01*
X11446033Y42609511D01*
X11504224Y42590604D01*
G37*
%TD.AperFunction*%
%TA.AperFunction,Conductor*%
G36*
X5158380Y26734666D02*
G01*
X5201645Y26691401D01*
X5211599Y26659294D01*
X5212801Y26650104D01*
X5213108Y26647756D01*
X5201904Y26587606D01*
X5184947Y26564918D01*
X3091503Y24471474D01*
X3036986Y24443697D01*
X2974413Y24454392D01*
X2949055Y24468103D01*
X2849117Y24499039D01*
X2756875Y24527593D01*
X2756871Y24527594D01*
X2752254Y24529023D01*
X2747446Y24529528D01*
X2747443Y24529529D01*
X2552185Y24550051D01*
X2552183Y24550051D01*
X2547369Y24550557D01*
X2487354Y24545095D01*
X2347022Y24532325D01*
X2347017Y24532324D01*
X2342203Y24531886D01*
X2144572Y24473720D01*
X2140288Y24471481D01*
X2140287Y24471480D01*
X2129430Y24465804D01*
X1962002Y24378274D01*
X1958231Y24375242D01*
X1805220Y24252219D01*
X1805217Y24252217D01*
X1801447Y24249185D01*
X1798333Y24245474D01*
X1798332Y24245473D01*
X1675368Y24098930D01*
X1623480Y24066507D01*
X1562444Y24070775D01*
X1515573Y24110104D01*
X1500530Y24162566D01*
X1500530Y25370898D01*
X1519437Y25429089D01*
X1568937Y25465053D01*
X1630123Y25465053D01*
X1677116Y25432391D01*
X1777671Y25305521D01*
X1777675Y25305517D01*
X1780677Y25301730D01*
X1784357Y25298598D01*
X1784359Y25298596D01*
X1887113Y25211146D01*
X1937564Y25168209D01*
X1941787Y25165849D01*
X1941791Y25165846D01*
X1981342Y25143742D01*
X2117398Y25067703D01*
X2121996Y25066209D01*
X2308724Y25005537D01*
X2308726Y25005536D01*
X2313329Y25004041D01*
X2517894Y24979649D01*
X2522716Y24980020D01*
X2522719Y24980020D01*
X2590541Y24985239D01*
X2723300Y24995454D01*
X2921725Y25050855D01*
X2926038Y25053034D01*
X2926044Y25053036D01*
X3101289Y25141559D01*
X3101291Y25141560D01*
X3105610Y25143742D01*
X3112613Y25149213D01*
X3264135Y25267594D01*
X3264139Y25267598D01*
X3267951Y25270576D01*
X3298115Y25305521D01*
X3367238Y25385602D01*
X3402564Y25426528D01*
X3421231Y25459387D01*
X3501934Y25601450D01*
X3501935Y25601453D01*
X3504323Y25605656D01*
X3506934Y25613503D01*
X3524646Y25666749D01*
X3560955Y25715997D01*
X3618585Y25734500D01*
X3883492Y25734500D01*
X3887617Y25734197D01*
X3892342Y25732575D01*
X3941761Y25734430D01*
X3945474Y25734500D01*
X3964948Y25734500D01*
X3969378Y25735325D01*
X3974571Y25735661D01*
X3990602Y25736263D01*
X3995075Y25736431D01*
X4004208Y25736774D01*
X4012602Y25740380D01*
X4012605Y25740381D01*
X4014783Y25741317D01*
X4035734Y25747683D01*
X4047053Y25749791D01*
X4069729Y25763768D01*
X4082596Y25770452D01*
X4083814Y25770975D01*
X4088242Y25772877D01*
X4100642Y25778205D01*
X4100643Y25778206D01*
X4107063Y25780964D01*
X4111949Y25784978D01*
X4116313Y25789342D01*
X4134368Y25803613D01*
X4142348Y25808532D01*
X4160018Y25831769D01*
X4168810Y25841839D01*
X5043431Y26716460D01*
X5097948Y26744237D01*
X5158380Y26734666D01*
G37*
%TD.AperFunction*%
%TD*%
M02*
