%TF.GenerationSoftware,KiCad,Pcbnew,6.0.2-378541a8eb~116~ubuntu21.10.1*%
%TF.CreationDate,2022-02-16T23:17:44+01:00*%
%TF.ProjectId,GreenFox,47726565-6e46-46f7-982e-6b696361645f,Rev1*%
%TF.SameCoordinates,PX6d01460PY68c4118*%
%TF.FileFunction,Legend,Top*%
%TF.FilePolarity,Positive*%
%FSLAX46Y46*%
G04 Gerber Fmt 4.6, Leading zero omitted, Abs format (unit mm)*
G04 Created by KiCad (PCBNEW 6.0.2-378541a8eb~116~ubuntu21.10.1) date 2022-02-16 23:17:44*
%MOMM*%
%LPD*%
G01*
G04 APERTURE LIST*
%ADD10C,0.120000*%
%ADD11C,0.150000*%
G04 APERTURE END LIST*
D10*
X6318304Y17595896D02*
X6051638Y17976848D01*
X5861161Y17595896D02*
X5861161Y18395896D01*
X6165923Y18395896D01*
X6242114Y18357800D01*
X6280209Y18319705D01*
X6318304Y18243515D01*
X6318304Y18129229D01*
X6280209Y18053039D01*
X6242114Y18014943D01*
X6165923Y17976848D01*
X5861161Y17976848D01*
X6623066Y17633991D02*
X6737352Y17595896D01*
X6927828Y17595896D01*
X7004019Y17633991D01*
X7042114Y17672086D01*
X7080209Y17748277D01*
X7080209Y17824467D01*
X7042114Y17900658D01*
X7004019Y17938753D01*
X6927828Y17976848D01*
X6775447Y18014943D01*
X6699257Y18053039D01*
X6661161Y18091134D01*
X6623066Y18167324D01*
X6623066Y18243515D01*
X6661161Y18319705D01*
X6699257Y18357800D01*
X6775447Y18395896D01*
X6965923Y18395896D01*
X7080209Y18357800D01*
X7308780Y18395896D02*
X7765923Y18395896D01*
X7537352Y17595896D02*
X7537352Y18395896D01*
X12293771Y18395896D02*
X12293771Y17748277D01*
X12331866Y17672086D01*
X12369961Y17633991D01*
X12446152Y17595896D01*
X12598533Y17595896D01*
X12674723Y17633991D01*
X12712819Y17672086D01*
X12750914Y17748277D01*
X12750914Y18395896D01*
X13093771Y17633991D02*
X13208057Y17595896D01*
X13398533Y17595896D01*
X13474723Y17633991D01*
X13512819Y17672086D01*
X13550914Y17748277D01*
X13550914Y17824467D01*
X13512819Y17900658D01*
X13474723Y17938753D01*
X13398533Y17976848D01*
X13246152Y18014943D01*
X13169961Y18053039D01*
X13131866Y18091134D01*
X13093771Y18167324D01*
X13093771Y18243515D01*
X13131866Y18319705D01*
X13169961Y18357800D01*
X13246152Y18395896D01*
X13436628Y18395896D01*
X13550914Y18357800D01*
X13893771Y18014943D02*
X14160438Y18014943D01*
X14274723Y17595896D02*
X13893771Y17595896D01*
X13893771Y18395896D01*
X14274723Y18395896D01*
X15074723Y17595896D02*
X14808057Y17976848D01*
X14617580Y17595896D02*
X14617580Y18395896D01*
X14922342Y18395896D01*
X14998533Y18357800D01*
X15036628Y18319705D01*
X15074723Y18243515D01*
X15074723Y18129229D01*
X15036628Y18053039D01*
X14998533Y18014943D01*
X14922342Y17976848D01*
X14617580Y17976848D01*
X2921000Y1587500D02*
X2921000Y3492500D01*
X3873500Y2540000D02*
X2921000Y1587500D01*
X3873500Y2540000D02*
X2921000Y3492500D01*
X1026316Y45884744D02*
X1376502Y45534558D01*
X972441Y45507620D01*
X1053254Y45426808D01*
X1080191Y45345996D01*
X1080191Y45292121D01*
X1053254Y45211309D01*
X918567Y45076622D01*
X837754Y45049685D01*
X783880Y45049685D01*
X703067Y45076622D01*
X541443Y45238246D01*
X514506Y45319059D01*
X514506Y45372933D01*
X1538127Y45372933D02*
X1161003Y44618686D01*
X1915250Y44995810D01*
X903193Y43540993D02*
X876255Y43621805D01*
X795443Y43702617D01*
X687693Y43756492D01*
X579944Y43756492D01*
X499132Y43729555D01*
X364445Y43648742D01*
X283632Y43567930D01*
X202820Y43433243D01*
X175883Y43352431D01*
X175883Y43244681D01*
X229758Y43136932D01*
X283632Y43083057D01*
X391382Y43029182D01*
X445257Y43029182D01*
X633819Y43217744D01*
X526069Y43325494D01*
X633819Y42732871D02*
X1199504Y43298556D01*
X957067Y42409622D01*
X1522753Y42975307D01*
X1226441Y42140248D02*
X1792127Y42705933D01*
X1926814Y42571246D01*
X1980689Y42463497D01*
X1980689Y42355747D01*
X1953751Y42274935D01*
X1872939Y42140248D01*
X1792127Y42059436D01*
X1657440Y41978624D01*
X1576628Y41951686D01*
X1468878Y41951686D01*
X1361128Y42005561D01*
X1226441Y42140248D01*
X633819Y40785494D02*
X687693Y40677744D01*
X687693Y40623869D01*
X660756Y40543057D01*
X579944Y40462245D01*
X499132Y40435307D01*
X445257Y40435307D01*
X364445Y40462245D01*
X148945Y40677744D01*
X714631Y41243429D01*
X903193Y41054868D01*
X930130Y40974055D01*
X930130Y40920181D01*
X903193Y40839368D01*
X849318Y40785494D01*
X768506Y40758556D01*
X714631Y40758556D01*
X633819Y40785494D01*
X445257Y40974055D01*
X1010942Y39815747D02*
X687693Y40138996D01*
X849318Y39977372D02*
X1415003Y40543057D01*
X1280316Y40516120D01*
X1172567Y40516120D01*
X1091754Y40543057D01*
X1765189Y40192871D02*
X2115376Y39842685D01*
X1711315Y39815747D01*
X1792127Y39734935D01*
X1819064Y39654123D01*
X1819064Y39600248D01*
X1792127Y39519436D01*
X1657440Y39384749D01*
X1576628Y39357811D01*
X1522753Y39357811D01*
X1441941Y39384749D01*
X1280316Y39546373D01*
X1253379Y39627185D01*
X1253379Y39681060D01*
X633819Y38245494D02*
X687693Y38137744D01*
X687693Y38083869D01*
X660756Y38003057D01*
X579944Y37922245D01*
X499132Y37895307D01*
X445257Y37895307D01*
X364445Y37922245D01*
X148945Y38137744D01*
X714631Y38703429D01*
X903193Y38514868D01*
X930130Y38434055D01*
X930130Y38380181D01*
X903193Y38299368D01*
X849318Y38245494D01*
X768506Y38218556D01*
X714631Y38218556D01*
X633819Y38245494D01*
X445257Y38434055D01*
X1010942Y37275747D02*
X687693Y37598996D01*
X849318Y37437372D02*
X1415003Y38003057D01*
X1280316Y37976120D01*
X1172567Y37976120D01*
X1091754Y38003057D01*
X1872939Y37167998D02*
X1495815Y36790874D01*
X1953751Y37518184D02*
X1415003Y37248810D01*
X1765189Y36898624D01*
X633819Y35705494D02*
X687693Y35597744D01*
X687693Y35543869D01*
X660756Y35463057D01*
X579944Y35382245D01*
X499132Y35355307D01*
X445257Y35355307D01*
X364445Y35382245D01*
X148945Y35597744D01*
X714631Y36163429D01*
X903193Y35974868D01*
X930130Y35894055D01*
X930130Y35840181D01*
X903193Y35759368D01*
X849318Y35705494D01*
X768506Y35678556D01*
X714631Y35678556D01*
X633819Y35705494D01*
X445257Y35894055D01*
X1010942Y34735747D02*
X687693Y35058996D01*
X849318Y34897372D02*
X1415003Y35463057D01*
X1280316Y35436120D01*
X1172567Y35436120D01*
X1091754Y35463057D01*
X2088438Y34789622D02*
X1819064Y35058996D01*
X1522753Y34816559D01*
X1576628Y34816559D01*
X1657440Y34789622D01*
X1792127Y34654935D01*
X1819064Y34574123D01*
X1819064Y34520248D01*
X1792127Y34439436D01*
X1657440Y34304749D01*
X1576628Y34277811D01*
X1522753Y34277811D01*
X1441941Y34304749D01*
X1307254Y34439436D01*
X1280316Y34520248D01*
X1280316Y34574123D01*
X903193Y32626746D02*
X1172567Y32357372D01*
X687693Y32518996D02*
X1441941Y32896120D01*
X1064817Y32141872D01*
X1926814Y32411246D02*
X1980689Y32357372D01*
X2007626Y32276559D01*
X2007626Y32222685D01*
X1980689Y32141872D01*
X1899876Y32007185D01*
X1765189Y31872498D01*
X1630502Y31791686D01*
X1549690Y31764749D01*
X1495815Y31764749D01*
X1415003Y31791686D01*
X1361128Y31845561D01*
X1334191Y31926373D01*
X1334191Y31980248D01*
X1361128Y32061060D01*
X1441941Y32195747D01*
X1576628Y32330434D01*
X1711315Y32411246D01*
X1792127Y32438184D01*
X1846002Y32438184D01*
X1926814Y32411246D01*
X903193Y30086746D02*
X1172567Y29817372D01*
X687693Y29978996D02*
X1441941Y30356120D01*
X1064817Y29601872D01*
X1549690Y29116999D02*
X1226441Y29440248D01*
X1388066Y29278624D02*
X1953751Y29844309D01*
X1819064Y29817372D01*
X1711315Y29817372D01*
X1630502Y29844309D01*
X1172567Y27546746D02*
X1226441Y27438996D01*
X1226441Y27385121D01*
X1199504Y27304309D01*
X1118692Y27223497D01*
X1037880Y27196559D01*
X984005Y27196559D01*
X903193Y27223497D01*
X687693Y27438996D01*
X1253379Y28004681D01*
X1441941Y27816120D01*
X1468878Y27735307D01*
X1468878Y27681433D01*
X1441941Y27600620D01*
X1388066Y27546746D01*
X1307254Y27519808D01*
X1253379Y27519808D01*
X1172567Y27546746D01*
X984005Y27735307D01*
X1926814Y27331246D02*
X1980689Y27277372D01*
X2007626Y27196559D01*
X2007626Y27142685D01*
X1980689Y27061872D01*
X1899876Y26927185D01*
X1765189Y26792498D01*
X1630502Y26711686D01*
X1549690Y26684749D01*
X1495815Y26684749D01*
X1415003Y26711686D01*
X1361128Y26765561D01*
X1334191Y26846373D01*
X1334191Y26900248D01*
X1361128Y26981060D01*
X1441941Y27115747D01*
X1576628Y27250434D01*
X1711315Y27331246D01*
X1792127Y27358184D01*
X1846002Y27358184D01*
X1926814Y27331246D01*
X1172567Y25006746D02*
X1226441Y24898996D01*
X1226441Y24845121D01*
X1199504Y24764309D01*
X1118692Y24683497D01*
X1037880Y24656559D01*
X984005Y24656559D01*
X903193Y24683497D01*
X687693Y24898996D01*
X1253379Y25464681D01*
X1441941Y25276120D01*
X1468878Y25195307D01*
X1468878Y25141433D01*
X1441941Y25060620D01*
X1388066Y25006746D01*
X1307254Y24979808D01*
X1253379Y24979808D01*
X1172567Y25006746D01*
X984005Y25195307D01*
X1549690Y24036999D02*
X1226441Y24360248D01*
X1388066Y24198624D02*
X1953751Y24764309D01*
X1819064Y24737372D01*
X1711315Y24737372D01*
X1630502Y24764309D01*
X1064817Y22089622D02*
X1010942Y22089622D01*
X903193Y22143497D01*
X849318Y22197372D01*
X795443Y22305121D01*
X795443Y22412871D01*
X822380Y22493683D01*
X903193Y22628370D01*
X984005Y22709182D01*
X1118692Y22789994D01*
X1199504Y22816932D01*
X1307254Y22816932D01*
X1415003Y22763057D01*
X1468878Y22709182D01*
X1522753Y22601433D01*
X1522753Y22547558D01*
X1280316Y21766373D02*
X1388066Y21658624D01*
X1468878Y21631686D01*
X1522753Y21631686D01*
X1657440Y21658624D01*
X1792127Y21739436D01*
X2007626Y21954935D01*
X2034563Y22035747D01*
X2034563Y22089622D01*
X2007626Y22170434D01*
X1899876Y22278184D01*
X1819064Y22305121D01*
X1765189Y22305121D01*
X1684377Y22278184D01*
X1549690Y22143497D01*
X1522753Y22062685D01*
X1522753Y22008810D01*
X1549690Y21927998D01*
X1657440Y21820248D01*
X1738252Y21793311D01*
X1792127Y21793311D01*
X1872939Y21820248D01*
X1172567Y19926746D02*
X1226441Y19818996D01*
X1226441Y19765121D01*
X1199504Y19684309D01*
X1118692Y19603497D01*
X1037880Y19576559D01*
X984005Y19576559D01*
X903193Y19603497D01*
X687693Y19818996D01*
X1253379Y20384681D01*
X1441941Y20196120D01*
X1468878Y20115307D01*
X1468878Y20061433D01*
X1441941Y19980620D01*
X1388066Y19926746D01*
X1307254Y19899808D01*
X1253379Y19899808D01*
X1172567Y19926746D01*
X984005Y20115307D01*
X2088438Y19549622D02*
X1819064Y19818996D01*
X1522753Y19576559D01*
X1576628Y19576559D01*
X1657440Y19549622D01*
X1792127Y19414935D01*
X1819064Y19334123D01*
X1819064Y19280248D01*
X1792127Y19199436D01*
X1657440Y19064749D01*
X1576628Y19037811D01*
X1522753Y19037811D01*
X1441941Y19064749D01*
X1307254Y19199436D01*
X1280316Y19280248D01*
X1280316Y19334123D01*
X903193Y18140993D02*
X876255Y18221805D01*
X795443Y18302617D01*
X687693Y18356492D01*
X579944Y18356492D01*
X499132Y18329555D01*
X364445Y18248742D01*
X283632Y18167930D01*
X202820Y18033243D01*
X175883Y17952431D01*
X175883Y17844681D01*
X229758Y17736932D01*
X283632Y17683057D01*
X391382Y17629182D01*
X445257Y17629182D01*
X633819Y17817744D01*
X526069Y17925494D01*
X633819Y17332871D02*
X1199504Y17898556D01*
X957067Y17009622D01*
X1522753Y17575307D01*
X1226441Y16740248D02*
X1792127Y17305933D01*
X1926814Y17171246D01*
X1980689Y17063497D01*
X1980689Y16955747D01*
X1953751Y16874935D01*
X1872939Y16740248D01*
X1792127Y16659436D01*
X1657440Y16578624D01*
X1576628Y16551686D01*
X1468878Y16551686D01*
X1361128Y16605561D01*
X1226441Y16740248D01*
X1280316Y15277744D02*
X1630502Y14927558D01*
X1226441Y14900620D01*
X1307254Y14819808D01*
X1334191Y14738996D01*
X1334191Y14685121D01*
X1307254Y14604309D01*
X1172567Y14469622D01*
X1091754Y14442685D01*
X1037880Y14442685D01*
X957067Y14469622D01*
X795443Y14631246D01*
X768506Y14712059D01*
X768506Y14765933D01*
X1792127Y14765933D02*
X1415003Y14011686D01*
X2169250Y14388810D01*
X847432Y13490106D02*
X1413118Y12924420D01*
X579944Y12306746D02*
X660756Y12764681D01*
X256695Y12629994D02*
X822380Y13195680D01*
X1037880Y12980181D01*
X1064817Y12899368D01*
X1064817Y12845494D01*
X1037880Y12764681D01*
X957067Y12683869D01*
X876255Y12656932D01*
X822380Y12656932D01*
X741568Y12683869D01*
X526069Y12899368D01*
X1413118Y12924420D02*
X1951866Y12385672D01*
X822380Y12118184D02*
X876255Y12010434D01*
X1010942Y11875747D01*
X1091754Y11848810D01*
X1145629Y11848810D01*
X1226441Y11875747D01*
X1280316Y11929622D01*
X1307254Y12010434D01*
X1307254Y12064309D01*
X1280316Y12145121D01*
X1199504Y12279808D01*
X1172567Y12360620D01*
X1172567Y12414495D01*
X1199504Y12495307D01*
X1253379Y12549182D01*
X1334191Y12576120D01*
X1388066Y12576120D01*
X1468878Y12549182D01*
X1603565Y12414495D01*
X1657440Y12306746D01*
X1951866Y12385672D02*
X2382864Y11954674D01*
X1846002Y12172059D02*
X2169250Y11848810D01*
X1441941Y11444749D02*
X2007626Y12010434D01*
X18625997Y11848810D02*
X18733746Y11902685D01*
X18787621Y11902685D01*
X18868433Y11875747D01*
X18949245Y11794935D01*
X18976183Y11714123D01*
X18976183Y11660248D01*
X18949245Y11579436D01*
X18733746Y11363937D01*
X18168061Y11929622D01*
X18356623Y12118184D01*
X18437435Y12145121D01*
X18491310Y12145121D01*
X18572122Y12118184D01*
X18625997Y12064309D01*
X18652934Y11983497D01*
X18652934Y11929622D01*
X18625997Y11848810D01*
X18437435Y11660248D01*
X18760684Y12414495D02*
X18760684Y12468370D01*
X18787621Y12549182D01*
X18922308Y12683869D01*
X19003120Y12710807D01*
X19056995Y12710807D01*
X19137807Y12683869D01*
X19191682Y12629994D01*
X19245557Y12522245D01*
X19245557Y11875747D01*
X19595743Y12225933D01*
X18625997Y14388810D02*
X18733746Y14442685D01*
X18787621Y14442685D01*
X18868433Y14415747D01*
X18949245Y14334935D01*
X18976183Y14254123D01*
X18976183Y14200248D01*
X18949245Y14119436D01*
X18733746Y13903937D01*
X18168061Y14469622D01*
X18356623Y14658184D01*
X18437435Y14685121D01*
X18491310Y14685121D01*
X18572122Y14658184D01*
X18625997Y14604309D01*
X18652934Y14523497D01*
X18652934Y14469622D01*
X18625997Y14388810D01*
X18437435Y14200248D01*
X18679871Y14981433D02*
X19030058Y15331619D01*
X19056995Y14927558D01*
X19137807Y15008370D01*
X19218619Y15035307D01*
X19272494Y15035307D01*
X19353306Y15008370D01*
X19487993Y14873683D01*
X19514931Y14792871D01*
X19514931Y14738996D01*
X19487993Y14658184D01*
X19326369Y14496559D01*
X19245557Y14469622D01*
X19191682Y14469622D01*
X18491310Y17278996D02*
X18410497Y17252059D01*
X18329685Y17171246D01*
X18275810Y17063497D01*
X18275810Y16955747D01*
X18302748Y16874935D01*
X18383560Y16740248D01*
X18464372Y16659436D01*
X18599059Y16578624D01*
X18679871Y16551686D01*
X18787621Y16551686D01*
X18895371Y16605561D01*
X18949245Y16659436D01*
X19003120Y16767185D01*
X19003120Y16821060D01*
X18814558Y17009622D01*
X18706809Y16901872D01*
X19299432Y17009622D02*
X18733746Y17575307D01*
X19622680Y17332871D01*
X19056995Y17898556D01*
X19892054Y17602245D02*
X19326369Y18167930D01*
X19461056Y18302617D01*
X19568806Y18356492D01*
X19676555Y18356492D01*
X19757367Y18329555D01*
X19892054Y18248742D01*
X19972867Y18167930D01*
X20053679Y18033243D01*
X20080616Y17952431D01*
X20080616Y17844681D01*
X20026741Y17736932D01*
X19892054Y17602245D01*
X19003120Y19361060D02*
X19003120Y19307185D01*
X18949245Y19199436D01*
X18895371Y19145561D01*
X18787621Y19091686D01*
X18679871Y19091686D01*
X18599059Y19118624D01*
X18464372Y19199436D01*
X18383560Y19280248D01*
X18302748Y19414935D01*
X18275810Y19495747D01*
X18275810Y19603497D01*
X18329685Y19711246D01*
X18383560Y19765121D01*
X18491310Y19818996D01*
X18545184Y19818996D01*
X18841496Y20223057D02*
X18895371Y20276932D01*
X18976183Y20303869D01*
X19030058Y20303869D01*
X19110870Y20276932D01*
X19245557Y20196120D01*
X19380244Y20061433D01*
X19461056Y19926746D01*
X19487993Y19845933D01*
X19487993Y19792059D01*
X19461056Y19711246D01*
X19407181Y19657372D01*
X19326369Y19630434D01*
X19272494Y19630434D01*
X19191682Y19657372D01*
X19056995Y19738184D01*
X18922308Y19872871D01*
X18841496Y20007558D01*
X18814558Y20088370D01*
X18814558Y20142245D01*
X18841496Y20223057D01*
X19003120Y21901060D02*
X19003120Y21847185D01*
X18949245Y21739436D01*
X18895371Y21685561D01*
X18787621Y21631686D01*
X18679871Y21631686D01*
X18599059Y21658624D01*
X18464372Y21739436D01*
X18383560Y21820248D01*
X18302748Y21954935D01*
X18275810Y22035747D01*
X18275810Y22143497D01*
X18329685Y22251246D01*
X18383560Y22305121D01*
X18491310Y22358996D01*
X18545184Y22358996D01*
X19595743Y22385933D02*
X19272494Y22062685D01*
X19434119Y22224309D02*
X18868433Y22789994D01*
X18895371Y22655307D01*
X18895371Y22547558D01*
X18868433Y22466746D01*
X19003120Y24441060D02*
X19003120Y24387185D01*
X18949245Y24279436D01*
X18895371Y24225561D01*
X18787621Y24171686D01*
X18679871Y24171686D01*
X18599059Y24198624D01*
X18464372Y24279436D01*
X18383560Y24360248D01*
X18302748Y24494935D01*
X18275810Y24575747D01*
X18275810Y24683497D01*
X18329685Y24791246D01*
X18383560Y24845121D01*
X18491310Y24898996D01*
X18545184Y24898996D01*
X18760684Y25114495D02*
X18760684Y25168370D01*
X18787621Y25249182D01*
X18922308Y25383869D01*
X19003120Y25410807D01*
X19056995Y25410807D01*
X19137807Y25383869D01*
X19191682Y25329994D01*
X19245557Y25222245D01*
X19245557Y24575747D01*
X19595743Y24925933D01*
X18545184Y26738624D02*
X18814558Y27007998D01*
X18652934Y26523124D02*
X18275810Y27277372D01*
X19030058Y26900248D01*
X19245557Y27115747D02*
X19353306Y27223497D01*
X19380244Y27304309D01*
X19380244Y27358184D01*
X19353306Y27492871D01*
X19272494Y27627558D01*
X19056995Y27843057D01*
X18976183Y27869994D01*
X18922308Y27869994D01*
X18841496Y27843057D01*
X18733746Y27735307D01*
X18706809Y27654495D01*
X18706809Y27600620D01*
X18733746Y27519808D01*
X18868433Y27385121D01*
X18949245Y27358184D01*
X19003120Y27358184D01*
X19083932Y27385121D01*
X19191682Y27492871D01*
X19218619Y27573683D01*
X19218619Y27627558D01*
X19191682Y27708370D01*
X18625997Y29628810D02*
X18733746Y29682685D01*
X18787621Y29682685D01*
X18868433Y29655747D01*
X18949245Y29574935D01*
X18976183Y29494123D01*
X18976183Y29440248D01*
X18949245Y29359436D01*
X18733746Y29143937D01*
X18168061Y29709622D01*
X18356623Y29898184D01*
X18437435Y29925121D01*
X18491310Y29925121D01*
X18572122Y29898184D01*
X18625997Y29844309D01*
X18652934Y29763497D01*
X18652934Y29709622D01*
X18625997Y29628810D01*
X18437435Y29440248D01*
X18679871Y30221433D02*
X19056995Y30598556D01*
X19380244Y29790434D01*
X18625997Y32168810D02*
X18733746Y32222685D01*
X18787621Y32222685D01*
X18868433Y32195747D01*
X18949245Y32114935D01*
X18976183Y32034123D01*
X18976183Y31980248D01*
X18949245Y31899436D01*
X18733746Y31683937D01*
X18168061Y32249622D01*
X18356623Y32438184D01*
X18437435Y32465121D01*
X18491310Y32465121D01*
X18572122Y32438184D01*
X18625997Y32384309D01*
X18652934Y32303497D01*
X18652934Y32249622D01*
X18625997Y32168810D01*
X18437435Y31980248D01*
X19056995Y32653683D02*
X18976183Y32626746D01*
X18922308Y32626746D01*
X18841496Y32653683D01*
X18814558Y32680620D01*
X18787621Y32761433D01*
X18787621Y32815307D01*
X18814558Y32896120D01*
X18922308Y33003869D01*
X19003120Y33030807D01*
X19056995Y33030807D01*
X19137807Y33003869D01*
X19164745Y32976932D01*
X19191682Y32896120D01*
X19191682Y32842245D01*
X19164745Y32761433D01*
X19056995Y32653683D01*
X19030058Y32572871D01*
X19030058Y32518996D01*
X19056995Y32438184D01*
X19164745Y32330434D01*
X19245557Y32303497D01*
X19299432Y32303497D01*
X19380244Y32330434D01*
X19487993Y32438184D01*
X19514931Y32518996D01*
X19514931Y32572871D01*
X19487993Y32653683D01*
X19380244Y32761433D01*
X19299432Y32788370D01*
X19245557Y32788370D01*
X19164745Y32761433D01*
X18625997Y34708810D02*
X18733746Y34762685D01*
X18787621Y34762685D01*
X18868433Y34735747D01*
X18949245Y34654935D01*
X18976183Y34574123D01*
X18976183Y34520248D01*
X18949245Y34439436D01*
X18733746Y34223937D01*
X18168061Y34789622D01*
X18356623Y34978184D01*
X18437435Y35005121D01*
X18491310Y35005121D01*
X18572122Y34978184D01*
X18625997Y34924309D01*
X18652934Y34843497D01*
X18652934Y34789622D01*
X18625997Y34708810D01*
X18437435Y34520248D01*
X19326369Y34816559D02*
X19434119Y34924309D01*
X19461056Y35005121D01*
X19461056Y35058996D01*
X19434119Y35193683D01*
X19353306Y35328370D01*
X19137807Y35543869D01*
X19056995Y35570807D01*
X19003120Y35570807D01*
X18922308Y35543869D01*
X18814558Y35436120D01*
X18787621Y35355307D01*
X18787621Y35301433D01*
X18814558Y35220620D01*
X18949245Y35085933D01*
X19030058Y35058996D01*
X19083932Y35058996D01*
X19164745Y35085933D01*
X19272494Y35193683D01*
X19299432Y35274495D01*
X19299432Y35328370D01*
X19272494Y35409182D01*
X19003120Y37141060D02*
X19003120Y37087185D01*
X18949245Y36979436D01*
X18895371Y36925561D01*
X18787621Y36871686D01*
X18679871Y36871686D01*
X18599059Y36898624D01*
X18464372Y36979436D01*
X18383560Y37060248D01*
X18302748Y37194935D01*
X18275810Y37275747D01*
X18275810Y37383497D01*
X18329685Y37491246D01*
X18383560Y37545121D01*
X18491310Y37598996D01*
X18545184Y37598996D01*
X19056995Y37733683D02*
X18976183Y37706746D01*
X18922308Y37706746D01*
X18841496Y37733683D01*
X18814558Y37760620D01*
X18787621Y37841433D01*
X18787621Y37895307D01*
X18814558Y37976120D01*
X18922308Y38083869D01*
X19003120Y38110807D01*
X19056995Y38110807D01*
X19137807Y38083869D01*
X19164745Y38056932D01*
X19191682Y37976120D01*
X19191682Y37922245D01*
X19164745Y37841433D01*
X19056995Y37733683D01*
X19030058Y37652871D01*
X19030058Y37598996D01*
X19056995Y37518184D01*
X19164745Y37410434D01*
X19245557Y37383497D01*
X19299432Y37383497D01*
X19380244Y37410434D01*
X19487993Y37518184D01*
X19514931Y37598996D01*
X19514931Y37652871D01*
X19487993Y37733683D01*
X19380244Y37841433D01*
X19299432Y37868370D01*
X19245557Y37868370D01*
X19164745Y37841433D01*
X18625997Y39788810D02*
X18733746Y39842685D01*
X18787621Y39842685D01*
X18868433Y39815747D01*
X18949245Y39734935D01*
X18976183Y39654123D01*
X18976183Y39600248D01*
X18949245Y39519436D01*
X18733746Y39303937D01*
X18168061Y39869622D01*
X18356623Y40058184D01*
X18437435Y40085121D01*
X18491310Y40085121D01*
X18572122Y40058184D01*
X18625997Y40004309D01*
X18652934Y39923497D01*
X18652934Y39869622D01*
X18625997Y39788810D01*
X18437435Y39600248D01*
X19595743Y40165933D02*
X19272494Y39842685D01*
X19434119Y40004309D02*
X18868433Y40569994D01*
X18895371Y40435307D01*
X18895371Y40327558D01*
X18868433Y40246746D01*
X19380244Y41081805D02*
X19434119Y41135680D01*
X19514931Y41162617D01*
X19568806Y41162617D01*
X19649618Y41135680D01*
X19784305Y41054868D01*
X19918992Y40920181D01*
X19999804Y40785494D01*
X20026741Y40704681D01*
X20026741Y40650807D01*
X19999804Y40569994D01*
X19945929Y40516120D01*
X19865117Y40489182D01*
X19811242Y40489182D01*
X19730430Y40516120D01*
X19595743Y40596932D01*
X19461056Y40731619D01*
X19380244Y40866306D01*
X19353306Y40947118D01*
X19353306Y41000993D01*
X19380244Y41081805D01*
X18625997Y42328810D02*
X18733746Y42382685D01*
X18787621Y42382685D01*
X18868433Y42355747D01*
X18949245Y42274935D01*
X18976183Y42194123D01*
X18976183Y42140248D01*
X18949245Y42059436D01*
X18733746Y41843937D01*
X18168061Y42409622D01*
X18356623Y42598184D01*
X18437435Y42625121D01*
X18491310Y42625121D01*
X18572122Y42598184D01*
X18625997Y42544309D01*
X18652934Y42463497D01*
X18652934Y42409622D01*
X18625997Y42328810D01*
X18437435Y42140248D01*
X19595743Y42705933D02*
X19272494Y42382685D01*
X19434119Y42544309D02*
X18868433Y43109994D01*
X18895371Y42975307D01*
X18895371Y42867558D01*
X18868433Y42786746D01*
X20134491Y43244681D02*
X19811242Y42921433D01*
X19972867Y43083057D02*
X19407181Y43648742D01*
X19434119Y43514055D01*
X19434119Y43406306D01*
X19407181Y43325494D01*
X18754935Y45345996D02*
X18485561Y45076622D01*
X18727997Y44780311D01*
X18727997Y44834185D01*
X18754935Y44914998D01*
X18889622Y45049685D01*
X18970434Y45076622D01*
X19024309Y45076622D01*
X19105121Y45049685D01*
X19239808Y44914998D01*
X19266745Y44834185D01*
X19266745Y44780311D01*
X19239808Y44699498D01*
X19105121Y44564811D01*
X19024309Y44537874D01*
X18970434Y44537874D01*
X18943497Y45534558D02*
X19697744Y45157434D01*
X19320620Y45911681D01*
D11*
%TO.C,J1*%
X9826666Y37274220D02*
X9826666Y36559934D01*
X9779047Y36417077D01*
X9683809Y36321839D01*
X9540952Y36274220D01*
X9445714Y36274220D01*
X10826666Y36274220D02*
X10255238Y36274220D01*
X10540952Y36274220D02*
X10540952Y37274220D01*
X10445714Y37131362D01*
X10350476Y37036124D01*
X10255238Y36988505D01*
D10*
%TO.C,SW2*%
X9539809Y12903334D02*
X9577904Y13017620D01*
X9577904Y13208096D01*
X9539809Y13284286D01*
X9501714Y13322381D01*
X9425523Y13360477D01*
X9349333Y13360477D01*
X9273142Y13322381D01*
X9235047Y13284286D01*
X9196952Y13208096D01*
X9158857Y13055715D01*
X9120761Y12979524D01*
X9082666Y12941429D01*
X9006476Y12903334D01*
X8930285Y12903334D01*
X8854095Y12941429D01*
X8816000Y12979524D01*
X8777904Y13055715D01*
X8777904Y13246191D01*
X8816000Y13360477D01*
X8777904Y13627143D02*
X9577904Y13817620D01*
X9006476Y13970000D01*
X9577904Y14122381D01*
X8777904Y14312858D01*
X8854095Y14579524D02*
X8816000Y14617620D01*
X8777904Y14693810D01*
X8777904Y14884286D01*
X8816000Y14960477D01*
X8854095Y14998572D01*
X8930285Y15036667D01*
X9006476Y15036667D01*
X9120761Y14998572D01*
X9577904Y14541429D01*
X9577904Y15036667D01*
%TO.C,SW1*%
X11554809Y12903334D02*
X11592904Y13017620D01*
X11592904Y13208096D01*
X11554809Y13284286D01*
X11516714Y13322381D01*
X11440523Y13360477D01*
X11364333Y13360477D01*
X11288142Y13322381D01*
X11250047Y13284286D01*
X11211952Y13208096D01*
X11173857Y13055715D01*
X11135761Y12979524D01*
X11097666Y12941429D01*
X11021476Y12903334D01*
X10945285Y12903334D01*
X10869095Y12941429D01*
X10831000Y12979524D01*
X10792904Y13055715D01*
X10792904Y13246191D01*
X10831000Y13360477D01*
X10792904Y13627143D02*
X11592904Y13817620D01*
X11021476Y13970000D01*
X11592904Y14122381D01*
X10792904Y14312858D01*
X11592904Y15036667D02*
X11592904Y14579524D01*
X11592904Y14808096D02*
X10792904Y14808096D01*
X10907190Y14731905D01*
X10983380Y14655715D01*
X11021476Y14579524D01*
%TO.C,R1*%
X6330904Y27679667D02*
X5949952Y27413000D01*
X6330904Y27222524D02*
X5530904Y27222524D01*
X5530904Y27527286D01*
X5569000Y27603477D01*
X5607095Y27641572D01*
X5683285Y27679667D01*
X5797571Y27679667D01*
X5873761Y27641572D01*
X5911857Y27603477D01*
X5949952Y27527286D01*
X5949952Y27222524D01*
X6330904Y28441572D02*
X6330904Y27984429D01*
X6330904Y28213000D02*
X5530904Y28213000D01*
X5645190Y28136810D01*
X5721380Y28060620D01*
X5759476Y27984429D01*
%TO.C,C8*%
X7778714Y25012667D02*
X7816809Y24974572D01*
X7854904Y24860286D01*
X7854904Y24784096D01*
X7816809Y24669810D01*
X7740619Y24593620D01*
X7664428Y24555524D01*
X7512047Y24517429D01*
X7397761Y24517429D01*
X7245380Y24555524D01*
X7169190Y24593620D01*
X7093000Y24669810D01*
X7054904Y24784096D01*
X7054904Y24860286D01*
X7093000Y24974572D01*
X7131095Y25012667D01*
X7397761Y25469810D02*
X7359666Y25393620D01*
X7321571Y25355524D01*
X7245380Y25317429D01*
X7207285Y25317429D01*
X7131095Y25355524D01*
X7093000Y25393620D01*
X7054904Y25469810D01*
X7054904Y25622191D01*
X7093000Y25698381D01*
X7131095Y25736477D01*
X7207285Y25774572D01*
X7245380Y25774572D01*
X7321571Y25736477D01*
X7359666Y25698381D01*
X7397761Y25622191D01*
X7397761Y25469810D01*
X7435857Y25393620D01*
X7473952Y25355524D01*
X7550142Y25317429D01*
X7702523Y25317429D01*
X7778714Y25355524D01*
X7816809Y25393620D01*
X7854904Y25469810D01*
X7854904Y25622191D01*
X7816809Y25698381D01*
X7778714Y25736477D01*
X7702523Y25774572D01*
X7550142Y25774572D01*
X7473952Y25736477D01*
X7435857Y25698381D01*
X7397761Y25622191D01*
%TO.C,Y2*%
X14351047Y26054048D02*
X14351047Y25673096D01*
X14084380Y26473096D02*
X14351047Y26054048D01*
X14617714Y26473096D01*
X14846285Y26396905D02*
X14884380Y26435000D01*
X14960571Y26473096D01*
X15151047Y26473096D01*
X15227238Y26435000D01*
X15265333Y26396905D01*
X15303428Y26320715D01*
X15303428Y26244524D01*
X15265333Y26130239D01*
X14808190Y25673096D01*
X15303428Y25673096D01*
%TO.C,Y1*%
X10414047Y24911048D02*
X10414047Y24530096D01*
X10147380Y25330096D02*
X10414047Y24911048D01*
X10680714Y25330096D01*
X11366428Y24530096D02*
X10909285Y24530096D01*
X11137857Y24530096D02*
X11137857Y25330096D01*
X11061666Y25215810D01*
X10985476Y25139620D01*
X10909285Y25101524D01*
%TO.C,U3*%
X14039904Y30657877D02*
X14687523Y30657877D01*
X14763714Y30695972D01*
X14801809Y30734067D01*
X14839904Y30810258D01*
X14839904Y30962639D01*
X14801809Y31038829D01*
X14763714Y31076924D01*
X14687523Y31115020D01*
X14039904Y31115020D01*
X14039904Y31419781D02*
X14039904Y31915020D01*
X14344666Y31648353D01*
X14344666Y31762639D01*
X14382761Y31838829D01*
X14420857Y31876924D01*
X14497047Y31915020D01*
X14687523Y31915020D01*
X14763714Y31876924D01*
X14801809Y31838829D01*
X14839904Y31762639D01*
X14839904Y31534067D01*
X14801809Y31457877D01*
X14763714Y31419781D01*
%TO.C,U2*%
X9550476Y44380096D02*
X9550476Y43732477D01*
X9588571Y43656286D01*
X9626666Y43618191D01*
X9702857Y43580096D01*
X9855238Y43580096D01*
X9931428Y43618191D01*
X9969523Y43656286D01*
X10007619Y43732477D01*
X10007619Y44380096D01*
X10350476Y44303905D02*
X10388571Y44342000D01*
X10464761Y44380096D01*
X10655238Y44380096D01*
X10731428Y44342000D01*
X10769523Y44303905D01*
X10807619Y44227715D01*
X10807619Y44151524D01*
X10769523Y44037239D01*
X10312380Y43580096D01*
X10807619Y43580096D01*
%TO.C,U1*%
X6629476Y43364096D02*
X6629476Y42716477D01*
X6667571Y42640286D01*
X6705666Y42602191D01*
X6781857Y42564096D01*
X6934238Y42564096D01*
X7010428Y42602191D01*
X7048523Y42640286D01*
X7086619Y42716477D01*
X7086619Y43364096D01*
X7886619Y42564096D02*
X7429476Y42564096D01*
X7658047Y42564096D02*
X7658047Y43364096D01*
X7581857Y43249810D01*
X7505666Y43173620D01*
X7429476Y43135524D01*
%TO.C,R9*%
X4643166Y12846096D02*
X4376500Y13227048D01*
X4186023Y12846096D02*
X4186023Y13646096D01*
X4490785Y13646096D01*
X4566976Y13608000D01*
X4605071Y13569905D01*
X4643166Y13493715D01*
X4643166Y13379429D01*
X4605071Y13303239D01*
X4566976Y13265143D01*
X4490785Y13227048D01*
X4186023Y13227048D01*
X5024119Y12846096D02*
X5176500Y12846096D01*
X5252690Y12884191D01*
X5290785Y12922286D01*
X5366976Y13036572D01*
X5405071Y13188953D01*
X5405071Y13493715D01*
X5366976Y13569905D01*
X5328880Y13608000D01*
X5252690Y13646096D01*
X5100309Y13646096D01*
X5024119Y13608000D01*
X4986023Y13569905D01*
X4947928Y13493715D01*
X4947928Y13303239D01*
X4986023Y13227048D01*
X5024119Y13188953D01*
X5100309Y13150858D01*
X5252690Y13150858D01*
X5328880Y13188953D01*
X5366976Y13227048D01*
X5405071Y13303239D01*
%TO.C,R8*%
X4643166Y13790096D02*
X4376500Y14171048D01*
X4186023Y13790096D02*
X4186023Y14590096D01*
X4490785Y14590096D01*
X4566976Y14552000D01*
X4605071Y14513905D01*
X4643166Y14437715D01*
X4643166Y14323429D01*
X4605071Y14247239D01*
X4566976Y14209143D01*
X4490785Y14171048D01*
X4186023Y14171048D01*
X5100309Y14247239D02*
X5024119Y14285334D01*
X4986023Y14323429D01*
X4947928Y14399620D01*
X4947928Y14437715D01*
X4986023Y14513905D01*
X5024119Y14552000D01*
X5100309Y14590096D01*
X5252690Y14590096D01*
X5328880Y14552000D01*
X5366976Y14513905D01*
X5405071Y14437715D01*
X5405071Y14399620D01*
X5366976Y14323429D01*
X5328880Y14285334D01*
X5252690Y14247239D01*
X5100309Y14247239D01*
X5024119Y14209143D01*
X4986023Y14171048D01*
X4947928Y14094858D01*
X4947928Y13942477D01*
X4986023Y13866286D01*
X5024119Y13828191D01*
X5100309Y13790096D01*
X5252690Y13790096D01*
X5328880Y13828191D01*
X5366976Y13866286D01*
X5405071Y13942477D01*
X5405071Y14094858D01*
X5366976Y14171048D01*
X5328880Y14209143D01*
X5252690Y14247239D01*
%TO.C,R7*%
X8870904Y25012667D02*
X8489952Y24746000D01*
X8870904Y24555524D02*
X8070904Y24555524D01*
X8070904Y24860286D01*
X8109000Y24936477D01*
X8147095Y24974572D01*
X8223285Y25012667D01*
X8337571Y25012667D01*
X8413761Y24974572D01*
X8451857Y24936477D01*
X8489952Y24860286D01*
X8489952Y24555524D01*
X8070904Y25279334D02*
X8070904Y25812667D01*
X8870904Y25469810D01*
%TO.C,R5*%
X10026666Y42564096D02*
X9760000Y42945048D01*
X9569523Y42564096D02*
X9569523Y43364096D01*
X9874285Y43364096D01*
X9950476Y43326000D01*
X9988571Y43287905D01*
X10026666Y43211715D01*
X10026666Y43097429D01*
X9988571Y43021239D01*
X9950476Y42983143D01*
X9874285Y42945048D01*
X9569523Y42945048D01*
X10750476Y43364096D02*
X10369523Y43364096D01*
X10331428Y42983143D01*
X10369523Y43021239D01*
X10445714Y43059334D01*
X10636190Y43059334D01*
X10712380Y43021239D01*
X10750476Y42983143D01*
X10788571Y42906953D01*
X10788571Y42716477D01*
X10750476Y42640286D01*
X10712380Y42602191D01*
X10636190Y42564096D01*
X10445714Y42564096D01*
X10369523Y42602191D01*
X10331428Y42640286D01*
%TO.C,R4*%
X13455666Y37357096D02*
X13189000Y37738048D01*
X12998523Y37357096D02*
X12998523Y38157096D01*
X13303285Y38157096D01*
X13379476Y38119000D01*
X13417571Y38080905D01*
X13455666Y38004715D01*
X13455666Y37890429D01*
X13417571Y37814239D01*
X13379476Y37776143D01*
X13303285Y37738048D01*
X12998523Y37738048D01*
X14141380Y37890429D02*
X14141380Y37357096D01*
X13950904Y38195191D02*
X13760428Y37623762D01*
X14255666Y37623762D01*
%TO.C,R3*%
X12855904Y43956667D02*
X12474952Y43690000D01*
X12855904Y43499524D02*
X12055904Y43499524D01*
X12055904Y43804286D01*
X12094000Y43880477D01*
X12132095Y43918572D01*
X12208285Y43956667D01*
X12322571Y43956667D01*
X12398761Y43918572D01*
X12436857Y43880477D01*
X12474952Y43804286D01*
X12474952Y43499524D01*
X12055904Y44223334D02*
X12055904Y44718572D01*
X12360666Y44451905D01*
X12360666Y44566191D01*
X12398761Y44642381D01*
X12436857Y44680477D01*
X12513047Y44718572D01*
X12703523Y44718572D01*
X12779714Y44680477D01*
X12817809Y44642381D01*
X12855904Y44566191D01*
X12855904Y44337620D01*
X12817809Y44261429D01*
X12779714Y44223334D01*
%TO.C,R2*%
X22391666Y40143096D02*
X22125000Y40524048D01*
X21934523Y40143096D02*
X21934523Y40943096D01*
X22239285Y40943096D01*
X22315476Y40905000D01*
X22353571Y40866905D01*
X22391666Y40790715D01*
X22391666Y40676429D01*
X22353571Y40600239D01*
X22315476Y40562143D01*
X22239285Y40524048D01*
X21934523Y40524048D01*
X22696428Y40866905D02*
X22734523Y40905000D01*
X22810714Y40943096D01*
X23001190Y40943096D01*
X23077380Y40905000D01*
X23115476Y40866905D01*
X23153571Y40790715D01*
X23153571Y40714524D01*
X23115476Y40600239D01*
X22658333Y40143096D01*
X23153571Y40143096D01*
%TO.C,J2*%
X1638333Y1644596D02*
X1638333Y1073167D01*
X1600238Y958881D01*
X1524047Y882691D01*
X1409761Y844596D01*
X1333571Y844596D01*
X1981190Y1568405D02*
X2019285Y1606500D01*
X2095476Y1644596D01*
X2285952Y1644596D01*
X2362142Y1606500D01*
X2400238Y1568405D01*
X2438333Y1492215D01*
X2438333Y1416024D01*
X2400238Y1301739D01*
X1943095Y844596D01*
X2438333Y844596D01*
%TO.C,D3*%
X6013523Y12846096D02*
X6013523Y13646096D01*
X6204000Y13646096D01*
X6318285Y13608000D01*
X6394476Y13531810D01*
X6432571Y13455620D01*
X6470666Y13303239D01*
X6470666Y13188953D01*
X6432571Y13036572D01*
X6394476Y12960381D01*
X6318285Y12884191D01*
X6204000Y12846096D01*
X6013523Y12846096D01*
X6737333Y13646096D02*
X7232571Y13646096D01*
X6965904Y13341334D01*
X7080190Y13341334D01*
X7156380Y13303239D01*
X7194476Y13265143D01*
X7232571Y13188953D01*
X7232571Y12998477D01*
X7194476Y12922286D01*
X7156380Y12884191D01*
X7080190Y12846096D01*
X6851619Y12846096D01*
X6775428Y12884191D01*
X6737333Y12922286D01*
%TO.C,D2*%
X6014023Y13790096D02*
X6014023Y14590096D01*
X6204500Y14590096D01*
X6318785Y14552000D01*
X6394976Y14475810D01*
X6433071Y14399620D01*
X6471166Y14247239D01*
X6471166Y14132953D01*
X6433071Y13980572D01*
X6394976Y13904381D01*
X6318785Y13828191D01*
X6204500Y13790096D01*
X6014023Y13790096D01*
X6775928Y14513905D02*
X6814023Y14552000D01*
X6890214Y14590096D01*
X7080690Y14590096D01*
X7156880Y14552000D01*
X7194976Y14513905D01*
X7233071Y14437715D01*
X7233071Y14361524D01*
X7194976Y14247239D01*
X6737833Y13790096D01*
X7233071Y13790096D01*
%TO.C,D1*%
X4561904Y45985524D02*
X3761904Y45985524D01*
X3761904Y46176000D01*
X3800000Y46290286D01*
X3876190Y46366477D01*
X3952380Y46404572D01*
X4104761Y46442667D01*
X4219047Y46442667D01*
X4371428Y46404572D01*
X4447619Y46366477D01*
X4523809Y46290286D01*
X4561904Y46176000D01*
X4561904Y45985524D01*
X4561904Y47204572D02*
X4561904Y46747429D01*
X4561904Y46976000D02*
X3761904Y46976000D01*
X3876190Y46899810D01*
X3952380Y46823620D01*
X3990476Y46747429D01*
%TO.C,C7*%
X13481066Y38576286D02*
X13442971Y38538191D01*
X13328685Y38500096D01*
X13252495Y38500096D01*
X13138209Y38538191D01*
X13062019Y38614381D01*
X13023923Y38690572D01*
X12985828Y38842953D01*
X12985828Y38957239D01*
X13023923Y39109620D01*
X13062019Y39185810D01*
X13138209Y39262000D01*
X13252495Y39300096D01*
X13328685Y39300096D01*
X13442971Y39262000D01*
X13481066Y39223905D01*
X13747733Y39300096D02*
X14281066Y39300096D01*
X13938209Y38500096D01*
%TO.C,C6*%
X15525714Y15614667D02*
X15563809Y15576572D01*
X15601904Y15462286D01*
X15601904Y15386096D01*
X15563809Y15271810D01*
X15487619Y15195620D01*
X15411428Y15157524D01*
X15259047Y15119429D01*
X15144761Y15119429D01*
X14992380Y15157524D01*
X14916190Y15195620D01*
X14840000Y15271810D01*
X14801904Y15386096D01*
X14801904Y15462286D01*
X14840000Y15576572D01*
X14878095Y15614667D01*
X14801904Y16300381D02*
X14801904Y16148000D01*
X14840000Y16071810D01*
X14878095Y16033715D01*
X14992380Y15957524D01*
X15144761Y15919429D01*
X15449523Y15919429D01*
X15525714Y15957524D01*
X15563809Y15995620D01*
X15601904Y16071810D01*
X15601904Y16224191D01*
X15563809Y16300381D01*
X15525714Y16338477D01*
X15449523Y16376572D01*
X15259047Y16376572D01*
X15182857Y16338477D01*
X15144761Y16300381D01*
X15106666Y16224191D01*
X15106666Y16071810D01*
X15144761Y15995620D01*
X15182857Y15957524D01*
X15259047Y15919429D01*
%TO.C,C5*%
X16033714Y31108667D02*
X16071809Y31070572D01*
X16109904Y30956286D01*
X16109904Y30880096D01*
X16071809Y30765810D01*
X15995619Y30689620D01*
X15919428Y30651524D01*
X15767047Y30613429D01*
X15652761Y30613429D01*
X15500380Y30651524D01*
X15424190Y30689620D01*
X15348000Y30765810D01*
X15309904Y30880096D01*
X15309904Y30956286D01*
X15348000Y31070572D01*
X15386095Y31108667D01*
X15309904Y31832477D02*
X15309904Y31451524D01*
X15690857Y31413429D01*
X15652761Y31451524D01*
X15614666Y31527715D01*
X15614666Y31718191D01*
X15652761Y31794381D01*
X15690857Y31832477D01*
X15767047Y31870572D01*
X15957523Y31870572D01*
X16033714Y31832477D01*
X16071809Y31794381D01*
X16109904Y31718191D01*
X16109904Y31527715D01*
X16071809Y31451524D01*
X16033714Y31413429D01*
%TO.C,C4*%
X6508714Y30854667D02*
X6546809Y30816572D01*
X6584904Y30702286D01*
X6584904Y30626096D01*
X6546809Y30511810D01*
X6470619Y30435620D01*
X6394428Y30397524D01*
X6242047Y30359429D01*
X6127761Y30359429D01*
X5975380Y30397524D01*
X5899190Y30435620D01*
X5823000Y30511810D01*
X5784904Y30626096D01*
X5784904Y30702286D01*
X5823000Y30816572D01*
X5861095Y30854667D01*
X6051571Y31540381D02*
X6584904Y31540381D01*
X5746809Y31349905D02*
X6318238Y31159429D01*
X6318238Y31654667D01*
%TO.C,C3*%
X14255714Y15614667D02*
X14293809Y15576572D01*
X14331904Y15462286D01*
X14331904Y15386096D01*
X14293809Y15271810D01*
X14217619Y15195620D01*
X14141428Y15157524D01*
X13989047Y15119429D01*
X13874761Y15119429D01*
X13722380Y15157524D01*
X13646190Y15195620D01*
X13570000Y15271810D01*
X13531904Y15386096D01*
X13531904Y15462286D01*
X13570000Y15576572D01*
X13608095Y15614667D01*
X13531904Y15881334D02*
X13531904Y16376572D01*
X13836666Y16109905D01*
X13836666Y16224191D01*
X13874761Y16300381D01*
X13912857Y16338477D01*
X13989047Y16376572D01*
X14179523Y16376572D01*
X14255714Y16338477D01*
X14293809Y16300381D01*
X14331904Y16224191D01*
X14331904Y15995620D01*
X14293809Y15919429D01*
X14255714Y15881334D01*
%TO.C,C1*%
X7105666Y43656286D02*
X7067571Y43618191D01*
X6953285Y43580096D01*
X6877095Y43580096D01*
X6762809Y43618191D01*
X6686619Y43694381D01*
X6648523Y43770572D01*
X6610428Y43922953D01*
X6610428Y44037239D01*
X6648523Y44189620D01*
X6686619Y44265810D01*
X6762809Y44342000D01*
X6877095Y44380096D01*
X6953285Y44380096D01*
X7067571Y44342000D01*
X7105666Y44303905D01*
X7867571Y43580096D02*
X7410428Y43580096D01*
X7639000Y43580096D02*
X7639000Y44380096D01*
X7562809Y44265810D01*
X7486619Y44189620D01*
X7410428Y44151524D01*
%TO.C,SW2*%
X12416000Y17120000D02*
X15016000Y17120000D01*
X17166000Y10820000D02*
X16916000Y10820000D01*
X17166000Y17120000D02*
X17166000Y10820000D01*
X16916000Y17120000D02*
X17166000Y17120000D01*
X15016000Y10820000D02*
X12416000Y10820000D01*
X10266000Y17120000D02*
X10516000Y17120000D01*
X10266000Y10820000D02*
X10266000Y17120000D01*
X10516000Y10820000D02*
X10266000Y10820000D01*
%TO.C,SW1*%
X8031000Y10820000D02*
X5431000Y10820000D01*
X3281000Y17120000D02*
X3531000Y17120000D01*
X3281000Y10820000D02*
X3281000Y17120000D01*
X3531000Y10820000D02*
X3281000Y10820000D01*
X5431000Y17120000D02*
X8031000Y17120000D01*
X10181000Y10820000D02*
X9931000Y10820000D01*
X10181000Y17120000D02*
X10181000Y10820000D01*
X9931000Y17120000D02*
X10181000Y17120000D01*
%TO.C,R1*%
X5209000Y27641733D02*
X5209000Y27984267D01*
X4189000Y27641733D02*
X4189000Y27984267D01*
%TO.C,C8*%
X4189000Y24555267D02*
X4189000Y24212733D01*
X5209000Y24555267D02*
X5209000Y24212733D01*
%TO.C,Y2*%
X15280000Y23509000D02*
X13930000Y23509000D01*
X15280000Y25259000D02*
X13930000Y25259000D01*
%TO.C,Y1*%
X8795000Y22568000D02*
X8795000Y22168000D01*
X8995000Y22568000D02*
X8995000Y22168000D01*
X12595000Y22568000D02*
X12595000Y22168000D01*
X8795000Y24568000D02*
X8795000Y22568000D01*
X9995000Y22168000D02*
X9995000Y21768000D01*
X9995000Y22168000D02*
X8995000Y22168000D01*
X8995000Y22568000D02*
X8995000Y24568000D01*
X8995000Y24568000D02*
X9995000Y24568000D01*
X11795000Y24568000D02*
X12595000Y24568000D01*
X12595000Y24568000D02*
X12595000Y22568000D01*
X12595000Y22168000D02*
X11795000Y22168000D01*
%TO.C,U3*%
X7050000Y27460000D02*
X7050000Y26735000D01*
X13270000Y32955000D02*
X12545000Y32955000D01*
X13270000Y32230000D02*
X13270000Y32955000D01*
X13270000Y26735000D02*
X12545000Y26735000D01*
X13270000Y27460000D02*
X13270000Y26735000D01*
X7050000Y32955000D02*
X7775000Y32955000D01*
X7050000Y32230000D02*
X7050000Y32955000D01*
%TO.C,U2*%
X10933000Y38884500D02*
X9133000Y38884500D01*
X9133000Y35664500D02*
X11583000Y35664500D01*
%TO.C,U1*%
X6678500Y37043000D02*
X4878500Y37043000D01*
X4878500Y33823000D02*
X7328500Y33823000D01*
%TO.C,R9*%
X5709767Y20322000D02*
X5367233Y20322000D01*
X5709767Y19302000D02*
X5367233Y19302000D01*
%TO.C,R8*%
X5709767Y21807000D02*
X5367233Y21807000D01*
X5709767Y20787000D02*
X5367233Y20787000D01*
%TO.C,R7*%
X6733000Y24212733D02*
X6733000Y24555267D01*
X5713000Y24212733D02*
X5713000Y24555267D01*
%TO.C,R5*%
X9696267Y35498500D02*
X9353733Y35498500D01*
X9696267Y34478500D02*
X9353733Y34478500D01*
%TO.C,R4*%
X13760267Y37213000D02*
X13417733Y37213000D01*
X13760267Y36193000D02*
X13417733Y36193000D01*
%TO.C,R3*%
X16560000Y43626267D02*
X16560000Y43283733D01*
X15540000Y43626267D02*
X15540000Y43283733D01*
%TO.C,R2*%
X14653733Y38815000D02*
X14996267Y38815000D01*
X14653733Y37795000D02*
X14996267Y37795000D01*
%TO.C,J2*%
X5580000Y-2140000D02*
X5080000Y-1140000D01*
X4580000Y-2140000D02*
X5580000Y-2140000D01*
X5080000Y-1140000D02*
X4580000Y-2140000D01*
X12210000Y560000D02*
X12210000Y-750000D01*
X12210000Y560000D02*
X12210000Y560000D01*
X19150000Y560000D02*
X12210000Y560000D01*
X19150000Y7060000D02*
X19150000Y560000D01*
X1170000Y7060000D02*
X19150000Y7060000D01*
X1170000Y560000D02*
X1170000Y7060000D01*
X8110000Y560000D02*
X1170000Y560000D01*
X8110000Y-750000D02*
X8110000Y560000D01*
X20450000Y-750000D02*
X-130000Y-750000D01*
X20450000Y8370000D02*
X20450000Y-750000D01*
X-130000Y8370000D02*
X20450000Y8370000D01*
X-130000Y-750000D02*
X-130000Y8370000D01*
%TO.C,D3*%
X10550500Y20547000D02*
X8090500Y20547000D01*
X10550500Y19077000D02*
X10550500Y20547000D01*
X8090500Y19077000D02*
X10550500Y19077000D01*
%TO.C,D2*%
X10550500Y22032000D02*
X8090500Y22032000D01*
X10550500Y20562000D02*
X10550500Y22032000D01*
X8090500Y20562000D02*
X10550500Y20562000D01*
%TO.C,D1*%
X3350000Y41755000D02*
X5050000Y41755000D01*
X5050000Y41755000D02*
X5050000Y44905000D01*
X3350000Y41755000D02*
X3350000Y44905000D01*
%TO.C,C7*%
X13391248Y34215000D02*
X13913752Y34215000D01*
X13391248Y35635000D02*
X13913752Y35635000D01*
%TO.C,C6*%
X14984000Y21507267D02*
X14984000Y21164733D01*
X16004000Y21507267D02*
X16004000Y21164733D01*
%TO.C,C5*%
X15238000Y28492267D02*
X15238000Y28149733D01*
X16258000Y28492267D02*
X16258000Y28149733D01*
%TO.C,C4*%
X4116000Y31884252D02*
X4116000Y31361748D01*
X5536000Y31884252D02*
X5536000Y31361748D01*
%TO.C,C3*%
X13206000Y21507267D02*
X13206000Y21164733D01*
X14226000Y21507267D02*
X14226000Y21164733D01*
%TO.C,C1*%
X5834748Y38937000D02*
X6357252Y38937000D01*
X5834748Y37517000D02*
X6357252Y37517000D01*
%TD*%
M02*
