%TF.GenerationSoftware,KiCad,Pcbnew,5.1.8-db9833491~88~ubuntu20.04.1*%
%TF.CreationDate,2021-01-17T10:32:05+01:00*%
%TF.ProjectId,GreenFox,47726565-6e46-46f7-982e-6b696361645f,Rev1*%
%TF.SameCoordinates,PX6d01460PY68c4118*%
%TF.FileFunction,Soldermask,Bot*%
%TF.FilePolarity,Negative*%
%FSLAX46Y46*%
G04 Gerber Fmt 4.6, Leading zero omitted, Abs format (unit mm)*
G04 Created by KiCad (PCBNEW 5.1.8-db9833491~88~ubuntu20.04.1) date 2021-01-17 10:32:05*
%MOMM*%
%LPD*%
G01*
G04 APERTURE LIST*
%ADD10C,0.010000*%
%ADD11C,0.500000*%
%ADD12O,1.700000X1.700000*%
%ADD13R,1.700000X1.700000*%
%ADD14C,1.700000*%
%ADD15O,1.000000X2.100000*%
%ADD16O,1.000000X1.800000*%
%ADD17C,0.650000*%
G04 APERTURE END LIST*
D10*
%TO.C,MARK1*%
G36*
X11025636Y40394381D02*
G01*
X11003371Y40365824D01*
X10976581Y40325780D01*
X10950179Y40281709D01*
X10943722Y40270027D01*
X10929423Y40243976D01*
X10905961Y40201672D01*
X10874559Y40145305D01*
X10836443Y40077065D01*
X10792836Y39999140D01*
X10744963Y39913722D01*
X10694048Y39822998D01*
X10641315Y39729160D01*
X10637825Y39722954D01*
X10377432Y39259933D01*
X9942568Y39259933D01*
X9682175Y39722954D01*
X9629366Y39816921D01*
X9578294Y39907915D01*
X9530184Y39993749D01*
X9486260Y40072231D01*
X9447746Y40141173D01*
X9415867Y40198385D01*
X9391847Y40241678D01*
X9376911Y40268861D01*
X9376278Y40270027D01*
X9350829Y40313905D01*
X9323659Y40355779D01*
X9299680Y40388191D01*
X9294365Y40394381D01*
X9257954Y40434683D01*
X9071748Y40434683D01*
X9040329Y40391961D01*
X9029515Y40373828D01*
X9010826Y40338595D01*
X8985298Y40288365D01*
X8953965Y40225237D01*
X8917861Y40151314D01*
X8878021Y40068697D01*
X8835479Y39979487D01*
X8794140Y39891898D01*
X8720923Y39736017D01*
X8655731Y39597390D01*
X8597591Y39474112D01*
X8545528Y39364276D01*
X8498570Y39265977D01*
X8455744Y39177311D01*
X8416077Y39096371D01*
X8378596Y39021253D01*
X8342327Y38950050D01*
X8306298Y38880858D01*
X8269535Y38811770D01*
X8231066Y38740882D01*
X8189917Y38666287D01*
X8145116Y38586082D01*
X8095688Y38498359D01*
X8040662Y38401214D01*
X7979064Y38292741D01*
X7963359Y38265100D01*
X7593542Y37614225D01*
X7590012Y37496248D01*
X7588932Y37441202D01*
X7590094Y37400602D01*
X7594313Y37367774D01*
X7602402Y37336045D01*
X7613567Y37303185D01*
X7659471Y37194411D01*
X7716356Y37094927D01*
X7787726Y36999173D01*
X7846984Y36932648D01*
X7863193Y36917620D01*
X7894892Y36890265D01*
X7941019Y36851449D01*
X8000512Y36802037D01*
X8072310Y36742896D01*
X8155350Y36674892D01*
X8248570Y36598889D01*
X8350908Y36515755D01*
X8461302Y36426354D01*
X8578691Y36331554D01*
X8702011Y36232218D01*
X8830201Y36129214D01*
X8962199Y36023407D01*
X8966660Y36019836D01*
X10022278Y35174767D01*
X10162577Y35175556D01*
X10302875Y35176345D01*
X11343629Y36010285D01*
X11474624Y36115328D01*
X11601778Y36217445D01*
X11724030Y36315774D01*
X11840316Y36409456D01*
X11949576Y36497629D01*
X12050748Y36579434D01*
X12142769Y36654010D01*
X12224578Y36720496D01*
X12295112Y36778032D01*
X12353311Y36825756D01*
X12398111Y36862809D01*
X12428451Y36888330D01*
X12442945Y36901142D01*
X12486400Y36947065D01*
X12533137Y37002561D01*
X12578757Y37061857D01*
X12618860Y37119183D01*
X12649044Y37168765D01*
X12653628Y37177489D01*
X12670872Y37214625D01*
X12690379Y37261231D01*
X12706525Y37303439D01*
X12718723Y37339743D01*
X12726335Y37371251D01*
X12730171Y37404631D01*
X12731042Y37446548D01*
X12730668Y37464201D01*
X12578070Y37464201D01*
X12566596Y37418950D01*
X12544206Y37364175D01*
X12512635Y37302877D01*
X12473617Y37238056D01*
X12428889Y37172714D01*
X12380184Y37109851D01*
X12329238Y37052469D01*
X12307066Y37030220D01*
X12292390Y37017328D01*
X12263584Y36993157D01*
X12222342Y36959072D01*
X12170358Y36916440D01*
X12109325Y36866626D01*
X12040937Y36810997D01*
X11966888Y36750919D01*
X11888872Y36687758D01*
X11808582Y36622880D01*
X11727711Y36557651D01*
X11647955Y36493437D01*
X11571005Y36431604D01*
X11498557Y36373519D01*
X11432304Y36320546D01*
X11373939Y36274054D01*
X11325156Y36235407D01*
X11287649Y36205971D01*
X11263111Y36187114D01*
X11253237Y36180200D01*
X11253176Y36180191D01*
X11255594Y36189585D01*
X11263751Y36215353D01*
X11276464Y36253870D01*
X11292547Y36301506D01*
X11297645Y36316429D01*
X11365490Y36498616D01*
X11446300Y36688560D01*
X11537489Y36881229D01*
X11636473Y37071588D01*
X11740666Y37254605D01*
X11847482Y37425244D01*
X11925654Y37539138D01*
X11967555Y37593697D01*
X12017955Y37653202D01*
X12073144Y37713801D01*
X12129411Y37771642D01*
X12183048Y37822871D01*
X12230344Y37863636D01*
X12257482Y37883742D01*
X12289890Y37904638D01*
X12315619Y37919853D01*
X12329543Y37926375D01*
X12330084Y37926433D01*
X12337365Y37917687D01*
X12353060Y37893536D01*
X12375366Y37857116D01*
X12402482Y37811563D01*
X12432605Y37760012D01*
X12463936Y37705597D01*
X12494671Y37651454D01*
X12523010Y37600719D01*
X12547151Y37556525D01*
X12565292Y37522009D01*
X12575633Y37500305D01*
X12576892Y37496926D01*
X12578070Y37464201D01*
X12730668Y37464201D01*
X12729988Y37496248D01*
X12726458Y37614225D01*
X12455547Y38091027D01*
X12241945Y38091027D01*
X12234268Y38081343D01*
X12211900Y38066511D01*
X12179622Y38049684D01*
X12178445Y38049132D01*
X12149010Y38033516D01*
X12118760Y38013039D01*
X12084535Y37985083D01*
X12043174Y37947029D01*
X11991517Y37896261D01*
X11980333Y37885018D01*
X11883522Y37780580D01*
X11790408Y37665714D01*
X11699519Y37538251D01*
X11609385Y37396020D01*
X11518533Y37236852D01*
X11442196Y37091642D01*
X11356841Y36918696D01*
X11283563Y36758723D01*
X11221026Y36608323D01*
X11167896Y36464093D01*
X11122835Y36322633D01*
X11084727Y36181425D01*
X11070911Y36126419D01*
X11058396Y36078343D01*
X11048239Y36041134D01*
X11041501Y36018730D01*
X11039827Y36014452D01*
X11029898Y36004471D01*
X11005885Y35983441D01*
X10970291Y35953462D01*
X10925621Y35916632D01*
X10874378Y35875049D01*
X10853208Y35858042D01*
X10789084Y35807242D01*
X10739260Y35769170D01*
X10702061Y35742672D01*
X10675809Y35726596D01*
X10658827Y35719788D01*
X10652125Y35719740D01*
X10631160Y35725404D01*
X10597411Y35734406D01*
X10562167Y35743745D01*
X10539674Y35748951D01*
X10514251Y35753075D01*
X10483291Y35756231D01*
X10444187Y35758533D01*
X10394333Y35760094D01*
X10331123Y35761027D01*
X10251948Y35761445D01*
X10154708Y35761463D01*
X10059817Y35761252D01*
X9983343Y35760798D01*
X9922535Y35759946D01*
X9874643Y35758543D01*
X9836919Y35756435D01*
X9806610Y35753466D01*
X9780969Y35749484D01*
X9757244Y35744333D01*
X9732685Y35737860D01*
X9732429Y35737789D01*
X9690309Y35727519D01*
X9657408Y35722242D01*
X9638701Y35722704D01*
X9637179Y35723490D01*
X9599706Y35752606D01*
X9555165Y35787828D01*
X9506370Y35826860D01*
X9456141Y35867403D01*
X9407292Y35907162D01*
X9362642Y35943841D01*
X9325007Y35975141D01*
X9297204Y35998768D01*
X9282050Y36012423D01*
X9280173Y36014557D01*
X9275389Y36028684D01*
X9266694Y36059453D01*
X9255147Y36102929D01*
X9241806Y36155179D01*
X9235273Y36181425D01*
X9233569Y36187736D01*
X9058014Y36187736D01*
X9056683Y36187898D01*
X9046249Y36196195D01*
X9020756Y36216541D01*
X8981673Y36247763D01*
X8930468Y36288685D01*
X8868609Y36338135D01*
X8797567Y36394938D01*
X8718809Y36457920D01*
X8633804Y36525906D01*
X8544021Y36597724D01*
X8540750Y36600341D01*
X8427130Y36691379D01*
X8328788Y36770578D01*
X8244346Y36839160D01*
X8172431Y36898354D01*
X8111667Y36949384D01*
X8060678Y36993476D01*
X8018090Y37031855D01*
X7982526Y37065747D01*
X7952611Y37096379D01*
X7926971Y37124974D01*
X7904230Y37152760D01*
X7883012Y37180962D01*
X7872134Y37196183D01*
X7833095Y37256080D01*
X7799018Y37316973D01*
X7771461Y37375234D01*
X7751978Y37427238D01*
X7742126Y37469358D01*
X7743108Y37496926D01*
X7750917Y37514441D01*
X7767036Y37545654D01*
X7789664Y37587431D01*
X7817000Y37636635D01*
X7847240Y37690133D01*
X7878585Y37744789D01*
X7909233Y37797467D01*
X7937381Y37845033D01*
X7961229Y37884351D01*
X7978974Y37912287D01*
X7988816Y37925705D01*
X7989917Y37926433D01*
X8002397Y37920934D01*
X8027187Y37906443D01*
X8059164Y37885975D01*
X8062519Y37883742D01*
X8103234Y37852503D01*
X8152865Y37808126D01*
X8207700Y37754465D01*
X8264031Y37695372D01*
X8318148Y37634698D01*
X8366342Y37576297D01*
X8394347Y37539138D01*
X8501904Y37380018D01*
X8608650Y37204832D01*
X8712004Y37018607D01*
X8809386Y36826370D01*
X8898213Y36633147D01*
X8975906Y36443966D01*
X9022798Y36315136D01*
X9038825Y36266449D01*
X9050612Y36226826D01*
X9057296Y36199508D01*
X9058014Y36187736D01*
X9233569Y36187736D01*
X9196910Y36323502D01*
X9151804Y36464968D01*
X9098619Y36609226D01*
X9036021Y36759675D01*
X8962673Y36919717D01*
X8877804Y37091642D01*
X8785258Y37266374D01*
X8694641Y37422384D01*
X8604480Y37561841D01*
X8513304Y37686915D01*
X8419643Y37799776D01*
X8339667Y37885018D01*
X8285708Y37938485D01*
X8242643Y37978742D01*
X8207310Y38008406D01*
X8176551Y38030097D01*
X8147205Y38046431D01*
X8141556Y38049132D01*
X8109032Y38065971D01*
X8086262Y38080920D01*
X8078025Y38090823D01*
X8078056Y38091027D01*
X8083637Y38102434D01*
X8098548Y38130164D01*
X8121639Y38172147D01*
X8151757Y38226315D01*
X8187754Y38290601D01*
X8228477Y38362937D01*
X8272777Y38441254D01*
X8281226Y38456152D01*
X8333169Y38548413D01*
X8381220Y38635450D01*
X8426964Y38720370D01*
X8471990Y38806283D01*
X8517885Y38896296D01*
X8566234Y38993517D01*
X8618625Y39101055D01*
X8676645Y39222017D01*
X8734832Y39344600D01*
X8783709Y39448044D01*
X8831320Y39548981D01*
X8876621Y39645188D01*
X8918571Y39734446D01*
X8956128Y39814533D01*
X8988250Y39883228D01*
X9013893Y39938310D01*
X9032017Y39977559D01*
X9037767Y39990183D01*
X9062969Y40045100D01*
X9090078Y40102734D01*
X9115093Y40154637D01*
X9127678Y40179999D01*
X9167408Y40258690D01*
X9186968Y40232916D01*
X9198303Y40215014D01*
X9217123Y40182016D01*
X9241345Y40137708D01*
X9268890Y40085876D01*
X9288391Y40048392D01*
X9316240Y39994951D01*
X9341396Y39947732D01*
X9362006Y39910129D01*
X9376221Y39885534D01*
X9381481Y39877759D01*
X9388917Y39866231D01*
X9405523Y39838207D01*
X9430160Y39795678D01*
X9461691Y39740634D01*
X9498977Y39675067D01*
X9540881Y39600967D01*
X9586263Y39520325D01*
X9609667Y39478596D01*
X9826625Y39091315D01*
X9886963Y39090958D01*
X9933737Y39093756D01*
X9984833Y39101274D01*
X10008249Y39106475D01*
X10068806Y39117002D01*
X10140677Y39121542D01*
X10214872Y39120097D01*
X10282402Y39112666D01*
X10311751Y39106475D01*
X10358766Y39097274D01*
X10409788Y39091727D01*
X10433037Y39090958D01*
X10493375Y39091315D01*
X10710333Y39478596D01*
X10757017Y39561739D01*
X10800786Y39639327D01*
X10840500Y39709367D01*
X10875022Y39769869D01*
X10903214Y39818843D01*
X10923938Y39854296D01*
X10936056Y39874239D01*
X10938519Y39877759D01*
X10946927Y39890776D01*
X10963075Y39919267D01*
X10985114Y39959838D01*
X11011190Y40009097D01*
X11031610Y40048392D01*
X11060223Y40103171D01*
X11086925Y40152992D01*
X11109633Y40194069D01*
X11126268Y40222615D01*
X11133032Y40232916D01*
X11152592Y40258690D01*
X11192322Y40179999D01*
X11214072Y40135794D01*
X11240372Y40080674D01*
X11267218Y40023089D01*
X11282233Y39990183D01*
X11296353Y39959375D01*
X11318496Y39911661D01*
X11347620Y39849261D01*
X11382682Y39774397D01*
X11422641Y39689290D01*
X11466455Y39596161D01*
X11513081Y39497231D01*
X11561476Y39394720D01*
X11585169Y39344600D01*
X11649593Y39208939D01*
X11706965Y39089492D01*
X11758870Y38983153D01*
X11806895Y38886811D01*
X11852628Y38797360D01*
X11897655Y38711692D01*
X11943563Y38626697D01*
X11991938Y38539269D01*
X12038774Y38456152D01*
X12083606Y38376959D01*
X12125074Y38303368D01*
X12162027Y38237446D01*
X12193313Y38181260D01*
X12217783Y38136880D01*
X12234286Y38106373D01*
X12241670Y38091806D01*
X12241945Y38091027D01*
X12455547Y38091027D01*
X12356641Y38265100D01*
X12293339Y38376544D01*
X12236840Y38476207D01*
X12186170Y38565996D01*
X12140358Y38647814D01*
X12098430Y38723569D01*
X12059412Y38795165D01*
X12022332Y38864508D01*
X11986217Y38933503D01*
X11950093Y39004056D01*
X11912988Y39078072D01*
X11873928Y39157456D01*
X11831941Y39244114D01*
X11786053Y39339952D01*
X11735291Y39446875D01*
X11678682Y39566788D01*
X11615253Y39701596D01*
X11544031Y39853206D01*
X11525861Y39891898D01*
X11481728Y39985375D01*
X11439328Y40074225D01*
X11399697Y40156347D01*
X11363868Y40229640D01*
X11332877Y40292002D01*
X11307757Y40341332D01*
X11289543Y40375529D01*
X11279671Y40391961D01*
X11248252Y40434683D01*
X11062047Y40434683D01*
X11025636Y40394381D01*
G37*
X11025636Y40394381D02*
X11003371Y40365824D01*
X10976581Y40325780D01*
X10950179Y40281709D01*
X10943722Y40270027D01*
X10929423Y40243976D01*
X10905961Y40201672D01*
X10874559Y40145305D01*
X10836443Y40077065D01*
X10792836Y39999140D01*
X10744963Y39913722D01*
X10694048Y39822998D01*
X10641315Y39729160D01*
X10637825Y39722954D01*
X10377432Y39259933D01*
X9942568Y39259933D01*
X9682175Y39722954D01*
X9629366Y39816921D01*
X9578294Y39907915D01*
X9530184Y39993749D01*
X9486260Y40072231D01*
X9447746Y40141173D01*
X9415867Y40198385D01*
X9391847Y40241678D01*
X9376911Y40268861D01*
X9376278Y40270027D01*
X9350829Y40313905D01*
X9323659Y40355779D01*
X9299680Y40388191D01*
X9294365Y40394381D01*
X9257954Y40434683D01*
X9071748Y40434683D01*
X9040329Y40391961D01*
X9029515Y40373828D01*
X9010826Y40338595D01*
X8985298Y40288365D01*
X8953965Y40225237D01*
X8917861Y40151314D01*
X8878021Y40068697D01*
X8835479Y39979487D01*
X8794140Y39891898D01*
X8720923Y39736017D01*
X8655731Y39597390D01*
X8597591Y39474112D01*
X8545528Y39364276D01*
X8498570Y39265977D01*
X8455744Y39177311D01*
X8416077Y39096371D01*
X8378596Y39021253D01*
X8342327Y38950050D01*
X8306298Y38880858D01*
X8269535Y38811770D01*
X8231066Y38740882D01*
X8189917Y38666287D01*
X8145116Y38586082D01*
X8095688Y38498359D01*
X8040662Y38401214D01*
X7979064Y38292741D01*
X7963359Y38265100D01*
X7593542Y37614225D01*
X7590012Y37496248D01*
X7588932Y37441202D01*
X7590094Y37400602D01*
X7594313Y37367774D01*
X7602402Y37336045D01*
X7613567Y37303185D01*
X7659471Y37194411D01*
X7716356Y37094927D01*
X7787726Y36999173D01*
X7846984Y36932648D01*
X7863193Y36917620D01*
X7894892Y36890265D01*
X7941019Y36851449D01*
X8000512Y36802037D01*
X8072310Y36742896D01*
X8155350Y36674892D01*
X8248570Y36598889D01*
X8350908Y36515755D01*
X8461302Y36426354D01*
X8578691Y36331554D01*
X8702011Y36232218D01*
X8830201Y36129214D01*
X8962199Y36023407D01*
X8966660Y36019836D01*
X10022278Y35174767D01*
X10162577Y35175556D01*
X10302875Y35176345D01*
X11343629Y36010285D01*
X11474624Y36115328D01*
X11601778Y36217445D01*
X11724030Y36315774D01*
X11840316Y36409456D01*
X11949576Y36497629D01*
X12050748Y36579434D01*
X12142769Y36654010D01*
X12224578Y36720496D01*
X12295112Y36778032D01*
X12353311Y36825756D01*
X12398111Y36862809D01*
X12428451Y36888330D01*
X12442945Y36901142D01*
X12486400Y36947065D01*
X12533137Y37002561D01*
X12578757Y37061857D01*
X12618860Y37119183D01*
X12649044Y37168765D01*
X12653628Y37177489D01*
X12670872Y37214625D01*
X12690379Y37261231D01*
X12706525Y37303439D01*
X12718723Y37339743D01*
X12726335Y37371251D01*
X12730171Y37404631D01*
X12731042Y37446548D01*
X12730668Y37464201D01*
X12578070Y37464201D01*
X12566596Y37418950D01*
X12544206Y37364175D01*
X12512635Y37302877D01*
X12473617Y37238056D01*
X12428889Y37172714D01*
X12380184Y37109851D01*
X12329238Y37052469D01*
X12307066Y37030220D01*
X12292390Y37017328D01*
X12263584Y36993157D01*
X12222342Y36959072D01*
X12170358Y36916440D01*
X12109325Y36866626D01*
X12040937Y36810997D01*
X11966888Y36750919D01*
X11888872Y36687758D01*
X11808582Y36622880D01*
X11727711Y36557651D01*
X11647955Y36493437D01*
X11571005Y36431604D01*
X11498557Y36373519D01*
X11432304Y36320546D01*
X11373939Y36274054D01*
X11325156Y36235407D01*
X11287649Y36205971D01*
X11263111Y36187114D01*
X11253237Y36180200D01*
X11253176Y36180191D01*
X11255594Y36189585D01*
X11263751Y36215353D01*
X11276464Y36253870D01*
X11292547Y36301506D01*
X11297645Y36316429D01*
X11365490Y36498616D01*
X11446300Y36688560D01*
X11537489Y36881229D01*
X11636473Y37071588D01*
X11740666Y37254605D01*
X11847482Y37425244D01*
X11925654Y37539138D01*
X11967555Y37593697D01*
X12017955Y37653202D01*
X12073144Y37713801D01*
X12129411Y37771642D01*
X12183048Y37822871D01*
X12230344Y37863636D01*
X12257482Y37883742D01*
X12289890Y37904638D01*
X12315619Y37919853D01*
X12329543Y37926375D01*
X12330084Y37926433D01*
X12337365Y37917687D01*
X12353060Y37893536D01*
X12375366Y37857116D01*
X12402482Y37811563D01*
X12432605Y37760012D01*
X12463936Y37705597D01*
X12494671Y37651454D01*
X12523010Y37600719D01*
X12547151Y37556525D01*
X12565292Y37522009D01*
X12575633Y37500305D01*
X12576892Y37496926D01*
X12578070Y37464201D01*
X12730668Y37464201D01*
X12729988Y37496248D01*
X12726458Y37614225D01*
X12455547Y38091027D01*
X12241945Y38091027D01*
X12234268Y38081343D01*
X12211900Y38066511D01*
X12179622Y38049684D01*
X12178445Y38049132D01*
X12149010Y38033516D01*
X12118760Y38013039D01*
X12084535Y37985083D01*
X12043174Y37947029D01*
X11991517Y37896261D01*
X11980333Y37885018D01*
X11883522Y37780580D01*
X11790408Y37665714D01*
X11699519Y37538251D01*
X11609385Y37396020D01*
X11518533Y37236852D01*
X11442196Y37091642D01*
X11356841Y36918696D01*
X11283563Y36758723D01*
X11221026Y36608323D01*
X11167896Y36464093D01*
X11122835Y36322633D01*
X11084727Y36181425D01*
X11070911Y36126419D01*
X11058396Y36078343D01*
X11048239Y36041134D01*
X11041501Y36018730D01*
X11039827Y36014452D01*
X11029898Y36004471D01*
X11005885Y35983441D01*
X10970291Y35953462D01*
X10925621Y35916632D01*
X10874378Y35875049D01*
X10853208Y35858042D01*
X10789084Y35807242D01*
X10739260Y35769170D01*
X10702061Y35742672D01*
X10675809Y35726596D01*
X10658827Y35719788D01*
X10652125Y35719740D01*
X10631160Y35725404D01*
X10597411Y35734406D01*
X10562167Y35743745D01*
X10539674Y35748951D01*
X10514251Y35753075D01*
X10483291Y35756231D01*
X10444187Y35758533D01*
X10394333Y35760094D01*
X10331123Y35761027D01*
X10251948Y35761445D01*
X10154708Y35761463D01*
X10059817Y35761252D01*
X9983343Y35760798D01*
X9922535Y35759946D01*
X9874643Y35758543D01*
X9836919Y35756435D01*
X9806610Y35753466D01*
X9780969Y35749484D01*
X9757244Y35744333D01*
X9732685Y35737860D01*
X9732429Y35737789D01*
X9690309Y35727519D01*
X9657408Y35722242D01*
X9638701Y35722704D01*
X9637179Y35723490D01*
X9599706Y35752606D01*
X9555165Y35787828D01*
X9506370Y35826860D01*
X9456141Y35867403D01*
X9407292Y35907162D01*
X9362642Y35943841D01*
X9325007Y35975141D01*
X9297204Y35998768D01*
X9282050Y36012423D01*
X9280173Y36014557D01*
X9275389Y36028684D01*
X9266694Y36059453D01*
X9255147Y36102929D01*
X9241806Y36155179D01*
X9235273Y36181425D01*
X9233569Y36187736D01*
X9058014Y36187736D01*
X9056683Y36187898D01*
X9046249Y36196195D01*
X9020756Y36216541D01*
X8981673Y36247763D01*
X8930468Y36288685D01*
X8868609Y36338135D01*
X8797567Y36394938D01*
X8718809Y36457920D01*
X8633804Y36525906D01*
X8544021Y36597724D01*
X8540750Y36600341D01*
X8427130Y36691379D01*
X8328788Y36770578D01*
X8244346Y36839160D01*
X8172431Y36898354D01*
X8111667Y36949384D01*
X8060678Y36993476D01*
X8018090Y37031855D01*
X7982526Y37065747D01*
X7952611Y37096379D01*
X7926971Y37124974D01*
X7904230Y37152760D01*
X7883012Y37180962D01*
X7872134Y37196183D01*
X7833095Y37256080D01*
X7799018Y37316973D01*
X7771461Y37375234D01*
X7751978Y37427238D01*
X7742126Y37469358D01*
X7743108Y37496926D01*
X7750917Y37514441D01*
X7767036Y37545654D01*
X7789664Y37587431D01*
X7817000Y37636635D01*
X7847240Y37690133D01*
X7878585Y37744789D01*
X7909233Y37797467D01*
X7937381Y37845033D01*
X7961229Y37884351D01*
X7978974Y37912287D01*
X7988816Y37925705D01*
X7989917Y37926433D01*
X8002397Y37920934D01*
X8027187Y37906443D01*
X8059164Y37885975D01*
X8062519Y37883742D01*
X8103234Y37852503D01*
X8152865Y37808126D01*
X8207700Y37754465D01*
X8264031Y37695372D01*
X8318148Y37634698D01*
X8366342Y37576297D01*
X8394347Y37539138D01*
X8501904Y37380018D01*
X8608650Y37204832D01*
X8712004Y37018607D01*
X8809386Y36826370D01*
X8898213Y36633147D01*
X8975906Y36443966D01*
X9022798Y36315136D01*
X9038825Y36266449D01*
X9050612Y36226826D01*
X9057296Y36199508D01*
X9058014Y36187736D01*
X9233569Y36187736D01*
X9196910Y36323502D01*
X9151804Y36464968D01*
X9098619Y36609226D01*
X9036021Y36759675D01*
X8962673Y36919717D01*
X8877804Y37091642D01*
X8785258Y37266374D01*
X8694641Y37422384D01*
X8604480Y37561841D01*
X8513304Y37686915D01*
X8419643Y37799776D01*
X8339667Y37885018D01*
X8285708Y37938485D01*
X8242643Y37978742D01*
X8207310Y38008406D01*
X8176551Y38030097D01*
X8147205Y38046431D01*
X8141556Y38049132D01*
X8109032Y38065971D01*
X8086262Y38080920D01*
X8078025Y38090823D01*
X8078056Y38091027D01*
X8083637Y38102434D01*
X8098548Y38130164D01*
X8121639Y38172147D01*
X8151757Y38226315D01*
X8187754Y38290601D01*
X8228477Y38362937D01*
X8272777Y38441254D01*
X8281226Y38456152D01*
X8333169Y38548413D01*
X8381220Y38635450D01*
X8426964Y38720370D01*
X8471990Y38806283D01*
X8517885Y38896296D01*
X8566234Y38993517D01*
X8618625Y39101055D01*
X8676645Y39222017D01*
X8734832Y39344600D01*
X8783709Y39448044D01*
X8831320Y39548981D01*
X8876621Y39645188D01*
X8918571Y39734446D01*
X8956128Y39814533D01*
X8988250Y39883228D01*
X9013893Y39938310D01*
X9032017Y39977559D01*
X9037767Y39990183D01*
X9062969Y40045100D01*
X9090078Y40102734D01*
X9115093Y40154637D01*
X9127678Y40179999D01*
X9167408Y40258690D01*
X9186968Y40232916D01*
X9198303Y40215014D01*
X9217123Y40182016D01*
X9241345Y40137708D01*
X9268890Y40085876D01*
X9288391Y40048392D01*
X9316240Y39994951D01*
X9341396Y39947732D01*
X9362006Y39910129D01*
X9376221Y39885534D01*
X9381481Y39877759D01*
X9388917Y39866231D01*
X9405523Y39838207D01*
X9430160Y39795678D01*
X9461691Y39740634D01*
X9498977Y39675067D01*
X9540881Y39600967D01*
X9586263Y39520325D01*
X9609667Y39478596D01*
X9826625Y39091315D01*
X9886963Y39090958D01*
X9933737Y39093756D01*
X9984833Y39101274D01*
X10008249Y39106475D01*
X10068806Y39117002D01*
X10140677Y39121542D01*
X10214872Y39120097D01*
X10282402Y39112666D01*
X10311751Y39106475D01*
X10358766Y39097274D01*
X10409788Y39091727D01*
X10433037Y39090958D01*
X10493375Y39091315D01*
X10710333Y39478596D01*
X10757017Y39561739D01*
X10800786Y39639327D01*
X10840500Y39709367D01*
X10875022Y39769869D01*
X10903214Y39818843D01*
X10923938Y39854296D01*
X10936056Y39874239D01*
X10938519Y39877759D01*
X10946927Y39890776D01*
X10963075Y39919267D01*
X10985114Y39959838D01*
X11011190Y40009097D01*
X11031610Y40048392D01*
X11060223Y40103171D01*
X11086925Y40152992D01*
X11109633Y40194069D01*
X11126268Y40222615D01*
X11133032Y40232916D01*
X11152592Y40258690D01*
X11192322Y40179999D01*
X11214072Y40135794D01*
X11240372Y40080674D01*
X11267218Y40023089D01*
X11282233Y39990183D01*
X11296353Y39959375D01*
X11318496Y39911661D01*
X11347620Y39849261D01*
X11382682Y39774397D01*
X11422641Y39689290D01*
X11466455Y39596161D01*
X11513081Y39497231D01*
X11561476Y39394720D01*
X11585169Y39344600D01*
X11649593Y39208939D01*
X11706965Y39089492D01*
X11758870Y38983153D01*
X11806895Y38886811D01*
X11852628Y38797360D01*
X11897655Y38711692D01*
X11943563Y38626697D01*
X11991938Y38539269D01*
X12038774Y38456152D01*
X12083606Y38376959D01*
X12125074Y38303368D01*
X12162027Y38237446D01*
X12193313Y38181260D01*
X12217783Y38136880D01*
X12234286Y38106373D01*
X12241670Y38091806D01*
X12241945Y38091027D01*
X12455547Y38091027D01*
X12356641Y38265100D01*
X12293339Y38376544D01*
X12236840Y38476207D01*
X12186170Y38565996D01*
X12140358Y38647814D01*
X12098430Y38723569D01*
X12059412Y38795165D01*
X12022332Y38864508D01*
X11986217Y38933503D01*
X11950093Y39004056D01*
X11912988Y39078072D01*
X11873928Y39157456D01*
X11831941Y39244114D01*
X11786053Y39339952D01*
X11735291Y39446875D01*
X11678682Y39566788D01*
X11615253Y39701596D01*
X11544031Y39853206D01*
X11525861Y39891898D01*
X11481728Y39985375D01*
X11439328Y40074225D01*
X11399697Y40156347D01*
X11363868Y40229640D01*
X11332877Y40292002D01*
X11307757Y40341332D01*
X11289543Y40375529D01*
X11279671Y40391961D01*
X11248252Y40434683D01*
X11062047Y40434683D01*
X11025636Y40394381D01*
%TD*%
D11*
%TO.C,H9*%
X16179000Y8255000D03*
%TD*%
%TO.C,H8*%
X14679000Y8255000D03*
%TD*%
%TO.C,H7*%
X13179000Y8255000D03*
%TD*%
%TO.C,H6*%
X11679000Y8255000D03*
%TD*%
%TO.C,H5*%
X10179000Y8255000D03*
%TD*%
%TO.C,H4*%
X8679000Y8255000D03*
%TD*%
%TO.C,H3*%
X7179000Y8255000D03*
%TD*%
%TO.C,H2*%
X5679000Y8255000D03*
%TD*%
%TO.C,H1*%
X4179000Y8255000D03*
%TD*%
D12*
%TO.C,J5*%
X17780000Y10795000D03*
X17780000Y13335000D03*
X17780000Y15875000D03*
X17780000Y18415000D03*
X17780000Y20955000D03*
X17780000Y23495000D03*
X17780000Y26035000D03*
X17780000Y28575000D03*
X17780000Y31115000D03*
X17780000Y33655000D03*
X17780000Y36195000D03*
X17780000Y38735000D03*
X17780000Y41275000D03*
D13*
X17780000Y43815000D03*
%TD*%
D12*
%TO.C,J3*%
X2540000Y10795000D03*
X2540000Y13335000D03*
X2540000Y15875000D03*
X2540000Y18415000D03*
X2540000Y20955000D03*
X2540000Y23495000D03*
X2540000Y26035000D03*
X2540000Y28575000D03*
X2540000Y31115000D03*
X2540000Y33655000D03*
X2540000Y36195000D03*
X2540000Y38735000D03*
X2540000Y41275000D03*
D13*
X2540000Y43815000D03*
%TD*%
D14*
%TO.C,J2*%
X15240000Y5080000D03*
X12700000Y5080000D03*
X10160000Y5080000D03*
X7620000Y5080000D03*
X5080000Y5080000D03*
X15240000Y2540000D03*
X12700000Y2540000D03*
X10160000Y2540000D03*
X7620000Y2540000D03*
G36*
G01*
X5680000Y1690000D02*
X4480000Y1690000D01*
G75*
G02*
X4230000Y1940000I0J250000D01*
G01*
X4230000Y3140000D01*
G75*
G02*
X4480000Y3390000I250000J0D01*
G01*
X5680000Y3390000D01*
G75*
G02*
X5930000Y3140000I0J-250000D01*
G01*
X5930000Y1940000D01*
G75*
G02*
X5680000Y1690000I-250000J0D01*
G01*
G37*
%TD*%
D15*
%TO.C,J1*%
X14480000Y40976600D03*
X5840000Y40976600D03*
D16*
X14480000Y45126600D03*
X5840000Y45126600D03*
D17*
X7270000Y41476600D03*
X13050000Y41476600D03*
%TD*%
M02*
