%TF.GenerationSoftware,KiCad,Pcbnew,5.1.8-db9833491~88~ubuntu20.04.1*%
%TF.CreationDate,2021-01-17T16:38:17+01:00*%
%TF.ProjectId,GreenFox,47726565-6e46-46f7-982e-6b696361645f,Rev1*%
%TF.SameCoordinates,PX6d01460PY68c4118*%
%TF.FileFunction,Copper,L2,Bot*%
%TF.FilePolarity,Positive*%
%FSLAX46Y46*%
G04 Gerber Fmt 4.6, Leading zero omitted, Abs format (unit mm)*
G04 Created by KiCad (PCBNEW 5.1.8-db9833491~88~ubuntu20.04.1) date 2021-01-17 16:38:17*
%MOMM*%
%LPD*%
G01*
G04 APERTURE LIST*
%TA.AperFunction,ComponentPad*%
%ADD10O,1.700000X1.700000*%
%TD*%
%TA.AperFunction,ComponentPad*%
%ADD11R,1.700000X1.700000*%
%TD*%
%TA.AperFunction,ComponentPad*%
%ADD12C,1.700000*%
%TD*%
%TA.AperFunction,ComponentPad*%
%ADD13O,1.000000X2.100000*%
%TD*%
%TA.AperFunction,ComponentPad*%
%ADD14O,1.000000X1.800000*%
%TD*%
%TA.AperFunction,ViaPad*%
%ADD15C,0.600000*%
%TD*%
%TA.AperFunction,Conductor*%
%ADD16C,0.200000*%
%TD*%
%TA.AperFunction,Conductor*%
%ADD17C,0.400000*%
%TD*%
%TA.AperFunction,Conductor*%
%ADD18C,0.300000*%
%TD*%
%TA.AperFunction,Conductor*%
%ADD19C,0.100000*%
%TD*%
G04 APERTURE END LIST*
D10*
%TO.P,J5,14*%
%TO.N,/RB2\u005CAN4*%
X17780000Y10795000D03*
%TO.P,J5,13*%
%TO.N,/TDI*%
X17780000Y13335000D03*
%TO.P,J5,12*%
%TO.N,GND*%
X17780000Y15875000D03*
%TO.P,J5,11*%
%TO.N,/RC0\u005CAN12*%
X17780000Y18415000D03*
%TO.P,J5,10*%
%TO.N,/RC1\u005CAN13*%
X17780000Y20955000D03*
%TO.P,J5,9*%
%TO.N,/RC2*%
X17780000Y23495000D03*
%TO.P,J5,8*%
%TO.N,/LED_USER*%
X17780000Y26035000D03*
%TO.P,J5,7*%
%TO.N,/RB7*%
X17780000Y28575000D03*
%TO.P,J5,6*%
%TO.N,/TCK*%
X17780000Y31115000D03*
%TO.P,J5,5*%
%TO.N,/TMS*%
X17780000Y33655000D03*
%TO.P,J5,4*%
%TO.N,/RC8\u005CAN14*%
X17780000Y36195000D03*
%TO.P,J5,3*%
%TO.N,/RB10*%
X17780000Y38735000D03*
%TO.P,J5,2*%
%TO.N,/RB11*%
X17780000Y41275000D03*
D11*
%TO.P,J5,1*%
%TO.N,+5V*%
X17780000Y43815000D03*
%TD*%
D10*
%TO.P,J3,14*%
%TO.N,/~RESET~*%
X2540000Y10795000D03*
%TO.P,J3,13*%
%TO.N,+3V3*%
X2540000Y13335000D03*
%TO.P,J3,12*%
%TO.N,GND*%
X2540000Y15875000D03*
%TO.P,J3,11*%
%TO.N,/PGED3*%
X2540000Y18415000D03*
%TO.P,J3,10*%
%TO.N,/TDO\u005CPGEC3*%
X2540000Y20955000D03*
%TO.P,J3,9*%
%TO.N,/RB1\u005CAN3*%
X2540000Y23495000D03*
%TO.P,J3,8*%
%TO.N,/RB0\u005CAN2*%
X2540000Y26035000D03*
%TO.P,J3,7*%
%TO.N,/RA1\u005CAN1*%
X2540000Y28575000D03*
%TO.P,J3,6*%
%TO.N,/RA0\u005CAN0*%
X2540000Y31115000D03*
%TO.P,J3,5*%
%TO.N,/UART1_RX*%
X2540000Y33655000D03*
%TO.P,J3,4*%
%TO.N,/UART1_TX*%
X2540000Y36195000D03*
%TO.P,J3,3*%
%TO.N,/RB13\u005CAN8*%
X2540000Y38735000D03*
%TO.P,J3,2*%
%TO.N,GND*%
X2540000Y41275000D03*
D11*
%TO.P,J3,1*%
%TO.N,+3V3*%
X2540000Y43815000D03*
%TD*%
D12*
%TO.P,J2,10*%
%TO.N,/TDI*%
X15240000Y5080000D03*
%TO.P,J2,8*%
%TO.N,/TDO\u005CPGEC3*%
X12700000Y5080000D03*
%TO.P,J2,6*%
%TO.N,GND*%
X10160000Y5080000D03*
%TO.P,J2,4*%
%TO.N,/UART1_RX*%
X7620000Y5080000D03*
%TO.P,J2,2*%
%TO.N,/UART1_TX*%
X5080000Y5080000D03*
%TO.P,J2,9*%
%TO.N,/TCK*%
X15240000Y2540000D03*
%TO.P,J2,7*%
%TO.N,/TMS*%
X12700000Y2540000D03*
%TO.P,J2,5*%
%TO.N,GND*%
X10160000Y2540000D03*
%TO.P,J2,3*%
%TO.N,+3V3*%
X7620000Y2540000D03*
%TO.P,J2,1*%
%TO.N,/~RESET~*%
%TA.AperFunction,ComponentPad*%
G36*
G01*
X5680000Y1690000D02*
X4480000Y1690000D01*
G75*
G02*
X4230000Y1940000I0J250000D01*
G01*
X4230000Y3140000D01*
G75*
G02*
X4480000Y3390000I250000J0D01*
G01*
X5680000Y3390000D01*
G75*
G02*
X5930000Y3140000I0J-250000D01*
G01*
X5930000Y1940000D01*
G75*
G02*
X5680000Y1690000I-250000J0D01*
G01*
G37*
%TD.AperFunction*%
%TD*%
D13*
%TO.P,J1,S1*%
%TO.N,GND*%
X14480000Y40976600D03*
X5840000Y40976600D03*
D14*
X14480000Y45126600D03*
X5840000Y45126600D03*
%TD*%
D15*
%TO.N,GND*%
X11684000Y31369000D03*
X10477500Y25590500D03*
X14732000Y28575000D03*
X10160000Y29845000D03*
X10985500Y21717000D03*
X11938000Y21717000D03*
X11430000Y20955000D03*
X10604500Y42037000D03*
X19685000Y45720000D03*
X762000Y9017000D03*
X635000Y45720000D03*
X13970000Y18669000D03*
X14605000Y18034000D03*
X12573000Y20955000D03*
X16573500Y22606000D03*
X6032500Y39306500D03*
X15875000Y34798000D03*
X5715000Y35433000D03*
X4762500Y22352000D03*
X1841500Y24765000D03*
X13843000Y32702500D03*
X4381500Y11620500D03*
X4889500Y16510000D03*
X16319500Y15303500D03*
X13017500Y15303500D03*
X3810000Y31750000D03*
X3492500Y32575500D03*
X4445000Y35433000D03*
X5715000Y36195000D03*
X3683000Y26797000D03*
X3937000Y38227000D03*
X5080000Y39497000D03*
X12319000Y37782500D03*
X12319000Y38925500D03*
X14480000Y38864000D03*
X13335000Y38290500D03*
X15875000Y33083500D03*
X15748000Y36195000D03*
X16129000Y37211000D03*
X18732500Y34861500D03*
X19685000Y32943800D03*
X635000Y37719000D03*
X635000Y36512500D03*
X4927600Y8585200D03*
X4508500Y6604000D03*
X3048000Y5778500D03*
X3048000Y4572000D03*
X5715000Y6604000D03*
X5778500Y10414000D03*
X10223500Y17462500D03*
X7747000Y17462500D03*
X7747000Y16319500D03*
X10223500Y16319500D03*
X13779500Y25908000D03*
X14605000Y22987000D03*
X16891000Y27305000D03*
X17018000Y24765000D03*
X17272000Y45720000D03*
X13208000Y45720000D03*
X11176000Y45720000D03*
X9144000Y45720000D03*
X7112000Y45720000D03*
X3048000Y45720000D03*
X19685000Y635000D03*
X19685000Y5588000D03*
X635000Y635000D03*
X635000Y5588000D03*
X17272000Y9461500D03*
X15544800Y6985000D03*
X16256000Y12065000D03*
X14541500Y13589000D03*
X12382500Y11493500D03*
X10223500Y11366500D03*
X10223500Y9906000D03*
X10922000Y7683500D03*
X8128000Y11430000D03*
X4064000Y15176500D03*
X8128000Y13462000D03*
X12319000Y16700500D03*
X18478500Y27305000D03*
X18351500Y24765000D03*
X19240500Y9461500D03*
X19240500Y12065000D03*
X19240500Y14605000D03*
X5461000Y22352000D03*
X8636000Y31369000D03*
X8636000Y28321000D03*
X11684000Y28321000D03*
X5778500Y34163000D03*
X9779000Y42037000D03*
X12319000Y25336500D03*
X12763500Y22923500D03*
X1595120Y21930360D03*
X3492500Y19748500D03*
X19685000Y33909000D03*
X19685000Y36703000D03*
X19685000Y38862000D03*
X19685000Y41402000D03*
X19685000Y43688000D03*
X635000Y34798000D03*
X635000Y44132500D03*
X6985000Y6604000D03*
X8255000Y6604000D03*
X7810500Y9715500D03*
X14605000Y9969500D03*
%TO.N,+5V*%
X14986000Y31326010D03*
X4318000Y41656000D03*
X16446500Y35433000D03*
%TO.N,+3V3*%
X8559989Y33782000D03*
X6096000Y30734000D03*
X10160000Y33782000D03*
X3858180Y29155269D03*
X5969000Y15367000D03*
X15747996Y30289500D03*
X3492500Y22479000D03*
%TO.N,Net-(D1-Pad2)*%
X8001000Y41910000D03*
X12319000Y41910000D03*
X5334000Y43053000D03*
%TO.N,Net-(J1-PadB5)*%
X8890000Y41910000D03*
X15455997Y42672000D03*
%TO.N,Net-(J1-PadA5)*%
X11430000Y41910000D03*
X16256000Y42672000D03*
%TO.N,/TDI*%
X7070057Y24364105D03*
%TO.N,/UART1_RX*%
X6027294Y32095944D03*
%TO.N,/UART1_TX*%
X6096000Y32893000D03*
%TO.N,/~RESET~*%
X6096000Y29845000D03*
X3556000Y27622500D03*
%TO.N,/RB2\u005CAN4*%
X7325636Y25884864D03*
%TO.N,/PGED3*%
X15781183Y31238342D03*
X12636500Y14478000D03*
X7556500Y14478000D03*
X18767490Y30136037D03*
%TO.N,/LED_USER*%
X13223990Y16700500D03*
X15938500Y16669966D03*
X6448500Y18161000D03*
%TO.N,/RC2*%
X8382000Y22733000D03*
%TO.N,/RC1\u005CAN13*%
X7937500Y23431496D03*
%TO.N,/RC0\u005CAN12*%
X7112000Y22733002D03*
%TO.N,/TDO\u005CPGEC3*%
X11535539Y33931750D03*
%TO.N,/RB1\u005CAN3*%
X5715000Y26670000D03*
%TO.N,/RB0\u005CAN2*%
X5721305Y27576620D03*
%TO.N,/RB13\u005CAN8*%
X7381120Y33225620D03*
%TO.N,/BTN_USER*%
X14732000Y29972000D03*
X17145000Y29845002D03*
%TD*%
D16*
%TO.N,+5V*%
X16573500Y35306000D02*
X16446500Y35433000D01*
X16573500Y32913510D02*
X16573500Y35306000D01*
X14986000Y31326010D02*
X16573500Y32913510D01*
D17*
X4318000Y43307000D02*
X4318000Y41656000D01*
X4826000Y43815000D02*
X4318000Y43307000D01*
X7175500Y43815000D02*
X4826000Y43815000D01*
X16295521Y43410021D02*
X7580479Y43410021D01*
X7580479Y43410021D02*
X7175500Y43815000D01*
X16700500Y43815000D02*
X16295521Y43410021D01*
X17780000Y43815000D02*
X16700500Y43815000D01*
D16*
%TO.N,+3V3*%
X8559989Y33782000D02*
X10160000Y33782000D01*
X5436911Y30734000D02*
X6096000Y30734000D01*
X3858180Y29155269D02*
X5436911Y30734000D01*
X3937000Y13335000D02*
X2540000Y13335000D01*
X5969000Y15367000D02*
X3937000Y13335000D01*
D18*
X15415495Y30622001D02*
X15747996Y30289500D01*
X14224000Y31126008D02*
X14728007Y30622001D01*
X14224000Y31750000D02*
X14224000Y31126008D01*
X14922500Y32448500D02*
X14224000Y31750000D01*
X14728007Y30622001D02*
X15415495Y30622001D01*
X12954000Y35179000D02*
X14922500Y33210500D01*
X10795000Y35179000D02*
X12954000Y35179000D01*
X10160000Y34544000D02*
X10795000Y35179000D01*
X14922500Y33210500D02*
X14922500Y32448500D01*
X10160000Y33782000D02*
X10160000Y34544000D01*
D16*
X3302000Y22288500D02*
X3492500Y22479000D01*
X2095500Y22288500D02*
X3302000Y22288500D01*
X1200030Y28937032D02*
X1200030Y23183970D01*
X1987999Y29725001D02*
X1200030Y28937032D01*
X3288448Y29725001D02*
X1987999Y29725001D01*
X1200030Y23183970D02*
X2095500Y22288500D01*
X3858180Y29155269D02*
X3288448Y29725001D01*
D17*
%TO.N,Net-(D1-Pad2)*%
X12319000Y41529000D02*
X12319000Y41910000D01*
X11999999Y41209999D02*
X12319000Y41529000D01*
X8276737Y41209999D02*
X11999999Y41209999D01*
X8001000Y41485736D02*
X8276737Y41209999D01*
X8001000Y41910000D02*
X8001000Y41485736D01*
X6858000Y43053000D02*
X8001000Y41910000D01*
X5334000Y43053000D02*
X6858000Y43053000D01*
D16*
%TO.N,Net-(J1-PadB5)*%
X15217986Y42910011D02*
X15455997Y42672000D01*
X9318511Y42910011D02*
X15217986Y42910011D01*
X8890000Y42481500D02*
X9318511Y42910011D01*
X8890000Y41910000D02*
X8890000Y42481500D01*
%TO.N,Net-(J1-PadA5)*%
X16256000Y42291000D02*
X16256000Y42672000D01*
X15875000Y41910000D02*
X16256000Y42291000D01*
X15240000Y41910000D02*
X15875000Y41910000D01*
X14639999Y42510001D02*
X15240000Y41910000D01*
X12030001Y42510001D02*
X14639999Y42510001D01*
X11430000Y41910000D02*
X12030001Y42510001D01*
%TO.N,/TDI*%
X14224000Y14859000D02*
X14224000Y17272000D01*
X7884933Y18992970D02*
X6511999Y20365904D01*
X15748000Y13335000D02*
X14224000Y14859000D01*
X6511999Y23806047D02*
X7070057Y24364105D01*
X12503030Y18992970D02*
X7884933Y18992970D01*
X17780000Y13335000D02*
X15748000Y13335000D01*
X6511999Y20365904D02*
X6511999Y23806047D01*
X14224000Y17272000D02*
X12503030Y18992970D01*
%TO.N,/UART1_RX*%
X2540000Y33655000D02*
X4468238Y33655000D01*
X4468238Y33655000D02*
X6027294Y32095944D01*
X7620000Y6794500D02*
X7620000Y5080000D01*
X7620000Y6854498D02*
X7620000Y6794500D01*
X6605199Y9644999D02*
X7296698Y8953500D01*
X1587701Y9644999D02*
X6605199Y9644999D01*
X7874000Y7108498D02*
X7620000Y6854498D01*
X7874000Y8572500D02*
X7874000Y7108498D01*
X7493000Y8953500D02*
X7874000Y8572500D01*
X7296698Y8953500D02*
X7493000Y8953500D01*
X800020Y10432680D02*
X1587701Y9644999D01*
X800020Y32867520D02*
X800020Y10432680D01*
X1587500Y33655000D02*
X800020Y32867520D01*
X2540000Y33655000D02*
X1587500Y33655000D01*
%TO.N,/UART1_TX*%
X5842000Y32893000D02*
X6096000Y32893000D01*
X4635500Y34099500D02*
X5842000Y32893000D01*
X4274736Y34099500D02*
X4635500Y34099500D01*
X2540000Y35834236D02*
X4274736Y34099500D01*
X2540000Y36195000D02*
X2540000Y35834236D01*
X2540000Y35560000D02*
X2540000Y36195000D01*
X400010Y33420010D02*
X2540000Y35560000D01*
X2984500Y9207500D02*
X1459502Y9207500D01*
X400010Y10266992D02*
X400010Y33420010D01*
X3619500Y8572500D02*
X2984500Y9207500D01*
X3619500Y7874000D02*
X3619500Y8572500D01*
X3844999Y7648501D02*
X3619500Y7874000D01*
X3844999Y6315001D02*
X3844999Y7648501D01*
X1459502Y9207500D02*
X400010Y10266992D01*
X5080000Y5080000D02*
X3844999Y6315001D01*
%TO.N,/TMS*%
X19367500Y32067500D02*
X17780000Y33655000D01*
X19367500Y17734799D02*
X19367500Y32067500D01*
X18930001Y17297300D02*
X19367500Y17734799D01*
X18930001Y15322999D02*
X18930001Y17297300D01*
X18542000Y14934998D02*
X18930001Y15322999D01*
X18542000Y14287500D02*
X18542000Y14934998D01*
X18542000Y12382500D02*
X18930001Y12770501D01*
X18859500Y10172498D02*
X18930001Y10242999D01*
X18859500Y10160000D02*
X18859500Y10172498D01*
X17621250Y8921750D02*
X18859500Y10160000D01*
X12700000Y2540000D02*
X12700000Y1968500D01*
X15875000Y952500D02*
X16993986Y2071486D01*
X16729001Y8455501D02*
X17134999Y8861499D01*
X17620252Y8921750D02*
X17621250Y8921750D01*
X13716000Y952500D02*
X15875000Y952500D01*
X12700000Y1968500D02*
X13716000Y952500D01*
X18930001Y13899499D02*
X18542000Y14287500D01*
X16993986Y2071486D02*
X16993986Y5586614D01*
X18930001Y11359499D02*
X18542000Y11747500D01*
X17134999Y8861499D02*
X17560001Y8861499D01*
X18930001Y10242999D02*
X18930001Y11359499D01*
X16993986Y5586614D02*
X16357600Y6223000D01*
X18542000Y11747500D02*
X18542000Y12382500D01*
X17560001Y8861499D02*
X17620252Y8921750D01*
X16357600Y6223000D02*
X16357600Y7556098D01*
X16357600Y7556098D02*
X16729001Y7927499D01*
X18930001Y12770501D02*
X18930001Y13899499D01*
X16729001Y7927499D02*
X16729001Y8455501D01*
%TO.N,/~RESET~*%
X6096000Y29845000D02*
X3873500Y27622500D01*
X3873500Y27622500D02*
X3556000Y27622500D01*
%TO.N,/RB2\u005CAN4*%
X6111989Y24671217D02*
X7325636Y25884864D01*
X12388302Y18542000D02*
X7770204Y18542000D01*
X13823990Y17106312D02*
X12388302Y18542000D01*
X6111989Y20200215D02*
X6111989Y24671217D01*
X13823990Y13163510D02*
X13823990Y17106312D01*
X7770204Y18542000D02*
X6111989Y20200215D01*
X16192500Y10795000D02*
X13823990Y13163510D01*
X17780000Y10795000D02*
X16192500Y10795000D01*
%TO.N,/PGED3*%
X12636500Y14478000D02*
X8064500Y14478000D01*
X8064500Y14478000D02*
X7556500Y14478000D01*
X16927841Y32385000D02*
X18212002Y32385000D01*
X15781183Y31238342D02*
X16927841Y32385000D01*
X18967489Y30336036D02*
X18767490Y30136037D01*
X18212002Y32385000D02*
X18967489Y31629513D01*
X18967489Y31629513D02*
X18967489Y30336036D01*
%TO.N,/LED_USER*%
X13223990Y16700500D02*
X13223990Y17140614D01*
X13223990Y17140614D02*
X12222614Y18141990D01*
X12222614Y18141990D02*
X7604515Y18141990D01*
X6467510Y18141990D02*
X6448500Y18161000D01*
X7604515Y18141990D02*
X6467510Y18141990D01*
X16293535Y17025001D02*
X15938500Y16669966D01*
X18092003Y17025001D02*
X16293535Y17025001D01*
X18967489Y17900487D02*
X18092003Y17025001D01*
X18967489Y25100513D02*
X18967489Y17900487D01*
X18033002Y26035000D02*
X18967489Y25100513D01*
X17780000Y26035000D02*
X18033002Y26035000D01*
%TO.N,/RC2*%
X17780000Y22733000D02*
X17780000Y23495000D01*
X16002000Y20193000D02*
X16402010Y20593010D01*
X16402010Y20593010D02*
X16402010Y21355010D01*
X8763000Y20193000D02*
X16002000Y20193000D01*
X16402010Y21355010D02*
X17780000Y22733000D01*
X8382000Y20574000D02*
X8763000Y20193000D01*
X8382000Y22606000D02*
X8382000Y20574000D01*
%TO.N,/RC1\u005CAN13*%
X8216311Y19792990D02*
X7716991Y20292310D01*
X16617990Y19792990D02*
X8216311Y19792990D01*
X7716991Y23210987D02*
X7937500Y23431496D01*
X7716991Y20292310D02*
X7716991Y23210987D01*
X17780000Y20955000D02*
X16617990Y19792990D01*
%TO.N,/RC0\u005CAN12*%
X17780000Y18415000D02*
X16802020Y19392980D01*
X16802020Y19392980D02*
X8050622Y19392980D01*
X8050622Y19392980D02*
X7112000Y20331602D01*
X7112000Y20331602D02*
X7112000Y22733002D01*
%TO.N,/TDO\u005CPGEC3*%
X10858500Y32067500D02*
X11535539Y32744539D01*
X2540000Y20955000D02*
X2540000Y21082000D01*
X5553697Y25942999D02*
X5876999Y25942999D01*
X5876999Y25942999D02*
X6159500Y26225500D01*
X10858500Y29591000D02*
X10858500Y32067500D01*
X10414000Y29146500D02*
X10858500Y29591000D01*
X2540000Y21082000D02*
X3336999Y21878999D01*
X11535539Y32744539D02*
X11535539Y33931750D01*
X3336999Y21878999D02*
X3787997Y21878999D01*
X6159500Y26225500D02*
X6159500Y26226498D01*
X4098999Y22190001D02*
X4098999Y24488301D01*
X6159500Y26226498D02*
X6350000Y26416998D01*
X4098999Y24488301D02*
X5553697Y25942999D01*
X6350000Y26416998D02*
X6350000Y27559000D01*
X3787997Y21878999D02*
X4098999Y22190001D01*
X6350000Y27559000D02*
X7937500Y29146500D01*
X7937500Y29146500D02*
X10414000Y29146500D01*
%TO.N,/RB1\u005CAN3*%
X2540000Y23495000D02*
X5715000Y26670000D01*
%TO.N,/RB0\u005CAN2*%
X3937000Y26035000D02*
X2540000Y26035000D01*
X5478620Y27576620D02*
X3937000Y26035000D01*
X5721305Y27576620D02*
X5478620Y27576620D01*
%TO.N,/RB13\u005CAN8*%
X5080000Y36195000D02*
X2540000Y38735000D01*
X5080000Y34988500D02*
X5080000Y36195000D01*
X5270500Y34798000D02*
X5080000Y34988500D01*
X6233004Y34798000D02*
X5270500Y34798000D01*
X7381120Y33649884D02*
X6233004Y34798000D01*
X7381120Y33225620D02*
X7381120Y33649884D01*
%TO.N,/BTN_USER*%
X16954498Y29654500D02*
X17145000Y29845002D01*
X15049500Y29654500D02*
X16954498Y29654500D01*
X14732000Y29972000D02*
X15049500Y29654500D01*
%TD*%
%TO.N,GND*%
X5027643Y45917209D02*
X4967048Y45751221D01*
X4940000Y45576600D01*
X4940000Y45176600D01*
X5790000Y45176600D01*
X5790000Y45196600D01*
X5890000Y45196600D01*
X5890000Y45176600D01*
X6740000Y45176600D01*
X6740000Y45576600D01*
X6712952Y45751221D01*
X6652357Y45917209D01*
X6629375Y45955000D01*
X13690625Y45955000D01*
X13667643Y45917209D01*
X13607048Y45751221D01*
X13580000Y45576600D01*
X13580000Y45176600D01*
X14430000Y45176600D01*
X14430000Y45196600D01*
X14530000Y45196600D01*
X14530000Y45176600D01*
X15380000Y45176600D01*
X15380000Y45576600D01*
X15352952Y45751221D01*
X15292357Y45917209D01*
X15269375Y45955000D01*
X19920000Y45955000D01*
X19920001Y8655000D01*
X18395353Y8655000D01*
X18374965Y8652992D01*
X18361781Y8652992D01*
X18356227Y8652408D01*
X18159174Y8630305D01*
X18123706Y8622766D01*
X18088151Y8615726D01*
X18082815Y8614075D01*
X17893808Y8554119D01*
X17860473Y8539831D01*
X17826964Y8526020D01*
X17822051Y8523364D01*
X17648291Y8427837D01*
X17618361Y8407343D01*
X17588183Y8387293D01*
X17583879Y8383733D01*
X17431982Y8256276D01*
X17406620Y8230378D01*
X17380891Y8204828D01*
X17377361Y8200500D01*
X17253112Y8045966D01*
X17233270Y8015644D01*
X17212987Y7985573D01*
X17210365Y7980642D01*
X17118499Y7804918D01*
X17104907Y7771277D01*
X17090870Y7737884D01*
X17089255Y7732537D01*
X17033270Y7542315D01*
X17026472Y7506679D01*
X17019187Y7471190D01*
X17018642Y7465631D01*
X17000671Y7268159D01*
X17000924Y7231907D01*
X17000671Y7195654D01*
X17001216Y7190095D01*
X17021943Y6992893D01*
X17029233Y6957378D01*
X17036026Y6921770D01*
X17037640Y6916423D01*
X17096275Y6727002D01*
X17110326Y6693577D01*
X17123906Y6659965D01*
X17126525Y6655039D01*
X17126527Y6655035D01*
X17126529Y6655032D01*
X17220839Y6480610D01*
X17241100Y6450571D01*
X17260963Y6420218D01*
X17264493Y6415890D01*
X17390887Y6263106D01*
X17416596Y6237576D01*
X17441976Y6211659D01*
X17446280Y6208099D01*
X17599942Y6082775D01*
X17630139Y6062712D01*
X17660052Y6042230D01*
X17664965Y6039573D01*
X17840043Y5946482D01*
X17873573Y5932662D01*
X17906885Y5918384D01*
X17912213Y5916735D01*
X17912219Y5916733D01*
X17912225Y5916732D01*
X18102047Y5859422D01*
X18137588Y5852385D01*
X18173069Y5844843D01*
X18178624Y5844259D01*
X18375966Y5824909D01*
X18375970Y5824909D01*
X18395353Y5823000D01*
X19920001Y5823000D01*
X19920000Y400000D01*
X400000Y400000D01*
X400000Y3140000D01*
X3928549Y3140000D01*
X3928549Y1940000D01*
X3939145Y1832417D01*
X3970526Y1728969D01*
X4021485Y1633630D01*
X4090065Y1550065D01*
X4173630Y1481485D01*
X4268969Y1430526D01*
X4372417Y1399145D01*
X4480000Y1388549D01*
X5680000Y1388549D01*
X5787583Y1399145D01*
X5891031Y1430526D01*
X5986370Y1481485D01*
X6069935Y1550065D01*
X6138515Y1633630D01*
X6189474Y1728969D01*
X6220855Y1832417D01*
X6231451Y1940000D01*
X6231451Y2653265D01*
X6470000Y2653265D01*
X6470000Y2426735D01*
X6514194Y2204557D01*
X6600884Y1995271D01*
X6726737Y1806918D01*
X6886918Y1646737D01*
X7075271Y1520884D01*
X7284557Y1434194D01*
X7506735Y1390000D01*
X7733265Y1390000D01*
X7955443Y1434194D01*
X8164729Y1520884D01*
X8353082Y1646737D01*
X8394305Y1687960D01*
X9378671Y1687960D01*
X9462750Y1495252D01*
X9679967Y1379299D01*
X9915632Y1307951D01*
X10160689Y1283951D01*
X10405718Y1308220D01*
X10641305Y1379826D01*
X10857250Y1495252D01*
X10941329Y1687960D01*
X10160000Y2469289D01*
X9378671Y1687960D01*
X8394305Y1687960D01*
X8513263Y1806918D01*
X8639116Y1995271D01*
X8725806Y2204557D01*
X8770000Y2426735D01*
X8770000Y2539311D01*
X8903951Y2539311D01*
X8928220Y2294282D01*
X8999826Y2058695D01*
X9115252Y1842750D01*
X9307960Y1758671D01*
X10089289Y2540000D01*
X10230711Y2540000D01*
X11012040Y1758671D01*
X11204748Y1842750D01*
X11320701Y2059967D01*
X11392049Y2295632D01*
X11416049Y2540689D01*
X11391780Y2785718D01*
X11320174Y3021305D01*
X11204748Y3237250D01*
X11012040Y3321329D01*
X10230711Y2540000D01*
X10089289Y2540000D01*
X9307960Y3321329D01*
X9115252Y3237250D01*
X8999299Y3020033D01*
X8927951Y2784368D01*
X8903951Y2539311D01*
X8770000Y2539311D01*
X8770000Y2653265D01*
X8725806Y2875443D01*
X8639116Y3084729D01*
X8513263Y3273082D01*
X8394305Y3392040D01*
X9378671Y3392040D01*
X10160000Y2610711D01*
X10941329Y3392040D01*
X10857250Y3584748D01*
X10640033Y3700701D01*
X10404368Y3772049D01*
X10159311Y3796049D01*
X9914282Y3771780D01*
X9678695Y3700174D01*
X9462750Y3584748D01*
X9378671Y3392040D01*
X8394305Y3392040D01*
X8353082Y3433263D01*
X8164729Y3559116D01*
X7955443Y3645806D01*
X7733265Y3690000D01*
X7506735Y3690000D01*
X7284557Y3645806D01*
X7075271Y3559116D01*
X6886918Y3433263D01*
X6726737Y3273082D01*
X6600884Y3084729D01*
X6514194Y2875443D01*
X6470000Y2653265D01*
X6231451Y2653265D01*
X6231451Y3140000D01*
X6220855Y3247583D01*
X6189474Y3351031D01*
X6138515Y3446370D01*
X6069935Y3529935D01*
X5986370Y3598515D01*
X5891031Y3649474D01*
X5787583Y3680855D01*
X5680000Y3691451D01*
X4480000Y3691451D01*
X4372417Y3680855D01*
X4268969Y3649474D01*
X4173630Y3598515D01*
X4090065Y3529935D01*
X4021485Y3446370D01*
X3970526Y3351031D01*
X3939145Y3247583D01*
X3928549Y3140000D01*
X400000Y3140000D01*
X400000Y5823000D01*
X1924647Y5823000D01*
X1945035Y5825008D01*
X1958219Y5825008D01*
X1963774Y5825592D01*
X2160826Y5847695D01*
X2196287Y5855232D01*
X2231850Y5862274D01*
X2237185Y5863925D01*
X2426192Y5923882D01*
X2459520Y5938166D01*
X2493035Y5951980D01*
X2497948Y5954636D01*
X2671709Y6050163D01*
X2701623Y6070646D01*
X2731817Y6090707D01*
X2736117Y6094265D01*
X2736122Y6094268D01*
X2736126Y6094272D01*
X2888018Y6221723D01*
X2913399Y6247641D01*
X2939109Y6273172D01*
X2942639Y6277500D01*
X3066888Y6432034D01*
X3086750Y6462386D01*
X3107013Y6492427D01*
X3109635Y6497358D01*
X3201500Y6673082D01*
X3215084Y6706704D01*
X3229130Y6740117D01*
X3230745Y6745464D01*
X3286730Y6935685D01*
X3293531Y6971336D01*
X3300813Y7006810D01*
X3301358Y7012369D01*
X3319329Y7209841D01*
X3319076Y7246094D01*
X3319329Y7282347D01*
X3318784Y7287905D01*
X3298057Y7485107D01*
X3290765Y7520628D01*
X3283974Y7556230D01*
X3282360Y7561577D01*
X3223725Y7750998D01*
X3209663Y7784451D01*
X3196094Y7818035D01*
X3193472Y7822967D01*
X3099161Y7997390D01*
X3078888Y8027446D01*
X3059037Y8057781D01*
X3055511Y8062104D01*
X3055507Y8062110D01*
X3055502Y8062115D01*
X2929113Y8214894D01*
X2903404Y8240424D01*
X2878024Y8266341D01*
X2873720Y8269901D01*
X2720058Y8395225D01*
X2689861Y8415288D01*
X2659948Y8435770D01*
X2655035Y8438427D01*
X2479957Y8531518D01*
X2446427Y8545338D01*
X2413115Y8559616D01*
X2407787Y8561265D01*
X2407781Y8561267D01*
X2407775Y8561268D01*
X2217953Y8618578D01*
X2182404Y8625617D01*
X2146930Y8633157D01*
X2141376Y8633741D01*
X1944034Y8653091D01*
X1944030Y8653091D01*
X1924647Y8655000D01*
X400000Y8655000D01*
X400000Y9701317D01*
X1162769Y8938547D01*
X1175291Y8923289D01*
X1190549Y8910767D01*
X1190551Y8910765D01*
X1195508Y8906697D01*
X1236199Y8873303D01*
X1305688Y8836160D01*
X1381088Y8813288D01*
X1459502Y8805565D01*
X1479148Y8807500D01*
X2818815Y8807500D01*
X3219501Y8406814D01*
X3219500Y7893647D01*
X3217565Y7874000D01*
X3219500Y7854354D01*
X3225288Y7795587D01*
X3248160Y7720187D01*
X3285303Y7650698D01*
X3335289Y7589789D01*
X3350552Y7577263D01*
X3445000Y7482815D01*
X3444999Y6334648D01*
X3443064Y6315001D01*
X3447604Y6268904D01*
X3450787Y6236588D01*
X3473659Y6161188D01*
X3510802Y6091699D01*
X3560788Y6030790D01*
X3576051Y6018264D01*
X4034143Y5560171D01*
X3974194Y5415443D01*
X3930000Y5193265D01*
X3930000Y4966735D01*
X3974194Y4744557D01*
X4060884Y4535271D01*
X4186737Y4346918D01*
X4346918Y4186737D01*
X4535271Y4060884D01*
X4744557Y3974194D01*
X4966735Y3930000D01*
X5193265Y3930000D01*
X5415443Y3974194D01*
X5624729Y4060884D01*
X5813082Y4186737D01*
X5973263Y4346918D01*
X6099116Y4535271D01*
X6185806Y4744557D01*
X6230000Y4966735D01*
X6230000Y5193265D01*
X6185806Y5415443D01*
X6099116Y5624729D01*
X5973263Y5813082D01*
X5813082Y5973263D01*
X5624729Y6099116D01*
X5415443Y6185806D01*
X5193265Y6230000D01*
X4966735Y6230000D01*
X4744557Y6185806D01*
X4599829Y6125857D01*
X4244999Y6480686D01*
X4244999Y7628854D01*
X4246934Y7648501D01*
X4241449Y7704197D01*
X4241212Y7706600D01*
X4339429Y7726136D01*
X4439523Y7767597D01*
X4529604Y7827787D01*
X4606213Y7904396D01*
X4666403Y7994477D01*
X4707864Y8094571D01*
X4729000Y8200830D01*
X4729000Y8309170D01*
X5129000Y8309170D01*
X5129000Y8200830D01*
X5150136Y8094571D01*
X5191597Y7994477D01*
X5251787Y7904396D01*
X5328396Y7827787D01*
X5418477Y7767597D01*
X5518571Y7726136D01*
X5624830Y7705000D01*
X5733170Y7705000D01*
X5839429Y7726136D01*
X5939523Y7767597D01*
X6029604Y7827787D01*
X6106213Y7904396D01*
X6166403Y7994477D01*
X6207864Y8094571D01*
X6229000Y8200830D01*
X6229000Y8309170D01*
X6207864Y8415429D01*
X6166403Y8515523D01*
X6106213Y8605604D01*
X6029604Y8682213D01*
X5939523Y8742403D01*
X5839429Y8783864D01*
X5733170Y8805000D01*
X5624830Y8805000D01*
X5518571Y8783864D01*
X5418477Y8742403D01*
X5328396Y8682213D01*
X5251787Y8605604D01*
X5191597Y8515523D01*
X5150136Y8415429D01*
X5129000Y8309170D01*
X4729000Y8309170D01*
X4707864Y8415429D01*
X4666403Y8515523D01*
X4606213Y8605604D01*
X4529604Y8682213D01*
X4439523Y8742403D01*
X4339429Y8783864D01*
X4233170Y8805000D01*
X4124830Y8805000D01*
X4018571Y8783864D01*
X3970682Y8764027D01*
X3953697Y8795803D01*
X3903711Y8856711D01*
X3888448Y8869237D01*
X3512686Y9244999D01*
X6439514Y9244999D01*
X6935187Y8749325D01*
X6918477Y8742403D01*
X6828396Y8682213D01*
X6751787Y8605604D01*
X6691597Y8515523D01*
X6650136Y8415429D01*
X6629000Y8309170D01*
X6629000Y8200830D01*
X6650136Y8094571D01*
X6691597Y7994477D01*
X6751787Y7904396D01*
X6828396Y7827787D01*
X6918477Y7767597D01*
X7018571Y7726136D01*
X7124830Y7705000D01*
X7233170Y7705000D01*
X7339429Y7726136D01*
X7439523Y7767597D01*
X7474001Y7790634D01*
X7474001Y7274184D01*
X7351052Y7151235D01*
X7335789Y7138709D01*
X7285803Y7077800D01*
X7248660Y7008311D01*
X7230460Y6948313D01*
X7225788Y6932911D01*
X7218065Y6854498D01*
X7220000Y6834852D01*
X7220000Y6159065D01*
X7075271Y6099116D01*
X6886918Y5973263D01*
X6726737Y5813082D01*
X6600884Y5624729D01*
X6514194Y5415443D01*
X6470000Y5193265D01*
X6470000Y4966735D01*
X6514194Y4744557D01*
X6600884Y4535271D01*
X6726737Y4346918D01*
X6886918Y4186737D01*
X7075271Y4060884D01*
X7284557Y3974194D01*
X7506735Y3930000D01*
X7733265Y3930000D01*
X7955443Y3974194D01*
X8164729Y4060884D01*
X8353082Y4186737D01*
X8394305Y4227960D01*
X9378671Y4227960D01*
X9462750Y4035252D01*
X9679967Y3919299D01*
X9915632Y3847951D01*
X10160689Y3823951D01*
X10405718Y3848220D01*
X10641305Y3919826D01*
X10857250Y4035252D01*
X10941329Y4227960D01*
X10160000Y5009289D01*
X9378671Y4227960D01*
X8394305Y4227960D01*
X8513263Y4346918D01*
X8639116Y4535271D01*
X8725806Y4744557D01*
X8770000Y4966735D01*
X8770000Y5079311D01*
X8903951Y5079311D01*
X8928220Y4834282D01*
X8999826Y4598695D01*
X9115252Y4382750D01*
X9307960Y4298671D01*
X10089289Y5080000D01*
X10230711Y5080000D01*
X11012040Y4298671D01*
X11204748Y4382750D01*
X11320701Y4599967D01*
X11392049Y4835632D01*
X11416049Y5080689D01*
X11404899Y5193265D01*
X11550000Y5193265D01*
X11550000Y4966735D01*
X11594194Y4744557D01*
X11680884Y4535271D01*
X11806737Y4346918D01*
X11966918Y4186737D01*
X12155271Y4060884D01*
X12364557Y3974194D01*
X12586735Y3930000D01*
X12813265Y3930000D01*
X13035443Y3974194D01*
X13244729Y4060884D01*
X13433082Y4186737D01*
X13593263Y4346918D01*
X13719116Y4535271D01*
X13805806Y4744557D01*
X13850000Y4966735D01*
X13850000Y5193265D01*
X14090000Y5193265D01*
X14090000Y4966735D01*
X14134194Y4744557D01*
X14220884Y4535271D01*
X14346737Y4346918D01*
X14506918Y4186737D01*
X14695271Y4060884D01*
X14904557Y3974194D01*
X15126735Y3930000D01*
X15353265Y3930000D01*
X15575443Y3974194D01*
X15784729Y4060884D01*
X15973082Y4186737D01*
X16133263Y4346918D01*
X16259116Y4535271D01*
X16345806Y4744557D01*
X16390000Y4966735D01*
X16390000Y5193265D01*
X16345806Y5415443D01*
X16259116Y5624729D01*
X16133263Y5813082D01*
X15973082Y5973263D01*
X15784729Y6099116D01*
X15575443Y6185806D01*
X15353265Y6230000D01*
X15126735Y6230000D01*
X14904557Y6185806D01*
X14695271Y6099116D01*
X14506918Y5973263D01*
X14346737Y5813082D01*
X14220884Y5624729D01*
X14134194Y5415443D01*
X14090000Y5193265D01*
X13850000Y5193265D01*
X13805806Y5415443D01*
X13719116Y5624729D01*
X13593263Y5813082D01*
X13433082Y5973263D01*
X13244729Y6099116D01*
X13035443Y6185806D01*
X12813265Y6230000D01*
X12586735Y6230000D01*
X12364557Y6185806D01*
X12155271Y6099116D01*
X11966918Y5973263D01*
X11806737Y5813082D01*
X11680884Y5624729D01*
X11594194Y5415443D01*
X11550000Y5193265D01*
X11404899Y5193265D01*
X11391780Y5325718D01*
X11320174Y5561305D01*
X11204748Y5777250D01*
X11012040Y5861329D01*
X10230711Y5080000D01*
X10089289Y5080000D01*
X9307960Y5861329D01*
X9115252Y5777250D01*
X8999299Y5560033D01*
X8927951Y5324368D01*
X8903951Y5079311D01*
X8770000Y5079311D01*
X8770000Y5193265D01*
X8725806Y5415443D01*
X8639116Y5624729D01*
X8513263Y5813082D01*
X8394305Y5932040D01*
X9378671Y5932040D01*
X10160000Y5150711D01*
X10941329Y5932040D01*
X10857250Y6124748D01*
X10640033Y6240701D01*
X10404368Y6312049D01*
X10159311Y6336049D01*
X9914282Y6311780D01*
X9678695Y6240174D01*
X9462750Y6124748D01*
X9378671Y5932040D01*
X8394305Y5932040D01*
X8353082Y5973263D01*
X8164729Y6099116D01*
X8020000Y6159065D01*
X8020000Y6688813D01*
X8142948Y6811761D01*
X8158211Y6824287D01*
X8208197Y6885195D01*
X8245340Y6954684D01*
X8268212Y7030084D01*
X8274000Y7088851D01*
X8274000Y7088861D01*
X8275934Y7108497D01*
X8274000Y7128133D01*
X8274000Y7882183D01*
X8328396Y7827787D01*
X8418477Y7767597D01*
X8518571Y7726136D01*
X8624830Y7705000D01*
X8733170Y7705000D01*
X8839429Y7726136D01*
X8939523Y7767597D01*
X9029604Y7827787D01*
X9106213Y7904396D01*
X9166403Y7994477D01*
X9207864Y8094571D01*
X9229000Y8200830D01*
X9229000Y8309170D01*
X9629000Y8309170D01*
X9629000Y8200830D01*
X9650136Y8094571D01*
X9691597Y7994477D01*
X9751787Y7904396D01*
X9828396Y7827787D01*
X9918477Y7767597D01*
X10018571Y7726136D01*
X10124830Y7705000D01*
X10233170Y7705000D01*
X10339429Y7726136D01*
X10439523Y7767597D01*
X10529604Y7827787D01*
X10606213Y7904396D01*
X10666403Y7994477D01*
X10707864Y8094571D01*
X10729000Y8200830D01*
X10729000Y8309170D01*
X11129000Y8309170D01*
X11129000Y8200830D01*
X11150136Y8094571D01*
X11191597Y7994477D01*
X11251787Y7904396D01*
X11328396Y7827787D01*
X11418477Y7767597D01*
X11518571Y7726136D01*
X11624830Y7705000D01*
X11733170Y7705000D01*
X11839429Y7726136D01*
X11939523Y7767597D01*
X12029604Y7827787D01*
X12106213Y7904396D01*
X12166403Y7994477D01*
X12207864Y8094571D01*
X12229000Y8200830D01*
X12229000Y8309170D01*
X12629000Y8309170D01*
X12629000Y8200830D01*
X12650136Y8094571D01*
X12691597Y7994477D01*
X12751787Y7904396D01*
X12828396Y7827787D01*
X12918477Y7767597D01*
X13018571Y7726136D01*
X13124830Y7705000D01*
X13233170Y7705000D01*
X13339429Y7726136D01*
X13439523Y7767597D01*
X13529604Y7827787D01*
X13606213Y7904396D01*
X13666403Y7994477D01*
X13707864Y8094571D01*
X13729000Y8200830D01*
X13729000Y8309170D01*
X14129000Y8309170D01*
X14129000Y8200830D01*
X14150136Y8094571D01*
X14191597Y7994477D01*
X14251787Y7904396D01*
X14328396Y7827787D01*
X14418477Y7767597D01*
X14518571Y7726136D01*
X14624830Y7705000D01*
X14733170Y7705000D01*
X14839429Y7726136D01*
X14939523Y7767597D01*
X15029604Y7827787D01*
X15106213Y7904396D01*
X15166403Y7994477D01*
X15207864Y8094571D01*
X15229000Y8200830D01*
X15229000Y8309170D01*
X15207864Y8415429D01*
X15166403Y8515523D01*
X15106213Y8605604D01*
X15029604Y8682213D01*
X14939523Y8742403D01*
X14839429Y8783864D01*
X14733170Y8805000D01*
X14624830Y8805000D01*
X14518571Y8783864D01*
X14418477Y8742403D01*
X14328396Y8682213D01*
X14251787Y8605604D01*
X14191597Y8515523D01*
X14150136Y8415429D01*
X14129000Y8309170D01*
X13729000Y8309170D01*
X13707864Y8415429D01*
X13666403Y8515523D01*
X13606213Y8605604D01*
X13529604Y8682213D01*
X13439523Y8742403D01*
X13339429Y8783864D01*
X13233170Y8805000D01*
X13124830Y8805000D01*
X13018571Y8783864D01*
X12918477Y8742403D01*
X12828396Y8682213D01*
X12751787Y8605604D01*
X12691597Y8515523D01*
X12650136Y8415429D01*
X12629000Y8309170D01*
X12229000Y8309170D01*
X12207864Y8415429D01*
X12166403Y8515523D01*
X12106213Y8605604D01*
X12029604Y8682213D01*
X11939523Y8742403D01*
X11839429Y8783864D01*
X11733170Y8805000D01*
X11624830Y8805000D01*
X11518571Y8783864D01*
X11418477Y8742403D01*
X11328396Y8682213D01*
X11251787Y8605604D01*
X11191597Y8515523D01*
X11150136Y8415429D01*
X11129000Y8309170D01*
X10729000Y8309170D01*
X10707864Y8415429D01*
X10666403Y8515523D01*
X10606213Y8605604D01*
X10529604Y8682213D01*
X10439523Y8742403D01*
X10339429Y8783864D01*
X10233170Y8805000D01*
X10124830Y8805000D01*
X10018571Y8783864D01*
X9918477Y8742403D01*
X9828396Y8682213D01*
X9751787Y8605604D01*
X9691597Y8515523D01*
X9650136Y8415429D01*
X9629000Y8309170D01*
X9229000Y8309170D01*
X9207864Y8415429D01*
X9166403Y8515523D01*
X9106213Y8605604D01*
X9029604Y8682213D01*
X8939523Y8742403D01*
X8839429Y8783864D01*
X8733170Y8805000D01*
X8624830Y8805000D01*
X8518571Y8783864D01*
X8418477Y8742403D01*
X8328396Y8682213D01*
X8270802Y8624619D01*
X8268212Y8650914D01*
X8245340Y8726314D01*
X8208197Y8795803D01*
X8158211Y8856711D01*
X8142949Y8869236D01*
X7789737Y9222448D01*
X7777211Y9237711D01*
X7716303Y9287697D01*
X7646814Y9324840D01*
X7571414Y9347712D01*
X7512647Y9353500D01*
X7512646Y9353500D01*
X7493000Y9355435D01*
X7473354Y9353500D01*
X7462384Y9353500D01*
X6901936Y9913947D01*
X6889410Y9929210D01*
X6828502Y9979196D01*
X6759013Y10016339D01*
X6683613Y10039211D01*
X6624846Y10044999D01*
X6624845Y10044999D01*
X6605199Y10046934D01*
X6585553Y10044999D01*
X3416344Y10044999D01*
X3433263Y10061918D01*
X3559116Y10250271D01*
X3645806Y10459557D01*
X3690000Y10681735D01*
X3690000Y10908265D01*
X3645806Y11130443D01*
X3559116Y11339729D01*
X3433263Y11528082D01*
X3273082Y11688263D01*
X3084729Y11814116D01*
X2875443Y11900806D01*
X2653265Y11945000D01*
X2426735Y11945000D01*
X2204557Y11900806D01*
X1995271Y11814116D01*
X1806918Y11688263D01*
X1646737Y11528082D01*
X1520884Y11339729D01*
X1434194Y11130443D01*
X1390000Y10908265D01*
X1390000Y10681735D01*
X1434194Y10459557D01*
X1501629Y10296757D01*
X1200020Y10598365D01*
X1200020Y13448265D01*
X1390000Y13448265D01*
X1390000Y13221735D01*
X1434194Y12999557D01*
X1520884Y12790271D01*
X1646737Y12601918D01*
X1806918Y12441737D01*
X1995271Y12315884D01*
X2204557Y12229194D01*
X2426735Y12185000D01*
X2653265Y12185000D01*
X2875443Y12229194D01*
X3084729Y12315884D01*
X3273082Y12441737D01*
X3433263Y12601918D01*
X3559116Y12790271D01*
X3619065Y12935000D01*
X3917354Y12935000D01*
X3937000Y12933065D01*
X3956646Y12935000D01*
X3956647Y12935000D01*
X4015414Y12940788D01*
X4090814Y12963660D01*
X4160303Y13000803D01*
X4221211Y13050789D01*
X4233737Y13066052D01*
X5704780Y14537095D01*
X6956500Y14537095D01*
X6956500Y14418905D01*
X6979558Y14302986D01*
X7024787Y14193793D01*
X7090450Y14095522D01*
X7174022Y14011950D01*
X7272293Y13946287D01*
X7381486Y13901058D01*
X7497405Y13878000D01*
X7615595Y13878000D01*
X7731514Y13901058D01*
X7840707Y13946287D01*
X7938978Y14011950D01*
X8005028Y14078000D01*
X12187972Y14078000D01*
X12254022Y14011950D01*
X12352293Y13946287D01*
X12461486Y13901058D01*
X12577405Y13878000D01*
X12695595Y13878000D01*
X12811514Y13901058D01*
X12920707Y13946287D01*
X13018978Y14011950D01*
X13102550Y14095522D01*
X13168213Y14193793D01*
X13213442Y14302986D01*
X13236500Y14418905D01*
X13236500Y14537095D01*
X13213442Y14653014D01*
X13168213Y14762207D01*
X13102550Y14860478D01*
X13018978Y14944050D01*
X12920707Y15009713D01*
X12811514Y15054942D01*
X12695595Y15078000D01*
X12577405Y15078000D01*
X12461486Y15054942D01*
X12352293Y15009713D01*
X12254022Y14944050D01*
X12187972Y14878000D01*
X8005028Y14878000D01*
X7938978Y14944050D01*
X7840707Y15009713D01*
X7731514Y15054942D01*
X7615595Y15078000D01*
X7497405Y15078000D01*
X7381486Y15054942D01*
X7272293Y15009713D01*
X7174022Y14944050D01*
X7090450Y14860478D01*
X7024787Y14762207D01*
X6979558Y14653014D01*
X6956500Y14537095D01*
X5704780Y14537095D01*
X5934686Y14767000D01*
X6028095Y14767000D01*
X6144014Y14790058D01*
X6253207Y14835287D01*
X6351478Y14900950D01*
X6435050Y14984522D01*
X6500713Y15082793D01*
X6545942Y15191986D01*
X6569000Y15307905D01*
X6569000Y15426095D01*
X6545942Y15542014D01*
X6500713Y15651207D01*
X6435050Y15749478D01*
X6351478Y15833050D01*
X6253207Y15898713D01*
X6144014Y15943942D01*
X6028095Y15967000D01*
X5909905Y15967000D01*
X5793986Y15943942D01*
X5684793Y15898713D01*
X5586522Y15833050D01*
X5502950Y15749478D01*
X5437287Y15651207D01*
X5392058Y15542014D01*
X5369000Y15426095D01*
X5369000Y15332686D01*
X3771315Y13735000D01*
X3619065Y13735000D01*
X3559116Y13879729D01*
X3433263Y14068082D01*
X3273082Y14228263D01*
X3084729Y14354116D01*
X2875443Y14440806D01*
X2653265Y14485000D01*
X2426735Y14485000D01*
X2204557Y14440806D01*
X1995271Y14354116D01*
X1806918Y14228263D01*
X1646737Y14068082D01*
X1520884Y13879729D01*
X1434194Y13670443D01*
X1390000Y13448265D01*
X1200020Y13448265D01*
X1200020Y15630229D01*
X1314199Y15630229D01*
X1384795Y15397500D01*
X1500148Y15181306D01*
X1655461Y14991770D01*
X1844767Y14836176D01*
X2060790Y14720503D01*
X2295229Y14649197D01*
X2490000Y14725998D01*
X2490000Y15825000D01*
X2590000Y15825000D01*
X2590000Y14725998D01*
X2784771Y14649197D01*
X3019210Y14720503D01*
X3235233Y14836176D01*
X3424539Y14991770D01*
X3579852Y15181306D01*
X3695205Y15397500D01*
X3765801Y15630229D01*
X3688913Y15825000D01*
X2590000Y15825000D01*
X2490000Y15825000D01*
X1391087Y15825000D01*
X1314199Y15630229D01*
X1200020Y15630229D01*
X1200020Y16119771D01*
X1314199Y16119771D01*
X1391087Y15925000D01*
X2490000Y15925000D01*
X2490000Y17024002D01*
X2590000Y17024002D01*
X2590000Y15925000D01*
X3688913Y15925000D01*
X3765801Y16119771D01*
X3695205Y16352500D01*
X3579852Y16568694D01*
X3424539Y16758230D01*
X3235233Y16913824D01*
X3019210Y17029497D01*
X2784771Y17100803D01*
X2590000Y17024002D01*
X2490000Y17024002D01*
X2295229Y17100803D01*
X2060790Y17029497D01*
X1844767Y16913824D01*
X1655461Y16758230D01*
X1500148Y16568694D01*
X1384795Y16352500D01*
X1314199Y16119771D01*
X1200020Y16119771D01*
X1200020Y18528265D01*
X1390000Y18528265D01*
X1390000Y18301735D01*
X1434194Y18079557D01*
X1520884Y17870271D01*
X1646737Y17681918D01*
X1806918Y17521737D01*
X1995271Y17395884D01*
X2204557Y17309194D01*
X2426735Y17265000D01*
X2653265Y17265000D01*
X2875443Y17309194D01*
X3084729Y17395884D01*
X3273082Y17521737D01*
X3433263Y17681918D01*
X3559116Y17870271D01*
X3645806Y18079557D01*
X3690000Y18301735D01*
X3690000Y18528265D01*
X3645806Y18750443D01*
X3559116Y18959729D01*
X3433263Y19148082D01*
X3273082Y19308263D01*
X3084729Y19434116D01*
X2875443Y19520806D01*
X2653265Y19565000D01*
X2426735Y19565000D01*
X2204557Y19520806D01*
X1995271Y19434116D01*
X1806918Y19308263D01*
X1646737Y19148082D01*
X1520884Y18959729D01*
X1434194Y18750443D01*
X1390000Y18528265D01*
X1200020Y18528265D01*
X1200020Y22618295D01*
X1798767Y22019547D01*
X1811289Y22004289D01*
X1826547Y21991767D01*
X1826549Y21991765D01*
X1872197Y21954303D01*
X1924099Y21926561D01*
X1806918Y21848263D01*
X1646737Y21688082D01*
X1520884Y21499729D01*
X1434194Y21290443D01*
X1390000Y21068265D01*
X1390000Y20841735D01*
X1434194Y20619557D01*
X1520884Y20410271D01*
X1646737Y20221918D01*
X1806918Y20061737D01*
X1995271Y19935884D01*
X2204557Y19849194D01*
X2426735Y19805000D01*
X2653265Y19805000D01*
X2875443Y19849194D01*
X3084729Y19935884D01*
X3273082Y20061737D01*
X3433263Y20221918D01*
X3559116Y20410271D01*
X3645806Y20619557D01*
X3690000Y20841735D01*
X3690000Y21068265D01*
X3645806Y21290443D01*
X3567703Y21478999D01*
X3768351Y21478999D01*
X3787997Y21477064D01*
X3807643Y21478999D01*
X3807644Y21478999D01*
X3866411Y21484787D01*
X3941811Y21507659D01*
X4011300Y21544802D01*
X4072208Y21594788D01*
X4084734Y21610051D01*
X4367953Y21893269D01*
X4383210Y21905790D01*
X4433196Y21966698D01*
X4470339Y22036187D01*
X4493211Y22111587D01*
X4498999Y22170354D01*
X4498999Y22170364D01*
X4500933Y22190000D01*
X4498999Y22209636D01*
X4498999Y24322616D01*
X4847600Y24671217D01*
X5710054Y24671217D01*
X5711990Y24651561D01*
X5711989Y20219861D01*
X5710054Y20200215D01*
X5711989Y20180569D01*
X5717777Y20121802D01*
X5740649Y20046402D01*
X5777792Y19976913D01*
X5827778Y19916004D01*
X5843041Y19903478D01*
X7204528Y18541990D01*
X6915544Y18541990D01*
X6914550Y18543478D01*
X6830978Y18627050D01*
X6732707Y18692713D01*
X6623514Y18737942D01*
X6507595Y18761000D01*
X6389405Y18761000D01*
X6273486Y18737942D01*
X6164293Y18692713D01*
X6066022Y18627050D01*
X5982450Y18543478D01*
X5916787Y18445207D01*
X5871558Y18336014D01*
X5848500Y18220095D01*
X5848500Y18101905D01*
X5871558Y17985986D01*
X5916787Y17876793D01*
X5982450Y17778522D01*
X6066022Y17694950D01*
X6164293Y17629287D01*
X6273486Y17584058D01*
X6389405Y17561000D01*
X6507595Y17561000D01*
X6623514Y17584058D01*
X6732707Y17629287D01*
X6830978Y17694950D01*
X6878018Y17741990D01*
X12056929Y17741990D01*
X12741117Y17057802D01*
X12692277Y16984707D01*
X12647048Y16875514D01*
X12623990Y16759595D01*
X12623990Y16641405D01*
X12647048Y16525486D01*
X12692277Y16416293D01*
X12757940Y16318022D01*
X12841512Y16234450D01*
X12939783Y16168787D01*
X13048976Y16123558D01*
X13164895Y16100500D01*
X13283085Y16100500D01*
X13399004Y16123558D01*
X13423991Y16133908D01*
X13423990Y13183157D01*
X13422055Y13163510D01*
X13423990Y13143864D01*
X13429778Y13085097D01*
X13452650Y13009697D01*
X13489793Y12940208D01*
X13539779Y12879299D01*
X13555042Y12866773D01*
X15895767Y10526047D01*
X15908289Y10510789D01*
X15923547Y10498267D01*
X15923549Y10498265D01*
X15928506Y10494197D01*
X15969197Y10460803D01*
X16038686Y10423660D01*
X16114086Y10400788D01*
X16164731Y10395800D01*
X16192500Y10393065D01*
X16212146Y10395000D01*
X16700935Y10395000D01*
X16760884Y10250271D01*
X16886737Y10061918D01*
X17046918Y9901737D01*
X17235271Y9775884D01*
X17444557Y9689194D01*
X17666735Y9645000D01*
X17778815Y9645000D01*
X17395314Y9261499D01*
X17154645Y9261499D01*
X17134999Y9263434D01*
X17056585Y9255711D01*
X16981184Y9232839D01*
X16911696Y9195696D01*
X16866048Y9158234D01*
X16866046Y9158232D01*
X16850788Y9145710D01*
X16838266Y9130452D01*
X16460048Y8752233D01*
X16444791Y8739712D01*
X16444352Y8739177D01*
X16439523Y8742403D01*
X16339429Y8783864D01*
X16233170Y8805000D01*
X16124830Y8805000D01*
X16018571Y8783864D01*
X15918477Y8742403D01*
X15828396Y8682213D01*
X15751787Y8605604D01*
X15691597Y8515523D01*
X15650136Y8415429D01*
X15629000Y8309170D01*
X15629000Y8200830D01*
X15650136Y8094571D01*
X15691597Y7994477D01*
X15751787Y7904396D01*
X15828396Y7827787D01*
X15918477Y7767597D01*
X15999218Y7734153D01*
X15986261Y7709912D01*
X15963388Y7634511D01*
X15955665Y7556098D01*
X15957601Y7536442D01*
X15957600Y6242647D01*
X15955665Y6223000D01*
X15957600Y6203354D01*
X15963388Y6144587D01*
X15986260Y6069187D01*
X16023403Y5999698D01*
X16073389Y5938789D01*
X16088652Y5926263D01*
X16593987Y5420928D01*
X16593986Y2237172D01*
X15709315Y1352500D01*
X13881686Y1352500D01*
X13510265Y1723920D01*
X13593263Y1806918D01*
X13719116Y1995271D01*
X13805806Y2204557D01*
X13850000Y2426735D01*
X13850000Y2653265D01*
X14090000Y2653265D01*
X14090000Y2426735D01*
X14134194Y2204557D01*
X14220884Y1995271D01*
X14346737Y1806918D01*
X14506918Y1646737D01*
X14695271Y1520884D01*
X14904557Y1434194D01*
X15126735Y1390000D01*
X15353265Y1390000D01*
X15575443Y1434194D01*
X15784729Y1520884D01*
X15973082Y1646737D01*
X16133263Y1806918D01*
X16259116Y1995271D01*
X16345806Y2204557D01*
X16390000Y2426735D01*
X16390000Y2653265D01*
X16345806Y2875443D01*
X16259116Y3084729D01*
X16133263Y3273082D01*
X15973082Y3433263D01*
X15784729Y3559116D01*
X15575443Y3645806D01*
X15353265Y3690000D01*
X15126735Y3690000D01*
X14904557Y3645806D01*
X14695271Y3559116D01*
X14506918Y3433263D01*
X14346737Y3273082D01*
X14220884Y3084729D01*
X14134194Y2875443D01*
X14090000Y2653265D01*
X13850000Y2653265D01*
X13805806Y2875443D01*
X13719116Y3084729D01*
X13593263Y3273082D01*
X13433082Y3433263D01*
X13244729Y3559116D01*
X13035443Y3645806D01*
X12813265Y3690000D01*
X12586735Y3690000D01*
X12364557Y3645806D01*
X12155271Y3559116D01*
X11966918Y3433263D01*
X11806737Y3273082D01*
X11680884Y3084729D01*
X11594194Y2875443D01*
X11550000Y2653265D01*
X11550000Y2426735D01*
X11594194Y2204557D01*
X11680884Y1995271D01*
X11806737Y1806918D01*
X11966918Y1646737D01*
X12155271Y1520884D01*
X12364557Y1434194D01*
X12586735Y1390000D01*
X12712815Y1390000D01*
X13419267Y683547D01*
X13431789Y668289D01*
X13447047Y655767D01*
X13447049Y655765D01*
X13492697Y618303D01*
X13562186Y581160D01*
X13637586Y558288D01*
X13716000Y550565D01*
X13735646Y552500D01*
X15855354Y552500D01*
X15875000Y550565D01*
X15894646Y552500D01*
X15894647Y552500D01*
X15953414Y558288D01*
X16028814Y581160D01*
X16098303Y618303D01*
X16159211Y668289D01*
X16171737Y683552D01*
X17262940Y1774754D01*
X17278197Y1787275D01*
X17328183Y1848183D01*
X17365326Y1917672D01*
X17388198Y1993072D01*
X17393986Y2051839D01*
X17393986Y2051849D01*
X17395920Y2071485D01*
X17393986Y2091121D01*
X17393986Y5566967D01*
X17395921Y5586614D01*
X17388198Y5665028D01*
X17365326Y5740428D01*
X17328183Y5809917D01*
X17317438Y5823010D01*
X17278197Y5870825D01*
X17262934Y5883351D01*
X16757600Y6388685D01*
X16757600Y7390413D01*
X16997955Y7630767D01*
X17013212Y7643288D01*
X17040913Y7677041D01*
X17058330Y7698264D01*
X17063198Y7704196D01*
X17100341Y7773685D01*
X17123213Y7849085D01*
X17129001Y7907852D01*
X17129001Y7907862D01*
X17130935Y7927498D01*
X17129001Y7947134D01*
X17129001Y8289816D01*
X17300685Y8461499D01*
X17540355Y8461499D01*
X17560001Y8459564D01*
X17579647Y8461499D01*
X17579648Y8461499D01*
X17638415Y8467287D01*
X17713815Y8490159D01*
X17783304Y8527302D01*
X17844212Y8577288D01*
X17856738Y8592551D01*
X17884632Y8620445D01*
X17905461Y8637539D01*
X17917987Y8652802D01*
X19128454Y9863268D01*
X19143711Y9875789D01*
X19160013Y9895652D01*
X19193697Y9936697D01*
X19198650Y9945964D01*
X19198946Y9946260D01*
X19214212Y9958788D01*
X19264198Y10019696D01*
X19301341Y10089185D01*
X19324213Y10164585D01*
X19330001Y10223352D01*
X19330001Y10223362D01*
X19331935Y10242998D01*
X19330001Y10262634D01*
X19330001Y11339864D01*
X19331935Y11359500D01*
X19330001Y11379136D01*
X19330001Y11379146D01*
X19324213Y11437913D01*
X19301341Y11513313D01*
X19264198Y11582802D01*
X19214212Y11643710D01*
X19198954Y11656232D01*
X18942000Y11913185D01*
X18942000Y12216815D01*
X19198955Y12473769D01*
X19214212Y12486290D01*
X19264198Y12547198D01*
X19301341Y12616687D01*
X19324213Y12692087D01*
X19330001Y12750854D01*
X19330001Y12750864D01*
X19331935Y12770500D01*
X19330001Y12790136D01*
X19330001Y13879864D01*
X19331935Y13899500D01*
X19330001Y13919136D01*
X19330001Y13919146D01*
X19324213Y13977913D01*
X19301341Y14053313D01*
X19264198Y14122802D01*
X19214212Y14183710D01*
X19198954Y14196232D01*
X18942000Y14453185D01*
X18942000Y14769313D01*
X19198955Y15026267D01*
X19214212Y15038788D01*
X19227470Y15054942D01*
X19264197Y15099695D01*
X19264198Y15099696D01*
X19301341Y15169185D01*
X19324213Y15244585D01*
X19330001Y15303352D01*
X19330001Y15303362D01*
X19331935Y15322998D01*
X19330001Y15342634D01*
X19330001Y17131615D01*
X19636454Y17438067D01*
X19651711Y17450588D01*
X19671591Y17474811D01*
X19701697Y17511496D01*
X19725598Y17556211D01*
X19738840Y17580985D01*
X19761712Y17656385D01*
X19767500Y17715152D01*
X19767500Y17715153D01*
X19769435Y17734798D01*
X19767500Y17754445D01*
X19767500Y32047854D01*
X19769435Y32067501D01*
X19761712Y32145914D01*
X19755086Y32167757D01*
X19738840Y32221314D01*
X19701697Y32290803D01*
X19688744Y32306586D01*
X19664235Y32336451D01*
X19664233Y32336453D01*
X19651711Y32351711D01*
X19636453Y32364233D01*
X18825857Y33174829D01*
X18885806Y33319557D01*
X18930000Y33541735D01*
X18930000Y33768265D01*
X18885806Y33990443D01*
X18799116Y34199729D01*
X18673263Y34388082D01*
X18513082Y34548263D01*
X18324729Y34674116D01*
X18115443Y34760806D01*
X17893265Y34805000D01*
X17666735Y34805000D01*
X17444557Y34760806D01*
X17235271Y34674116D01*
X17046918Y34548263D01*
X16973500Y34474845D01*
X16973500Y35141740D01*
X16978213Y35148793D01*
X17023442Y35257986D01*
X17034596Y35314059D01*
X17046918Y35301737D01*
X17235271Y35175884D01*
X17444557Y35089194D01*
X17666735Y35045000D01*
X17893265Y35045000D01*
X18115443Y35089194D01*
X18324729Y35175884D01*
X18513082Y35301737D01*
X18673263Y35461918D01*
X18799116Y35650271D01*
X18885806Y35859557D01*
X18930000Y36081735D01*
X18930000Y36308265D01*
X18885806Y36530443D01*
X18799116Y36739729D01*
X18673263Y36928082D01*
X18513082Y37088263D01*
X18324729Y37214116D01*
X18115443Y37300806D01*
X17893265Y37345000D01*
X17666735Y37345000D01*
X17444557Y37300806D01*
X17235271Y37214116D01*
X17046918Y37088263D01*
X16886737Y36928082D01*
X16760884Y36739729D01*
X16674194Y36530443D01*
X16630000Y36308265D01*
X16630000Y36081735D01*
X16646325Y35999665D01*
X16621514Y36009942D01*
X16505595Y36033000D01*
X16387405Y36033000D01*
X16271486Y36009942D01*
X16162293Y35964713D01*
X16064022Y35899050D01*
X15980450Y35815478D01*
X15914787Y35717207D01*
X15869558Y35608014D01*
X15846500Y35492095D01*
X15846500Y35373905D01*
X15869558Y35257986D01*
X15914787Y35148793D01*
X15980450Y35050522D01*
X16064022Y34966950D01*
X16162293Y34901287D01*
X16173501Y34896645D01*
X16173500Y33079196D01*
X15306375Y32212070D01*
X15340257Y32275459D01*
X15344911Y32290802D01*
X15365989Y32360285D01*
X15372500Y32426395D01*
X15372500Y32426405D01*
X15374676Y32448499D01*
X15372500Y32470593D01*
X15372500Y33188409D01*
X15374676Y33210501D01*
X15372500Y33232593D01*
X15372500Y33232605D01*
X15365989Y33298715D01*
X15340257Y33383541D01*
X15298472Y33461715D01*
X15298471Y33461717D01*
X15256328Y33513068D01*
X15256324Y33513072D01*
X15242237Y33530237D01*
X15225073Y33544323D01*
X13287829Y35481566D01*
X13273737Y35498737D01*
X13205216Y35554971D01*
X13127041Y35596757D01*
X13042215Y35622489D01*
X12976105Y35629000D01*
X12976094Y35629000D01*
X12954000Y35631176D01*
X12931906Y35629000D01*
X10817094Y35629000D01*
X10795000Y35631176D01*
X10772906Y35629000D01*
X10772895Y35629000D01*
X10706785Y35622489D01*
X10621959Y35596757D01*
X10543783Y35554971D01*
X10492432Y35512828D01*
X10492428Y35512824D01*
X10475263Y35498737D01*
X10461176Y35481572D01*
X9857429Y34877824D01*
X9840264Y34863737D01*
X9826177Y34846572D01*
X9826172Y34846567D01*
X9784029Y34795216D01*
X9742243Y34717040D01*
X9716512Y34632215D01*
X9707824Y34544000D01*
X9710001Y34521896D01*
X9710001Y34182000D01*
X9008517Y34182000D01*
X8942467Y34248050D01*
X8844196Y34313713D01*
X8735003Y34358942D01*
X8619084Y34382000D01*
X8500894Y34382000D01*
X8384975Y34358942D01*
X8275782Y34313713D01*
X8177511Y34248050D01*
X8093939Y34164478D01*
X8028276Y34066207D01*
X7983047Y33957014D01*
X7959989Y33841095D01*
X7959989Y33722905D01*
X7983047Y33606986D01*
X8028276Y33497793D01*
X8093939Y33399522D01*
X8177511Y33315950D01*
X8275782Y33250287D01*
X8384975Y33205058D01*
X8500894Y33182000D01*
X8619084Y33182000D01*
X8735003Y33205058D01*
X8844196Y33250287D01*
X8942467Y33315950D01*
X9008517Y33382000D01*
X9711472Y33382000D01*
X9777522Y33315950D01*
X9875793Y33250287D01*
X9984986Y33205058D01*
X10100905Y33182000D01*
X10219095Y33182000D01*
X10335014Y33205058D01*
X10444207Y33250287D01*
X10542478Y33315950D01*
X10626050Y33399522D01*
X10691713Y33497793D01*
X10736942Y33606986D01*
X10760000Y33722905D01*
X10760000Y33841095D01*
X10736942Y33957014D01*
X10691713Y34066207D01*
X10626050Y34164478D01*
X10610000Y34180528D01*
X10610000Y34357605D01*
X10981396Y34729000D01*
X12767605Y34729000D01*
X14472500Y33024104D01*
X14472501Y32634897D01*
X13921433Y32083828D01*
X13904263Y32069737D01*
X13890172Y32052567D01*
X13848029Y32001216D01*
X13827982Y31963710D01*
X13806243Y31923040D01*
X13780511Y31838214D01*
X13774000Y31772104D01*
X13774000Y31772094D01*
X13771824Y31750000D01*
X13774000Y31727905D01*
X13774001Y31148112D01*
X13771824Y31126008D01*
X13780512Y31037793D01*
X13806243Y30952968D01*
X13848029Y30874792D01*
X13890172Y30823441D01*
X13890177Y30823436D01*
X13904264Y30806271D01*
X13921429Y30792184D01*
X14312542Y30401070D01*
X14265950Y30354478D01*
X14200287Y30256207D01*
X14155058Y30147014D01*
X14132000Y30031095D01*
X14132000Y29912905D01*
X14155058Y29796986D01*
X14200287Y29687793D01*
X14265950Y29589522D01*
X14349522Y29505950D01*
X14447793Y29440287D01*
X14556986Y29395058D01*
X14672905Y29372000D01*
X14763885Y29372000D01*
X14765289Y29370289D01*
X14780547Y29357767D01*
X14780549Y29357765D01*
X14826197Y29320303D01*
X14895686Y29283160D01*
X14971086Y29260288D01*
X15049500Y29252565D01*
X15069147Y29254500D01*
X16850935Y29254500D01*
X16760884Y29119729D01*
X16674194Y28910443D01*
X16630000Y28688265D01*
X16630000Y28461735D01*
X16674194Y28239557D01*
X16760884Y28030271D01*
X16886737Y27841918D01*
X17046918Y27681737D01*
X17235271Y27555884D01*
X17444557Y27469194D01*
X17666735Y27425000D01*
X17893265Y27425000D01*
X18115443Y27469194D01*
X18324729Y27555884D01*
X18513082Y27681737D01*
X18673263Y27841918D01*
X18799116Y28030271D01*
X18885806Y28239557D01*
X18930000Y28461735D01*
X18930000Y28688265D01*
X18885806Y28910443D01*
X18799116Y29119729D01*
X18673263Y29308082D01*
X18513082Y29468263D01*
X18324729Y29594116D01*
X18115443Y29680806D01*
X17893265Y29725000D01*
X17732885Y29725000D01*
X17745000Y29785907D01*
X17745000Y29904097D01*
X17732885Y29965000D01*
X17893265Y29965000D01*
X18115443Y30009194D01*
X18175978Y30034269D01*
X18190548Y29961023D01*
X18235777Y29851830D01*
X18301440Y29753559D01*
X18385012Y29669987D01*
X18483283Y29604324D01*
X18592476Y29559095D01*
X18708395Y29536037D01*
X18826585Y29536037D01*
X18942504Y29559095D01*
X18967501Y29569449D01*
X18967501Y25666187D01*
X18893824Y25739864D01*
X18930000Y25921735D01*
X18930000Y26148265D01*
X18885806Y26370443D01*
X18799116Y26579729D01*
X18673263Y26768082D01*
X18513082Y26928263D01*
X18324729Y27054116D01*
X18115443Y27140806D01*
X17893265Y27185000D01*
X17666735Y27185000D01*
X17444557Y27140806D01*
X17235271Y27054116D01*
X17046918Y26928263D01*
X16886737Y26768082D01*
X16760884Y26579729D01*
X16674194Y26370443D01*
X16630000Y26148265D01*
X16630000Y25921735D01*
X16674194Y25699557D01*
X16760884Y25490271D01*
X16886737Y25301918D01*
X17046918Y25141737D01*
X17235271Y25015884D01*
X17444557Y24929194D01*
X17666735Y24885000D01*
X17893265Y24885000D01*
X18115443Y24929194D01*
X18324729Y25015884D01*
X18421663Y25080653D01*
X18567489Y24934827D01*
X18567489Y24333856D01*
X18513082Y24388263D01*
X18324729Y24514116D01*
X18115443Y24600806D01*
X17893265Y24645000D01*
X17666735Y24645000D01*
X17444557Y24600806D01*
X17235271Y24514116D01*
X17046918Y24388263D01*
X16886737Y24228082D01*
X16760884Y24039729D01*
X16674194Y23830443D01*
X16630000Y23608265D01*
X16630000Y23381735D01*
X16674194Y23159557D01*
X16760884Y22950271D01*
X16886737Y22761918D01*
X17046918Y22601737D01*
X17068578Y22587264D01*
X16133058Y21651743D01*
X16117800Y21639221D01*
X16105278Y21623963D01*
X16105275Y21623960D01*
X16067813Y21578312D01*
X16030671Y21508824D01*
X16007798Y21433423D01*
X16000075Y21355010D01*
X16002011Y21335354D01*
X16002010Y20758695D01*
X15836315Y20593000D01*
X8928685Y20593000D01*
X8782000Y20739685D01*
X8782000Y22284472D01*
X8848050Y22350522D01*
X8913713Y22448793D01*
X8958942Y22557986D01*
X8982000Y22673905D01*
X8982000Y22792095D01*
X8958942Y22908014D01*
X8913713Y23017207D01*
X8848050Y23115478D01*
X8764478Y23199050D01*
X8666207Y23264713D01*
X8557014Y23309942D01*
X8526292Y23316053D01*
X8537500Y23372401D01*
X8537500Y23490591D01*
X8514442Y23606510D01*
X8469213Y23715703D01*
X8403550Y23813974D01*
X8319978Y23897546D01*
X8221707Y23963209D01*
X8112514Y24008438D01*
X7996595Y24031496D01*
X7878405Y24031496D01*
X7762486Y24008438D01*
X7653293Y23963209D01*
X7555022Y23897546D01*
X7471450Y23813974D01*
X7405787Y23715703D01*
X7360558Y23606510D01*
X7337500Y23490591D01*
X7337500Y23372401D01*
X7341642Y23351580D01*
X7324323Y23294490D01*
X7287014Y23309944D01*
X7171095Y23333002D01*
X7052905Y23333002D01*
X6936986Y23309944D01*
X6911999Y23299594D01*
X6911999Y23640362D01*
X7035742Y23764105D01*
X7129152Y23764105D01*
X7245071Y23787163D01*
X7354264Y23832392D01*
X7452535Y23898055D01*
X7536107Y23981627D01*
X7601770Y24079898D01*
X7646999Y24189091D01*
X7670057Y24305010D01*
X7670057Y24423200D01*
X7646999Y24539119D01*
X7601770Y24648312D01*
X7536107Y24746583D01*
X7452535Y24830155D01*
X7354264Y24895818D01*
X7245071Y24941047D01*
X7129152Y24964105D01*
X7010962Y24964105D01*
X6960531Y24954074D01*
X7291322Y25284864D01*
X7384731Y25284864D01*
X7500650Y25307922D01*
X7609843Y25353151D01*
X7708114Y25418814D01*
X7791686Y25502386D01*
X7857349Y25600657D01*
X7902578Y25709850D01*
X7925636Y25825769D01*
X7925636Y25943959D01*
X7902578Y26059878D01*
X7857349Y26169071D01*
X7791686Y26267342D01*
X7708114Y26350914D01*
X7609843Y26416577D01*
X7500650Y26461806D01*
X7384731Y26484864D01*
X7266541Y26484864D01*
X7150622Y26461806D01*
X7041429Y26416577D01*
X6943158Y26350914D01*
X6859586Y26267342D01*
X6793923Y26169071D01*
X6748694Y26059878D01*
X6725636Y25943959D01*
X6725636Y25850550D01*
X5843037Y24967950D01*
X5827779Y24955428D01*
X5815257Y24940170D01*
X5815254Y24940167D01*
X5777792Y24894519D01*
X5740650Y24825031D01*
X5717777Y24749630D01*
X5710054Y24671217D01*
X4847600Y24671217D01*
X5719382Y25542999D01*
X5857353Y25542999D01*
X5876999Y25541064D01*
X5896645Y25542999D01*
X5896646Y25542999D01*
X5955413Y25548787D01*
X6030813Y25571659D01*
X6100302Y25608802D01*
X6161210Y25658788D01*
X6173736Y25674051D01*
X6428454Y25928768D01*
X6443711Y25941289D01*
X6460805Y25962119D01*
X6618944Y26120258D01*
X6634211Y26132787D01*
X6684197Y26193695D01*
X6721340Y26263184D01*
X6744212Y26338584D01*
X6750000Y26397351D01*
X6750000Y26397352D01*
X6751935Y26416998D01*
X6750000Y26436645D01*
X6750000Y27393315D01*
X8103186Y28746500D01*
X10394354Y28746500D01*
X10414000Y28744565D01*
X10433646Y28746500D01*
X10433647Y28746500D01*
X10492414Y28752288D01*
X10567814Y28775160D01*
X10637303Y28812303D01*
X10698211Y28862289D01*
X10710737Y28877552D01*
X11127454Y29294268D01*
X11142711Y29306789D01*
X11157658Y29325001D01*
X11192697Y29367697D01*
X11229840Y29437185D01*
X11252712Y29512586D01*
X11260435Y29591000D01*
X11258500Y29610646D01*
X11258500Y31901815D01*
X11804488Y32447803D01*
X11819750Y32460328D01*
X11869736Y32521236D01*
X11906879Y32590725D01*
X11929751Y32666125D01*
X11935539Y32724892D01*
X11935539Y32724893D01*
X11937474Y32744539D01*
X11935539Y32764186D01*
X11935539Y33483222D01*
X12001589Y33549272D01*
X12067252Y33647543D01*
X12112481Y33756736D01*
X12135539Y33872655D01*
X12135539Y33990845D01*
X12112481Y34106764D01*
X12067252Y34215957D01*
X12001589Y34314228D01*
X11918017Y34397800D01*
X11819746Y34463463D01*
X11710553Y34508692D01*
X11594634Y34531750D01*
X11476444Y34531750D01*
X11360525Y34508692D01*
X11251332Y34463463D01*
X11153061Y34397800D01*
X11069489Y34314228D01*
X11003826Y34215957D01*
X10958597Y34106764D01*
X10935539Y33990845D01*
X10935539Y33872655D01*
X10958597Y33756736D01*
X11003826Y33647543D01*
X11069489Y33549272D01*
X11135540Y33483221D01*
X11135539Y32910224D01*
X10589548Y32364233D01*
X10574290Y32351711D01*
X10561768Y32336453D01*
X10561765Y32336450D01*
X10524303Y32290802D01*
X10487161Y32221314D01*
X10464288Y32145913D01*
X10456565Y32067500D01*
X10458501Y32047844D01*
X10458500Y29756686D01*
X10248315Y29546500D01*
X7957146Y29546500D01*
X7937499Y29548435D01*
X7917853Y29546500D01*
X7859086Y29540712D01*
X7783686Y29517840D01*
X7714197Y29480697D01*
X7668549Y29443235D01*
X7668547Y29443233D01*
X7653289Y29430711D01*
X7640767Y29415453D01*
X6185884Y27960569D01*
X6103783Y28042670D01*
X6005512Y28108333D01*
X5896319Y28153562D01*
X5780400Y28176620D01*
X5662210Y28176620D01*
X5546291Y28153562D01*
X5437098Y28108333D01*
X5338827Y28042670D01*
X5255255Y27959098D01*
X5189592Y27860827D01*
X5184687Y27848984D01*
X5181887Y27845573D01*
X3771315Y26435000D01*
X3619065Y26435000D01*
X3559116Y26579729D01*
X3433263Y26768082D01*
X3273082Y26928263D01*
X3084729Y27054116D01*
X2875443Y27140806D01*
X2653265Y27185000D01*
X2426735Y27185000D01*
X2204557Y27140806D01*
X1995271Y27054116D01*
X1806918Y26928263D01*
X1646737Y26768082D01*
X1600030Y26698180D01*
X1600030Y27911820D01*
X1646737Y27841918D01*
X1806918Y27681737D01*
X1995271Y27555884D01*
X2204557Y27469194D01*
X2426735Y27425000D01*
X2653265Y27425000D01*
X2875443Y27469194D01*
X2967181Y27507194D01*
X2979058Y27447486D01*
X3024287Y27338293D01*
X3089950Y27240022D01*
X3173522Y27156450D01*
X3271793Y27090787D01*
X3380986Y27045558D01*
X3496905Y27022500D01*
X3615095Y27022500D01*
X3731014Y27045558D01*
X3840207Y27090787D01*
X3938478Y27156450D01*
X4022050Y27240022D01*
X4030702Y27252971D01*
X4096803Y27288303D01*
X4157711Y27338289D01*
X4170237Y27353552D01*
X6061685Y29245000D01*
X6155095Y29245000D01*
X6271014Y29268058D01*
X6380207Y29313287D01*
X6478478Y29378950D01*
X6562050Y29462522D01*
X6627713Y29560793D01*
X6672942Y29669986D01*
X6696000Y29785905D01*
X6696000Y29904095D01*
X6672942Y30020014D01*
X6627713Y30129207D01*
X6562050Y30227478D01*
X6500028Y30289500D01*
X6562050Y30351522D01*
X6627713Y30449793D01*
X6672942Y30558986D01*
X6696000Y30674905D01*
X6696000Y30793095D01*
X6672942Y30909014D01*
X6627713Y31018207D01*
X6562050Y31116478D01*
X6478478Y31200050D01*
X6380207Y31265713D01*
X6271014Y31310942D01*
X6155095Y31334000D01*
X6036905Y31334000D01*
X5920986Y31310942D01*
X5811793Y31265713D01*
X5713522Y31200050D01*
X5647472Y31134000D01*
X5456558Y31134000D01*
X5436911Y31135935D01*
X5358497Y31128212D01*
X5283097Y31105340D01*
X5213608Y31068197D01*
X5167960Y31030735D01*
X5167958Y31030733D01*
X5152700Y31018211D01*
X5140178Y31002953D01*
X3892495Y29755269D01*
X3823865Y29755269D01*
X3585185Y29993949D01*
X3572659Y30009212D01*
X3511751Y30059198D01*
X3442262Y30096341D01*
X3366862Y30119213D01*
X3308095Y30125001D01*
X3308094Y30125001D01*
X3288448Y30126936D01*
X3268802Y30125001D01*
X3128306Y30125001D01*
X3273082Y30221737D01*
X3433263Y30381918D01*
X3559116Y30570271D01*
X3645806Y30779557D01*
X3690000Y31001735D01*
X3690000Y31228265D01*
X3645806Y31450443D01*
X3559116Y31659729D01*
X3433263Y31848082D01*
X3273082Y32008263D01*
X3084729Y32134116D01*
X2875443Y32220806D01*
X2653265Y32265000D01*
X2426735Y32265000D01*
X2204557Y32220806D01*
X1995271Y32134116D01*
X1806918Y32008263D01*
X1646737Y31848082D01*
X1520884Y31659729D01*
X1434194Y31450443D01*
X1390000Y31228265D01*
X1390000Y31001735D01*
X1434194Y30779557D01*
X1520884Y30570271D01*
X1646737Y30381918D01*
X1806918Y30221737D01*
X1953834Y30123571D01*
X1909585Y30119213D01*
X1834185Y30096341D01*
X1764696Y30059198D01*
X1703788Y30009212D01*
X1691262Y29993949D01*
X1200020Y29502707D01*
X1200020Y32701835D01*
X1555961Y33057775D01*
X1646737Y32921918D01*
X1806918Y32761737D01*
X1995271Y32635884D01*
X2204557Y32549194D01*
X2426735Y32505000D01*
X2653265Y32505000D01*
X2875443Y32549194D01*
X3084729Y32635884D01*
X3273082Y32761737D01*
X3433263Y32921918D01*
X3559116Y33110271D01*
X3619065Y33255000D01*
X4302553Y33255000D01*
X5427294Y32130258D01*
X5427294Y32036849D01*
X5450352Y31920930D01*
X5495581Y31811737D01*
X5561244Y31713466D01*
X5644816Y31629894D01*
X5743087Y31564231D01*
X5852280Y31519002D01*
X5968199Y31495944D01*
X6086389Y31495944D01*
X6202308Y31519002D01*
X6311501Y31564231D01*
X6409772Y31629894D01*
X6493344Y31713466D01*
X6559007Y31811737D01*
X6604236Y31920930D01*
X6627294Y32036849D01*
X6627294Y32155039D01*
X6604236Y32270958D01*
X6559007Y32380151D01*
X6508006Y32456478D01*
X6562050Y32510522D01*
X6627713Y32608793D01*
X6672942Y32717986D01*
X6696000Y32833905D01*
X6696000Y32952095D01*
X6672942Y33068014D01*
X6627713Y33177207D01*
X6562050Y33275478D01*
X6478478Y33359050D01*
X6380207Y33424713D01*
X6271014Y33469942D01*
X6155095Y33493000D01*
X6036905Y33493000D01*
X5920986Y33469942D01*
X5857174Y33443511D01*
X4932237Y34368448D01*
X4919711Y34383711D01*
X4858803Y34433697D01*
X4789314Y34470840D01*
X4713914Y34493712D01*
X4655147Y34499500D01*
X4655146Y34499500D01*
X4635500Y34501435D01*
X4615854Y34499500D01*
X4440422Y34499500D01*
X3451183Y35488738D01*
X3559116Y35650271D01*
X3645806Y35859557D01*
X3690000Y36081735D01*
X3690000Y36308265D01*
X3645806Y36530443D01*
X3559116Y36739729D01*
X3433263Y36928082D01*
X3273082Y37088263D01*
X3084729Y37214116D01*
X2875443Y37300806D01*
X2653265Y37345000D01*
X2426735Y37345000D01*
X2204557Y37300806D01*
X1995271Y37214116D01*
X1806918Y37088263D01*
X1646737Y36928082D01*
X1520884Y36739729D01*
X1434194Y36530443D01*
X1390000Y36308265D01*
X1390000Y36081735D01*
X1434194Y35859557D01*
X1520884Y35650271D01*
X1646737Y35461918D01*
X1761485Y35347170D01*
X400000Y33985685D01*
X400000Y38848265D01*
X1390000Y38848265D01*
X1390000Y38621735D01*
X1434194Y38399557D01*
X1520884Y38190271D01*
X1646737Y38001918D01*
X1806918Y37841737D01*
X1995271Y37715884D01*
X2204557Y37629194D01*
X2426735Y37585000D01*
X2653265Y37585000D01*
X2875443Y37629194D01*
X3020172Y37689143D01*
X4680001Y36029314D01*
X4680000Y35008147D01*
X4678065Y34988500D01*
X4680699Y34961757D01*
X4685788Y34910087D01*
X4708660Y34834687D01*
X4745803Y34765198D01*
X4795789Y34704289D01*
X4811053Y34691762D01*
X4973759Y34529057D01*
X4986289Y34513789D01*
X5047197Y34463803D01*
X5103521Y34433697D01*
X5116686Y34426660D01*
X5192086Y34403788D01*
X5270500Y34396065D01*
X5290147Y34398000D01*
X6067319Y34398000D01*
X6891899Y33573420D01*
X6849407Y33509827D01*
X6804178Y33400634D01*
X6781120Y33284715D01*
X6781120Y33166525D01*
X6804178Y33050606D01*
X6849407Y32941413D01*
X6915070Y32843142D01*
X6998642Y32759570D01*
X7096913Y32693907D01*
X7206106Y32648678D01*
X7322025Y32625620D01*
X7440215Y32625620D01*
X7556134Y32648678D01*
X7665327Y32693907D01*
X7763598Y32759570D01*
X7847170Y32843142D01*
X7912833Y32941413D01*
X7958062Y33050606D01*
X7981120Y33166525D01*
X7981120Y33284715D01*
X7958062Y33400634D01*
X7912833Y33509827D01*
X7847170Y33608098D01*
X7780616Y33674652D01*
X7775332Y33728298D01*
X7752460Y33803698D01*
X7715317Y33873187D01*
X7665331Y33934095D01*
X7650073Y33946617D01*
X6529740Y35066949D01*
X6517215Y35082211D01*
X6456307Y35132197D01*
X6386818Y35169340D01*
X6311418Y35192212D01*
X6252651Y35198000D01*
X6252650Y35198000D01*
X6233004Y35199935D01*
X6213358Y35198000D01*
X5480000Y35198000D01*
X5480000Y36175365D01*
X5481934Y36195001D01*
X5480000Y36214637D01*
X5480000Y36214647D01*
X5474212Y36273414D01*
X5451340Y36348814D01*
X5414197Y36418303D01*
X5364211Y36479211D01*
X5348948Y36491737D01*
X3585857Y38254828D01*
X3645806Y38399557D01*
X3690000Y38621735D01*
X3690000Y38848265D01*
X16630000Y38848265D01*
X16630000Y38621735D01*
X16674194Y38399557D01*
X16760884Y38190271D01*
X16886737Y38001918D01*
X17046918Y37841737D01*
X17235271Y37715884D01*
X17444557Y37629194D01*
X17666735Y37585000D01*
X17893265Y37585000D01*
X18115443Y37629194D01*
X18324729Y37715884D01*
X18513082Y37841737D01*
X18673263Y38001918D01*
X18799116Y38190271D01*
X18885806Y38399557D01*
X18930000Y38621735D01*
X18930000Y38848265D01*
X18885806Y39070443D01*
X18799116Y39279729D01*
X18673263Y39468082D01*
X18513082Y39628263D01*
X18324729Y39754116D01*
X18115443Y39840806D01*
X17893265Y39885000D01*
X17666735Y39885000D01*
X17444557Y39840806D01*
X17235271Y39754116D01*
X17046918Y39628263D01*
X16886737Y39468082D01*
X16760884Y39279729D01*
X16674194Y39070443D01*
X16630000Y38848265D01*
X3690000Y38848265D01*
X3645806Y39070443D01*
X3559116Y39279729D01*
X3433263Y39468082D01*
X3273082Y39628263D01*
X3084729Y39754116D01*
X2875443Y39840806D01*
X2653265Y39885000D01*
X2426735Y39885000D01*
X2204557Y39840806D01*
X1995271Y39754116D01*
X1806918Y39628263D01*
X1646737Y39468082D01*
X1520884Y39279729D01*
X1434194Y39070443D01*
X1390000Y38848265D01*
X400000Y38848265D01*
X400000Y41030229D01*
X1314199Y41030229D01*
X1384795Y40797500D01*
X1500148Y40581306D01*
X1655461Y40391770D01*
X1844767Y40236176D01*
X2060790Y40120503D01*
X2295229Y40049197D01*
X2490000Y40125998D01*
X2490000Y41225000D01*
X2590000Y41225000D01*
X2590000Y40125998D01*
X2784771Y40049197D01*
X3019210Y40120503D01*
X3235233Y40236176D01*
X3424539Y40391770D01*
X3579852Y40581306D01*
X3695205Y40797500D01*
X3734366Y40926600D01*
X4940000Y40926600D01*
X4940000Y40376600D01*
X4967048Y40201979D01*
X5027643Y40035991D01*
X5119456Y39885013D01*
X5238959Y39754848D01*
X5381560Y39650498D01*
X5541779Y39575973D01*
X5650042Y39546875D01*
X5790000Y39628164D01*
X5790000Y40926600D01*
X5890000Y40926600D01*
X5890000Y39628164D01*
X6029958Y39546875D01*
X6138221Y39575973D01*
X6298440Y39650498D01*
X6441041Y39754848D01*
X6560544Y39885013D01*
X6652357Y40035991D01*
X6712952Y40201979D01*
X6740000Y40376600D01*
X6740000Y40926600D01*
X5890000Y40926600D01*
X5790000Y40926600D01*
X4940000Y40926600D01*
X3734366Y40926600D01*
X3765801Y41030229D01*
X3688913Y41225000D01*
X2590000Y41225000D01*
X2490000Y41225000D01*
X1391087Y41225000D01*
X1314199Y41030229D01*
X400000Y41030229D01*
X400000Y41519771D01*
X1314199Y41519771D01*
X1391087Y41325000D01*
X2490000Y41325000D01*
X2490000Y42424002D01*
X2590000Y42424002D01*
X2590000Y41325000D01*
X3688913Y41325000D01*
X3745887Y41469327D01*
X3786287Y41371793D01*
X3851950Y41273522D01*
X3935522Y41189950D01*
X4033793Y41124287D01*
X4142986Y41079058D01*
X4258905Y41056000D01*
X4377095Y41056000D01*
X4493014Y41079058D01*
X4602207Y41124287D01*
X4700478Y41189950D01*
X4784050Y41273522D01*
X4849713Y41371793D01*
X4894942Y41480986D01*
X4913961Y41576600D01*
X4940000Y41576600D01*
X4940000Y41026600D01*
X5790000Y41026600D01*
X5790000Y42325036D01*
X5650042Y42406325D01*
X5541779Y42377227D01*
X5381560Y42302702D01*
X5238959Y42198352D01*
X5119456Y42068187D01*
X5027643Y41917209D01*
X4967048Y41751221D01*
X4940000Y41576600D01*
X4913961Y41576600D01*
X4918000Y41596905D01*
X4918000Y41715095D01*
X4894942Y41831014D01*
X4849713Y41940207D01*
X4818000Y41987669D01*
X4818000Y42745277D01*
X4867950Y42670522D01*
X4951522Y42586950D01*
X5049793Y42521287D01*
X5158986Y42476058D01*
X5274905Y42453000D01*
X5393095Y42453000D01*
X5509014Y42476058D01*
X5618207Y42521287D01*
X5665669Y42553000D01*
X6650895Y42553000D01*
X7119906Y42083988D01*
X7087694Y42077581D01*
X6973952Y42030468D01*
X6871586Y41962069D01*
X6784531Y41875014D01*
X6716132Y41772648D01*
X6710284Y41758529D01*
X6652357Y41917209D01*
X6560544Y42068187D01*
X6441041Y42198352D01*
X6298440Y42302702D01*
X6138221Y42377227D01*
X6029958Y42406325D01*
X5890000Y42325036D01*
X5890000Y41026600D01*
X6740000Y41026600D01*
X6740000Y41144831D01*
X6784531Y41078186D01*
X6871586Y40991131D01*
X6973952Y40922732D01*
X7087694Y40875619D01*
X7208443Y40851600D01*
X7331557Y40851600D01*
X7452306Y40875619D01*
X7566048Y40922732D01*
X7668414Y40991131D01*
X7728457Y41051174D01*
X7905808Y40873823D01*
X7921473Y40854735D01*
X7997608Y40792253D01*
X8084470Y40745824D01*
X8150129Y40725907D01*
X8178719Y40717234D01*
X8276736Y40707580D01*
X8301296Y40709999D01*
X11975439Y40709999D01*
X11999999Y40707580D01*
X12024559Y40709999D01*
X12098016Y40717234D01*
X12192266Y40745824D01*
X12279128Y40792253D01*
X12355263Y40854735D01*
X12370928Y40873823D01*
X12569911Y41072806D01*
X12651586Y40991131D01*
X12753952Y40922732D01*
X12867694Y40875619D01*
X12988443Y40851600D01*
X13111557Y40851600D01*
X13232306Y40875619D01*
X13346048Y40922732D01*
X13351836Y40926600D01*
X13580000Y40926600D01*
X13580000Y40376600D01*
X13607048Y40201979D01*
X13667643Y40035991D01*
X13759456Y39885013D01*
X13878959Y39754848D01*
X14021560Y39650498D01*
X14181779Y39575973D01*
X14290042Y39546875D01*
X14430000Y39628164D01*
X14430000Y40926600D01*
X14530000Y40926600D01*
X14530000Y39628164D01*
X14669958Y39546875D01*
X14778221Y39575973D01*
X14938440Y39650498D01*
X15081041Y39754848D01*
X15200544Y39885013D01*
X15292357Y40035991D01*
X15352952Y40201979D01*
X15380000Y40376600D01*
X15380000Y40926600D01*
X14530000Y40926600D01*
X14430000Y40926600D01*
X13580000Y40926600D01*
X13351836Y40926600D01*
X13448414Y40991131D01*
X13535469Y41078186D01*
X13580000Y41144831D01*
X13580000Y41026600D01*
X14430000Y41026600D01*
X14430000Y41046600D01*
X14530000Y41046600D01*
X14530000Y41026600D01*
X15380000Y41026600D01*
X15380000Y41388265D01*
X16630000Y41388265D01*
X16630000Y41161735D01*
X16674194Y40939557D01*
X16760884Y40730271D01*
X16886737Y40541918D01*
X17046918Y40381737D01*
X17235271Y40255884D01*
X17444557Y40169194D01*
X17666735Y40125000D01*
X17893265Y40125000D01*
X18115443Y40169194D01*
X18324729Y40255884D01*
X18513082Y40381737D01*
X18673263Y40541918D01*
X18799116Y40730271D01*
X18885806Y40939557D01*
X18930000Y41161735D01*
X18930000Y41388265D01*
X18885806Y41610443D01*
X18799116Y41819729D01*
X18673263Y42008082D01*
X18513082Y42168263D01*
X18324729Y42294116D01*
X18115443Y42380806D01*
X17893265Y42425000D01*
X17666735Y42425000D01*
X17444557Y42380806D01*
X17235271Y42294116D01*
X17046918Y42168263D01*
X16886737Y42008082D01*
X16760884Y41819729D01*
X16674194Y41610443D01*
X16630000Y41388265D01*
X15380000Y41388265D01*
X15380000Y41510000D01*
X15855354Y41510000D01*
X15875000Y41508065D01*
X15894646Y41510000D01*
X15894647Y41510000D01*
X15953414Y41515788D01*
X16028814Y41538660D01*
X16098303Y41575803D01*
X16159211Y41625789D01*
X16171737Y41641052D01*
X16524949Y41994264D01*
X16540211Y42006789D01*
X16590197Y42067697D01*
X16627340Y42137186D01*
X16650212Y42212586D01*
X16650769Y42218241D01*
X16722050Y42289522D01*
X16787713Y42387793D01*
X16832942Y42496986D01*
X16856000Y42612905D01*
X16856000Y42673949D01*
X16871190Y42669341D01*
X16930000Y42663549D01*
X18630000Y42663549D01*
X18688810Y42669341D01*
X18745360Y42686496D01*
X18797477Y42714353D01*
X18843158Y42751842D01*
X18880647Y42797523D01*
X18908504Y42849640D01*
X18925659Y42906190D01*
X18931451Y42965000D01*
X18931451Y44665000D01*
X18925659Y44723810D01*
X18908504Y44780360D01*
X18880647Y44832477D01*
X18843158Y44878158D01*
X18797477Y44915647D01*
X18745360Y44943504D01*
X18688810Y44960659D01*
X18630000Y44966451D01*
X16930000Y44966451D01*
X16871190Y44960659D01*
X16814640Y44943504D01*
X16762523Y44915647D01*
X16716842Y44878158D01*
X16679353Y44832477D01*
X16651496Y44780360D01*
X16634341Y44723810D01*
X16628549Y44665000D01*
X16628549Y44310332D01*
X16602483Y44307765D01*
X16508233Y44279175D01*
X16421371Y44232746D01*
X16345236Y44170264D01*
X16329579Y44151186D01*
X16088415Y43910021D01*
X14851420Y43910021D01*
X14938440Y43950498D01*
X15081041Y44054848D01*
X15200544Y44185013D01*
X15292357Y44335991D01*
X15352952Y44501979D01*
X15380000Y44676600D01*
X15380000Y45076600D01*
X14530000Y45076600D01*
X14530000Y45056600D01*
X14430000Y45056600D01*
X14430000Y45076600D01*
X13580000Y45076600D01*
X13580000Y44676600D01*
X13607048Y44501979D01*
X13667643Y44335991D01*
X13759456Y44185013D01*
X13878959Y44054848D01*
X14021560Y43950498D01*
X14108580Y43910021D01*
X7787585Y43910021D01*
X7546428Y44151177D01*
X7530764Y44170264D01*
X7454629Y44232746D01*
X7367767Y44279175D01*
X7273517Y44307765D01*
X7200060Y44315000D01*
X7175500Y44317419D01*
X7150940Y44315000D01*
X6639592Y44315000D01*
X6652357Y44335991D01*
X6712952Y44501979D01*
X6740000Y44676600D01*
X6740000Y45076600D01*
X5890000Y45076600D01*
X5890000Y45056600D01*
X5790000Y45056600D01*
X5790000Y45076600D01*
X4940000Y45076600D01*
X4940000Y44676600D01*
X4967048Y44501979D01*
X5027643Y44335991D01*
X5040408Y44315000D01*
X4850549Y44315000D01*
X4825999Y44317418D01*
X4801449Y44315000D01*
X4801440Y44315000D01*
X4727983Y44307765D01*
X4633733Y44279175D01*
X4546871Y44232746D01*
X4470736Y44170264D01*
X4455079Y44151186D01*
X3981823Y43677929D01*
X3962736Y43662264D01*
X3900254Y43586129D01*
X3853825Y43499266D01*
X3841834Y43459736D01*
X3825235Y43405017D01*
X3815581Y43307000D01*
X3818000Y43282440D01*
X3818001Y41987670D01*
X3786287Y41940207D01*
X3741058Y41831014D01*
X3718000Y41715095D01*
X3718000Y41677353D01*
X3695205Y41752500D01*
X3579852Y41968694D01*
X3424539Y42158230D01*
X3235233Y42313824D01*
X3019210Y42429497D01*
X2784771Y42500803D01*
X2590000Y42424002D01*
X2490000Y42424002D01*
X2295229Y42500803D01*
X2060790Y42429497D01*
X1844767Y42313824D01*
X1655461Y42158230D01*
X1500148Y41968694D01*
X1384795Y41752500D01*
X1314199Y41519771D01*
X400000Y41519771D01*
X400000Y44665000D01*
X1388549Y44665000D01*
X1388549Y42965000D01*
X1394341Y42906190D01*
X1411496Y42849640D01*
X1439353Y42797523D01*
X1476842Y42751842D01*
X1522523Y42714353D01*
X1574640Y42686496D01*
X1631190Y42669341D01*
X1690000Y42663549D01*
X3390000Y42663549D01*
X3448810Y42669341D01*
X3505360Y42686496D01*
X3557477Y42714353D01*
X3603158Y42751842D01*
X3640647Y42797523D01*
X3668504Y42849640D01*
X3685659Y42906190D01*
X3691451Y42965000D01*
X3691451Y44665000D01*
X3685659Y44723810D01*
X3668504Y44780360D01*
X3640647Y44832477D01*
X3603158Y44878158D01*
X3557477Y44915647D01*
X3505360Y44943504D01*
X3448810Y44960659D01*
X3390000Y44966451D01*
X1690000Y44966451D01*
X1631190Y44960659D01*
X1574640Y44943504D01*
X1522523Y44915647D01*
X1476842Y44878158D01*
X1439353Y44832477D01*
X1411496Y44780360D01*
X1394341Y44723810D01*
X1388549Y44665000D01*
X400000Y44665000D01*
X400000Y45955000D01*
X5050625Y45955000D01*
X5027643Y45917209D01*
%TA.AperFunction,Conductor*%
D19*
G36*
X5027643Y45917209D02*
G01*
X4967048Y45751221D01*
X4940000Y45576600D01*
X4940000Y45176600D01*
X5790000Y45176600D01*
X5790000Y45196600D01*
X5890000Y45196600D01*
X5890000Y45176600D01*
X6740000Y45176600D01*
X6740000Y45576600D01*
X6712952Y45751221D01*
X6652357Y45917209D01*
X6629375Y45955000D01*
X13690625Y45955000D01*
X13667643Y45917209D01*
X13607048Y45751221D01*
X13580000Y45576600D01*
X13580000Y45176600D01*
X14430000Y45176600D01*
X14430000Y45196600D01*
X14530000Y45196600D01*
X14530000Y45176600D01*
X15380000Y45176600D01*
X15380000Y45576600D01*
X15352952Y45751221D01*
X15292357Y45917209D01*
X15269375Y45955000D01*
X19920000Y45955000D01*
X19920001Y8655000D01*
X18395353Y8655000D01*
X18374965Y8652992D01*
X18361781Y8652992D01*
X18356227Y8652408D01*
X18159174Y8630305D01*
X18123706Y8622766D01*
X18088151Y8615726D01*
X18082815Y8614075D01*
X17893808Y8554119D01*
X17860473Y8539831D01*
X17826964Y8526020D01*
X17822051Y8523364D01*
X17648291Y8427837D01*
X17618361Y8407343D01*
X17588183Y8387293D01*
X17583879Y8383733D01*
X17431982Y8256276D01*
X17406620Y8230378D01*
X17380891Y8204828D01*
X17377361Y8200500D01*
X17253112Y8045966D01*
X17233270Y8015644D01*
X17212987Y7985573D01*
X17210365Y7980642D01*
X17118499Y7804918D01*
X17104907Y7771277D01*
X17090870Y7737884D01*
X17089255Y7732537D01*
X17033270Y7542315D01*
X17026472Y7506679D01*
X17019187Y7471190D01*
X17018642Y7465631D01*
X17000671Y7268159D01*
X17000924Y7231907D01*
X17000671Y7195654D01*
X17001216Y7190095D01*
X17021943Y6992893D01*
X17029233Y6957378D01*
X17036026Y6921770D01*
X17037640Y6916423D01*
X17096275Y6727002D01*
X17110326Y6693577D01*
X17123906Y6659965D01*
X17126525Y6655039D01*
X17126527Y6655035D01*
X17126529Y6655032D01*
X17220839Y6480610D01*
X17241100Y6450571D01*
X17260963Y6420218D01*
X17264493Y6415890D01*
X17390887Y6263106D01*
X17416596Y6237576D01*
X17441976Y6211659D01*
X17446280Y6208099D01*
X17599942Y6082775D01*
X17630139Y6062712D01*
X17660052Y6042230D01*
X17664965Y6039573D01*
X17840043Y5946482D01*
X17873573Y5932662D01*
X17906885Y5918384D01*
X17912213Y5916735D01*
X17912219Y5916733D01*
X17912225Y5916732D01*
X18102047Y5859422D01*
X18137588Y5852385D01*
X18173069Y5844843D01*
X18178624Y5844259D01*
X18375966Y5824909D01*
X18375970Y5824909D01*
X18395353Y5823000D01*
X19920001Y5823000D01*
X19920000Y400000D01*
X400000Y400000D01*
X400000Y3140000D01*
X3928549Y3140000D01*
X3928549Y1940000D01*
X3939145Y1832417D01*
X3970526Y1728969D01*
X4021485Y1633630D01*
X4090065Y1550065D01*
X4173630Y1481485D01*
X4268969Y1430526D01*
X4372417Y1399145D01*
X4480000Y1388549D01*
X5680000Y1388549D01*
X5787583Y1399145D01*
X5891031Y1430526D01*
X5986370Y1481485D01*
X6069935Y1550065D01*
X6138515Y1633630D01*
X6189474Y1728969D01*
X6220855Y1832417D01*
X6231451Y1940000D01*
X6231451Y2653265D01*
X6470000Y2653265D01*
X6470000Y2426735D01*
X6514194Y2204557D01*
X6600884Y1995271D01*
X6726737Y1806918D01*
X6886918Y1646737D01*
X7075271Y1520884D01*
X7284557Y1434194D01*
X7506735Y1390000D01*
X7733265Y1390000D01*
X7955443Y1434194D01*
X8164729Y1520884D01*
X8353082Y1646737D01*
X8394305Y1687960D01*
X9378671Y1687960D01*
X9462750Y1495252D01*
X9679967Y1379299D01*
X9915632Y1307951D01*
X10160689Y1283951D01*
X10405718Y1308220D01*
X10641305Y1379826D01*
X10857250Y1495252D01*
X10941329Y1687960D01*
X10160000Y2469289D01*
X9378671Y1687960D01*
X8394305Y1687960D01*
X8513263Y1806918D01*
X8639116Y1995271D01*
X8725806Y2204557D01*
X8770000Y2426735D01*
X8770000Y2539311D01*
X8903951Y2539311D01*
X8928220Y2294282D01*
X8999826Y2058695D01*
X9115252Y1842750D01*
X9307960Y1758671D01*
X10089289Y2540000D01*
X10230711Y2540000D01*
X11012040Y1758671D01*
X11204748Y1842750D01*
X11320701Y2059967D01*
X11392049Y2295632D01*
X11416049Y2540689D01*
X11391780Y2785718D01*
X11320174Y3021305D01*
X11204748Y3237250D01*
X11012040Y3321329D01*
X10230711Y2540000D01*
X10089289Y2540000D01*
X9307960Y3321329D01*
X9115252Y3237250D01*
X8999299Y3020033D01*
X8927951Y2784368D01*
X8903951Y2539311D01*
X8770000Y2539311D01*
X8770000Y2653265D01*
X8725806Y2875443D01*
X8639116Y3084729D01*
X8513263Y3273082D01*
X8394305Y3392040D01*
X9378671Y3392040D01*
X10160000Y2610711D01*
X10941329Y3392040D01*
X10857250Y3584748D01*
X10640033Y3700701D01*
X10404368Y3772049D01*
X10159311Y3796049D01*
X9914282Y3771780D01*
X9678695Y3700174D01*
X9462750Y3584748D01*
X9378671Y3392040D01*
X8394305Y3392040D01*
X8353082Y3433263D01*
X8164729Y3559116D01*
X7955443Y3645806D01*
X7733265Y3690000D01*
X7506735Y3690000D01*
X7284557Y3645806D01*
X7075271Y3559116D01*
X6886918Y3433263D01*
X6726737Y3273082D01*
X6600884Y3084729D01*
X6514194Y2875443D01*
X6470000Y2653265D01*
X6231451Y2653265D01*
X6231451Y3140000D01*
X6220855Y3247583D01*
X6189474Y3351031D01*
X6138515Y3446370D01*
X6069935Y3529935D01*
X5986370Y3598515D01*
X5891031Y3649474D01*
X5787583Y3680855D01*
X5680000Y3691451D01*
X4480000Y3691451D01*
X4372417Y3680855D01*
X4268969Y3649474D01*
X4173630Y3598515D01*
X4090065Y3529935D01*
X4021485Y3446370D01*
X3970526Y3351031D01*
X3939145Y3247583D01*
X3928549Y3140000D01*
X400000Y3140000D01*
X400000Y5823000D01*
X1924647Y5823000D01*
X1945035Y5825008D01*
X1958219Y5825008D01*
X1963774Y5825592D01*
X2160826Y5847695D01*
X2196287Y5855232D01*
X2231850Y5862274D01*
X2237185Y5863925D01*
X2426192Y5923882D01*
X2459520Y5938166D01*
X2493035Y5951980D01*
X2497948Y5954636D01*
X2671709Y6050163D01*
X2701623Y6070646D01*
X2731817Y6090707D01*
X2736117Y6094265D01*
X2736122Y6094268D01*
X2736126Y6094272D01*
X2888018Y6221723D01*
X2913399Y6247641D01*
X2939109Y6273172D01*
X2942639Y6277500D01*
X3066888Y6432034D01*
X3086750Y6462386D01*
X3107013Y6492427D01*
X3109635Y6497358D01*
X3201500Y6673082D01*
X3215084Y6706704D01*
X3229130Y6740117D01*
X3230745Y6745464D01*
X3286730Y6935685D01*
X3293531Y6971336D01*
X3300813Y7006810D01*
X3301358Y7012369D01*
X3319329Y7209841D01*
X3319076Y7246094D01*
X3319329Y7282347D01*
X3318784Y7287905D01*
X3298057Y7485107D01*
X3290765Y7520628D01*
X3283974Y7556230D01*
X3282360Y7561577D01*
X3223725Y7750998D01*
X3209663Y7784451D01*
X3196094Y7818035D01*
X3193472Y7822967D01*
X3099161Y7997390D01*
X3078888Y8027446D01*
X3059037Y8057781D01*
X3055511Y8062104D01*
X3055507Y8062110D01*
X3055502Y8062115D01*
X2929113Y8214894D01*
X2903404Y8240424D01*
X2878024Y8266341D01*
X2873720Y8269901D01*
X2720058Y8395225D01*
X2689861Y8415288D01*
X2659948Y8435770D01*
X2655035Y8438427D01*
X2479957Y8531518D01*
X2446427Y8545338D01*
X2413115Y8559616D01*
X2407787Y8561265D01*
X2407781Y8561267D01*
X2407775Y8561268D01*
X2217953Y8618578D01*
X2182404Y8625617D01*
X2146930Y8633157D01*
X2141376Y8633741D01*
X1944034Y8653091D01*
X1944030Y8653091D01*
X1924647Y8655000D01*
X400000Y8655000D01*
X400000Y9701317D01*
X1162769Y8938547D01*
X1175291Y8923289D01*
X1190549Y8910767D01*
X1190551Y8910765D01*
X1195508Y8906697D01*
X1236199Y8873303D01*
X1305688Y8836160D01*
X1381088Y8813288D01*
X1459502Y8805565D01*
X1479148Y8807500D01*
X2818815Y8807500D01*
X3219501Y8406814D01*
X3219500Y7893647D01*
X3217565Y7874000D01*
X3219500Y7854354D01*
X3225288Y7795587D01*
X3248160Y7720187D01*
X3285303Y7650698D01*
X3335289Y7589789D01*
X3350552Y7577263D01*
X3445000Y7482815D01*
X3444999Y6334648D01*
X3443064Y6315001D01*
X3447604Y6268904D01*
X3450787Y6236588D01*
X3473659Y6161188D01*
X3510802Y6091699D01*
X3560788Y6030790D01*
X3576051Y6018264D01*
X4034143Y5560171D01*
X3974194Y5415443D01*
X3930000Y5193265D01*
X3930000Y4966735D01*
X3974194Y4744557D01*
X4060884Y4535271D01*
X4186737Y4346918D01*
X4346918Y4186737D01*
X4535271Y4060884D01*
X4744557Y3974194D01*
X4966735Y3930000D01*
X5193265Y3930000D01*
X5415443Y3974194D01*
X5624729Y4060884D01*
X5813082Y4186737D01*
X5973263Y4346918D01*
X6099116Y4535271D01*
X6185806Y4744557D01*
X6230000Y4966735D01*
X6230000Y5193265D01*
X6185806Y5415443D01*
X6099116Y5624729D01*
X5973263Y5813082D01*
X5813082Y5973263D01*
X5624729Y6099116D01*
X5415443Y6185806D01*
X5193265Y6230000D01*
X4966735Y6230000D01*
X4744557Y6185806D01*
X4599829Y6125857D01*
X4244999Y6480686D01*
X4244999Y7628854D01*
X4246934Y7648501D01*
X4241449Y7704197D01*
X4241212Y7706600D01*
X4339429Y7726136D01*
X4439523Y7767597D01*
X4529604Y7827787D01*
X4606213Y7904396D01*
X4666403Y7994477D01*
X4707864Y8094571D01*
X4729000Y8200830D01*
X4729000Y8309170D01*
X5129000Y8309170D01*
X5129000Y8200830D01*
X5150136Y8094571D01*
X5191597Y7994477D01*
X5251787Y7904396D01*
X5328396Y7827787D01*
X5418477Y7767597D01*
X5518571Y7726136D01*
X5624830Y7705000D01*
X5733170Y7705000D01*
X5839429Y7726136D01*
X5939523Y7767597D01*
X6029604Y7827787D01*
X6106213Y7904396D01*
X6166403Y7994477D01*
X6207864Y8094571D01*
X6229000Y8200830D01*
X6229000Y8309170D01*
X6207864Y8415429D01*
X6166403Y8515523D01*
X6106213Y8605604D01*
X6029604Y8682213D01*
X5939523Y8742403D01*
X5839429Y8783864D01*
X5733170Y8805000D01*
X5624830Y8805000D01*
X5518571Y8783864D01*
X5418477Y8742403D01*
X5328396Y8682213D01*
X5251787Y8605604D01*
X5191597Y8515523D01*
X5150136Y8415429D01*
X5129000Y8309170D01*
X4729000Y8309170D01*
X4707864Y8415429D01*
X4666403Y8515523D01*
X4606213Y8605604D01*
X4529604Y8682213D01*
X4439523Y8742403D01*
X4339429Y8783864D01*
X4233170Y8805000D01*
X4124830Y8805000D01*
X4018571Y8783864D01*
X3970682Y8764027D01*
X3953697Y8795803D01*
X3903711Y8856711D01*
X3888448Y8869237D01*
X3512686Y9244999D01*
X6439514Y9244999D01*
X6935187Y8749325D01*
X6918477Y8742403D01*
X6828396Y8682213D01*
X6751787Y8605604D01*
X6691597Y8515523D01*
X6650136Y8415429D01*
X6629000Y8309170D01*
X6629000Y8200830D01*
X6650136Y8094571D01*
X6691597Y7994477D01*
X6751787Y7904396D01*
X6828396Y7827787D01*
X6918477Y7767597D01*
X7018571Y7726136D01*
X7124830Y7705000D01*
X7233170Y7705000D01*
X7339429Y7726136D01*
X7439523Y7767597D01*
X7474001Y7790634D01*
X7474001Y7274184D01*
X7351052Y7151235D01*
X7335789Y7138709D01*
X7285803Y7077800D01*
X7248660Y7008311D01*
X7230460Y6948313D01*
X7225788Y6932911D01*
X7218065Y6854498D01*
X7220000Y6834852D01*
X7220000Y6159065D01*
X7075271Y6099116D01*
X6886918Y5973263D01*
X6726737Y5813082D01*
X6600884Y5624729D01*
X6514194Y5415443D01*
X6470000Y5193265D01*
X6470000Y4966735D01*
X6514194Y4744557D01*
X6600884Y4535271D01*
X6726737Y4346918D01*
X6886918Y4186737D01*
X7075271Y4060884D01*
X7284557Y3974194D01*
X7506735Y3930000D01*
X7733265Y3930000D01*
X7955443Y3974194D01*
X8164729Y4060884D01*
X8353082Y4186737D01*
X8394305Y4227960D01*
X9378671Y4227960D01*
X9462750Y4035252D01*
X9679967Y3919299D01*
X9915632Y3847951D01*
X10160689Y3823951D01*
X10405718Y3848220D01*
X10641305Y3919826D01*
X10857250Y4035252D01*
X10941329Y4227960D01*
X10160000Y5009289D01*
X9378671Y4227960D01*
X8394305Y4227960D01*
X8513263Y4346918D01*
X8639116Y4535271D01*
X8725806Y4744557D01*
X8770000Y4966735D01*
X8770000Y5079311D01*
X8903951Y5079311D01*
X8928220Y4834282D01*
X8999826Y4598695D01*
X9115252Y4382750D01*
X9307960Y4298671D01*
X10089289Y5080000D01*
X10230711Y5080000D01*
X11012040Y4298671D01*
X11204748Y4382750D01*
X11320701Y4599967D01*
X11392049Y4835632D01*
X11416049Y5080689D01*
X11404899Y5193265D01*
X11550000Y5193265D01*
X11550000Y4966735D01*
X11594194Y4744557D01*
X11680884Y4535271D01*
X11806737Y4346918D01*
X11966918Y4186737D01*
X12155271Y4060884D01*
X12364557Y3974194D01*
X12586735Y3930000D01*
X12813265Y3930000D01*
X13035443Y3974194D01*
X13244729Y4060884D01*
X13433082Y4186737D01*
X13593263Y4346918D01*
X13719116Y4535271D01*
X13805806Y4744557D01*
X13850000Y4966735D01*
X13850000Y5193265D01*
X14090000Y5193265D01*
X14090000Y4966735D01*
X14134194Y4744557D01*
X14220884Y4535271D01*
X14346737Y4346918D01*
X14506918Y4186737D01*
X14695271Y4060884D01*
X14904557Y3974194D01*
X15126735Y3930000D01*
X15353265Y3930000D01*
X15575443Y3974194D01*
X15784729Y4060884D01*
X15973082Y4186737D01*
X16133263Y4346918D01*
X16259116Y4535271D01*
X16345806Y4744557D01*
X16390000Y4966735D01*
X16390000Y5193265D01*
X16345806Y5415443D01*
X16259116Y5624729D01*
X16133263Y5813082D01*
X15973082Y5973263D01*
X15784729Y6099116D01*
X15575443Y6185806D01*
X15353265Y6230000D01*
X15126735Y6230000D01*
X14904557Y6185806D01*
X14695271Y6099116D01*
X14506918Y5973263D01*
X14346737Y5813082D01*
X14220884Y5624729D01*
X14134194Y5415443D01*
X14090000Y5193265D01*
X13850000Y5193265D01*
X13805806Y5415443D01*
X13719116Y5624729D01*
X13593263Y5813082D01*
X13433082Y5973263D01*
X13244729Y6099116D01*
X13035443Y6185806D01*
X12813265Y6230000D01*
X12586735Y6230000D01*
X12364557Y6185806D01*
X12155271Y6099116D01*
X11966918Y5973263D01*
X11806737Y5813082D01*
X11680884Y5624729D01*
X11594194Y5415443D01*
X11550000Y5193265D01*
X11404899Y5193265D01*
X11391780Y5325718D01*
X11320174Y5561305D01*
X11204748Y5777250D01*
X11012040Y5861329D01*
X10230711Y5080000D01*
X10089289Y5080000D01*
X9307960Y5861329D01*
X9115252Y5777250D01*
X8999299Y5560033D01*
X8927951Y5324368D01*
X8903951Y5079311D01*
X8770000Y5079311D01*
X8770000Y5193265D01*
X8725806Y5415443D01*
X8639116Y5624729D01*
X8513263Y5813082D01*
X8394305Y5932040D01*
X9378671Y5932040D01*
X10160000Y5150711D01*
X10941329Y5932040D01*
X10857250Y6124748D01*
X10640033Y6240701D01*
X10404368Y6312049D01*
X10159311Y6336049D01*
X9914282Y6311780D01*
X9678695Y6240174D01*
X9462750Y6124748D01*
X9378671Y5932040D01*
X8394305Y5932040D01*
X8353082Y5973263D01*
X8164729Y6099116D01*
X8020000Y6159065D01*
X8020000Y6688813D01*
X8142948Y6811761D01*
X8158211Y6824287D01*
X8208197Y6885195D01*
X8245340Y6954684D01*
X8268212Y7030084D01*
X8274000Y7088851D01*
X8274000Y7088861D01*
X8275934Y7108497D01*
X8274000Y7128133D01*
X8274000Y7882183D01*
X8328396Y7827787D01*
X8418477Y7767597D01*
X8518571Y7726136D01*
X8624830Y7705000D01*
X8733170Y7705000D01*
X8839429Y7726136D01*
X8939523Y7767597D01*
X9029604Y7827787D01*
X9106213Y7904396D01*
X9166403Y7994477D01*
X9207864Y8094571D01*
X9229000Y8200830D01*
X9229000Y8309170D01*
X9629000Y8309170D01*
X9629000Y8200830D01*
X9650136Y8094571D01*
X9691597Y7994477D01*
X9751787Y7904396D01*
X9828396Y7827787D01*
X9918477Y7767597D01*
X10018571Y7726136D01*
X10124830Y7705000D01*
X10233170Y7705000D01*
X10339429Y7726136D01*
X10439523Y7767597D01*
X10529604Y7827787D01*
X10606213Y7904396D01*
X10666403Y7994477D01*
X10707864Y8094571D01*
X10729000Y8200830D01*
X10729000Y8309170D01*
X11129000Y8309170D01*
X11129000Y8200830D01*
X11150136Y8094571D01*
X11191597Y7994477D01*
X11251787Y7904396D01*
X11328396Y7827787D01*
X11418477Y7767597D01*
X11518571Y7726136D01*
X11624830Y7705000D01*
X11733170Y7705000D01*
X11839429Y7726136D01*
X11939523Y7767597D01*
X12029604Y7827787D01*
X12106213Y7904396D01*
X12166403Y7994477D01*
X12207864Y8094571D01*
X12229000Y8200830D01*
X12229000Y8309170D01*
X12629000Y8309170D01*
X12629000Y8200830D01*
X12650136Y8094571D01*
X12691597Y7994477D01*
X12751787Y7904396D01*
X12828396Y7827787D01*
X12918477Y7767597D01*
X13018571Y7726136D01*
X13124830Y7705000D01*
X13233170Y7705000D01*
X13339429Y7726136D01*
X13439523Y7767597D01*
X13529604Y7827787D01*
X13606213Y7904396D01*
X13666403Y7994477D01*
X13707864Y8094571D01*
X13729000Y8200830D01*
X13729000Y8309170D01*
X14129000Y8309170D01*
X14129000Y8200830D01*
X14150136Y8094571D01*
X14191597Y7994477D01*
X14251787Y7904396D01*
X14328396Y7827787D01*
X14418477Y7767597D01*
X14518571Y7726136D01*
X14624830Y7705000D01*
X14733170Y7705000D01*
X14839429Y7726136D01*
X14939523Y7767597D01*
X15029604Y7827787D01*
X15106213Y7904396D01*
X15166403Y7994477D01*
X15207864Y8094571D01*
X15229000Y8200830D01*
X15229000Y8309170D01*
X15207864Y8415429D01*
X15166403Y8515523D01*
X15106213Y8605604D01*
X15029604Y8682213D01*
X14939523Y8742403D01*
X14839429Y8783864D01*
X14733170Y8805000D01*
X14624830Y8805000D01*
X14518571Y8783864D01*
X14418477Y8742403D01*
X14328396Y8682213D01*
X14251787Y8605604D01*
X14191597Y8515523D01*
X14150136Y8415429D01*
X14129000Y8309170D01*
X13729000Y8309170D01*
X13707864Y8415429D01*
X13666403Y8515523D01*
X13606213Y8605604D01*
X13529604Y8682213D01*
X13439523Y8742403D01*
X13339429Y8783864D01*
X13233170Y8805000D01*
X13124830Y8805000D01*
X13018571Y8783864D01*
X12918477Y8742403D01*
X12828396Y8682213D01*
X12751787Y8605604D01*
X12691597Y8515523D01*
X12650136Y8415429D01*
X12629000Y8309170D01*
X12229000Y8309170D01*
X12207864Y8415429D01*
X12166403Y8515523D01*
X12106213Y8605604D01*
X12029604Y8682213D01*
X11939523Y8742403D01*
X11839429Y8783864D01*
X11733170Y8805000D01*
X11624830Y8805000D01*
X11518571Y8783864D01*
X11418477Y8742403D01*
X11328396Y8682213D01*
X11251787Y8605604D01*
X11191597Y8515523D01*
X11150136Y8415429D01*
X11129000Y8309170D01*
X10729000Y8309170D01*
X10707864Y8415429D01*
X10666403Y8515523D01*
X10606213Y8605604D01*
X10529604Y8682213D01*
X10439523Y8742403D01*
X10339429Y8783864D01*
X10233170Y8805000D01*
X10124830Y8805000D01*
X10018571Y8783864D01*
X9918477Y8742403D01*
X9828396Y8682213D01*
X9751787Y8605604D01*
X9691597Y8515523D01*
X9650136Y8415429D01*
X9629000Y8309170D01*
X9229000Y8309170D01*
X9207864Y8415429D01*
X9166403Y8515523D01*
X9106213Y8605604D01*
X9029604Y8682213D01*
X8939523Y8742403D01*
X8839429Y8783864D01*
X8733170Y8805000D01*
X8624830Y8805000D01*
X8518571Y8783864D01*
X8418477Y8742403D01*
X8328396Y8682213D01*
X8270802Y8624619D01*
X8268212Y8650914D01*
X8245340Y8726314D01*
X8208197Y8795803D01*
X8158211Y8856711D01*
X8142949Y8869236D01*
X7789737Y9222448D01*
X7777211Y9237711D01*
X7716303Y9287697D01*
X7646814Y9324840D01*
X7571414Y9347712D01*
X7512647Y9353500D01*
X7512646Y9353500D01*
X7493000Y9355435D01*
X7473354Y9353500D01*
X7462384Y9353500D01*
X6901936Y9913947D01*
X6889410Y9929210D01*
X6828502Y9979196D01*
X6759013Y10016339D01*
X6683613Y10039211D01*
X6624846Y10044999D01*
X6624845Y10044999D01*
X6605199Y10046934D01*
X6585553Y10044999D01*
X3416344Y10044999D01*
X3433263Y10061918D01*
X3559116Y10250271D01*
X3645806Y10459557D01*
X3690000Y10681735D01*
X3690000Y10908265D01*
X3645806Y11130443D01*
X3559116Y11339729D01*
X3433263Y11528082D01*
X3273082Y11688263D01*
X3084729Y11814116D01*
X2875443Y11900806D01*
X2653265Y11945000D01*
X2426735Y11945000D01*
X2204557Y11900806D01*
X1995271Y11814116D01*
X1806918Y11688263D01*
X1646737Y11528082D01*
X1520884Y11339729D01*
X1434194Y11130443D01*
X1390000Y10908265D01*
X1390000Y10681735D01*
X1434194Y10459557D01*
X1501629Y10296757D01*
X1200020Y10598365D01*
X1200020Y13448265D01*
X1390000Y13448265D01*
X1390000Y13221735D01*
X1434194Y12999557D01*
X1520884Y12790271D01*
X1646737Y12601918D01*
X1806918Y12441737D01*
X1995271Y12315884D01*
X2204557Y12229194D01*
X2426735Y12185000D01*
X2653265Y12185000D01*
X2875443Y12229194D01*
X3084729Y12315884D01*
X3273082Y12441737D01*
X3433263Y12601918D01*
X3559116Y12790271D01*
X3619065Y12935000D01*
X3917354Y12935000D01*
X3937000Y12933065D01*
X3956646Y12935000D01*
X3956647Y12935000D01*
X4015414Y12940788D01*
X4090814Y12963660D01*
X4160303Y13000803D01*
X4221211Y13050789D01*
X4233737Y13066052D01*
X5704780Y14537095D01*
X6956500Y14537095D01*
X6956500Y14418905D01*
X6979558Y14302986D01*
X7024787Y14193793D01*
X7090450Y14095522D01*
X7174022Y14011950D01*
X7272293Y13946287D01*
X7381486Y13901058D01*
X7497405Y13878000D01*
X7615595Y13878000D01*
X7731514Y13901058D01*
X7840707Y13946287D01*
X7938978Y14011950D01*
X8005028Y14078000D01*
X12187972Y14078000D01*
X12254022Y14011950D01*
X12352293Y13946287D01*
X12461486Y13901058D01*
X12577405Y13878000D01*
X12695595Y13878000D01*
X12811514Y13901058D01*
X12920707Y13946287D01*
X13018978Y14011950D01*
X13102550Y14095522D01*
X13168213Y14193793D01*
X13213442Y14302986D01*
X13236500Y14418905D01*
X13236500Y14537095D01*
X13213442Y14653014D01*
X13168213Y14762207D01*
X13102550Y14860478D01*
X13018978Y14944050D01*
X12920707Y15009713D01*
X12811514Y15054942D01*
X12695595Y15078000D01*
X12577405Y15078000D01*
X12461486Y15054942D01*
X12352293Y15009713D01*
X12254022Y14944050D01*
X12187972Y14878000D01*
X8005028Y14878000D01*
X7938978Y14944050D01*
X7840707Y15009713D01*
X7731514Y15054942D01*
X7615595Y15078000D01*
X7497405Y15078000D01*
X7381486Y15054942D01*
X7272293Y15009713D01*
X7174022Y14944050D01*
X7090450Y14860478D01*
X7024787Y14762207D01*
X6979558Y14653014D01*
X6956500Y14537095D01*
X5704780Y14537095D01*
X5934686Y14767000D01*
X6028095Y14767000D01*
X6144014Y14790058D01*
X6253207Y14835287D01*
X6351478Y14900950D01*
X6435050Y14984522D01*
X6500713Y15082793D01*
X6545942Y15191986D01*
X6569000Y15307905D01*
X6569000Y15426095D01*
X6545942Y15542014D01*
X6500713Y15651207D01*
X6435050Y15749478D01*
X6351478Y15833050D01*
X6253207Y15898713D01*
X6144014Y15943942D01*
X6028095Y15967000D01*
X5909905Y15967000D01*
X5793986Y15943942D01*
X5684793Y15898713D01*
X5586522Y15833050D01*
X5502950Y15749478D01*
X5437287Y15651207D01*
X5392058Y15542014D01*
X5369000Y15426095D01*
X5369000Y15332686D01*
X3771315Y13735000D01*
X3619065Y13735000D01*
X3559116Y13879729D01*
X3433263Y14068082D01*
X3273082Y14228263D01*
X3084729Y14354116D01*
X2875443Y14440806D01*
X2653265Y14485000D01*
X2426735Y14485000D01*
X2204557Y14440806D01*
X1995271Y14354116D01*
X1806918Y14228263D01*
X1646737Y14068082D01*
X1520884Y13879729D01*
X1434194Y13670443D01*
X1390000Y13448265D01*
X1200020Y13448265D01*
X1200020Y15630229D01*
X1314199Y15630229D01*
X1384795Y15397500D01*
X1500148Y15181306D01*
X1655461Y14991770D01*
X1844767Y14836176D01*
X2060790Y14720503D01*
X2295229Y14649197D01*
X2490000Y14725998D01*
X2490000Y15825000D01*
X2590000Y15825000D01*
X2590000Y14725998D01*
X2784771Y14649197D01*
X3019210Y14720503D01*
X3235233Y14836176D01*
X3424539Y14991770D01*
X3579852Y15181306D01*
X3695205Y15397500D01*
X3765801Y15630229D01*
X3688913Y15825000D01*
X2590000Y15825000D01*
X2490000Y15825000D01*
X1391087Y15825000D01*
X1314199Y15630229D01*
X1200020Y15630229D01*
X1200020Y16119771D01*
X1314199Y16119771D01*
X1391087Y15925000D01*
X2490000Y15925000D01*
X2490000Y17024002D01*
X2590000Y17024002D01*
X2590000Y15925000D01*
X3688913Y15925000D01*
X3765801Y16119771D01*
X3695205Y16352500D01*
X3579852Y16568694D01*
X3424539Y16758230D01*
X3235233Y16913824D01*
X3019210Y17029497D01*
X2784771Y17100803D01*
X2590000Y17024002D01*
X2490000Y17024002D01*
X2295229Y17100803D01*
X2060790Y17029497D01*
X1844767Y16913824D01*
X1655461Y16758230D01*
X1500148Y16568694D01*
X1384795Y16352500D01*
X1314199Y16119771D01*
X1200020Y16119771D01*
X1200020Y18528265D01*
X1390000Y18528265D01*
X1390000Y18301735D01*
X1434194Y18079557D01*
X1520884Y17870271D01*
X1646737Y17681918D01*
X1806918Y17521737D01*
X1995271Y17395884D01*
X2204557Y17309194D01*
X2426735Y17265000D01*
X2653265Y17265000D01*
X2875443Y17309194D01*
X3084729Y17395884D01*
X3273082Y17521737D01*
X3433263Y17681918D01*
X3559116Y17870271D01*
X3645806Y18079557D01*
X3690000Y18301735D01*
X3690000Y18528265D01*
X3645806Y18750443D01*
X3559116Y18959729D01*
X3433263Y19148082D01*
X3273082Y19308263D01*
X3084729Y19434116D01*
X2875443Y19520806D01*
X2653265Y19565000D01*
X2426735Y19565000D01*
X2204557Y19520806D01*
X1995271Y19434116D01*
X1806918Y19308263D01*
X1646737Y19148082D01*
X1520884Y18959729D01*
X1434194Y18750443D01*
X1390000Y18528265D01*
X1200020Y18528265D01*
X1200020Y22618295D01*
X1798767Y22019547D01*
X1811289Y22004289D01*
X1826547Y21991767D01*
X1826549Y21991765D01*
X1872197Y21954303D01*
X1924099Y21926561D01*
X1806918Y21848263D01*
X1646737Y21688082D01*
X1520884Y21499729D01*
X1434194Y21290443D01*
X1390000Y21068265D01*
X1390000Y20841735D01*
X1434194Y20619557D01*
X1520884Y20410271D01*
X1646737Y20221918D01*
X1806918Y20061737D01*
X1995271Y19935884D01*
X2204557Y19849194D01*
X2426735Y19805000D01*
X2653265Y19805000D01*
X2875443Y19849194D01*
X3084729Y19935884D01*
X3273082Y20061737D01*
X3433263Y20221918D01*
X3559116Y20410271D01*
X3645806Y20619557D01*
X3690000Y20841735D01*
X3690000Y21068265D01*
X3645806Y21290443D01*
X3567703Y21478999D01*
X3768351Y21478999D01*
X3787997Y21477064D01*
X3807643Y21478999D01*
X3807644Y21478999D01*
X3866411Y21484787D01*
X3941811Y21507659D01*
X4011300Y21544802D01*
X4072208Y21594788D01*
X4084734Y21610051D01*
X4367953Y21893269D01*
X4383210Y21905790D01*
X4433196Y21966698D01*
X4470339Y22036187D01*
X4493211Y22111587D01*
X4498999Y22170354D01*
X4498999Y22170364D01*
X4500933Y22190000D01*
X4498999Y22209636D01*
X4498999Y24322616D01*
X4847600Y24671217D01*
X5710054Y24671217D01*
X5711990Y24651561D01*
X5711989Y20219861D01*
X5710054Y20200215D01*
X5711989Y20180569D01*
X5717777Y20121802D01*
X5740649Y20046402D01*
X5777792Y19976913D01*
X5827778Y19916004D01*
X5843041Y19903478D01*
X7204528Y18541990D01*
X6915544Y18541990D01*
X6914550Y18543478D01*
X6830978Y18627050D01*
X6732707Y18692713D01*
X6623514Y18737942D01*
X6507595Y18761000D01*
X6389405Y18761000D01*
X6273486Y18737942D01*
X6164293Y18692713D01*
X6066022Y18627050D01*
X5982450Y18543478D01*
X5916787Y18445207D01*
X5871558Y18336014D01*
X5848500Y18220095D01*
X5848500Y18101905D01*
X5871558Y17985986D01*
X5916787Y17876793D01*
X5982450Y17778522D01*
X6066022Y17694950D01*
X6164293Y17629287D01*
X6273486Y17584058D01*
X6389405Y17561000D01*
X6507595Y17561000D01*
X6623514Y17584058D01*
X6732707Y17629287D01*
X6830978Y17694950D01*
X6878018Y17741990D01*
X12056929Y17741990D01*
X12741117Y17057802D01*
X12692277Y16984707D01*
X12647048Y16875514D01*
X12623990Y16759595D01*
X12623990Y16641405D01*
X12647048Y16525486D01*
X12692277Y16416293D01*
X12757940Y16318022D01*
X12841512Y16234450D01*
X12939783Y16168787D01*
X13048976Y16123558D01*
X13164895Y16100500D01*
X13283085Y16100500D01*
X13399004Y16123558D01*
X13423991Y16133908D01*
X13423990Y13183157D01*
X13422055Y13163510D01*
X13423990Y13143864D01*
X13429778Y13085097D01*
X13452650Y13009697D01*
X13489793Y12940208D01*
X13539779Y12879299D01*
X13555042Y12866773D01*
X15895767Y10526047D01*
X15908289Y10510789D01*
X15923547Y10498267D01*
X15923549Y10498265D01*
X15928506Y10494197D01*
X15969197Y10460803D01*
X16038686Y10423660D01*
X16114086Y10400788D01*
X16164731Y10395800D01*
X16192500Y10393065D01*
X16212146Y10395000D01*
X16700935Y10395000D01*
X16760884Y10250271D01*
X16886737Y10061918D01*
X17046918Y9901737D01*
X17235271Y9775884D01*
X17444557Y9689194D01*
X17666735Y9645000D01*
X17778815Y9645000D01*
X17395314Y9261499D01*
X17154645Y9261499D01*
X17134999Y9263434D01*
X17056585Y9255711D01*
X16981184Y9232839D01*
X16911696Y9195696D01*
X16866048Y9158234D01*
X16866046Y9158232D01*
X16850788Y9145710D01*
X16838266Y9130452D01*
X16460048Y8752233D01*
X16444791Y8739712D01*
X16444352Y8739177D01*
X16439523Y8742403D01*
X16339429Y8783864D01*
X16233170Y8805000D01*
X16124830Y8805000D01*
X16018571Y8783864D01*
X15918477Y8742403D01*
X15828396Y8682213D01*
X15751787Y8605604D01*
X15691597Y8515523D01*
X15650136Y8415429D01*
X15629000Y8309170D01*
X15629000Y8200830D01*
X15650136Y8094571D01*
X15691597Y7994477D01*
X15751787Y7904396D01*
X15828396Y7827787D01*
X15918477Y7767597D01*
X15999218Y7734153D01*
X15986261Y7709912D01*
X15963388Y7634511D01*
X15955665Y7556098D01*
X15957601Y7536442D01*
X15957600Y6242647D01*
X15955665Y6223000D01*
X15957600Y6203354D01*
X15963388Y6144587D01*
X15986260Y6069187D01*
X16023403Y5999698D01*
X16073389Y5938789D01*
X16088652Y5926263D01*
X16593987Y5420928D01*
X16593986Y2237172D01*
X15709315Y1352500D01*
X13881686Y1352500D01*
X13510265Y1723920D01*
X13593263Y1806918D01*
X13719116Y1995271D01*
X13805806Y2204557D01*
X13850000Y2426735D01*
X13850000Y2653265D01*
X14090000Y2653265D01*
X14090000Y2426735D01*
X14134194Y2204557D01*
X14220884Y1995271D01*
X14346737Y1806918D01*
X14506918Y1646737D01*
X14695271Y1520884D01*
X14904557Y1434194D01*
X15126735Y1390000D01*
X15353265Y1390000D01*
X15575443Y1434194D01*
X15784729Y1520884D01*
X15973082Y1646737D01*
X16133263Y1806918D01*
X16259116Y1995271D01*
X16345806Y2204557D01*
X16390000Y2426735D01*
X16390000Y2653265D01*
X16345806Y2875443D01*
X16259116Y3084729D01*
X16133263Y3273082D01*
X15973082Y3433263D01*
X15784729Y3559116D01*
X15575443Y3645806D01*
X15353265Y3690000D01*
X15126735Y3690000D01*
X14904557Y3645806D01*
X14695271Y3559116D01*
X14506918Y3433263D01*
X14346737Y3273082D01*
X14220884Y3084729D01*
X14134194Y2875443D01*
X14090000Y2653265D01*
X13850000Y2653265D01*
X13805806Y2875443D01*
X13719116Y3084729D01*
X13593263Y3273082D01*
X13433082Y3433263D01*
X13244729Y3559116D01*
X13035443Y3645806D01*
X12813265Y3690000D01*
X12586735Y3690000D01*
X12364557Y3645806D01*
X12155271Y3559116D01*
X11966918Y3433263D01*
X11806737Y3273082D01*
X11680884Y3084729D01*
X11594194Y2875443D01*
X11550000Y2653265D01*
X11550000Y2426735D01*
X11594194Y2204557D01*
X11680884Y1995271D01*
X11806737Y1806918D01*
X11966918Y1646737D01*
X12155271Y1520884D01*
X12364557Y1434194D01*
X12586735Y1390000D01*
X12712815Y1390000D01*
X13419267Y683547D01*
X13431789Y668289D01*
X13447047Y655767D01*
X13447049Y655765D01*
X13492697Y618303D01*
X13562186Y581160D01*
X13637586Y558288D01*
X13716000Y550565D01*
X13735646Y552500D01*
X15855354Y552500D01*
X15875000Y550565D01*
X15894646Y552500D01*
X15894647Y552500D01*
X15953414Y558288D01*
X16028814Y581160D01*
X16098303Y618303D01*
X16159211Y668289D01*
X16171737Y683552D01*
X17262940Y1774754D01*
X17278197Y1787275D01*
X17328183Y1848183D01*
X17365326Y1917672D01*
X17388198Y1993072D01*
X17393986Y2051839D01*
X17393986Y2051849D01*
X17395920Y2071485D01*
X17393986Y2091121D01*
X17393986Y5566967D01*
X17395921Y5586614D01*
X17388198Y5665028D01*
X17365326Y5740428D01*
X17328183Y5809917D01*
X17317438Y5823010D01*
X17278197Y5870825D01*
X17262934Y5883351D01*
X16757600Y6388685D01*
X16757600Y7390413D01*
X16997955Y7630767D01*
X17013212Y7643288D01*
X17040913Y7677041D01*
X17058330Y7698264D01*
X17063198Y7704196D01*
X17100341Y7773685D01*
X17123213Y7849085D01*
X17129001Y7907852D01*
X17129001Y7907862D01*
X17130935Y7927498D01*
X17129001Y7947134D01*
X17129001Y8289816D01*
X17300685Y8461499D01*
X17540355Y8461499D01*
X17560001Y8459564D01*
X17579647Y8461499D01*
X17579648Y8461499D01*
X17638415Y8467287D01*
X17713815Y8490159D01*
X17783304Y8527302D01*
X17844212Y8577288D01*
X17856738Y8592551D01*
X17884632Y8620445D01*
X17905461Y8637539D01*
X17917987Y8652802D01*
X19128454Y9863268D01*
X19143711Y9875789D01*
X19160013Y9895652D01*
X19193697Y9936697D01*
X19198650Y9945964D01*
X19198946Y9946260D01*
X19214212Y9958788D01*
X19264198Y10019696D01*
X19301341Y10089185D01*
X19324213Y10164585D01*
X19330001Y10223352D01*
X19330001Y10223362D01*
X19331935Y10242998D01*
X19330001Y10262634D01*
X19330001Y11339864D01*
X19331935Y11359500D01*
X19330001Y11379136D01*
X19330001Y11379146D01*
X19324213Y11437913D01*
X19301341Y11513313D01*
X19264198Y11582802D01*
X19214212Y11643710D01*
X19198954Y11656232D01*
X18942000Y11913185D01*
X18942000Y12216815D01*
X19198955Y12473769D01*
X19214212Y12486290D01*
X19264198Y12547198D01*
X19301341Y12616687D01*
X19324213Y12692087D01*
X19330001Y12750854D01*
X19330001Y12750864D01*
X19331935Y12770500D01*
X19330001Y12790136D01*
X19330001Y13879864D01*
X19331935Y13899500D01*
X19330001Y13919136D01*
X19330001Y13919146D01*
X19324213Y13977913D01*
X19301341Y14053313D01*
X19264198Y14122802D01*
X19214212Y14183710D01*
X19198954Y14196232D01*
X18942000Y14453185D01*
X18942000Y14769313D01*
X19198955Y15026267D01*
X19214212Y15038788D01*
X19227470Y15054942D01*
X19264197Y15099695D01*
X19264198Y15099696D01*
X19301341Y15169185D01*
X19324213Y15244585D01*
X19330001Y15303352D01*
X19330001Y15303362D01*
X19331935Y15322998D01*
X19330001Y15342634D01*
X19330001Y17131615D01*
X19636454Y17438067D01*
X19651711Y17450588D01*
X19671591Y17474811D01*
X19701697Y17511496D01*
X19725598Y17556211D01*
X19738840Y17580985D01*
X19761712Y17656385D01*
X19767500Y17715152D01*
X19767500Y17715153D01*
X19769435Y17734798D01*
X19767500Y17754445D01*
X19767500Y32047854D01*
X19769435Y32067501D01*
X19761712Y32145914D01*
X19755086Y32167757D01*
X19738840Y32221314D01*
X19701697Y32290803D01*
X19688744Y32306586D01*
X19664235Y32336451D01*
X19664233Y32336453D01*
X19651711Y32351711D01*
X19636453Y32364233D01*
X18825857Y33174829D01*
X18885806Y33319557D01*
X18930000Y33541735D01*
X18930000Y33768265D01*
X18885806Y33990443D01*
X18799116Y34199729D01*
X18673263Y34388082D01*
X18513082Y34548263D01*
X18324729Y34674116D01*
X18115443Y34760806D01*
X17893265Y34805000D01*
X17666735Y34805000D01*
X17444557Y34760806D01*
X17235271Y34674116D01*
X17046918Y34548263D01*
X16973500Y34474845D01*
X16973500Y35141740D01*
X16978213Y35148793D01*
X17023442Y35257986D01*
X17034596Y35314059D01*
X17046918Y35301737D01*
X17235271Y35175884D01*
X17444557Y35089194D01*
X17666735Y35045000D01*
X17893265Y35045000D01*
X18115443Y35089194D01*
X18324729Y35175884D01*
X18513082Y35301737D01*
X18673263Y35461918D01*
X18799116Y35650271D01*
X18885806Y35859557D01*
X18930000Y36081735D01*
X18930000Y36308265D01*
X18885806Y36530443D01*
X18799116Y36739729D01*
X18673263Y36928082D01*
X18513082Y37088263D01*
X18324729Y37214116D01*
X18115443Y37300806D01*
X17893265Y37345000D01*
X17666735Y37345000D01*
X17444557Y37300806D01*
X17235271Y37214116D01*
X17046918Y37088263D01*
X16886737Y36928082D01*
X16760884Y36739729D01*
X16674194Y36530443D01*
X16630000Y36308265D01*
X16630000Y36081735D01*
X16646325Y35999665D01*
X16621514Y36009942D01*
X16505595Y36033000D01*
X16387405Y36033000D01*
X16271486Y36009942D01*
X16162293Y35964713D01*
X16064022Y35899050D01*
X15980450Y35815478D01*
X15914787Y35717207D01*
X15869558Y35608014D01*
X15846500Y35492095D01*
X15846500Y35373905D01*
X15869558Y35257986D01*
X15914787Y35148793D01*
X15980450Y35050522D01*
X16064022Y34966950D01*
X16162293Y34901287D01*
X16173501Y34896645D01*
X16173500Y33079196D01*
X15306375Y32212070D01*
X15340257Y32275459D01*
X15344911Y32290802D01*
X15365989Y32360285D01*
X15372500Y32426395D01*
X15372500Y32426405D01*
X15374676Y32448499D01*
X15372500Y32470593D01*
X15372500Y33188409D01*
X15374676Y33210501D01*
X15372500Y33232593D01*
X15372500Y33232605D01*
X15365989Y33298715D01*
X15340257Y33383541D01*
X15298472Y33461715D01*
X15298471Y33461717D01*
X15256328Y33513068D01*
X15256324Y33513072D01*
X15242237Y33530237D01*
X15225073Y33544323D01*
X13287829Y35481566D01*
X13273737Y35498737D01*
X13205216Y35554971D01*
X13127041Y35596757D01*
X13042215Y35622489D01*
X12976105Y35629000D01*
X12976094Y35629000D01*
X12954000Y35631176D01*
X12931906Y35629000D01*
X10817094Y35629000D01*
X10795000Y35631176D01*
X10772906Y35629000D01*
X10772895Y35629000D01*
X10706785Y35622489D01*
X10621959Y35596757D01*
X10543783Y35554971D01*
X10492432Y35512828D01*
X10492428Y35512824D01*
X10475263Y35498737D01*
X10461176Y35481572D01*
X9857429Y34877824D01*
X9840264Y34863737D01*
X9826177Y34846572D01*
X9826172Y34846567D01*
X9784029Y34795216D01*
X9742243Y34717040D01*
X9716512Y34632215D01*
X9707824Y34544000D01*
X9710001Y34521896D01*
X9710001Y34182000D01*
X9008517Y34182000D01*
X8942467Y34248050D01*
X8844196Y34313713D01*
X8735003Y34358942D01*
X8619084Y34382000D01*
X8500894Y34382000D01*
X8384975Y34358942D01*
X8275782Y34313713D01*
X8177511Y34248050D01*
X8093939Y34164478D01*
X8028276Y34066207D01*
X7983047Y33957014D01*
X7959989Y33841095D01*
X7959989Y33722905D01*
X7983047Y33606986D01*
X8028276Y33497793D01*
X8093939Y33399522D01*
X8177511Y33315950D01*
X8275782Y33250287D01*
X8384975Y33205058D01*
X8500894Y33182000D01*
X8619084Y33182000D01*
X8735003Y33205058D01*
X8844196Y33250287D01*
X8942467Y33315950D01*
X9008517Y33382000D01*
X9711472Y33382000D01*
X9777522Y33315950D01*
X9875793Y33250287D01*
X9984986Y33205058D01*
X10100905Y33182000D01*
X10219095Y33182000D01*
X10335014Y33205058D01*
X10444207Y33250287D01*
X10542478Y33315950D01*
X10626050Y33399522D01*
X10691713Y33497793D01*
X10736942Y33606986D01*
X10760000Y33722905D01*
X10760000Y33841095D01*
X10736942Y33957014D01*
X10691713Y34066207D01*
X10626050Y34164478D01*
X10610000Y34180528D01*
X10610000Y34357605D01*
X10981396Y34729000D01*
X12767605Y34729000D01*
X14472500Y33024104D01*
X14472501Y32634897D01*
X13921433Y32083828D01*
X13904263Y32069737D01*
X13890172Y32052567D01*
X13848029Y32001216D01*
X13827982Y31963710D01*
X13806243Y31923040D01*
X13780511Y31838214D01*
X13774000Y31772104D01*
X13774000Y31772094D01*
X13771824Y31750000D01*
X13774000Y31727905D01*
X13774001Y31148112D01*
X13771824Y31126008D01*
X13780512Y31037793D01*
X13806243Y30952968D01*
X13848029Y30874792D01*
X13890172Y30823441D01*
X13890177Y30823436D01*
X13904264Y30806271D01*
X13921429Y30792184D01*
X14312542Y30401070D01*
X14265950Y30354478D01*
X14200287Y30256207D01*
X14155058Y30147014D01*
X14132000Y30031095D01*
X14132000Y29912905D01*
X14155058Y29796986D01*
X14200287Y29687793D01*
X14265950Y29589522D01*
X14349522Y29505950D01*
X14447793Y29440287D01*
X14556986Y29395058D01*
X14672905Y29372000D01*
X14763885Y29372000D01*
X14765289Y29370289D01*
X14780547Y29357767D01*
X14780549Y29357765D01*
X14826197Y29320303D01*
X14895686Y29283160D01*
X14971086Y29260288D01*
X15049500Y29252565D01*
X15069147Y29254500D01*
X16850935Y29254500D01*
X16760884Y29119729D01*
X16674194Y28910443D01*
X16630000Y28688265D01*
X16630000Y28461735D01*
X16674194Y28239557D01*
X16760884Y28030271D01*
X16886737Y27841918D01*
X17046918Y27681737D01*
X17235271Y27555884D01*
X17444557Y27469194D01*
X17666735Y27425000D01*
X17893265Y27425000D01*
X18115443Y27469194D01*
X18324729Y27555884D01*
X18513082Y27681737D01*
X18673263Y27841918D01*
X18799116Y28030271D01*
X18885806Y28239557D01*
X18930000Y28461735D01*
X18930000Y28688265D01*
X18885806Y28910443D01*
X18799116Y29119729D01*
X18673263Y29308082D01*
X18513082Y29468263D01*
X18324729Y29594116D01*
X18115443Y29680806D01*
X17893265Y29725000D01*
X17732885Y29725000D01*
X17745000Y29785907D01*
X17745000Y29904097D01*
X17732885Y29965000D01*
X17893265Y29965000D01*
X18115443Y30009194D01*
X18175978Y30034269D01*
X18190548Y29961023D01*
X18235777Y29851830D01*
X18301440Y29753559D01*
X18385012Y29669987D01*
X18483283Y29604324D01*
X18592476Y29559095D01*
X18708395Y29536037D01*
X18826585Y29536037D01*
X18942504Y29559095D01*
X18967501Y29569449D01*
X18967501Y25666187D01*
X18893824Y25739864D01*
X18930000Y25921735D01*
X18930000Y26148265D01*
X18885806Y26370443D01*
X18799116Y26579729D01*
X18673263Y26768082D01*
X18513082Y26928263D01*
X18324729Y27054116D01*
X18115443Y27140806D01*
X17893265Y27185000D01*
X17666735Y27185000D01*
X17444557Y27140806D01*
X17235271Y27054116D01*
X17046918Y26928263D01*
X16886737Y26768082D01*
X16760884Y26579729D01*
X16674194Y26370443D01*
X16630000Y26148265D01*
X16630000Y25921735D01*
X16674194Y25699557D01*
X16760884Y25490271D01*
X16886737Y25301918D01*
X17046918Y25141737D01*
X17235271Y25015884D01*
X17444557Y24929194D01*
X17666735Y24885000D01*
X17893265Y24885000D01*
X18115443Y24929194D01*
X18324729Y25015884D01*
X18421663Y25080653D01*
X18567489Y24934827D01*
X18567489Y24333856D01*
X18513082Y24388263D01*
X18324729Y24514116D01*
X18115443Y24600806D01*
X17893265Y24645000D01*
X17666735Y24645000D01*
X17444557Y24600806D01*
X17235271Y24514116D01*
X17046918Y24388263D01*
X16886737Y24228082D01*
X16760884Y24039729D01*
X16674194Y23830443D01*
X16630000Y23608265D01*
X16630000Y23381735D01*
X16674194Y23159557D01*
X16760884Y22950271D01*
X16886737Y22761918D01*
X17046918Y22601737D01*
X17068578Y22587264D01*
X16133058Y21651743D01*
X16117800Y21639221D01*
X16105278Y21623963D01*
X16105275Y21623960D01*
X16067813Y21578312D01*
X16030671Y21508824D01*
X16007798Y21433423D01*
X16000075Y21355010D01*
X16002011Y21335354D01*
X16002010Y20758695D01*
X15836315Y20593000D01*
X8928685Y20593000D01*
X8782000Y20739685D01*
X8782000Y22284472D01*
X8848050Y22350522D01*
X8913713Y22448793D01*
X8958942Y22557986D01*
X8982000Y22673905D01*
X8982000Y22792095D01*
X8958942Y22908014D01*
X8913713Y23017207D01*
X8848050Y23115478D01*
X8764478Y23199050D01*
X8666207Y23264713D01*
X8557014Y23309942D01*
X8526292Y23316053D01*
X8537500Y23372401D01*
X8537500Y23490591D01*
X8514442Y23606510D01*
X8469213Y23715703D01*
X8403550Y23813974D01*
X8319978Y23897546D01*
X8221707Y23963209D01*
X8112514Y24008438D01*
X7996595Y24031496D01*
X7878405Y24031496D01*
X7762486Y24008438D01*
X7653293Y23963209D01*
X7555022Y23897546D01*
X7471450Y23813974D01*
X7405787Y23715703D01*
X7360558Y23606510D01*
X7337500Y23490591D01*
X7337500Y23372401D01*
X7341642Y23351580D01*
X7324323Y23294490D01*
X7287014Y23309944D01*
X7171095Y23333002D01*
X7052905Y23333002D01*
X6936986Y23309944D01*
X6911999Y23299594D01*
X6911999Y23640362D01*
X7035742Y23764105D01*
X7129152Y23764105D01*
X7245071Y23787163D01*
X7354264Y23832392D01*
X7452535Y23898055D01*
X7536107Y23981627D01*
X7601770Y24079898D01*
X7646999Y24189091D01*
X7670057Y24305010D01*
X7670057Y24423200D01*
X7646999Y24539119D01*
X7601770Y24648312D01*
X7536107Y24746583D01*
X7452535Y24830155D01*
X7354264Y24895818D01*
X7245071Y24941047D01*
X7129152Y24964105D01*
X7010962Y24964105D01*
X6960531Y24954074D01*
X7291322Y25284864D01*
X7384731Y25284864D01*
X7500650Y25307922D01*
X7609843Y25353151D01*
X7708114Y25418814D01*
X7791686Y25502386D01*
X7857349Y25600657D01*
X7902578Y25709850D01*
X7925636Y25825769D01*
X7925636Y25943959D01*
X7902578Y26059878D01*
X7857349Y26169071D01*
X7791686Y26267342D01*
X7708114Y26350914D01*
X7609843Y26416577D01*
X7500650Y26461806D01*
X7384731Y26484864D01*
X7266541Y26484864D01*
X7150622Y26461806D01*
X7041429Y26416577D01*
X6943158Y26350914D01*
X6859586Y26267342D01*
X6793923Y26169071D01*
X6748694Y26059878D01*
X6725636Y25943959D01*
X6725636Y25850550D01*
X5843037Y24967950D01*
X5827779Y24955428D01*
X5815257Y24940170D01*
X5815254Y24940167D01*
X5777792Y24894519D01*
X5740650Y24825031D01*
X5717777Y24749630D01*
X5710054Y24671217D01*
X4847600Y24671217D01*
X5719382Y25542999D01*
X5857353Y25542999D01*
X5876999Y25541064D01*
X5896645Y25542999D01*
X5896646Y25542999D01*
X5955413Y25548787D01*
X6030813Y25571659D01*
X6100302Y25608802D01*
X6161210Y25658788D01*
X6173736Y25674051D01*
X6428454Y25928768D01*
X6443711Y25941289D01*
X6460805Y25962119D01*
X6618944Y26120258D01*
X6634211Y26132787D01*
X6684197Y26193695D01*
X6721340Y26263184D01*
X6744212Y26338584D01*
X6750000Y26397351D01*
X6750000Y26397352D01*
X6751935Y26416998D01*
X6750000Y26436645D01*
X6750000Y27393315D01*
X8103186Y28746500D01*
X10394354Y28746500D01*
X10414000Y28744565D01*
X10433646Y28746500D01*
X10433647Y28746500D01*
X10492414Y28752288D01*
X10567814Y28775160D01*
X10637303Y28812303D01*
X10698211Y28862289D01*
X10710737Y28877552D01*
X11127454Y29294268D01*
X11142711Y29306789D01*
X11157658Y29325001D01*
X11192697Y29367697D01*
X11229840Y29437185D01*
X11252712Y29512586D01*
X11260435Y29591000D01*
X11258500Y29610646D01*
X11258500Y31901815D01*
X11804488Y32447803D01*
X11819750Y32460328D01*
X11869736Y32521236D01*
X11906879Y32590725D01*
X11929751Y32666125D01*
X11935539Y32724892D01*
X11935539Y32724893D01*
X11937474Y32744539D01*
X11935539Y32764186D01*
X11935539Y33483222D01*
X12001589Y33549272D01*
X12067252Y33647543D01*
X12112481Y33756736D01*
X12135539Y33872655D01*
X12135539Y33990845D01*
X12112481Y34106764D01*
X12067252Y34215957D01*
X12001589Y34314228D01*
X11918017Y34397800D01*
X11819746Y34463463D01*
X11710553Y34508692D01*
X11594634Y34531750D01*
X11476444Y34531750D01*
X11360525Y34508692D01*
X11251332Y34463463D01*
X11153061Y34397800D01*
X11069489Y34314228D01*
X11003826Y34215957D01*
X10958597Y34106764D01*
X10935539Y33990845D01*
X10935539Y33872655D01*
X10958597Y33756736D01*
X11003826Y33647543D01*
X11069489Y33549272D01*
X11135540Y33483221D01*
X11135539Y32910224D01*
X10589548Y32364233D01*
X10574290Y32351711D01*
X10561768Y32336453D01*
X10561765Y32336450D01*
X10524303Y32290802D01*
X10487161Y32221314D01*
X10464288Y32145913D01*
X10456565Y32067500D01*
X10458501Y32047844D01*
X10458500Y29756686D01*
X10248315Y29546500D01*
X7957146Y29546500D01*
X7937499Y29548435D01*
X7917853Y29546500D01*
X7859086Y29540712D01*
X7783686Y29517840D01*
X7714197Y29480697D01*
X7668549Y29443235D01*
X7668547Y29443233D01*
X7653289Y29430711D01*
X7640767Y29415453D01*
X6185884Y27960569D01*
X6103783Y28042670D01*
X6005512Y28108333D01*
X5896319Y28153562D01*
X5780400Y28176620D01*
X5662210Y28176620D01*
X5546291Y28153562D01*
X5437098Y28108333D01*
X5338827Y28042670D01*
X5255255Y27959098D01*
X5189592Y27860827D01*
X5184687Y27848984D01*
X5181887Y27845573D01*
X3771315Y26435000D01*
X3619065Y26435000D01*
X3559116Y26579729D01*
X3433263Y26768082D01*
X3273082Y26928263D01*
X3084729Y27054116D01*
X2875443Y27140806D01*
X2653265Y27185000D01*
X2426735Y27185000D01*
X2204557Y27140806D01*
X1995271Y27054116D01*
X1806918Y26928263D01*
X1646737Y26768082D01*
X1600030Y26698180D01*
X1600030Y27911820D01*
X1646737Y27841918D01*
X1806918Y27681737D01*
X1995271Y27555884D01*
X2204557Y27469194D01*
X2426735Y27425000D01*
X2653265Y27425000D01*
X2875443Y27469194D01*
X2967181Y27507194D01*
X2979058Y27447486D01*
X3024287Y27338293D01*
X3089950Y27240022D01*
X3173522Y27156450D01*
X3271793Y27090787D01*
X3380986Y27045558D01*
X3496905Y27022500D01*
X3615095Y27022500D01*
X3731014Y27045558D01*
X3840207Y27090787D01*
X3938478Y27156450D01*
X4022050Y27240022D01*
X4030702Y27252971D01*
X4096803Y27288303D01*
X4157711Y27338289D01*
X4170237Y27353552D01*
X6061685Y29245000D01*
X6155095Y29245000D01*
X6271014Y29268058D01*
X6380207Y29313287D01*
X6478478Y29378950D01*
X6562050Y29462522D01*
X6627713Y29560793D01*
X6672942Y29669986D01*
X6696000Y29785905D01*
X6696000Y29904095D01*
X6672942Y30020014D01*
X6627713Y30129207D01*
X6562050Y30227478D01*
X6500028Y30289500D01*
X6562050Y30351522D01*
X6627713Y30449793D01*
X6672942Y30558986D01*
X6696000Y30674905D01*
X6696000Y30793095D01*
X6672942Y30909014D01*
X6627713Y31018207D01*
X6562050Y31116478D01*
X6478478Y31200050D01*
X6380207Y31265713D01*
X6271014Y31310942D01*
X6155095Y31334000D01*
X6036905Y31334000D01*
X5920986Y31310942D01*
X5811793Y31265713D01*
X5713522Y31200050D01*
X5647472Y31134000D01*
X5456558Y31134000D01*
X5436911Y31135935D01*
X5358497Y31128212D01*
X5283097Y31105340D01*
X5213608Y31068197D01*
X5167960Y31030735D01*
X5167958Y31030733D01*
X5152700Y31018211D01*
X5140178Y31002953D01*
X3892495Y29755269D01*
X3823865Y29755269D01*
X3585185Y29993949D01*
X3572659Y30009212D01*
X3511751Y30059198D01*
X3442262Y30096341D01*
X3366862Y30119213D01*
X3308095Y30125001D01*
X3308094Y30125001D01*
X3288448Y30126936D01*
X3268802Y30125001D01*
X3128306Y30125001D01*
X3273082Y30221737D01*
X3433263Y30381918D01*
X3559116Y30570271D01*
X3645806Y30779557D01*
X3690000Y31001735D01*
X3690000Y31228265D01*
X3645806Y31450443D01*
X3559116Y31659729D01*
X3433263Y31848082D01*
X3273082Y32008263D01*
X3084729Y32134116D01*
X2875443Y32220806D01*
X2653265Y32265000D01*
X2426735Y32265000D01*
X2204557Y32220806D01*
X1995271Y32134116D01*
X1806918Y32008263D01*
X1646737Y31848082D01*
X1520884Y31659729D01*
X1434194Y31450443D01*
X1390000Y31228265D01*
X1390000Y31001735D01*
X1434194Y30779557D01*
X1520884Y30570271D01*
X1646737Y30381918D01*
X1806918Y30221737D01*
X1953834Y30123571D01*
X1909585Y30119213D01*
X1834185Y30096341D01*
X1764696Y30059198D01*
X1703788Y30009212D01*
X1691262Y29993949D01*
X1200020Y29502707D01*
X1200020Y32701835D01*
X1555961Y33057775D01*
X1646737Y32921918D01*
X1806918Y32761737D01*
X1995271Y32635884D01*
X2204557Y32549194D01*
X2426735Y32505000D01*
X2653265Y32505000D01*
X2875443Y32549194D01*
X3084729Y32635884D01*
X3273082Y32761737D01*
X3433263Y32921918D01*
X3559116Y33110271D01*
X3619065Y33255000D01*
X4302553Y33255000D01*
X5427294Y32130258D01*
X5427294Y32036849D01*
X5450352Y31920930D01*
X5495581Y31811737D01*
X5561244Y31713466D01*
X5644816Y31629894D01*
X5743087Y31564231D01*
X5852280Y31519002D01*
X5968199Y31495944D01*
X6086389Y31495944D01*
X6202308Y31519002D01*
X6311501Y31564231D01*
X6409772Y31629894D01*
X6493344Y31713466D01*
X6559007Y31811737D01*
X6604236Y31920930D01*
X6627294Y32036849D01*
X6627294Y32155039D01*
X6604236Y32270958D01*
X6559007Y32380151D01*
X6508006Y32456478D01*
X6562050Y32510522D01*
X6627713Y32608793D01*
X6672942Y32717986D01*
X6696000Y32833905D01*
X6696000Y32952095D01*
X6672942Y33068014D01*
X6627713Y33177207D01*
X6562050Y33275478D01*
X6478478Y33359050D01*
X6380207Y33424713D01*
X6271014Y33469942D01*
X6155095Y33493000D01*
X6036905Y33493000D01*
X5920986Y33469942D01*
X5857174Y33443511D01*
X4932237Y34368448D01*
X4919711Y34383711D01*
X4858803Y34433697D01*
X4789314Y34470840D01*
X4713914Y34493712D01*
X4655147Y34499500D01*
X4655146Y34499500D01*
X4635500Y34501435D01*
X4615854Y34499500D01*
X4440422Y34499500D01*
X3451183Y35488738D01*
X3559116Y35650271D01*
X3645806Y35859557D01*
X3690000Y36081735D01*
X3690000Y36308265D01*
X3645806Y36530443D01*
X3559116Y36739729D01*
X3433263Y36928082D01*
X3273082Y37088263D01*
X3084729Y37214116D01*
X2875443Y37300806D01*
X2653265Y37345000D01*
X2426735Y37345000D01*
X2204557Y37300806D01*
X1995271Y37214116D01*
X1806918Y37088263D01*
X1646737Y36928082D01*
X1520884Y36739729D01*
X1434194Y36530443D01*
X1390000Y36308265D01*
X1390000Y36081735D01*
X1434194Y35859557D01*
X1520884Y35650271D01*
X1646737Y35461918D01*
X1761485Y35347170D01*
X400000Y33985685D01*
X400000Y38848265D01*
X1390000Y38848265D01*
X1390000Y38621735D01*
X1434194Y38399557D01*
X1520884Y38190271D01*
X1646737Y38001918D01*
X1806918Y37841737D01*
X1995271Y37715884D01*
X2204557Y37629194D01*
X2426735Y37585000D01*
X2653265Y37585000D01*
X2875443Y37629194D01*
X3020172Y37689143D01*
X4680001Y36029314D01*
X4680000Y35008147D01*
X4678065Y34988500D01*
X4680699Y34961757D01*
X4685788Y34910087D01*
X4708660Y34834687D01*
X4745803Y34765198D01*
X4795789Y34704289D01*
X4811053Y34691762D01*
X4973759Y34529057D01*
X4986289Y34513789D01*
X5047197Y34463803D01*
X5103521Y34433697D01*
X5116686Y34426660D01*
X5192086Y34403788D01*
X5270500Y34396065D01*
X5290147Y34398000D01*
X6067319Y34398000D01*
X6891899Y33573420D01*
X6849407Y33509827D01*
X6804178Y33400634D01*
X6781120Y33284715D01*
X6781120Y33166525D01*
X6804178Y33050606D01*
X6849407Y32941413D01*
X6915070Y32843142D01*
X6998642Y32759570D01*
X7096913Y32693907D01*
X7206106Y32648678D01*
X7322025Y32625620D01*
X7440215Y32625620D01*
X7556134Y32648678D01*
X7665327Y32693907D01*
X7763598Y32759570D01*
X7847170Y32843142D01*
X7912833Y32941413D01*
X7958062Y33050606D01*
X7981120Y33166525D01*
X7981120Y33284715D01*
X7958062Y33400634D01*
X7912833Y33509827D01*
X7847170Y33608098D01*
X7780616Y33674652D01*
X7775332Y33728298D01*
X7752460Y33803698D01*
X7715317Y33873187D01*
X7665331Y33934095D01*
X7650073Y33946617D01*
X6529740Y35066949D01*
X6517215Y35082211D01*
X6456307Y35132197D01*
X6386818Y35169340D01*
X6311418Y35192212D01*
X6252651Y35198000D01*
X6252650Y35198000D01*
X6233004Y35199935D01*
X6213358Y35198000D01*
X5480000Y35198000D01*
X5480000Y36175365D01*
X5481934Y36195001D01*
X5480000Y36214637D01*
X5480000Y36214647D01*
X5474212Y36273414D01*
X5451340Y36348814D01*
X5414197Y36418303D01*
X5364211Y36479211D01*
X5348948Y36491737D01*
X3585857Y38254828D01*
X3645806Y38399557D01*
X3690000Y38621735D01*
X3690000Y38848265D01*
X16630000Y38848265D01*
X16630000Y38621735D01*
X16674194Y38399557D01*
X16760884Y38190271D01*
X16886737Y38001918D01*
X17046918Y37841737D01*
X17235271Y37715884D01*
X17444557Y37629194D01*
X17666735Y37585000D01*
X17893265Y37585000D01*
X18115443Y37629194D01*
X18324729Y37715884D01*
X18513082Y37841737D01*
X18673263Y38001918D01*
X18799116Y38190271D01*
X18885806Y38399557D01*
X18930000Y38621735D01*
X18930000Y38848265D01*
X18885806Y39070443D01*
X18799116Y39279729D01*
X18673263Y39468082D01*
X18513082Y39628263D01*
X18324729Y39754116D01*
X18115443Y39840806D01*
X17893265Y39885000D01*
X17666735Y39885000D01*
X17444557Y39840806D01*
X17235271Y39754116D01*
X17046918Y39628263D01*
X16886737Y39468082D01*
X16760884Y39279729D01*
X16674194Y39070443D01*
X16630000Y38848265D01*
X3690000Y38848265D01*
X3645806Y39070443D01*
X3559116Y39279729D01*
X3433263Y39468082D01*
X3273082Y39628263D01*
X3084729Y39754116D01*
X2875443Y39840806D01*
X2653265Y39885000D01*
X2426735Y39885000D01*
X2204557Y39840806D01*
X1995271Y39754116D01*
X1806918Y39628263D01*
X1646737Y39468082D01*
X1520884Y39279729D01*
X1434194Y39070443D01*
X1390000Y38848265D01*
X400000Y38848265D01*
X400000Y41030229D01*
X1314199Y41030229D01*
X1384795Y40797500D01*
X1500148Y40581306D01*
X1655461Y40391770D01*
X1844767Y40236176D01*
X2060790Y40120503D01*
X2295229Y40049197D01*
X2490000Y40125998D01*
X2490000Y41225000D01*
X2590000Y41225000D01*
X2590000Y40125998D01*
X2784771Y40049197D01*
X3019210Y40120503D01*
X3235233Y40236176D01*
X3424539Y40391770D01*
X3579852Y40581306D01*
X3695205Y40797500D01*
X3734366Y40926600D01*
X4940000Y40926600D01*
X4940000Y40376600D01*
X4967048Y40201979D01*
X5027643Y40035991D01*
X5119456Y39885013D01*
X5238959Y39754848D01*
X5381560Y39650498D01*
X5541779Y39575973D01*
X5650042Y39546875D01*
X5790000Y39628164D01*
X5790000Y40926600D01*
X5890000Y40926600D01*
X5890000Y39628164D01*
X6029958Y39546875D01*
X6138221Y39575973D01*
X6298440Y39650498D01*
X6441041Y39754848D01*
X6560544Y39885013D01*
X6652357Y40035991D01*
X6712952Y40201979D01*
X6740000Y40376600D01*
X6740000Y40926600D01*
X5890000Y40926600D01*
X5790000Y40926600D01*
X4940000Y40926600D01*
X3734366Y40926600D01*
X3765801Y41030229D01*
X3688913Y41225000D01*
X2590000Y41225000D01*
X2490000Y41225000D01*
X1391087Y41225000D01*
X1314199Y41030229D01*
X400000Y41030229D01*
X400000Y41519771D01*
X1314199Y41519771D01*
X1391087Y41325000D01*
X2490000Y41325000D01*
X2490000Y42424002D01*
X2590000Y42424002D01*
X2590000Y41325000D01*
X3688913Y41325000D01*
X3745887Y41469327D01*
X3786287Y41371793D01*
X3851950Y41273522D01*
X3935522Y41189950D01*
X4033793Y41124287D01*
X4142986Y41079058D01*
X4258905Y41056000D01*
X4377095Y41056000D01*
X4493014Y41079058D01*
X4602207Y41124287D01*
X4700478Y41189950D01*
X4784050Y41273522D01*
X4849713Y41371793D01*
X4894942Y41480986D01*
X4913961Y41576600D01*
X4940000Y41576600D01*
X4940000Y41026600D01*
X5790000Y41026600D01*
X5790000Y42325036D01*
X5650042Y42406325D01*
X5541779Y42377227D01*
X5381560Y42302702D01*
X5238959Y42198352D01*
X5119456Y42068187D01*
X5027643Y41917209D01*
X4967048Y41751221D01*
X4940000Y41576600D01*
X4913961Y41576600D01*
X4918000Y41596905D01*
X4918000Y41715095D01*
X4894942Y41831014D01*
X4849713Y41940207D01*
X4818000Y41987669D01*
X4818000Y42745277D01*
X4867950Y42670522D01*
X4951522Y42586950D01*
X5049793Y42521287D01*
X5158986Y42476058D01*
X5274905Y42453000D01*
X5393095Y42453000D01*
X5509014Y42476058D01*
X5618207Y42521287D01*
X5665669Y42553000D01*
X6650895Y42553000D01*
X7119906Y42083988D01*
X7087694Y42077581D01*
X6973952Y42030468D01*
X6871586Y41962069D01*
X6784531Y41875014D01*
X6716132Y41772648D01*
X6710284Y41758529D01*
X6652357Y41917209D01*
X6560544Y42068187D01*
X6441041Y42198352D01*
X6298440Y42302702D01*
X6138221Y42377227D01*
X6029958Y42406325D01*
X5890000Y42325036D01*
X5890000Y41026600D01*
X6740000Y41026600D01*
X6740000Y41144831D01*
X6784531Y41078186D01*
X6871586Y40991131D01*
X6973952Y40922732D01*
X7087694Y40875619D01*
X7208443Y40851600D01*
X7331557Y40851600D01*
X7452306Y40875619D01*
X7566048Y40922732D01*
X7668414Y40991131D01*
X7728457Y41051174D01*
X7905808Y40873823D01*
X7921473Y40854735D01*
X7997608Y40792253D01*
X8084470Y40745824D01*
X8150129Y40725907D01*
X8178719Y40717234D01*
X8276736Y40707580D01*
X8301296Y40709999D01*
X11975439Y40709999D01*
X11999999Y40707580D01*
X12024559Y40709999D01*
X12098016Y40717234D01*
X12192266Y40745824D01*
X12279128Y40792253D01*
X12355263Y40854735D01*
X12370928Y40873823D01*
X12569911Y41072806D01*
X12651586Y40991131D01*
X12753952Y40922732D01*
X12867694Y40875619D01*
X12988443Y40851600D01*
X13111557Y40851600D01*
X13232306Y40875619D01*
X13346048Y40922732D01*
X13351836Y40926600D01*
X13580000Y40926600D01*
X13580000Y40376600D01*
X13607048Y40201979D01*
X13667643Y40035991D01*
X13759456Y39885013D01*
X13878959Y39754848D01*
X14021560Y39650498D01*
X14181779Y39575973D01*
X14290042Y39546875D01*
X14430000Y39628164D01*
X14430000Y40926600D01*
X14530000Y40926600D01*
X14530000Y39628164D01*
X14669958Y39546875D01*
X14778221Y39575973D01*
X14938440Y39650498D01*
X15081041Y39754848D01*
X15200544Y39885013D01*
X15292357Y40035991D01*
X15352952Y40201979D01*
X15380000Y40376600D01*
X15380000Y40926600D01*
X14530000Y40926600D01*
X14430000Y40926600D01*
X13580000Y40926600D01*
X13351836Y40926600D01*
X13448414Y40991131D01*
X13535469Y41078186D01*
X13580000Y41144831D01*
X13580000Y41026600D01*
X14430000Y41026600D01*
X14430000Y41046600D01*
X14530000Y41046600D01*
X14530000Y41026600D01*
X15380000Y41026600D01*
X15380000Y41388265D01*
X16630000Y41388265D01*
X16630000Y41161735D01*
X16674194Y40939557D01*
X16760884Y40730271D01*
X16886737Y40541918D01*
X17046918Y40381737D01*
X17235271Y40255884D01*
X17444557Y40169194D01*
X17666735Y40125000D01*
X17893265Y40125000D01*
X18115443Y40169194D01*
X18324729Y40255884D01*
X18513082Y40381737D01*
X18673263Y40541918D01*
X18799116Y40730271D01*
X18885806Y40939557D01*
X18930000Y41161735D01*
X18930000Y41388265D01*
X18885806Y41610443D01*
X18799116Y41819729D01*
X18673263Y42008082D01*
X18513082Y42168263D01*
X18324729Y42294116D01*
X18115443Y42380806D01*
X17893265Y42425000D01*
X17666735Y42425000D01*
X17444557Y42380806D01*
X17235271Y42294116D01*
X17046918Y42168263D01*
X16886737Y42008082D01*
X16760884Y41819729D01*
X16674194Y41610443D01*
X16630000Y41388265D01*
X15380000Y41388265D01*
X15380000Y41510000D01*
X15855354Y41510000D01*
X15875000Y41508065D01*
X15894646Y41510000D01*
X15894647Y41510000D01*
X15953414Y41515788D01*
X16028814Y41538660D01*
X16098303Y41575803D01*
X16159211Y41625789D01*
X16171737Y41641052D01*
X16524949Y41994264D01*
X16540211Y42006789D01*
X16590197Y42067697D01*
X16627340Y42137186D01*
X16650212Y42212586D01*
X16650769Y42218241D01*
X16722050Y42289522D01*
X16787713Y42387793D01*
X16832942Y42496986D01*
X16856000Y42612905D01*
X16856000Y42673949D01*
X16871190Y42669341D01*
X16930000Y42663549D01*
X18630000Y42663549D01*
X18688810Y42669341D01*
X18745360Y42686496D01*
X18797477Y42714353D01*
X18843158Y42751842D01*
X18880647Y42797523D01*
X18908504Y42849640D01*
X18925659Y42906190D01*
X18931451Y42965000D01*
X18931451Y44665000D01*
X18925659Y44723810D01*
X18908504Y44780360D01*
X18880647Y44832477D01*
X18843158Y44878158D01*
X18797477Y44915647D01*
X18745360Y44943504D01*
X18688810Y44960659D01*
X18630000Y44966451D01*
X16930000Y44966451D01*
X16871190Y44960659D01*
X16814640Y44943504D01*
X16762523Y44915647D01*
X16716842Y44878158D01*
X16679353Y44832477D01*
X16651496Y44780360D01*
X16634341Y44723810D01*
X16628549Y44665000D01*
X16628549Y44310332D01*
X16602483Y44307765D01*
X16508233Y44279175D01*
X16421371Y44232746D01*
X16345236Y44170264D01*
X16329579Y44151186D01*
X16088415Y43910021D01*
X14851420Y43910021D01*
X14938440Y43950498D01*
X15081041Y44054848D01*
X15200544Y44185013D01*
X15292357Y44335991D01*
X15352952Y44501979D01*
X15380000Y44676600D01*
X15380000Y45076600D01*
X14530000Y45076600D01*
X14530000Y45056600D01*
X14430000Y45056600D01*
X14430000Y45076600D01*
X13580000Y45076600D01*
X13580000Y44676600D01*
X13607048Y44501979D01*
X13667643Y44335991D01*
X13759456Y44185013D01*
X13878959Y44054848D01*
X14021560Y43950498D01*
X14108580Y43910021D01*
X7787585Y43910021D01*
X7546428Y44151177D01*
X7530764Y44170264D01*
X7454629Y44232746D01*
X7367767Y44279175D01*
X7273517Y44307765D01*
X7200060Y44315000D01*
X7175500Y44317419D01*
X7150940Y44315000D01*
X6639592Y44315000D01*
X6652357Y44335991D01*
X6712952Y44501979D01*
X6740000Y44676600D01*
X6740000Y45076600D01*
X5890000Y45076600D01*
X5890000Y45056600D01*
X5790000Y45056600D01*
X5790000Y45076600D01*
X4940000Y45076600D01*
X4940000Y44676600D01*
X4967048Y44501979D01*
X5027643Y44335991D01*
X5040408Y44315000D01*
X4850549Y44315000D01*
X4825999Y44317418D01*
X4801449Y44315000D01*
X4801440Y44315000D01*
X4727983Y44307765D01*
X4633733Y44279175D01*
X4546871Y44232746D01*
X4470736Y44170264D01*
X4455079Y44151186D01*
X3981823Y43677929D01*
X3962736Y43662264D01*
X3900254Y43586129D01*
X3853825Y43499266D01*
X3841834Y43459736D01*
X3825235Y43405017D01*
X3815581Y43307000D01*
X3818000Y43282440D01*
X3818001Y41987670D01*
X3786287Y41940207D01*
X3741058Y41831014D01*
X3718000Y41715095D01*
X3718000Y41677353D01*
X3695205Y41752500D01*
X3579852Y41968694D01*
X3424539Y42158230D01*
X3235233Y42313824D01*
X3019210Y42429497D01*
X2784771Y42500803D01*
X2590000Y42424002D01*
X2490000Y42424002D01*
X2295229Y42500803D01*
X2060790Y42429497D01*
X1844767Y42313824D01*
X1655461Y42158230D01*
X1500148Y41968694D01*
X1384795Y41752500D01*
X1314199Y41519771D01*
X400000Y41519771D01*
X400000Y44665000D01*
X1388549Y44665000D01*
X1388549Y42965000D01*
X1394341Y42906190D01*
X1411496Y42849640D01*
X1439353Y42797523D01*
X1476842Y42751842D01*
X1522523Y42714353D01*
X1574640Y42686496D01*
X1631190Y42669341D01*
X1690000Y42663549D01*
X3390000Y42663549D01*
X3448810Y42669341D01*
X3505360Y42686496D01*
X3557477Y42714353D01*
X3603158Y42751842D01*
X3640647Y42797523D01*
X3668504Y42849640D01*
X3685659Y42906190D01*
X3691451Y42965000D01*
X3691451Y44665000D01*
X3685659Y44723810D01*
X3668504Y44780360D01*
X3640647Y44832477D01*
X3603158Y44878158D01*
X3557477Y44915647D01*
X3505360Y44943504D01*
X3448810Y44960659D01*
X3390000Y44966451D01*
X1690000Y44966451D01*
X1631190Y44960659D01*
X1574640Y44943504D01*
X1522523Y44915647D01*
X1476842Y44878158D01*
X1439353Y44832477D01*
X1411496Y44780360D01*
X1394341Y44723810D01*
X1388549Y44665000D01*
X400000Y44665000D01*
X400000Y45955000D01*
X5050625Y45955000D01*
X5027643Y45917209D01*
G37*
%TD.AperFunction*%
D16*
X15451263Y13066052D02*
X15463789Y13050789D01*
X15524697Y13000803D01*
X15594186Y12963660D01*
X15669586Y12940788D01*
X15728353Y12935000D01*
X15728363Y12935000D01*
X15747999Y12933066D01*
X15767635Y12935000D01*
X16700935Y12935000D01*
X16760884Y12790271D01*
X16886737Y12601918D01*
X17046918Y12441737D01*
X17235271Y12315884D01*
X17444557Y12229194D01*
X17666735Y12185000D01*
X17893265Y12185000D01*
X18115443Y12229194D01*
X18142001Y12240195D01*
X18142000Y11889806D01*
X18115443Y11900806D01*
X17893265Y11945000D01*
X17666735Y11945000D01*
X17444557Y11900806D01*
X17235271Y11814116D01*
X17046918Y11688263D01*
X16886737Y11528082D01*
X16760884Y11339729D01*
X16700935Y11195000D01*
X16358186Y11195000D01*
X14223990Y13329195D01*
X14223990Y14293325D01*
X15451263Y13066052D01*
%TA.AperFunction,Conductor*%
D19*
G36*
X15451263Y13066052D02*
G01*
X15463789Y13050789D01*
X15524697Y13000803D01*
X15594186Y12963660D01*
X15669586Y12940788D01*
X15728353Y12935000D01*
X15728363Y12935000D01*
X15747999Y12933066D01*
X15767635Y12935000D01*
X16700935Y12935000D01*
X16760884Y12790271D01*
X16886737Y12601918D01*
X17046918Y12441737D01*
X17235271Y12315884D01*
X17444557Y12229194D01*
X17666735Y12185000D01*
X17893265Y12185000D01*
X18115443Y12229194D01*
X18142001Y12240195D01*
X18142000Y11889806D01*
X18115443Y11900806D01*
X17893265Y11945000D01*
X17666735Y11945000D01*
X17444557Y11900806D01*
X17235271Y11814116D01*
X17046918Y11688263D01*
X16886737Y11528082D01*
X16760884Y11339729D01*
X16700935Y11195000D01*
X16358186Y11195000D01*
X14223990Y13329195D01*
X14223990Y14293325D01*
X15451263Y13066052D01*
G37*
%TD.AperFunction*%
D16*
X16734143Y18895172D02*
X16674194Y18750443D01*
X16630000Y18528265D01*
X16630000Y18301735D01*
X16674194Y18079557D01*
X16760884Y17870271D01*
X16886737Y17681918D01*
X17046918Y17521737D01*
X17191694Y17425001D01*
X16313170Y17425001D01*
X16293534Y17426935D01*
X16273898Y17425001D01*
X16273888Y17425001D01*
X16215121Y17419213D01*
X16139721Y17396341D01*
X16070232Y17359198D01*
X16070230Y17359197D01*
X16070231Y17359197D01*
X16024584Y17321736D01*
X16024582Y17321734D01*
X16009324Y17309212D01*
X15996802Y17293954D01*
X15972814Y17269966D01*
X15879405Y17269966D01*
X15763486Y17246908D01*
X15654293Y17201679D01*
X15556022Y17136016D01*
X15472450Y17052444D01*
X15406787Y16954173D01*
X15361558Y16844980D01*
X15338500Y16729061D01*
X15338500Y16610871D01*
X15361558Y16494952D01*
X15406787Y16385759D01*
X15472450Y16287488D01*
X15556022Y16203916D01*
X15654293Y16138253D01*
X15763486Y16093024D01*
X15879405Y16069966D01*
X15997595Y16069966D01*
X16113514Y16093024D01*
X16222707Y16138253D01*
X16320978Y16203916D01*
X16404550Y16287488D01*
X16470213Y16385759D01*
X16515442Y16494952D01*
X16538500Y16610871D01*
X16538500Y16625001D01*
X16786288Y16625001D01*
X16740148Y16568694D01*
X16624795Y16352500D01*
X16554199Y16119771D01*
X16631087Y15925000D01*
X17730000Y15925000D01*
X17730000Y15945000D01*
X17830000Y15945000D01*
X17830000Y15925000D01*
X17850000Y15925000D01*
X17850000Y15825000D01*
X17830000Y15825000D01*
X17830000Y14725998D01*
X18024771Y14649197D01*
X18142001Y14684853D01*
X18142000Y14429806D01*
X18115443Y14440806D01*
X17893265Y14485000D01*
X17666735Y14485000D01*
X17444557Y14440806D01*
X17235271Y14354116D01*
X17046918Y14228263D01*
X16886737Y14068082D01*
X16760884Y13879729D01*
X16700935Y13735000D01*
X15913685Y13735000D01*
X14624000Y15024685D01*
X14624000Y15630229D01*
X16554199Y15630229D01*
X16624795Y15397500D01*
X16740148Y15181306D01*
X16895461Y14991770D01*
X17084767Y14836176D01*
X17300790Y14720503D01*
X17535229Y14649197D01*
X17730000Y14725998D01*
X17730000Y15825000D01*
X16631087Y15825000D01*
X16554199Y15630229D01*
X14624000Y15630229D01*
X14624000Y17252365D01*
X14625934Y17272001D01*
X14624000Y17291637D01*
X14624000Y17291647D01*
X14618212Y17350414D01*
X14595340Y17425814D01*
X14558197Y17495303D01*
X14508211Y17556211D01*
X14492953Y17568733D01*
X13068705Y18992980D01*
X16636335Y18992980D01*
X16734143Y18895172D01*
%TA.AperFunction,Conductor*%
D19*
G36*
X16734143Y18895172D02*
G01*
X16674194Y18750443D01*
X16630000Y18528265D01*
X16630000Y18301735D01*
X16674194Y18079557D01*
X16760884Y17870271D01*
X16886737Y17681918D01*
X17046918Y17521737D01*
X17191694Y17425001D01*
X16313170Y17425001D01*
X16293534Y17426935D01*
X16273898Y17425001D01*
X16273888Y17425001D01*
X16215121Y17419213D01*
X16139721Y17396341D01*
X16070232Y17359198D01*
X16070230Y17359197D01*
X16070231Y17359197D01*
X16024584Y17321736D01*
X16024582Y17321734D01*
X16009324Y17309212D01*
X15996802Y17293954D01*
X15972814Y17269966D01*
X15879405Y17269966D01*
X15763486Y17246908D01*
X15654293Y17201679D01*
X15556022Y17136016D01*
X15472450Y17052444D01*
X15406787Y16954173D01*
X15361558Y16844980D01*
X15338500Y16729061D01*
X15338500Y16610871D01*
X15361558Y16494952D01*
X15406787Y16385759D01*
X15472450Y16287488D01*
X15556022Y16203916D01*
X15654293Y16138253D01*
X15763486Y16093024D01*
X15879405Y16069966D01*
X15997595Y16069966D01*
X16113514Y16093024D01*
X16222707Y16138253D01*
X16320978Y16203916D01*
X16404550Y16287488D01*
X16470213Y16385759D01*
X16515442Y16494952D01*
X16538500Y16610871D01*
X16538500Y16625001D01*
X16786288Y16625001D01*
X16740148Y16568694D01*
X16624795Y16352500D01*
X16554199Y16119771D01*
X16631087Y15925000D01*
X17730000Y15925000D01*
X17730000Y15945000D01*
X17830000Y15945000D01*
X17830000Y15925000D01*
X17850000Y15925000D01*
X17850000Y15825000D01*
X17830000Y15825000D01*
X17830000Y14725998D01*
X18024771Y14649197D01*
X18142001Y14684853D01*
X18142000Y14429806D01*
X18115443Y14440806D01*
X17893265Y14485000D01*
X17666735Y14485000D01*
X17444557Y14440806D01*
X17235271Y14354116D01*
X17046918Y14228263D01*
X16886737Y14068082D01*
X16760884Y13879729D01*
X16700935Y13735000D01*
X15913685Y13735000D01*
X14624000Y15024685D01*
X14624000Y15630229D01*
X16554199Y15630229D01*
X16624795Y15397500D01*
X16740148Y15181306D01*
X16895461Y14991770D01*
X17084767Y14836176D01*
X17300790Y14720503D01*
X17535229Y14649197D01*
X17730000Y14725998D01*
X17730000Y15825000D01*
X16631087Y15825000D01*
X16554199Y15630229D01*
X14624000Y15630229D01*
X14624000Y17252365D01*
X14625934Y17272001D01*
X14624000Y17291637D01*
X14624000Y17291647D01*
X14618212Y17350414D01*
X14595340Y17425814D01*
X14558197Y17495303D01*
X14508211Y17556211D01*
X14492953Y17568733D01*
X13068705Y18992980D01*
X16636335Y18992980D01*
X16734143Y18895172D01*
G37*
%TD.AperFunction*%
D16*
X11464315Y42510000D02*
X11370905Y42510000D01*
X11254986Y42486942D01*
X11145793Y42441713D01*
X11047522Y42376050D01*
X10963950Y42292478D01*
X10898287Y42194207D01*
X10853058Y42085014D01*
X10830000Y41969095D01*
X10830000Y41850905D01*
X10853058Y41734986D01*
X10863408Y41709999D01*
X9456592Y41709999D01*
X9466942Y41734986D01*
X9490000Y41850905D01*
X9490000Y41969095D01*
X9466942Y42085014D01*
X9421713Y42194207D01*
X9356050Y42292478D01*
X9311357Y42337171D01*
X9484197Y42510011D01*
X11464326Y42510011D01*
X11464315Y42510000D01*
%TA.AperFunction,Conductor*%
D19*
G36*
X11464315Y42510000D02*
G01*
X11370905Y42510000D01*
X11254986Y42486942D01*
X11145793Y42441713D01*
X11047522Y42376050D01*
X10963950Y42292478D01*
X10898287Y42194207D01*
X10853058Y42085014D01*
X10830000Y41969095D01*
X10830000Y41850905D01*
X10853058Y41734986D01*
X10863408Y41709999D01*
X9456592Y41709999D01*
X9466942Y41734986D01*
X9490000Y41850905D01*
X9490000Y41969095D01*
X9466942Y42085014D01*
X9421713Y42194207D01*
X9356050Y42292478D01*
X9311357Y42337171D01*
X9484197Y42510011D01*
X11464326Y42510011D01*
X11464315Y42510000D01*
G37*
%TD.AperFunction*%
D16*
X5115000Y26635686D02*
X3020172Y24540857D01*
X2875443Y24600806D01*
X2653265Y24645000D01*
X2426735Y24645000D01*
X2204557Y24600806D01*
X1995271Y24514116D01*
X1806918Y24388263D01*
X1646737Y24228082D01*
X1600030Y24158180D01*
X1600030Y25371820D01*
X1646737Y25301918D01*
X1806918Y25141737D01*
X1995271Y25015884D01*
X2204557Y24929194D01*
X2426735Y24885000D01*
X2653265Y24885000D01*
X2875443Y24929194D01*
X3084729Y25015884D01*
X3273082Y25141737D01*
X3433263Y25301918D01*
X3559116Y25490271D01*
X3619065Y25635000D01*
X3917354Y25635000D01*
X3937000Y25633065D01*
X3956646Y25635000D01*
X3956647Y25635000D01*
X4015414Y25640788D01*
X4090814Y25663660D01*
X4160303Y25700803D01*
X4221211Y25750789D01*
X4233737Y25766052D01*
X5115000Y26647314D01*
X5115000Y26635686D01*
%TA.AperFunction,Conductor*%
D19*
G36*
X5115000Y26635686D02*
G01*
X3020172Y24540857D01*
X2875443Y24600806D01*
X2653265Y24645000D01*
X2426735Y24645000D01*
X2204557Y24600806D01*
X1995271Y24514116D01*
X1806918Y24388263D01*
X1646737Y24228082D01*
X1600030Y24158180D01*
X1600030Y25371820D01*
X1646737Y25301918D01*
X1806918Y25141737D01*
X1995271Y25015884D01*
X2204557Y24929194D01*
X2426735Y24885000D01*
X2653265Y24885000D01*
X2875443Y24929194D01*
X3084729Y25015884D01*
X3273082Y25141737D01*
X3433263Y25301918D01*
X3559116Y25490271D01*
X3619065Y25635000D01*
X3917354Y25635000D01*
X3937000Y25633065D01*
X3956646Y25635000D01*
X3956647Y25635000D01*
X4015414Y25640788D01*
X4090814Y25663660D01*
X4160303Y25700803D01*
X4221211Y25750789D01*
X4233737Y25766052D01*
X5115000Y26647314D01*
X5115000Y26635686D01*
G37*
%TD.AperFunction*%
%TD*%
M02*
